%TF.GenerationSoftware,KiCad,Pcbnew,8.0.4*%
%TF.CreationDate,2024-09-26T20:40:34-05:00*%
%TF.ProjectId,solder_oven_PCB,736f6c64-6572-45f6-9f76-656e5f504342,rev?*%
%TF.SameCoordinates,Original*%
%TF.FileFunction,Soldermask,Bot*%
%TF.FilePolarity,Negative*%
%FSLAX46Y46*%
G04 Gerber Fmt 4.6, Leading zero omitted, Abs format (unit mm)*
G04 Created by KiCad (PCBNEW 8.0.4) date 2024-09-26 20:40:34*
%MOMM*%
%LPD*%
G01*
G04 APERTURE LIST*
G04 Aperture macros list*
%AMRoundRect*
0 Rectangle with rounded corners*
0 $1 Rounding radius*
0 $2 $3 $4 $5 $6 $7 $8 $9 X,Y pos of 4 corners*
0 Add a 4 corners polygon primitive as box body*
4,1,4,$2,$3,$4,$5,$6,$7,$8,$9,$2,$3,0*
0 Add four circle primitives for the rounded corners*
1,1,$1+$1,$2,$3*
1,1,$1+$1,$4,$5*
1,1,$1+$1,$6,$7*
1,1,$1+$1,$8,$9*
0 Add four rect primitives between the rounded corners*
20,1,$1+$1,$2,$3,$4,$5,0*
20,1,$1+$1,$4,$5,$6,$7,0*
20,1,$1+$1,$6,$7,$8,$9,0*
20,1,$1+$1,$8,$9,$2,$3,0*%
G04 Aperture macros list end*
%ADD10C,5.600000*%
%ADD11R,2.600000X2.600000*%
%ADD12C,2.600000*%
%ADD13R,1.700000X1.700000*%
%ADD14O,1.700000X1.700000*%
%ADD15C,1.400000*%
%ADD16O,1.400000X1.400000*%
%ADD17O,3.000000X1.500000*%
%ADD18R,2.000000X2.000000*%
%ADD19O,2.000000X2.000000*%
%ADD20R,1.800000X1.800000*%
%ADD21C,1.800000*%
%ADD22C,1.600000*%
%ADD23O,1.980000X3.960000*%
%ADD24R,1.980000X3.960000*%
%ADD25R,1.600000X1.600000*%
%ADD26O,1.600000X1.600000*%
%ADD27C,2.000000*%
%ADD28R,3.048000X3.048000*%
%ADD29C,3.048000*%
%ADD30RoundRect,0.250000X0.250000X0.475000X-0.250000X0.475000X-0.250000X-0.475000X0.250000X-0.475000X0*%
%ADD31RoundRect,0.250000X-0.550000X1.712500X-0.550000X-1.712500X0.550000X-1.712500X0.550000X1.712500X0*%
%ADD32R,1.100000X2.500000*%
%ADD33R,3.600000X2.340000*%
%ADD34RoundRect,0.250000X-1.712500X-0.550000X1.712500X-0.550000X1.712500X0.550000X-1.712500X0.550000X0*%
%ADD35R,2.060000X1.540000*%
%ADD36R,3.500000X6.000000*%
%ADD37R,1.020000X3.080000*%
%ADD38R,11.000000X8.500000*%
G04 APERTURE END LIST*
D10*
%TO.C,H3*%
X57450000Y-123913000D03*
%TD*%
D11*
%TO.C,P1*%
X133930000Y-123068000D03*
D12*
X139010000Y-123068000D03*
%TD*%
D13*
%TO.C,J1*%
X117545000Y-55070000D03*
D14*
X115005000Y-55070000D03*
X112465000Y-55070000D03*
%TD*%
D10*
%TO.C,H2*%
X150125000Y-123488000D03*
%TD*%
D15*
%TO.C,R6*%
X120400000Y-120900000D03*
D16*
X115320000Y-120900000D03*
%TD*%
D11*
%TO.C,TC1*%
X69627500Y-122656500D03*
D12*
X74707500Y-122656500D03*
%TD*%
D10*
%TO.C,H4*%
X57300000Y-51888000D03*
%TD*%
D17*
%TO.C,T1*%
X63385000Y-65403000D03*
X63385000Y-67943000D03*
X63385000Y-70483000D03*
X63385000Y-73023000D03*
X63385000Y-75563000D03*
X63385000Y-78103000D03*
X63385000Y-80643000D03*
X63385000Y-83183000D03*
X63385000Y-85723000D03*
X63385000Y-88263000D03*
X63385000Y-90803000D03*
X63385000Y-93343000D03*
X63385000Y-95883000D03*
X63385000Y-98423000D03*
%TD*%
D18*
%TO.C,D3*%
X121230000Y-104938000D03*
D19*
X126310000Y-104938000D03*
X126310000Y-99858000D03*
X121230000Y-99858000D03*
%TD*%
D20*
%TO.C,D4*%
X127175000Y-120800000D03*
D21*
X124635000Y-120800000D03*
%TD*%
D22*
%TO.C,C8*%
X108800000Y-110900000D03*
X111300000Y-110900000D03*
%TD*%
D11*
%TO.C,R1*%
X85580000Y-123068000D03*
D12*
X90660000Y-123068000D03*
%TD*%
D10*
%TO.C,H1*%
X150125000Y-51888000D03*
%TD*%
D15*
%TO.C,R12*%
X108250000Y-107300000D03*
D16*
X113330000Y-107300000D03*
%TD*%
D23*
%TO.C,D1*%
X108730000Y-122388000D03*
X103730000Y-122388000D03*
D24*
X98730000Y-122388000D03*
%TD*%
D25*
%TO.C,U7*%
X78385000Y-101840000D03*
D22*
X80925000Y-101840000D03*
X83465000Y-101840000D03*
X86005000Y-101840000D03*
X88545000Y-101840000D03*
X91085000Y-101840000D03*
X93625000Y-101840000D03*
X96165000Y-101840000D03*
X96165000Y-109460000D03*
X93625000Y-109460000D03*
X91085000Y-109460000D03*
X88545000Y-109460000D03*
X86005000Y-109460000D03*
X83465000Y-109460000D03*
X80925000Y-109460000D03*
X78385000Y-109460000D03*
%TD*%
D25*
%TO.C,U5*%
X109095000Y-94420000D03*
D26*
X109095000Y-96960000D03*
X109095000Y-99500000D03*
X101475000Y-99500000D03*
X101475000Y-96960000D03*
X101475000Y-94420000D03*
%TD*%
D18*
%TO.C,C2*%
X121925000Y-111445323D03*
D27*
X121925000Y-115245323D03*
%TD*%
D15*
%TO.C,R11*%
X106715000Y-90150000D03*
D16*
X101635000Y-90150000D03*
%TD*%
D28*
%TO.C,T2*%
X142089000Y-71161000D03*
D29*
X137009000Y-71161000D03*
X126849000Y-71161000D03*
X121769000Y-71161000D03*
X121769000Y-91481000D03*
X126849000Y-91481000D03*
X137009000Y-91481000D03*
X142089000Y-91481000D03*
%TD*%
D30*
%TO.C,C7*%
X74400000Y-56050000D03*
X72500000Y-56050000D03*
%TD*%
D15*
%TO.C,R2*%
X114390000Y-90200000D03*
D16*
X109310000Y-90200000D03*
%TD*%
D25*
%TO.C,U4*%
X139700000Y-101000000D03*
D26*
X139700000Y-103540000D03*
X139700000Y-106080000D03*
X132080000Y-106080000D03*
X132080000Y-103540000D03*
X132080000Y-101000000D03*
%TD*%
D15*
%TO.C,R8*%
X101975000Y-61875000D03*
D16*
X96895000Y-61875000D03*
%TD*%
D15*
%TO.C,R5*%
X148200000Y-110175000D03*
D16*
X143120000Y-110175000D03*
%TD*%
D31*
%TO.C,C3*%
X100000000Y-69012500D03*
X100000000Y-75187500D03*
%TD*%
D32*
%TO.C,U3*%
X72300000Y-60180000D03*
X74600000Y-60180000D03*
X76900000Y-60180000D03*
D33*
X74600000Y-66120000D03*
%TD*%
D34*
%TO.C,C4*%
X96562500Y-54700000D03*
X102737500Y-54700000D03*
%TD*%
D20*
%TO.C,D2*%
X111850000Y-98650000D03*
D21*
X114390000Y-98650000D03*
%TD*%
D35*
%TO.C,D5*%
X87175000Y-64725000D03*
X82175000Y-64725000D03*
%TD*%
D36*
%TO.C,L1*%
X90575000Y-57325000D03*
X81475000Y-57325000D03*
%TD*%
D37*
%TO.C,U6*%
X80600000Y-69410000D03*
X82300000Y-69410000D03*
D38*
X84000000Y-79730000D03*
D37*
X84000000Y-69410000D03*
X85700000Y-69410000D03*
X87400000Y-69410000D03*
%TD*%
D15*
%TO.C,R3*%
X133400000Y-97300000D03*
D16*
X138480000Y-97300000D03*
%TD*%
D15*
%TO.C,R4*%
X138615000Y-110175000D03*
D16*
X133535000Y-110175000D03*
%TD*%
D15*
%TO.C,R7*%
X96995000Y-65375000D03*
D16*
X102075000Y-65375000D03*
%TD*%
M02*
