%TF.GenerationSoftware,KiCad,Pcbnew,8.0.3*%
%TF.CreationDate,2024-08-31T20:41:35-05:00*%
%TF.ProjectId,solder_oven_PCB,736f6c64-6572-45f6-9f76-656e5f504342,rev?*%
%TF.SameCoordinates,Original*%
%TF.FileFunction,Copper,L1,Top*%
%TF.FilePolarity,Positive*%
%FSLAX46Y46*%
G04 Gerber Fmt 4.6, Leading zero omitted, Abs format (unit mm)*
G04 Created by KiCad (PCBNEW 8.0.3) date 2024-08-31 20:41:35*
%MOMM*%
%LPD*%
G01*
G04 APERTURE LIST*
G04 Aperture macros list*
%AMRoundRect*
0 Rectangle with rounded corners*
0 $1 Rounding radius*
0 $2 $3 $4 $5 $6 $7 $8 $9 X,Y pos of 4 corners*
0 Add a 4 corners polygon primitive as box body*
4,1,4,$2,$3,$4,$5,$6,$7,$8,$9,$2,$3,0*
0 Add four circle primitives for the rounded corners*
1,1,$1+$1,$2,$3*
1,1,$1+$1,$4,$5*
1,1,$1+$1,$6,$7*
1,1,$1+$1,$8,$9*
0 Add four rect primitives between the rounded corners*
20,1,$1+$1,$2,$3,$4,$5,0*
20,1,$1+$1,$4,$5,$6,$7,0*
20,1,$1+$1,$6,$7,$8,$9,0*
20,1,$1+$1,$8,$9,$2,$3,0*%
G04 Aperture macros list end*
%TA.AperFunction,ComponentPad*%
%ADD10C,5.600000*%
%TD*%
%TA.AperFunction,ComponentPad*%
%ADD11R,2.000000X2.000000*%
%TD*%
%TA.AperFunction,ComponentPad*%
%ADD12C,2.000000*%
%TD*%
%TA.AperFunction,ComponentPad*%
%ADD13R,2.600000X2.600000*%
%TD*%
%TA.AperFunction,ComponentPad*%
%ADD14C,2.600000*%
%TD*%
%TA.AperFunction,ComponentPad*%
%ADD15O,1.500000X3.000000*%
%TD*%
%TA.AperFunction,SMDPad,CuDef*%
%ADD16RoundRect,0.250000X-0.250000X-0.475000X0.250000X-0.475000X0.250000X0.475000X-0.250000X0.475000X0*%
%TD*%
%TA.AperFunction,ComponentPad*%
%ADD17R,1.700000X1.700000*%
%TD*%
%TA.AperFunction,ComponentPad*%
%ADD18O,1.700000X1.700000*%
%TD*%
%TA.AperFunction,SMDPad,CuDef*%
%ADD19RoundRect,0.225000X-0.225000X-0.250000X0.225000X-0.250000X0.225000X0.250000X-0.225000X0.250000X0*%
%TD*%
%TA.AperFunction,ComponentPad*%
%ADD20C,1.400000*%
%TD*%
%TA.AperFunction,ComponentPad*%
%ADD21O,1.400000X1.400000*%
%TD*%
%TA.AperFunction,SMDPad,CuDef*%
%ADD22RoundRect,0.250000X0.475000X-0.250000X0.475000X0.250000X-0.475000X0.250000X-0.475000X-0.250000X0*%
%TD*%
%TA.AperFunction,SMDPad,CuDef*%
%ADD23RoundRect,0.200000X0.200000X0.275000X-0.200000X0.275000X-0.200000X-0.275000X0.200000X-0.275000X0*%
%TD*%
%TA.AperFunction,ComponentPad*%
%ADD24O,2.000000X2.000000*%
%TD*%
%TA.AperFunction,ComponentPad*%
%ADD25R,1.800000X1.800000*%
%TD*%
%TA.AperFunction,ComponentPad*%
%ADD26C,1.800000*%
%TD*%
%TA.AperFunction,SMDPad,CuDef*%
%ADD27R,1.100000X2.500000*%
%TD*%
%TA.AperFunction,SMDPad,CuDef*%
%ADD28R,3.600000X2.340000*%
%TD*%
%TA.AperFunction,SMDPad,CuDef*%
%ADD29O,2.050000X0.590000*%
%TD*%
%TA.AperFunction,SMDPad,CuDef*%
%ADD30R,1.500000X1.230000*%
%TD*%
%TA.AperFunction,SMDPad,CuDef*%
%ADD31R,0.950000X2.100000*%
%TD*%
%TA.AperFunction,SMDPad,CuDef*%
%ADD32R,2.100000X0.950000*%
%TD*%
%TA.AperFunction,SMDPad,CuDef*%
%ADD33R,0.900000X0.900000*%
%TD*%
%TA.AperFunction,ComponentPad*%
%ADD34O,3.960000X1.980000*%
%TD*%
%TA.AperFunction,ComponentPad*%
%ADD35R,3.960000X1.980000*%
%TD*%
%TA.AperFunction,ComponentPad*%
%ADD36R,1.600000X1.600000*%
%TD*%
%TA.AperFunction,ComponentPad*%
%ADD37C,1.600000*%
%TD*%
%TA.AperFunction,ComponentPad*%
%ADD38O,1.600000X1.600000*%
%TD*%
%TA.AperFunction,ComponentPad*%
%ADD39R,3.048000X3.048000*%
%TD*%
%TA.AperFunction,ComponentPad*%
%ADD40C,3.048000*%
%TD*%
%TA.AperFunction,ViaPad*%
%ADD41C,0.508000*%
%TD*%
%TA.AperFunction,ViaPad*%
%ADD42C,0.381000*%
%TD*%
%TA.AperFunction,Conductor*%
%ADD43C,0.508000*%
%TD*%
%TA.AperFunction,Conductor*%
%ADD44C,0.254000*%
%TD*%
%TA.AperFunction,Conductor*%
%ADD45C,0.762000*%
%TD*%
%TA.AperFunction,Conductor*%
%ADD46C,1.270000*%
%TD*%
G04 APERTURE END LIST*
D10*
%TO.P,H3,1,1*%
%TO.N,GND*%
X150700000Y-137075000D03*
%TD*%
D11*
%TO.P,C2,1*%
%TO.N,+12v*%
X138075000Y-72625000D03*
D12*
%TO.P,C2,2*%
%TO.N,GND*%
X141875000Y-72625000D03*
%TD*%
D13*
%TO.P,P1,1,AC_P*%
%TO.N,Fase*%
X148844000Y-86868000D03*
D14*
%TO.P,P1,2,AC_N*%
%TO.N,Neutro*%
X148844000Y-81788000D03*
%TD*%
D15*
%TO.P,T1,1,VCC*%
%TO.N,+5V*%
X92010000Y-133700000D03*
%TO.P,T1,2,GND*%
%TO.N,GND*%
X94550000Y-133700000D03*
%TO.P,T1,3,CS*%
%TO.N,/esp32/CS*%
X97090000Y-133700000D03*
%TO.P,T1,4,RST*%
%TO.N,/esp32/RST*%
X99630000Y-133700000D03*
%TO.P,T1,5,DC*%
%TO.N,/esp32/D{slash}C*%
X102170000Y-133700000D03*
%TO.P,T1,6,MOSI*%
%TO.N,/esp32/MOSI*%
X104710000Y-133700000D03*
%TO.P,T1,7,SCK*%
%TO.N,/esp32/CLK*%
X107250000Y-133700000D03*
%TO.P,T1,8,LED*%
%TO.N,/esp32/LED*%
X109790000Y-133700000D03*
%TO.P,T1,9,MISO*%
%TO.N,/esp32/MISO*%
X112330000Y-133700000D03*
%TO.P,T1,10,T_CLK*%
%TO.N,/esp32/T_CLK*%
X114870000Y-133700000D03*
%TO.P,T1,11,T_CS*%
%TO.N,/esp32/T_CS*%
X117410000Y-133700000D03*
%TO.P,T1,12,T_DIN*%
%TO.N,/esp32/T_DIN*%
X119950000Y-133700000D03*
%TO.P,T1,13,T_DO*%
%TO.N,/esp32/T_DO*%
X122490000Y-133700000D03*
%TO.P,T1,14,T_IRQ*%
%TO.N,/esp32/T_IRQ*%
X125030000Y-133700000D03*
%TD*%
D16*
%TO.P,C7,1*%
%TO.N,+3.3V*%
X88025000Y-95400000D03*
%TO.P,C7,2*%
%TO.N,GND*%
X89925000Y-95400000D03*
%TD*%
D17*
%TO.P,J1,1,Pin_1*%
%TO.N,/esp32/Tx*%
X138300000Y-50450000D03*
D18*
%TO.P,J1,2,Pin_2*%
%TO.N,/esp32/Rx*%
X138300000Y-52990000D03*
%TO.P,J1,3,Pin_3*%
%TO.N,GND*%
X138300000Y-55530000D03*
%TD*%
D10*
%TO.P,H2,1,1*%
%TO.N,GND*%
X150275000Y-44400000D03*
%TD*%
D19*
%TO.P,C6,1*%
%TO.N,/esp32/Boot*%
X115475000Y-93525000D03*
%TO.P,C6,2*%
%TO.N,GND*%
X117025000Y-93525000D03*
%TD*%
D20*
%TO.P,R6,1*%
%TO.N,Net-(D4-A)*%
X136450000Y-60445000D03*
D21*
%TO.P,R6,2*%
%TO.N,+12v*%
X136450000Y-65525000D03*
%TD*%
D22*
%TO.P,C1,1*%
%TO.N,+3.3V*%
X96520000Y-79690000D03*
%TO.P,C1,2*%
%TO.N,GND*%
X96520000Y-77790000D03*
%TD*%
D13*
%TO.P,TC1,1,+*%
%TO.N,Net-(TC1-+)*%
X149657000Y-129037000D03*
D14*
%TO.P,TC1,2,-*%
%TO.N,GND*%
X149657000Y-123957000D03*
%TD*%
D10*
%TO.P,H4,1,1*%
%TO.N,GND*%
X78675000Y-137225000D03*
%TD*%
D23*
%TO.P,R10,1*%
%TO.N,+3.3V*%
X117075000Y-90625000D03*
%TO.P,R10,2*%
%TO.N,/esp32/Boot*%
X115425000Y-90625000D03*
%TD*%
D19*
%TO.P,C5,1*%
%TO.N,/esp32/EN*%
X115625000Y-98825000D03*
%TO.P,C5,2*%
%TO.N,GND*%
X117175000Y-98825000D03*
%TD*%
D11*
%TO.P,D3,1,+*%
%TO.N,+12v*%
X100605000Y-67350000D03*
D24*
%TO.P,D3,2*%
%TO.N,12_{NN}*%
X105685000Y-67350000D03*
%TO.P,D3,3,-*%
%TO.N,GND*%
X105685000Y-62270000D03*
%TO.P,D3,4*%
%TO.N,12_{V_{ac}}*%
X100605000Y-62270000D03*
%TD*%
D25*
%TO.P,D4,1,K*%
%TO.N,GND*%
X140650000Y-63600000D03*
D26*
%TO.P,D4,2,A*%
%TO.N,Net-(D4-A)*%
X140650000Y-61060000D03*
%TD*%
D27*
%TO.P,U3,1,GND*%
%TO.N,GND*%
X90075000Y-98420000D03*
%TO.P,U3,2,VOUT*%
%TO.N,+3.3V*%
X87775000Y-98420000D03*
%TO.P,U3,3,VIN*%
%TO.N,+5V*%
X85475000Y-98420000D03*
D28*
%TO.P,U3,4,VOUT*%
%TO.N,+3.3V*%
X87775000Y-104360000D03*
%TD*%
D23*
%TO.P,R9,1*%
%TO.N,+3.3V*%
X117200000Y-101825000D03*
%TO.P,R9,2*%
%TO.N,/esp32/EN*%
X115550000Y-101825000D03*
%TD*%
D13*
%TO.P,R1,1*%
%TO.N,Net-(D1-A1)*%
X149149000Y-99065000D03*
D14*
%TO.P,R1,2*%
%TO.N,Neutro*%
X149149000Y-93985000D03*
%TD*%
D29*
%TO.P,U2,1,GND*%
%TO.N,GND*%
X99846000Y-76830000D03*
%TO.P,U2,2,T-*%
X99846000Y-78110000D03*
%TO.P,U2,3,T+*%
%TO.N,Net-(TC1-+)*%
X99846000Y-79370000D03*
%TO.P,U2,4,VCC*%
%TO.N,+3.3V*%
X99846000Y-80640000D03*
%TO.P,U2,5,SCK*%
%TO.N,/esp32/SCK*%
X105386000Y-80640000D03*
%TO.P,U2,6,~{CS}*%
%TO.N,/esp32/CS_{T}*%
X105386000Y-79370000D03*
%TO.P,U2,7,SO*%
%TO.N,/esp32/D0*%
X105386000Y-78110000D03*
%TO.P,U2,8,N.C.*%
%TO.N,unconnected-(U2-N.C.-Pad8)*%
X105386000Y-76830000D03*
%TD*%
D10*
%TO.P,H1,1,1*%
%TO.N,GND*%
X78675000Y-44400000D03*
%TD*%
D30*
%TO.P,B2,1*%
%TO.N,GND*%
X119725000Y-94075000D03*
%TO.P,B2,2*%
%TO.N,/esp32/Boot*%
X119725000Y-89475000D03*
%TD*%
D31*
%TO.P,U1,1,GND*%
%TO.N,GND*%
X94275000Y-101905000D03*
%TO.P,U1,2,3V3*%
%TO.N,+3.3V*%
X95545000Y-101905000D03*
%TO.P,U1,3,EN*%
%TO.N,/esp32/EN*%
X96815000Y-101905000D03*
%TO.P,U1,4,SENSOR_VP*%
%TO.N,/esp32/T_IRQ*%
X98085000Y-101905000D03*
%TO.P,U1,5,SENSOR_VN*%
%TO.N,/esp32/T_DO*%
X99355000Y-101905000D03*
%TO.P,U1,6,IO34*%
%TO.N,/Zero_Cross*%
X100625000Y-101905000D03*
%TO.P,U1,7,IO35*%
%TO.N,unconnected-(U1-IO35-Pad7)*%
X101895000Y-101905000D03*
%TO.P,U1,8,IO32*%
%TO.N,/esp32/T_DIN*%
X103165000Y-101905000D03*
%TO.P,U1,9,IO33*%
%TO.N,/esp32/T_CS*%
X104435000Y-101905000D03*
%TO.P,U1,10,IO25*%
%TO.N,/esp32/T_CLK*%
X105705000Y-101905000D03*
%TO.P,U1,11,IO26*%
%TO.N,unconnected-(U1-IO26-Pad11)*%
X106975000Y-101905000D03*
%TO.P,U1,12,IO27*%
%TO.N,unconnected-(U1-IO27-Pad12)*%
X108245000Y-101905000D03*
%TO.P,U1,13,IO14*%
%TO.N,/esp32/CLK*%
X109515000Y-101905000D03*
%TO.P,U1,14,IO12*%
%TO.N,/esp32/MISO*%
X110785000Y-101905000D03*
D32*
%TO.P,U1,15,GND*%
%TO.N,GND*%
X112275000Y-98615000D03*
%TO.P,U1,16,IO13*%
%TO.N,/esp32/MOSI*%
X112275000Y-97345000D03*
%TO.P,U1,17,NC*%
%TO.N,unconnected-(U1-NC-Pad17)*%
X112275000Y-96075000D03*
%TO.P,U1,18,NC*%
%TO.N,unconnected-(U1-NC-Pad18)*%
X112275000Y-94805000D03*
%TO.P,U1,19,NC*%
%TO.N,unconnected-(U1-NC-Pad19)*%
X112275000Y-93535000D03*
%TO.P,U1,20,NC*%
%TO.N,unconnected-(U1-NC-Pad20)*%
X112275000Y-92265000D03*
%TO.P,U1,21,NC*%
%TO.N,unconnected-(U1-NC-Pad21)*%
X112275000Y-90995000D03*
%TO.P,U1,22,NC*%
%TO.N,unconnected-(U1-NC-Pad22)*%
X112275000Y-89725000D03*
%TO.P,U1,23,IO15*%
%TO.N,/esp32/CS*%
X112275000Y-88455000D03*
%TO.P,U1,24,IO2*%
%TO.N,/esp32/D{slash}C*%
X112275000Y-87185000D03*
D31*
%TO.P,U1,25,IO0*%
%TO.N,/esp32/Boot*%
X110785000Y-83905000D03*
%TO.P,U1,26,IO4*%
%TO.N,/esp32/D0*%
X109515000Y-83905000D03*
%TO.P,U1,27,IO16*%
%TO.N,/trigger_Gate*%
X108245000Y-83905000D03*
%TO.P,U1,28,IO17*%
%TO.N,unconnected-(U1-IO17-Pad28)*%
X106975000Y-83905000D03*
%TO.P,U1,29,IO5*%
%TO.N,/esp32/RST*%
X105705000Y-83905000D03*
%TO.P,U1,30,IO18*%
%TO.N,/esp32/CS_{T}*%
X104435000Y-83905000D03*
%TO.P,U1,31,IO19*%
%TO.N,unconnected-(U1-IO19-Pad31)*%
X103165000Y-83905000D03*
%TO.P,U1,32,NC*%
%TO.N,unconnected-(U1-NC-Pad32)*%
X101895000Y-83905000D03*
%TO.P,U1,33,IO21*%
%TO.N,/esp32/LED*%
X100625000Y-83905000D03*
%TO.P,U1,34,RXD0*%
%TO.N,/esp32/Tx*%
X99355000Y-83905000D03*
%TO.P,U1,35,TXD0*%
%TO.N,/esp32/Rx*%
X98085000Y-83905000D03*
%TO.P,U1,36,IO22*%
%TO.N,/esp32/SCK*%
X96815000Y-83905000D03*
%TO.P,U1,37,IO23*%
%TO.N,unconnected-(U1-IO23-Pad37)*%
X95545000Y-83905000D03*
%TO.P,U1,38,GND*%
%TO.N,GND*%
X94275000Y-83905000D03*
D33*
%TO.P,U1,39,GND*%
X100555000Y-93005000D03*
X100555000Y-94405000D03*
X100555000Y-95805000D03*
X101955000Y-93005000D03*
X101955000Y-94405000D03*
X101955000Y-95805000D03*
X103355000Y-93005000D03*
X103355000Y-94405000D03*
X103355000Y-95805000D03*
%TD*%
D30*
%TO.P,B1,1*%
%TO.N,GND*%
X120100000Y-98350000D03*
%TO.P,B1,2*%
%TO.N,/esp32/EN*%
X120100000Y-102950000D03*
%TD*%
D34*
%TO.P,D1,1,A1*%
%TO.N,Net-(D1-A1)*%
X148844000Y-107268000D03*
%TO.P,D1,2,A2*%
%TO.N,Fase*%
X148844000Y-112268000D03*
D35*
%TO.P,D1,3,G*%
%TO.N,/modules/shot*%
X148844000Y-117268000D03*
%TD*%
D36*
%TO.P,U7,1,Vcc*%
%TO.N,+3.3V*%
X97600000Y-108610000D03*
D37*
%TO.P,U7,2,NotA*%
%TO.N,Net-(U7-B)*%
X97600000Y-111150000D03*
%TO.P,U7,3,A*%
%TO.N,Net-(U7-A)*%
X97600000Y-113690000D03*
%TO.P,U7,4,NotB*%
%TO.N,/Zero_Cross*%
X97600000Y-116230000D03*
%TO.P,U7,5,B*%
%TO.N,Net-(U7-B)*%
X97600000Y-118770000D03*
%TO.P,U7,6,NotC*%
%TO.N,unconnected-(U7-NotC-Pad6)*%
X97600000Y-121310000D03*
%TO.P,U7,7,C*%
%TO.N,unconnected-(U7-C-Pad7)*%
X97600000Y-123850000D03*
%TO.P,U7,8,VSS*%
%TO.N,GND*%
X97600000Y-126390000D03*
%TO.P,U7,9,D*%
%TO.N,unconnected-(U7-D-Pad9)*%
X89980000Y-126390000D03*
%TO.P,U7,10,NotD*%
%TO.N,unconnected-(U7-NotD-Pad10)*%
X89980000Y-123850000D03*
%TO.P,U7,11,E*%
%TO.N,unconnected-(U7-E-Pad11)*%
X89980000Y-121310000D03*
%TO.P,U7,12,NotE*%
%TO.N,unconnected-(U7-NotE-Pad12)*%
X89980000Y-118770000D03*
%TO.P,U7,13,NC*%
%TO.N,unconnected-(U7-NC-Pad13)*%
X89980000Y-116230000D03*
%TO.P,U7,14,F*%
%TO.N,unconnected-(U7-F-Pad14)*%
X89980000Y-113690000D03*
%TO.P,U7,15,NotF*%
%TO.N,unconnected-(U7-NotF-Pad15)*%
X89980000Y-111150000D03*
%TO.P,U7,16,VDD*%
%TO.N,+3.3V*%
X89980000Y-108610000D03*
%TD*%
D36*
%TO.P,U5,1*%
%TO.N,Net-(D2-K)*%
X114340000Y-120725000D03*
D38*
%TO.P,U5,2*%
%TO.N,GND*%
X114340000Y-123265000D03*
%TO.P,U5,3,NC*%
%TO.N,unconnected-(U5-NC-Pad3)*%
X114340000Y-125805000D03*
%TO.P,U5,4*%
%TO.N,/modules/shot*%
X106720000Y-125805000D03*
%TO.P,U5,5,NC*%
%TO.N,unconnected-(U5-NC-Pad5)*%
X106720000Y-123265000D03*
%TO.P,U5,6*%
%TO.N,Net-(R11-Pad2)*%
X106720000Y-120725000D03*
%TD*%
D20*
%TO.P,R11,1*%
%TO.N,Fase*%
X111820000Y-115650000D03*
D21*
%TO.P,R11,2*%
%TO.N,Net-(R11-Pad2)*%
X106740000Y-115650000D03*
%TD*%
D39*
%TO.P,T2,1*%
%TO.N,Fase*%
X121330000Y-52888000D03*
D40*
%TO.P,T2,2*%
%TO.N,unconnected-(T2-Pad2)*%
X116250000Y-52888000D03*
%TO.P,T2,3,NC*%
%TO.N,unconnected-(T2-NC-Pad3)*%
X106090000Y-52888000D03*
%TO.P,T2,5*%
%TO.N,Neutro*%
X101010000Y-52888000D03*
%TO.P,T2,6*%
%TO.N,12_{V_{ac}}*%
X101010000Y-73208000D03*
%TO.P,T2,7*%
%TO.N,12_{NN}*%
X106090000Y-73208000D03*
%TO.P,T2,9*%
%TO.N,unconnected-(T2-Pad9)*%
X116250000Y-73208000D03*
%TO.P,T2,10*%
%TO.N,unconnected-(T2-Pad10)*%
X121330000Y-73208000D03*
%TD*%
D20*
%TO.P,R2,1*%
%TO.N,Net-(D2-A)*%
X122880000Y-115650000D03*
D21*
%TO.P,R2,2*%
%TO.N,/trigger_Gate*%
X117800000Y-115650000D03*
%TD*%
D36*
%TO.P,U4,1*%
%TO.N,Net-(R3-Pad2)*%
X114340000Y-106225000D03*
D38*
%TO.P,U4,2*%
%TO.N,12_{NN}*%
X114340000Y-108765000D03*
%TO.P,U4,3,NC*%
%TO.N,unconnected-(U4-NC-Pad3)*%
X114340000Y-111305000D03*
%TO.P,U4,4*%
%TO.N,GND*%
X106720000Y-111305000D03*
%TO.P,U4,5*%
%TO.N,Net-(U7-A)*%
X106720000Y-108765000D03*
%TO.P,U4,6*%
%TO.N,Net-(R4-Pad1)*%
X106720000Y-106225000D03*
%TD*%
D20*
%TO.P,R8,1*%
%TO.N,GND*%
X121386600Y-85039200D03*
D21*
%TO.P,R8,2*%
%TO.N,Net-(U6-FB)*%
X121386600Y-79959200D03*
%TD*%
D20*
%TO.P,R5,1*%
%TO.N,+3.3V*%
X102790000Y-113750000D03*
D21*
%TO.P,R5,2*%
%TO.N,Net-(U7-A)*%
X102790000Y-108670000D03*
%TD*%
D25*
%TO.P,D2,1,K*%
%TO.N,Net-(D2-K)*%
X119365000Y-120550000D03*
D26*
%TO.P,D2,2,A*%
%TO.N,Net-(D2-A)*%
X121905000Y-120550000D03*
%TD*%
D20*
%TO.P,R3,1*%
%TO.N,12_{V_{ac}}*%
X123080000Y-106250000D03*
D21*
%TO.P,R3,2*%
%TO.N,Net-(R3-Pad2)*%
X118000000Y-106250000D03*
%TD*%
D20*
%TO.P,R4,1*%
%TO.N,Net-(R4-Pad1)*%
X103632000Y-105156000D03*
D21*
%TO.P,R4,2*%
%TO.N,GND*%
X98552000Y-105156000D03*
%TD*%
D20*
%TO.P,R7,1*%
%TO.N,Net-(U6-FB)*%
X117119400Y-81508600D03*
D21*
%TO.P,R7,2*%
%TO.N,+5V*%
X117119400Y-86588600D03*
%TD*%
D41*
%TO.N,GND*%
X107950000Y-94742000D03*
X107950000Y-92456000D03*
X103632000Y-91440000D03*
X93218000Y-85344000D03*
X107950000Y-91186000D03*
X103632000Y-70612000D03*
X107950000Y-90170000D03*
X103378000Y-92964000D03*
X97282000Y-98806000D03*
X106680000Y-94742000D03*
X105410000Y-93472000D03*
X102108000Y-92964000D03*
X102108000Y-95758000D03*
X106680000Y-91186000D03*
X102108000Y-91440000D03*
X100584000Y-94488000D03*
X106680000Y-96012000D03*
X120142000Y-92456000D03*
X102108000Y-94488000D03*
X103378000Y-94488000D03*
X105410000Y-91186000D03*
X106680000Y-90170000D03*
X100584000Y-91440000D03*
X106680000Y-92456000D03*
X107950000Y-96012000D03*
X105410000Y-96012000D03*
X121412000Y-100076000D03*
X100584000Y-95758000D03*
X103632000Y-90170000D03*
X105410000Y-90170000D03*
X106680000Y-93472000D03*
X105410000Y-92456000D03*
X103378000Y-96012000D03*
X100584000Y-92964000D03*
X107950000Y-93472000D03*
X100584000Y-90170000D03*
X105410000Y-94742000D03*
X102108000Y-90170000D03*
D42*
%TO.N,+3.3V*%
X110490000Y-77978000D03*
X100838000Y-75692000D03*
D41*
%TO.N,+12v*%
X131064000Y-64516000D03*
D42*
X100076000Y-70104000D03*
D41*
X116840000Y-64516000D03*
D42*
%TO.N,+5V*%
X110236000Y-92964000D03*
X85598000Y-101854000D03*
%TO.N,Fase*%
X142748000Y-109728000D03*
X138684000Y-109728000D03*
%TO.N,/modules/shot*%
X143764000Y-117856000D03*
X139192000Y-117856000D03*
%TO.N,12_{V_{ac}}*%
X124968000Y-78232000D03*
X124968000Y-83312000D03*
%TO.N,12_{NN}*%
X126720600Y-77851000D03*
X126644400Y-72821800D03*
X123520200Y-69519800D03*
X126746000Y-84328000D03*
D41*
%TO.N,/esp32/Tx*%
X127254000Y-47498000D03*
X120650000Y-45974000D03*
X90678000Y-86868000D03*
X88900000Y-85090000D03*
%TO.N,/esp32/Rx*%
X119888000Y-48260000D03*
X90932000Y-82804000D03*
X125730000Y-49530000D03*
X91948000Y-85598000D03*
D42*
%TO.N,/trigger_Gate*%
X122936000Y-97536000D03*
X121920000Y-91694000D03*
X110998000Y-81534000D03*
X108712000Y-81534000D03*
D41*
%TO.N,/esp32/MOSI*%
X92202000Y-103378000D03*
X92710000Y-107442000D03*
%TO.N,/esp32/T_IRQ*%
X87376000Y-109982000D03*
X88392000Y-133858000D03*
X87630000Y-125476000D03*
X88900000Y-137414000D03*
X89408000Y-106934000D03*
X93472000Y-105918000D03*
X96266000Y-105918000D03*
%TO.N,/esp32/T_CS*%
X104394000Y-103886000D03*
%TO.N,/esp32/T_CLK*%
X105664000Y-113030000D03*
X105410000Y-103886000D03*
X109474000Y-123444000D03*
X113284000Y-130048000D03*
%TO.N,/esp32/MISO*%
X110744000Y-119380000D03*
X111252000Y-130048000D03*
X110744000Y-105410000D03*
X110998000Y-112776000D03*
X111252000Y-126238000D03*
X111252000Y-108204000D03*
%TO.N,/esp32/LED*%
X91186000Y-88392000D03*
X90170000Y-128778000D03*
X85344000Y-88392000D03*
X102616000Y-127762000D03*
X106172000Y-128778000D03*
X95250000Y-127762000D03*
D42*
%TO.N,/esp32/D{slash}C*%
X133096000Y-111252000D03*
X133096000Y-121666000D03*
X132842000Y-90424000D03*
X132842000Y-97028000D03*
X133096000Y-107442000D03*
X128778000Y-86360000D03*
X133096000Y-126492000D03*
X114554000Y-87122000D03*
D41*
%TO.N,/esp32/T_DO*%
X89916000Y-136398000D03*
X91440000Y-107188000D03*
X93726000Y-103632000D03*
X89916000Y-132080000D03*
X90678000Y-103378000D03*
X91465400Y-97485200D03*
X95758000Y-99314000D03*
X91186000Y-129540000D03*
X99314000Y-103632000D03*
%TO.N,/esp32/T_DIN*%
X103124000Y-112014000D03*
%TO.N,/esp32/CLK*%
X108458000Y-113030000D03*
X104140000Y-117348000D03*
D42*
%TO.N,/esp32/CS*%
X114250000Y-88380000D03*
X136144000Y-118872000D03*
X136144000Y-112014000D03*
X138430000Y-123698000D03*
X129286000Y-88900000D03*
X136144000Y-107442000D03*
%TO.N,/esp32/RST*%
X105918000Y-86868000D03*
X134620000Y-120142000D03*
X128778000Y-91186000D03*
X134874000Y-124460000D03*
X134366000Y-111506000D03*
X134366000Y-107442000D03*
%TO.N,/Zero_Cross*%
X100584000Y-117856000D03*
X100584000Y-104140000D03*
%TD*%
D43*
%TO.N,/esp32/EN*%
X115550000Y-102850000D02*
X116332000Y-103632000D01*
X116332000Y-103632000D02*
X119418000Y-103632000D01*
X115625000Y-101750000D02*
X115550000Y-101825000D01*
X115371000Y-99822000D02*
X115625000Y-100076000D01*
X96815000Y-100347000D02*
X97340000Y-99822000D01*
X97340000Y-99822000D02*
X115371000Y-99822000D01*
X96815000Y-101905000D02*
X96815000Y-100347000D01*
X115550000Y-101825000D02*
X115550000Y-102850000D01*
X119418000Y-103632000D02*
X120100000Y-102950000D01*
X115625000Y-98825000D02*
X115625000Y-100076000D01*
X115625000Y-100076000D02*
X115625000Y-101750000D01*
D44*
%TO.N,GND*%
X116840000Y-102870000D02*
X117602000Y-102870000D01*
X94275000Y-101905000D02*
X94275000Y-100601000D01*
D43*
X99846000Y-78110000D02*
X99846000Y-77470000D01*
D44*
X96012000Y-100076000D02*
X97282000Y-98806000D01*
D43*
X101346000Y-76610000D02*
X103632000Y-74324000D01*
D44*
X116419000Y-102449000D02*
X116840000Y-102870000D01*
X117602000Y-102870000D02*
X120100000Y-100372000D01*
D43*
X99846000Y-77470000D02*
X99846000Y-76830000D01*
D44*
X94275000Y-100601000D02*
X94800000Y-100076000D01*
X94800000Y-100076000D02*
X96012000Y-100076000D01*
X119725000Y-94075000D02*
X119725000Y-92873000D01*
X117175000Y-98825000D02*
X116419000Y-99581000D01*
X119725000Y-92873000D02*
X120142000Y-92456000D01*
D43*
X101346000Y-76962000D02*
X101346000Y-76610000D01*
D44*
X120100000Y-100372000D02*
X120100000Y-98350000D01*
D43*
X94275000Y-84287000D02*
X93218000Y-85344000D01*
X103632000Y-74324000D02*
X103632000Y-70612000D01*
X100838000Y-77470000D02*
X101346000Y-76962000D01*
X99846000Y-77470000D02*
X100838000Y-77470000D01*
X94275000Y-83905000D02*
X94275000Y-84287000D01*
D44*
X116419000Y-99581000D02*
X116419000Y-102449000D01*
D43*
%TO.N,/esp32/Boot*%
X116840000Y-88392000D02*
X115425000Y-89807000D01*
X116840000Y-84328000D02*
X119380000Y-86868000D01*
X110785000Y-83905000D02*
X111208000Y-84328000D01*
X111208000Y-84328000D02*
X116840000Y-84328000D01*
X119725000Y-89475000D02*
X119725000Y-88737000D01*
X115425000Y-89807000D02*
X115425000Y-90625000D01*
X119380000Y-88392000D02*
X116840000Y-88392000D01*
X115475000Y-93525000D02*
X115475000Y-90675000D01*
X115475000Y-90675000D02*
X115425000Y-90625000D01*
X119380000Y-86868000D02*
X119380000Y-88392000D01*
X119725000Y-88737000D02*
X119380000Y-88392000D01*
D45*
%TO.N,+3.3V*%
X120142000Y-81788000D02*
X116332000Y-77978000D01*
X87775000Y-104360000D02*
X87775000Y-98420000D01*
X121412000Y-81788000D02*
X120142000Y-81788000D01*
X88025000Y-98170000D02*
X87775000Y-98420000D01*
X98958000Y-108610000D02*
X97600000Y-108610000D01*
X87782000Y-108610000D02*
X87376000Y-108204000D01*
D43*
X88025000Y-87460000D02*
X88025000Y-95400000D01*
D45*
X87775000Y-104360000D02*
X88063000Y-104648000D01*
X94996000Y-108204000D02*
X94996000Y-104648000D01*
X87775000Y-106789000D02*
X87775000Y-104360000D01*
X100076000Y-109728000D02*
X98958000Y-108610000D01*
X118340000Y-91890000D02*
X118340000Y-96266000D01*
X116332000Y-77978000D02*
X110490000Y-77978000D01*
X123190000Y-95504000D02*
X123190000Y-83566000D01*
X100076000Y-112268000D02*
X100076000Y-109728000D01*
X94346500Y-76595500D02*
X94346500Y-81138500D01*
D43*
X94346500Y-81138500D02*
X88025000Y-87460000D01*
X95795000Y-79690000D02*
X94346500Y-81138500D01*
D45*
X118340000Y-96266000D02*
X118340000Y-100685000D01*
X87376000Y-107188000D02*
X87775000Y-106789000D01*
X88063000Y-104648000D02*
X94996000Y-104648000D01*
X89980000Y-108610000D02*
X87782000Y-108610000D01*
X102790000Y-113750000D02*
X101558000Y-113750000D01*
X94996000Y-104648000D02*
X95545000Y-104099000D01*
X95402000Y-108610000D02*
X94996000Y-108204000D01*
X122428000Y-96266000D02*
X123190000Y-95504000D01*
X118340000Y-96266000D02*
X122428000Y-96266000D01*
X87376000Y-108204000D02*
X87376000Y-107188000D01*
X100838000Y-75692000D02*
X95250000Y-75692000D01*
X88025000Y-95400000D02*
X88025000Y-98170000D01*
D43*
X97470000Y-80640000D02*
X99846000Y-80640000D01*
D45*
X118340000Y-100685000D02*
X117200000Y-101825000D01*
X117075000Y-90625000D02*
X118340000Y-91890000D01*
X95545000Y-104099000D02*
X95545000Y-101905000D01*
D43*
X96520000Y-79690000D02*
X95795000Y-79690000D01*
D45*
X101558000Y-113750000D02*
X100076000Y-112268000D01*
X97600000Y-108610000D02*
X95402000Y-108610000D01*
X123190000Y-83566000D02*
X121412000Y-81788000D01*
D43*
X96520000Y-79690000D02*
X97470000Y-80640000D01*
D45*
X95250000Y-75692000D02*
X94346500Y-76595500D01*
D46*
%TO.N,+12v*%
X102616000Y-64516000D02*
X115824000Y-64516000D01*
X100605000Y-67350000D02*
X100605000Y-66527000D01*
X100605000Y-66527000D02*
X102108000Y-65024000D01*
X131064000Y-64516000D02*
X135441000Y-64516000D01*
X115824000Y-64516000D02*
X116840000Y-64516000D01*
X135441000Y-64516000D02*
X136450000Y-65525000D01*
X138075000Y-67150000D02*
X136450000Y-65525000D01*
X102108000Y-65024000D02*
X102616000Y-64516000D01*
D45*
X100076000Y-70104000D02*
X100076000Y-67879000D01*
X100076000Y-67879000D02*
X100605000Y-67350000D01*
D46*
X138075000Y-72625000D02*
X138075000Y-67150000D01*
D43*
%TO.N,+5V*%
X116419400Y-85888600D02*
X117119400Y-86588600D01*
X111030400Y-85888600D02*
X116419400Y-85888600D01*
X110236000Y-86683000D02*
X111030400Y-85888600D01*
X85598000Y-98543000D02*
X85475000Y-98420000D01*
X85598000Y-101854000D02*
X85598000Y-98543000D01*
X110236000Y-92964000D02*
X110236000Y-86683000D01*
D46*
%TO.N,Fase*%
X125476000Y-45720000D02*
X121330000Y-49866000D01*
D45*
X117856000Y-111760000D02*
X119888000Y-109728000D01*
D46*
X151892000Y-55880000D02*
X141732000Y-45720000D01*
X121330000Y-49866000D02*
X121330000Y-52888000D01*
X151892000Y-83820000D02*
X151892000Y-55880000D01*
D45*
X146304000Y-109728000D02*
X148844000Y-112268000D01*
X111820000Y-115650000D02*
X113966000Y-115650000D01*
X119888000Y-109728000D02*
X138684000Y-109728000D01*
D46*
X148844000Y-86868000D02*
X152908000Y-90932000D01*
X148844000Y-86868000D02*
X151892000Y-83820000D01*
D45*
X142748000Y-109728000D02*
X146304000Y-109728000D01*
D46*
X152908000Y-90932000D02*
X152908000Y-108204000D01*
D45*
X113966000Y-115650000D02*
X117856000Y-111760000D01*
D46*
X152908000Y-108204000D02*
X148844000Y-112268000D01*
X141732000Y-45720000D02*
X125476000Y-45720000D01*
D45*
%TO.N,/modules/shot*%
X129032000Y-128016000D02*
X138176000Y-118872000D01*
X138176000Y-118872000D02*
X139192000Y-117856000D01*
X143764000Y-117856000D02*
X148256000Y-117856000D01*
X109220000Y-128016000D02*
X129032000Y-128016000D01*
X108931000Y-128016000D02*
X109220000Y-128016000D01*
X148256000Y-117856000D02*
X148844000Y-117268000D01*
X106720000Y-125805000D02*
X108931000Y-128016000D01*
%TO.N,Net-(D2-A)*%
X122880000Y-119575000D02*
X121905000Y-120550000D01*
X122880000Y-115650000D02*
X122880000Y-119575000D01*
%TO.N,Net-(D2-K)*%
X119190000Y-120725000D02*
X119365000Y-120550000D01*
X114340000Y-120725000D02*
X119190000Y-120725000D01*
D43*
%TO.N,12_{V_{ac}}*%
X124968000Y-84836000D02*
X124968000Y-83312000D01*
X102059000Y-60816000D02*
X100605000Y-62270000D01*
D46*
X101010000Y-73208000D02*
X100443000Y-73208000D01*
X98258000Y-62270000D02*
X100605000Y-62270000D01*
D43*
X118220000Y-60816000D02*
X102059000Y-60816000D01*
D46*
X97028000Y-69793000D02*
X97028000Y-63500000D01*
D43*
X123080000Y-106250000D02*
X124968000Y-104362000D01*
X124968000Y-67564000D02*
X118220000Y-60816000D01*
X124968000Y-78232000D02*
X124968000Y-67564000D01*
D46*
X100443000Y-73208000D02*
X97028000Y-69793000D01*
D43*
X124968000Y-104362000D02*
X124968000Y-84836000D01*
D46*
X97028000Y-63500000D02*
X98258000Y-62270000D01*
D45*
%TO.N,12_{NN}*%
X126746000Y-84328000D02*
X126746000Y-107061000D01*
X123520200Y-69519800D02*
X121350400Y-67350000D01*
D46*
X105664000Y-67371000D02*
X105685000Y-67350000D01*
D45*
X127228600Y-107543600D02*
X126807199Y-107965001D01*
X126720600Y-77851000D02*
X126720600Y-72898000D01*
X126746000Y-107061000D02*
X127228600Y-107543600D01*
X115139999Y-107965001D02*
X114340000Y-108765000D01*
D46*
X105664000Y-72782000D02*
X105664000Y-67371000D01*
D45*
X121350400Y-67350000D02*
X105685000Y-67350000D01*
X126720600Y-72898000D02*
X126644400Y-72821800D01*
X126807199Y-107965001D02*
X115139999Y-107965001D01*
D46*
X106090000Y-73208000D02*
X105664000Y-72782000D01*
%TO.N,Net-(D4-A)*%
X137065000Y-61060000D02*
X136450000Y-60445000D01*
X140650000Y-61060000D02*
X137065000Y-61060000D01*
D43*
%TO.N,/esp32/Tx*%
X135348000Y-47498000D02*
X138300000Y-50450000D01*
X99355000Y-86573000D02*
X98552000Y-87376000D01*
X93472000Y-45974000D02*
X120650000Y-45974000D01*
X98552000Y-87376000D02*
X91186000Y-87376000D01*
X91186000Y-87376000D02*
X90678000Y-86868000D01*
X88900000Y-50546000D02*
X93472000Y-45974000D01*
X88900000Y-85090000D02*
X88900000Y-50546000D01*
X127254000Y-47498000D02*
X135348000Y-47498000D01*
X99355000Y-83905000D02*
X99355000Y-86573000D01*
%TO.N,/esp32/Rx*%
X92456000Y-86106000D02*
X91948000Y-85598000D01*
X134840000Y-49530000D02*
X138300000Y-52990000D01*
X90932000Y-52324000D02*
X94996000Y-48260000D01*
X125730000Y-49530000D02*
X134840000Y-49530000D01*
X94996000Y-48260000D02*
X119888000Y-48260000D01*
X90932000Y-82804000D02*
X90932000Y-52324000D01*
X96774000Y-86106000D02*
X92456000Y-86106000D01*
X98085000Y-83905000D02*
X98085000Y-85463000D01*
X97442000Y-86106000D02*
X96774000Y-86106000D01*
X98085000Y-85463000D02*
X97442000Y-86106000D01*
D46*
%TO.N,Neutro*%
X120396000Y-58420000D02*
X105975000Y-58420000D01*
X105975000Y-58420000D02*
X101010000Y-53455000D01*
X141732000Y-84328000D02*
X141732000Y-90424000D01*
X128524000Y-75184000D02*
X128524000Y-66548000D01*
X148844000Y-81788000D02*
X144272000Y-81788000D01*
X141732000Y-84328000D02*
X137668000Y-84328000D01*
X144272000Y-81788000D02*
X141732000Y-84328000D01*
X141732000Y-90424000D02*
X145293000Y-93985000D01*
X137668000Y-84328000D02*
X128524000Y-75184000D01*
X128524000Y-66548000D02*
X120396000Y-58420000D01*
X101010000Y-53455000D02*
X101010000Y-52888000D01*
X145293000Y-93985000D02*
X149149000Y-93985000D01*
D43*
%TO.N,/trigger_Gate*%
X108245000Y-82001000D02*
X108712000Y-81534000D01*
X116840000Y-83058000D02*
X121920000Y-88138000D01*
X117800000Y-116642000D02*
X117800000Y-115650000D01*
X108245000Y-83905000D02*
X108245000Y-82001000D01*
X111760000Y-118618000D02*
X115824000Y-118618000D01*
X115824000Y-118618000D02*
X117800000Y-116642000D01*
X113301000Y-104648000D02*
X109982000Y-107967000D01*
X110998000Y-81534000D02*
X114300000Y-81534000D01*
X121412000Y-104648000D02*
X113301000Y-104648000D01*
X122936000Y-97536000D02*
X122936000Y-103124000D01*
X115824000Y-83058000D02*
X116840000Y-83058000D01*
X121920000Y-88138000D02*
X121920000Y-91694000D01*
X122936000Y-103124000D02*
X121412000Y-104648000D01*
X109982000Y-107967000D02*
X109982000Y-116840000D01*
X109982000Y-116840000D02*
X111760000Y-118618000D01*
X114300000Y-81534000D02*
X115824000Y-83058000D01*
D45*
%TO.N,Net-(R3-Pad2)*%
X114340000Y-106225000D02*
X117975000Y-106225000D01*
X117975000Y-106225000D02*
X118000000Y-106250000D01*
%TO.N,Net-(R4-Pad1)*%
X105651000Y-105156000D02*
X106720000Y-106225000D01*
X103632000Y-105156000D02*
X105651000Y-105156000D01*
%TO.N,Net-(U7-A)*%
X104648000Y-114808000D02*
X103632000Y-115824000D01*
X103632000Y-115824000D02*
X99734000Y-115824000D01*
X102885000Y-108765000D02*
X102790000Y-108670000D01*
X106720000Y-108765000D02*
X102885000Y-108765000D01*
X99734000Y-115824000D02*
X97600000Y-113690000D01*
X102790000Y-108670000D02*
X104648000Y-110528000D01*
X104648000Y-110528000D02*
X104648000Y-114808000D01*
%TO.N,Net-(R11-Pad2)*%
X106740000Y-120705000D02*
X106720000Y-120725000D01*
X106740000Y-115650000D02*
X106740000Y-120705000D01*
D43*
%TO.N,/esp32/MOSI*%
X92710000Y-107442000D02*
X92710000Y-127762000D01*
X104710000Y-131634000D02*
X104710000Y-133700000D01*
X94996000Y-130048000D02*
X103124000Y-130048000D01*
X92202000Y-103378000D02*
X92202000Y-99568000D01*
X92202000Y-99568000D02*
X94234000Y-97536000D01*
X103124000Y-130048000D02*
X104710000Y-131634000D01*
X112084000Y-97536000D02*
X112275000Y-97345000D01*
X94234000Y-97536000D02*
X112084000Y-97536000D01*
X92710000Y-127762000D02*
X94996000Y-130048000D01*
%TO.N,/esp32/T_IRQ*%
X90424000Y-105918000D02*
X89408000Y-106934000D01*
X93472000Y-105918000D02*
X90424000Y-105918000D01*
X88392000Y-136906000D02*
X88900000Y-137414000D01*
X88392000Y-133858000D02*
X88392000Y-136906000D01*
X87376000Y-109982000D02*
X87376000Y-125222000D01*
X87376000Y-125222000D02*
X87630000Y-125476000D01*
X96266000Y-105733630D02*
X96266000Y-105918000D01*
X98085000Y-101905000D02*
X98085000Y-103914630D01*
X98085000Y-103914630D02*
X96266000Y-105733630D01*
%TO.N,/esp32/T_CS*%
X104435000Y-103845000D02*
X104394000Y-103886000D01*
X104435000Y-101905000D02*
X104435000Y-103845000D01*
%TO.N,/esp32/T_CLK*%
X109474000Y-123444000D02*
X108458000Y-122428000D01*
X105828370Y-113030000D02*
X105664000Y-113030000D01*
X114870000Y-131634000D02*
X113284000Y-130048000D01*
X108458000Y-122428000D02*
X108458000Y-116078000D01*
X114870000Y-133700000D02*
X114870000Y-131634000D01*
X108458000Y-116078000D02*
X108458000Y-115659630D01*
X108458000Y-115659630D02*
X105828370Y-113030000D01*
X105705000Y-103591000D02*
X105705000Y-101905000D01*
X105410000Y-103886000D02*
X105705000Y-103591000D01*
%TO.N,/esp32/MISO*%
X112330000Y-133700000D02*
X112330000Y-131126000D01*
X110998000Y-112776000D02*
X110998000Y-108458000D01*
X112330000Y-131126000D02*
X111252000Y-130048000D01*
X110744000Y-105410000D02*
X110744000Y-101946000D01*
X111252000Y-126238000D02*
X110744000Y-125730000D01*
X110744000Y-125730000D02*
X110744000Y-119380000D01*
X110744000Y-101946000D02*
X110785000Y-101905000D01*
X110998000Y-108458000D02*
X111252000Y-108204000D01*
%TO.N,/esp32/LED*%
X99822000Y-88392000D02*
X100625000Y-87589000D01*
X84417000Y-124295000D02*
X84417000Y-89319000D01*
X109790000Y-133700000D02*
X109790000Y-131634000D01*
X84417000Y-89319000D02*
X85344000Y-88392000D01*
X109790000Y-131634000D02*
X108712000Y-130556000D01*
X88900000Y-128778000D02*
X84417000Y-124295000D01*
X106934000Y-128778000D02*
X106172000Y-128778000D01*
X102616000Y-127762000D02*
X95250000Y-127762000D01*
X108712000Y-130556000D02*
X106934000Y-128778000D01*
X100625000Y-87589000D02*
X100625000Y-83905000D01*
X91186000Y-88392000D02*
X99822000Y-88392000D01*
X90170000Y-128778000D02*
X88900000Y-128778000D01*
%TO.N,/esp32/D{slash}C*%
X126746000Y-136652000D02*
X127762000Y-136652000D01*
X133096000Y-121666000D02*
X133096000Y-111252000D01*
X132842000Y-131572000D02*
X133096000Y-131318000D01*
X130302000Y-134112000D02*
X130556000Y-133858000D01*
X102170000Y-133700000D02*
X102170000Y-136460000D01*
X132842000Y-107188000D02*
X132842000Y-97028000D01*
X133096000Y-131318000D02*
X133096000Y-126492000D01*
X130302000Y-134112000D02*
X132842000Y-131572000D01*
X112338000Y-87122000D02*
X112275000Y-87185000D01*
X114554000Y-87122000D02*
X112338000Y-87122000D01*
X132842000Y-90424000D02*
X128778000Y-86360000D01*
X102170000Y-136460000D02*
X102362000Y-136652000D01*
X102362000Y-136652000D02*
X126746000Y-136652000D01*
X133096000Y-107442000D02*
X132842000Y-107188000D01*
X127762000Y-136652000D02*
X130302000Y-134112000D01*
%TO.N,/esp32/T_DO*%
X94325000Y-99314000D02*
X93292000Y-100347000D01*
X91109800Y-102946200D02*
X90678000Y-103378000D01*
X91133000Y-100154800D02*
X91109800Y-100178000D01*
X91133000Y-99367000D02*
X91133000Y-100154800D01*
X91465400Y-97485200D02*
X91465400Y-99034600D01*
X91440000Y-112014000D02*
X91440000Y-107188000D01*
X89916000Y-136398000D02*
X89916000Y-132080000D01*
X99314000Y-103632000D02*
X99314000Y-101946000D01*
X95758000Y-99314000D02*
X94325000Y-99314000D01*
X91440000Y-129286000D02*
X91440000Y-112014000D01*
X91109800Y-100178000D02*
X91109800Y-102946200D01*
X93558369Y-103632000D02*
X93726000Y-103632000D01*
X91465400Y-99034600D02*
X91133000Y-99367000D01*
X93292000Y-100347000D02*
X93292000Y-103365631D01*
X93292000Y-103365631D02*
X93558369Y-103632000D01*
X99314000Y-101946000D02*
X99355000Y-101905000D01*
X91186000Y-129540000D02*
X91440000Y-129286000D01*
%TO.N,/esp32/T_DIN*%
X101854000Y-105061000D02*
X101854000Y-105410000D01*
X101582000Y-105682000D02*
X101582000Y-110472000D01*
X101854000Y-105410000D02*
X101582000Y-105682000D01*
X101582000Y-110472000D02*
X103124000Y-112014000D01*
X103165000Y-101905000D02*
X103165000Y-103750000D01*
X103165000Y-103750000D02*
X101854000Y-105061000D01*
%TO.N,/esp32/CLK*%
X108712000Y-112776000D02*
X108712000Y-104266000D01*
X107250000Y-132396000D02*
X107250000Y-133700000D01*
X108712000Y-104266000D02*
X109515000Y-103463000D01*
X108458000Y-113030000D02*
X108712000Y-112776000D01*
X104140000Y-117348000D02*
X104140000Y-129286000D01*
X109515000Y-103463000D02*
X109515000Y-101905000D01*
X104140000Y-129286000D02*
X107250000Y-132396000D01*
%TO.N,/esp32/CS*%
X136144000Y-95758000D02*
X129286000Y-88900000D01*
X114175000Y-88455000D02*
X112275000Y-88455000D01*
X131572000Y-139700000D02*
X98806000Y-139700000D01*
X98806000Y-139700000D02*
X97090000Y-137984000D01*
X97090000Y-137984000D02*
X97090000Y-133700000D01*
X136144000Y-118872000D02*
X136144000Y-112014000D01*
X138430000Y-123698000D02*
X138430000Y-132842000D01*
X114250000Y-88380000D02*
X114175000Y-88455000D01*
X138430000Y-132842000D02*
X131572000Y-139700000D01*
X136144000Y-107442000D02*
X136144000Y-95758000D01*
%TO.N,/esp32/RST*%
X134620000Y-111760000D02*
X134366000Y-111506000D01*
X134366000Y-96520000D02*
X129540000Y-91694000D01*
X129032000Y-138176000D02*
X134874000Y-132334000D01*
X134620000Y-120142000D02*
X134620000Y-111760000D01*
X129032000Y-91186000D02*
X128778000Y-91186000D01*
X105918000Y-86868000D02*
X105918000Y-84118000D01*
X105918000Y-84118000D02*
X105705000Y-83905000D01*
X129540000Y-91694000D02*
X129032000Y-91186000D01*
X99630000Y-136714000D02*
X101092000Y-138176000D01*
X99630000Y-133700000D02*
X99630000Y-136714000D01*
X134874000Y-132334000D02*
X134874000Y-124460000D01*
X134366000Y-107442000D02*
X134366000Y-96520000D01*
X101092000Y-138176000D02*
X129032000Y-138176000D01*
%TO.N,Net-(TC1-+)*%
X149657000Y-129037000D02*
X145293000Y-129037000D01*
X141224000Y-124968000D02*
X141224000Y-97028000D01*
X141224000Y-97028000D02*
X119888000Y-75692000D01*
X102616000Y-76708000D02*
X102616000Y-78232000D01*
X145293000Y-129037000D02*
X141224000Y-124968000D01*
X103632000Y-75692000D02*
X102616000Y-76708000D01*
X102616000Y-78232000D02*
X101478000Y-79370000D01*
X119888000Y-75692000D02*
X103632000Y-75692000D01*
X101478000Y-79370000D02*
X99846000Y-79370000D01*
D45*
%TO.N,/Zero_Cross*%
X100584000Y-117856000D02*
X99226000Y-117856000D01*
X99226000Y-117856000D02*
X97600000Y-116230000D01*
X100625000Y-104099000D02*
X100584000Y-104140000D01*
X100625000Y-101905000D02*
X100625000Y-104099000D01*
D43*
%TO.N,/esp32/D0*%
X109982000Y-82347000D02*
X109515000Y-82814000D01*
X105386000Y-78110000D02*
X108082000Y-78110000D01*
X109515000Y-82814000D02*
X109515000Y-83905000D01*
X109982000Y-80010000D02*
X109982000Y-82347000D01*
X108082000Y-78110000D02*
X109982000Y-80010000D01*
%TO.N,/esp32/SCK*%
X101092000Y-81788000D02*
X102240000Y-80640000D01*
X96815000Y-83905000D02*
X96815000Y-82509000D01*
X102240000Y-80640000D02*
X105386000Y-80640000D01*
X96815000Y-82509000D02*
X97536000Y-81788000D01*
X97536000Y-81788000D02*
X101092000Y-81788000D01*
%TO.N,/esp32/CS_{T}*%
X105386000Y-79370000D02*
X106329000Y-79370000D01*
X104994000Y-81788000D02*
X104435000Y-82347000D01*
X106329000Y-79370000D02*
X107188000Y-80229000D01*
X104435000Y-82347000D02*
X104435000Y-83905000D01*
X107188000Y-81788000D02*
X104994000Y-81788000D01*
X107188000Y-80229000D02*
X107188000Y-81788000D01*
D45*
%TO.N,Net-(U7-B)*%
X93980000Y-116332000D02*
X96418000Y-118770000D01*
X97600000Y-111150000D02*
X95098000Y-111150000D01*
X96418000Y-118770000D02*
X97600000Y-118770000D01*
X95098000Y-111150000D02*
X93980000Y-112268000D01*
X93980000Y-112268000D02*
X93980000Y-116332000D01*
D46*
%TO.N,Net-(D1-A1)*%
X149149000Y-106963000D02*
X148844000Y-107268000D01*
X149149000Y-99065000D02*
X149149000Y-106963000D01*
%TD*%
%TA.AperFunction,Conductor*%
%TO.N,GND*%
G36*
X153874539Y-41160185D02*
G01*
X153920294Y-41212989D01*
X153931500Y-41264500D01*
X153931500Y-90050299D01*
X153911815Y-90117338D01*
X153859011Y-90163093D01*
X153789853Y-90173037D01*
X153726297Y-90144012D01*
X153719819Y-90137980D01*
X150680818Y-87098979D01*
X150647333Y-87037656D01*
X150644499Y-87011298D01*
X150644499Y-86724701D01*
X150664184Y-86657662D01*
X150680818Y-86637020D01*
X151687824Y-85630014D01*
X152758111Y-84559728D01*
X152804139Y-84496376D01*
X152863167Y-84415132D01*
X152944309Y-84255881D01*
X152986809Y-84125080D01*
X152999541Y-84085897D01*
X153020093Y-83956133D01*
X153027500Y-83909370D01*
X153027500Y-55790629D01*
X152999541Y-55614106D01*
X152999541Y-55614103D01*
X152945815Y-55448754D01*
X152944754Y-55444993D01*
X152863166Y-55284867D01*
X152758111Y-55140272D01*
X152631728Y-55013889D01*
X142471728Y-44853889D01*
X142327132Y-44748833D01*
X142167881Y-44667691D01*
X142167875Y-44667688D01*
X142126194Y-44654146D01*
X142059453Y-44632460D01*
X141997897Y-44612459D01*
X141997895Y-44612458D01*
X141997894Y-44612458D01*
X141821370Y-44584500D01*
X141821366Y-44584500D01*
X125386634Y-44584500D01*
X125327790Y-44593820D01*
X125210101Y-44612460D01*
X125210098Y-44612460D01*
X125040121Y-44667689D01*
X125040118Y-44667690D01*
X124880866Y-44748834D01*
X124797116Y-44809681D01*
X124797115Y-44809680D01*
X124736279Y-44853881D01*
X124736271Y-44853888D01*
X120590272Y-48999889D01*
X120463891Y-49126269D01*
X120463890Y-49126270D01*
X120358833Y-49270867D01*
X120277243Y-49430997D01*
X120276184Y-49434754D01*
X120222458Y-49600105D01*
X120222458Y-49600107D01*
X120206803Y-49698954D01*
X120206803Y-49698956D01*
X120194500Y-49776629D01*
X120194500Y-50739500D01*
X120174815Y-50806539D01*
X120122011Y-50852294D01*
X120070500Y-50863500D01*
X119758130Y-50863500D01*
X119758123Y-50863501D01*
X119698516Y-50869908D01*
X119563671Y-50920202D01*
X119563664Y-50920206D01*
X119448455Y-51006452D01*
X119448452Y-51006455D01*
X119362206Y-51121664D01*
X119362202Y-51121671D01*
X119311908Y-51256517D01*
X119305501Y-51316116D01*
X119305501Y-51316123D01*
X119305500Y-51316135D01*
X119305500Y-54459870D01*
X119305501Y-54459876D01*
X119311908Y-54519483D01*
X119362202Y-54654328D01*
X119362206Y-54654335D01*
X119448452Y-54769544D01*
X119448455Y-54769547D01*
X119563664Y-54855793D01*
X119563671Y-54855797D01*
X119698517Y-54906091D01*
X119698516Y-54906091D01*
X119705444Y-54906835D01*
X119758127Y-54912500D01*
X122901872Y-54912499D01*
X122961483Y-54906091D01*
X123096331Y-54855796D01*
X123211546Y-54769546D01*
X123297796Y-54654331D01*
X123348091Y-54519483D01*
X123354500Y-54459873D01*
X123354499Y-51316128D01*
X123348091Y-51256517D01*
X123338266Y-51230176D01*
X123297797Y-51121671D01*
X123297793Y-51121664D01*
X123211547Y-51006455D01*
X123211544Y-51006452D01*
X123096335Y-50920206D01*
X123096328Y-50920202D01*
X122961482Y-50869908D01*
X122961483Y-50869908D01*
X122901883Y-50863501D01*
X122901881Y-50863500D01*
X122901873Y-50863500D01*
X122901865Y-50863500D01*
X122589500Y-50863500D01*
X122522461Y-50843815D01*
X122476706Y-50791011D01*
X122465500Y-50739500D01*
X122465500Y-50387701D01*
X122485185Y-50320662D01*
X122501819Y-50300020D01*
X125910021Y-46891819D01*
X125971344Y-46858334D01*
X125997702Y-46855500D01*
X126542267Y-46855500D01*
X126609306Y-46875185D01*
X126655061Y-46927989D01*
X126665005Y-46997147D01*
X126647260Y-47045473D01*
X126621716Y-47086125D01*
X126619827Y-47089040D01*
X126585372Y-47140607D01*
X126585362Y-47140627D01*
X126585279Y-47140828D01*
X126575728Y-47159315D01*
X126569917Y-47168563D01*
X126549982Y-47225535D01*
X126547502Y-47232031D01*
X126528497Y-47277912D01*
X126528493Y-47277925D01*
X126526031Y-47290300D01*
X126521459Y-47307050D01*
X126513763Y-47329044D01*
X126508385Y-47376766D01*
X126506783Y-47387065D01*
X126499500Y-47423684D01*
X126499500Y-47448668D01*
X126498720Y-47462552D01*
X126494726Y-47498000D01*
X126498369Y-47530335D01*
X126498720Y-47533445D01*
X126499500Y-47547330D01*
X126499500Y-47572315D01*
X126506783Y-47608935D01*
X126508385Y-47619234D01*
X126513763Y-47666957D01*
X126521458Y-47688947D01*
X126526033Y-47705707D01*
X126528493Y-47718076D01*
X126528494Y-47718079D01*
X126547504Y-47763972D01*
X126549985Y-47770471D01*
X126569917Y-47827436D01*
X126575721Y-47836672D01*
X126585289Y-47855193D01*
X126585368Y-47855386D01*
X126619815Y-47906939D01*
X126621706Y-47909857D01*
X126660376Y-47971400D01*
X126664815Y-47975839D01*
X126664844Y-47975870D01*
X126777353Y-48088379D01*
X126777375Y-48088399D01*
X126780600Y-48091624D01*
X126842184Y-48130319D01*
X126845045Y-48132174D01*
X126896609Y-48166628D01*
X126896610Y-48166629D01*
X126896796Y-48166706D01*
X126915326Y-48176278D01*
X126924563Y-48182082D01*
X126981536Y-48202016D01*
X126988013Y-48204489D01*
X127033920Y-48223505D01*
X127046288Y-48225965D01*
X127063041Y-48230536D01*
X127085046Y-48238237D01*
X127132779Y-48243615D01*
X127143065Y-48245215D01*
X127163680Y-48249315D01*
X127179687Y-48252500D01*
X127179688Y-48252500D01*
X127204669Y-48252500D01*
X127218552Y-48253279D01*
X127230995Y-48254681D01*
X127253999Y-48257274D01*
X127254000Y-48257274D01*
X127254001Y-48257274D01*
X127277004Y-48254681D01*
X127289447Y-48253279D01*
X127303331Y-48252500D01*
X134984113Y-48252500D01*
X135051152Y-48272185D01*
X135071794Y-48288819D01*
X136913181Y-50130205D01*
X136946666Y-50191528D01*
X136949500Y-50217886D01*
X136949500Y-50273113D01*
X136929815Y-50340152D01*
X136877011Y-50385907D01*
X136807853Y-50395851D01*
X136744297Y-50366826D01*
X136737819Y-50360794D01*
X135320969Y-48943943D01*
X135320968Y-48943942D01*
X135251785Y-48897716D01*
X135197389Y-48861370D01*
X135197386Y-48861368D01*
X135197385Y-48861368D01*
X135116955Y-48828053D01*
X135060080Y-48804495D01*
X135060070Y-48804493D01*
X135035894Y-48799684D01*
X135024709Y-48797459D01*
X134914314Y-48775499D01*
X134914312Y-48775499D01*
X134765688Y-48775499D01*
X134759574Y-48775499D01*
X134759554Y-48775500D01*
X125779331Y-48775500D01*
X125765447Y-48774720D01*
X125753004Y-48773318D01*
X125730001Y-48770726D01*
X125729999Y-48770726D01*
X125706995Y-48773318D01*
X125694552Y-48774720D01*
X125680669Y-48775500D01*
X125655684Y-48775500D01*
X125619065Y-48782783D01*
X125608766Y-48784385D01*
X125561044Y-48789763D01*
X125539050Y-48797459D01*
X125522300Y-48802031D01*
X125509925Y-48804493D01*
X125509912Y-48804497D01*
X125464031Y-48823502D01*
X125457535Y-48825982D01*
X125400563Y-48845917D01*
X125391315Y-48851728D01*
X125372828Y-48861279D01*
X125372627Y-48861362D01*
X125372607Y-48861372D01*
X125321040Y-48895827D01*
X125318125Y-48897716D01*
X125256603Y-48936373D01*
X125256600Y-48936376D01*
X125249037Y-48943938D01*
X125249036Y-48943938D01*
X125143938Y-49049036D01*
X125143938Y-49049037D01*
X125136376Y-49056600D01*
X125136373Y-49056603D01*
X125097716Y-49118125D01*
X125095827Y-49121040D01*
X125061372Y-49172607D01*
X125061362Y-49172627D01*
X125061279Y-49172828D01*
X125051728Y-49191315D01*
X125045917Y-49200563D01*
X125025982Y-49257535D01*
X125023502Y-49264031D01*
X125004497Y-49309912D01*
X125004493Y-49309925D01*
X125002031Y-49322300D01*
X124997459Y-49339050D01*
X124989763Y-49361044D01*
X124984385Y-49408766D01*
X124982783Y-49419065D01*
X124975500Y-49455684D01*
X124975500Y-49480668D01*
X124974720Y-49494552D01*
X124970726Y-49530000D01*
X124973219Y-49552129D01*
X124974720Y-49565445D01*
X124975500Y-49579330D01*
X124975500Y-49604315D01*
X124982783Y-49640935D01*
X124984385Y-49651234D01*
X124989763Y-49698957D01*
X124997458Y-49720947D01*
X125002033Y-49737707D01*
X125004493Y-49750076D01*
X125004494Y-49750079D01*
X125023504Y-49795972D01*
X125025985Y-49802471D01*
X125045917Y-49859436D01*
X125051721Y-49868672D01*
X125061289Y-49887193D01*
X125061368Y-49887386D01*
X125095815Y-49938939D01*
X125097706Y-49941857D01*
X125136376Y-50003400D01*
X125140815Y-50007839D01*
X125140844Y-50007870D01*
X125253353Y-50120379D01*
X125253375Y-50120399D01*
X125256600Y-50123624D01*
X125318184Y-50162319D01*
X125321036Y-50164168D01*
X125357623Y-50188615D01*
X125372609Y-50198628D01*
X125372610Y-50198629D01*
X125372796Y-50198706D01*
X125391326Y-50208278D01*
X125400563Y-50214082D01*
X125457536Y-50234016D01*
X125464013Y-50236489D01*
X125509920Y-50255505D01*
X125522288Y-50257965D01*
X125539041Y-50262536D01*
X125561046Y-50270237D01*
X125608779Y-50275615D01*
X125619065Y-50277215D01*
X125639680Y-50281315D01*
X125655687Y-50284500D01*
X125655688Y-50284500D01*
X125680669Y-50284500D01*
X125694552Y-50285279D01*
X125706995Y-50286681D01*
X125729999Y-50289274D01*
X125730000Y-50289274D01*
X125730001Y-50289274D01*
X125753004Y-50286681D01*
X125765447Y-50285279D01*
X125779331Y-50284500D01*
X134476113Y-50284500D01*
X134543152Y-50304185D01*
X134563794Y-50320819D01*
X136926675Y-52683699D01*
X136960160Y-52745022D01*
X136962522Y-52782187D01*
X136944341Y-52989997D01*
X136944341Y-52990000D01*
X136964936Y-53225403D01*
X136964938Y-53225413D01*
X137026094Y-53453655D01*
X137026096Y-53453659D01*
X137026097Y-53453663D01*
X137109688Y-53632923D01*
X137125965Y-53667830D01*
X137125967Y-53667834D01*
X137234281Y-53822521D01*
X137261505Y-53861401D01*
X137428599Y-54028495D01*
X137525384Y-54096265D01*
X137622165Y-54164032D01*
X137622167Y-54164033D01*
X137622170Y-54164035D01*
X137836337Y-54263903D01*
X138064592Y-54325063D01*
X138252918Y-54341539D01*
X138299999Y-54345659D01*
X138300000Y-54345659D01*
X138300001Y-54345659D01*
X138339234Y-54342226D01*
X138535408Y-54325063D01*
X138763663Y-54263903D01*
X138977830Y-54164035D01*
X139171401Y-54028495D01*
X139338495Y-53861401D01*
X139474035Y-53667830D01*
X139573903Y-53453663D01*
X139635063Y-53225408D01*
X139655659Y-52990000D01*
X139635063Y-52754592D01*
X139573903Y-52526337D01*
X139474035Y-52312171D01*
X139338495Y-52118599D01*
X139216567Y-51996671D01*
X139183084Y-51935351D01*
X139188068Y-51865659D01*
X139229939Y-51809725D01*
X139260915Y-51792810D01*
X139392331Y-51743796D01*
X139507546Y-51657546D01*
X139593796Y-51542331D01*
X139644091Y-51407483D01*
X139650500Y-51347873D01*
X139650499Y-49552128D01*
X139644091Y-49492517D01*
X139642268Y-49487630D01*
X139593797Y-49357671D01*
X139593793Y-49357664D01*
X139507547Y-49242455D01*
X139507544Y-49242452D01*
X139392335Y-49156206D01*
X139392328Y-49156202D01*
X139257482Y-49105908D01*
X139257483Y-49105908D01*
X139197883Y-49099501D01*
X139197881Y-49099500D01*
X139197873Y-49099500D01*
X139197865Y-49099500D01*
X138067886Y-49099500D01*
X138000847Y-49079815D01*
X137980205Y-49063181D01*
X135984207Y-47067181D01*
X135950722Y-47005858D01*
X135955706Y-46936166D01*
X135997578Y-46880233D01*
X136063042Y-46855816D01*
X136071888Y-46855500D01*
X141210299Y-46855500D01*
X141277338Y-46875185D01*
X141297980Y-46891819D01*
X150720181Y-56314020D01*
X150753666Y-56375343D01*
X150756500Y-56401701D01*
X150756500Y-81077342D01*
X150736815Y-81144381D01*
X150684011Y-81190136D01*
X150614853Y-81200080D01*
X150551297Y-81171055D01*
X150517072Y-81122645D01*
X150470743Y-81004603D01*
X150470741Y-81004599D01*
X150449987Y-80968652D01*
X150335815Y-80770898D01*
X150167561Y-80559915D01*
X150167560Y-80559914D01*
X150167557Y-80559910D01*
X149969741Y-80376365D01*
X149936081Y-80353416D01*
X149746775Y-80224349D01*
X149746769Y-80224346D01*
X149746768Y-80224345D01*
X149746767Y-80224344D01*
X149503643Y-80107263D01*
X149503645Y-80107263D01*
X149245773Y-80027720D01*
X149245767Y-80027718D01*
X148978936Y-79987500D01*
X148978929Y-79987500D01*
X148709071Y-79987500D01*
X148709063Y-79987500D01*
X148442232Y-80027718D01*
X148442226Y-80027720D01*
X148184358Y-80107262D01*
X147941230Y-80224346D01*
X147718258Y-80376365D01*
X147520442Y-80559910D01*
X147483837Y-80605813D01*
X147426648Y-80645953D01*
X147386890Y-80652500D01*
X144182634Y-80652500D01*
X144123790Y-80661820D01*
X144006101Y-80680460D01*
X144006098Y-80680460D01*
X143836121Y-80735689D01*
X143836118Y-80735691D01*
X143676867Y-80816833D01*
X143620102Y-80858076D01*
X143617344Y-80860080D01*
X143532271Y-80921889D01*
X143532269Y-80921891D01*
X143532268Y-80921891D01*
X141297980Y-83156181D01*
X141236657Y-83189666D01*
X141210299Y-83192500D01*
X138189701Y-83192500D01*
X138122662Y-83172815D01*
X138102020Y-83156181D01*
X129695819Y-74749980D01*
X129662334Y-74688657D01*
X129659500Y-74662299D01*
X129659500Y-66458629D01*
X129650187Y-66399834D01*
X129650187Y-66399832D01*
X129631542Y-66282109D01*
X129631541Y-66282104D01*
X129589853Y-66153805D01*
X129589853Y-66153803D01*
X129576311Y-66112125D01*
X129576310Y-66112124D01*
X129576309Y-66112119D01*
X129537375Y-66035708D01*
X129495168Y-65952869D01*
X129425298Y-65856703D01*
X129390111Y-65808272D01*
X129263728Y-65681889D01*
X128008473Y-64426634D01*
X129928500Y-64426634D01*
X129928500Y-64605365D01*
X129956460Y-64781898D01*
X129956460Y-64781901D01*
X130011689Y-64951878D01*
X130011691Y-64951881D01*
X130092833Y-65111132D01*
X130197889Y-65255728D01*
X130324272Y-65382111D01*
X130468868Y-65487167D01*
X130628119Y-65568309D01*
X130628121Y-65568310D01*
X130786670Y-65619825D01*
X130798103Y-65623540D01*
X130974634Y-65651500D01*
X134919299Y-65651500D01*
X134986338Y-65671185D01*
X135006980Y-65687819D01*
X135357172Y-66038011D01*
X135380491Y-66070420D01*
X135424942Y-66159689D01*
X135559020Y-66337238D01*
X135723437Y-66487123D01*
X135723439Y-66487125D01*
X135803112Y-66536455D01*
X135912599Y-66604247D01*
X135912608Y-66604250D01*
X135916018Y-66605949D01*
X135948431Y-66629270D01*
X136903181Y-67584020D01*
X136936666Y-67645343D01*
X136939500Y-67671701D01*
X136939500Y-71055263D01*
X136919815Y-71122302D01*
X136867011Y-71168057D01*
X136858836Y-71171444D01*
X136832665Y-71181205D01*
X136717455Y-71267452D01*
X136717452Y-71267455D01*
X136631206Y-71382664D01*
X136631202Y-71382671D01*
X136580908Y-71517517D01*
X136577397Y-71550179D01*
X136574501Y-71577123D01*
X136574500Y-71577135D01*
X136574500Y-73672870D01*
X136574501Y-73672876D01*
X136580908Y-73732483D01*
X136631202Y-73867328D01*
X136631206Y-73867335D01*
X136717452Y-73982544D01*
X136717455Y-73982547D01*
X136832664Y-74068793D01*
X136832671Y-74068797D01*
X136967517Y-74119091D01*
X136967516Y-74119091D01*
X136974444Y-74119835D01*
X137027127Y-74125500D01*
X139122872Y-74125499D01*
X139182483Y-74119091D01*
X139317331Y-74068796D01*
X139432546Y-73982546D01*
X139518796Y-73867331D01*
X139569091Y-73732483D01*
X139575500Y-73672873D01*
X139575499Y-71577128D01*
X139569091Y-71517517D01*
X139518796Y-71382669D01*
X139518795Y-71382668D01*
X139518793Y-71382664D01*
X139432547Y-71267455D01*
X139432544Y-71267452D01*
X139317334Y-71181205D01*
X139291164Y-71171444D01*
X139235231Y-71129571D01*
X139210816Y-71064106D01*
X139210500Y-71055263D01*
X139210500Y-67060632D01*
X139205866Y-67031379D01*
X139205866Y-67031375D01*
X139182542Y-66884107D01*
X139182541Y-66884106D01*
X139182541Y-66884103D01*
X139128815Y-66718754D01*
X139127754Y-66714993D01*
X139111810Y-66683701D01*
X139046167Y-66554868D01*
X138941111Y-66410272D01*
X138814728Y-66283889D01*
X137542827Y-65011988D01*
X137519508Y-64979578D01*
X137475059Y-64890312D01*
X137340979Y-64712761D01*
X137176562Y-64562876D01*
X137176560Y-64562874D01*
X136987407Y-64445757D01*
X136987401Y-64445753D01*
X136987391Y-64445749D01*
X136983979Y-64444050D01*
X136951571Y-64420731D01*
X136180731Y-63649891D01*
X136179273Y-63648831D01*
X136179268Y-63648828D01*
X136036132Y-63544833D01*
X135876881Y-63463691D01*
X135876875Y-63463688D01*
X135835194Y-63450146D01*
X135758373Y-63425185D01*
X135706897Y-63408459D01*
X135706895Y-63408458D01*
X135706894Y-63408458D01*
X135530370Y-63380500D01*
X135530366Y-63380500D01*
X130974634Y-63380500D01*
X130915790Y-63389820D01*
X130798101Y-63408460D01*
X130798098Y-63408460D01*
X130628121Y-63463689D01*
X130628118Y-63463691D01*
X130468867Y-63544833D01*
X130324270Y-63649890D01*
X130197890Y-63776270D01*
X130092833Y-63920867D01*
X130011691Y-64080118D01*
X130011689Y-64080121D01*
X129956460Y-64250098D01*
X129956460Y-64250101D01*
X129928500Y-64426634D01*
X128008473Y-64426634D01*
X124026838Y-60444999D01*
X135244357Y-60444999D01*
X135244357Y-60445000D01*
X135264884Y-60666535D01*
X135264885Y-60666537D01*
X135325769Y-60880523D01*
X135325775Y-60880538D01*
X135424938Y-61079683D01*
X135424943Y-61079691D01*
X135559020Y-61257238D01*
X135723437Y-61407123D01*
X135723439Y-61407125D01*
X135831632Y-61474114D01*
X135912599Y-61524247D01*
X135912608Y-61524250D01*
X135916022Y-61525951D01*
X135948430Y-61549270D01*
X136325271Y-61926111D01*
X136386118Y-61970319D01*
X136469868Y-62031167D01*
X136629119Y-62112309D01*
X136629121Y-62112310D01*
X136787670Y-62163825D01*
X136799103Y-62167540D01*
X136975634Y-62195500D01*
X139786167Y-62195500D01*
X139853206Y-62215185D01*
X139862320Y-62221639D01*
X139881374Y-62236470D01*
X140085497Y-62346936D01*
X140199487Y-62386068D01*
X140305015Y-62422297D01*
X140305017Y-62422297D01*
X140305019Y-62422298D01*
X140533951Y-62460500D01*
X140533952Y-62460500D01*
X140766048Y-62460500D01*
X140766049Y-62460500D01*
X140994981Y-62422298D01*
X141214503Y-62346936D01*
X141418626Y-62236470D01*
X141471265Y-62195500D01*
X141578147Y-62112310D01*
X141601784Y-62093913D01*
X141758979Y-61923153D01*
X141885924Y-61728849D01*
X141979157Y-61516300D01*
X142036134Y-61291305D01*
X142043807Y-61198703D01*
X142055300Y-61060006D01*
X142055300Y-61059993D01*
X142036135Y-60828702D01*
X142036133Y-60828691D01*
X141979157Y-60603699D01*
X141885924Y-60391151D01*
X141758983Y-60196852D01*
X141758980Y-60196849D01*
X141758979Y-60196847D01*
X141601784Y-60026087D01*
X141601779Y-60026083D01*
X141601777Y-60026081D01*
X141418634Y-59883535D01*
X141418628Y-59883531D01*
X141214504Y-59773064D01*
X141214495Y-59773061D01*
X140994984Y-59697702D01*
X140823282Y-59669050D01*
X140766049Y-59659500D01*
X140533951Y-59659500D01*
X140488164Y-59667140D01*
X140305015Y-59697702D01*
X140085504Y-59773061D01*
X140085495Y-59773064D01*
X139932670Y-59855770D01*
X139881374Y-59883530D01*
X139862327Y-59898354D01*
X139797335Y-59923996D01*
X139786167Y-59924500D01*
X137608694Y-59924500D01*
X137541655Y-59904815D01*
X137497694Y-59855771D01*
X137475058Y-59810311D01*
X137475057Y-59810310D01*
X137475057Y-59810309D01*
X137340979Y-59632761D01*
X137176562Y-59482876D01*
X137176560Y-59482874D01*
X136987404Y-59365754D01*
X136987398Y-59365752D01*
X136779940Y-59285382D01*
X136561243Y-59244500D01*
X136338757Y-59244500D01*
X136120060Y-59285382D01*
X135988864Y-59336207D01*
X135912601Y-59365752D01*
X135912595Y-59365754D01*
X135723439Y-59482874D01*
X135723437Y-59482876D01*
X135559020Y-59632761D01*
X135424943Y-59810308D01*
X135424938Y-59810316D01*
X135325775Y-60009461D01*
X135325769Y-60009476D01*
X135264885Y-60223462D01*
X135264884Y-60223464D01*
X135244357Y-60444999D01*
X124026838Y-60444999D01*
X121135728Y-57553889D01*
X120991132Y-57448833D01*
X120831881Y-57367691D01*
X120831875Y-57367688D01*
X120790194Y-57354146D01*
X120723453Y-57332460D01*
X120661897Y-57312459D01*
X120661895Y-57312458D01*
X120661894Y-57312458D01*
X120485370Y-57284500D01*
X120485366Y-57284500D01*
X106496702Y-57284500D01*
X106429663Y-57264815D01*
X106409021Y-57248181D01*
X102922969Y-53762130D01*
X102889484Y-53700807D01*
X102893809Y-53632925D01*
X102963982Y-53435480D01*
X102963983Y-53435473D01*
X102963985Y-53435469D01*
X103007634Y-53225413D01*
X103020331Y-53164314D01*
X103039231Y-52888000D01*
X104060769Y-52888000D01*
X104079668Y-53164314D01*
X104079669Y-53164316D01*
X104136014Y-53435469D01*
X104136019Y-53435485D01*
X104228760Y-53696435D01*
X104228763Y-53696441D01*
X104228764Y-53696444D01*
X104228766Y-53696448D01*
X104356186Y-53942356D01*
X104515903Y-54168623D01*
X104704942Y-54371035D01*
X104919782Y-54545821D01*
X104919784Y-54545822D01*
X104919785Y-54545823D01*
X105156423Y-54689725D01*
X105329917Y-54765083D01*
X105410452Y-54800065D01*
X105677141Y-54874788D01*
X105918364Y-54907942D01*
X105951519Y-54912500D01*
X105951520Y-54912500D01*
X106228481Y-54912500D01*
X106258061Y-54908434D01*
X106502859Y-54874788D01*
X106769548Y-54800065D01*
X107023578Y-54689724D01*
X107260218Y-54545821D01*
X107475058Y-54371035D01*
X107664097Y-54168623D01*
X107823814Y-53942356D01*
X107951234Y-53696448D01*
X107961404Y-53667834D01*
X108037520Y-53453663D01*
X108043982Y-53435480D01*
X108043982Y-53435475D01*
X108043985Y-53435469D01*
X108087634Y-53225413D01*
X108100331Y-53164314D01*
X108119231Y-52888000D01*
X114220769Y-52888000D01*
X114239668Y-53164314D01*
X114239669Y-53164316D01*
X114296014Y-53435469D01*
X114296019Y-53435485D01*
X114388760Y-53696435D01*
X114388763Y-53696441D01*
X114388764Y-53696444D01*
X114388766Y-53696448D01*
X114516186Y-53942356D01*
X114675903Y-54168623D01*
X114864942Y-54371035D01*
X115079782Y-54545821D01*
X115079784Y-54545822D01*
X115079785Y-54545823D01*
X115316423Y-54689725D01*
X115489917Y-54765083D01*
X115570452Y-54800065D01*
X115837141Y-54874788D01*
X116078364Y-54907942D01*
X116111519Y-54912500D01*
X116111520Y-54912500D01*
X116388481Y-54912500D01*
X116418061Y-54908434D01*
X116662859Y-54874788D01*
X116929548Y-54800065D01*
X117183578Y-54689724D01*
X117420218Y-54545821D01*
X117635058Y-54371035D01*
X117824097Y-54168623D01*
X117983814Y-53942356D01*
X118111234Y-53696448D01*
X118121404Y-53667834D01*
X118197520Y-53453663D01*
X118203982Y-53435480D01*
X118203982Y-53435475D01*
X118203985Y-53435469D01*
X118247634Y-53225413D01*
X118260331Y-53164314D01*
X118279231Y-52888000D01*
X118260331Y-52611686D01*
X118242595Y-52526335D01*
X118203985Y-52340530D01*
X118203980Y-52340514D01*
X118111239Y-52079564D01*
X118111236Y-52079558D01*
X118111234Y-52079552D01*
X117983814Y-51833644D01*
X117824097Y-51607377D01*
X117635058Y-51404965D01*
X117420218Y-51230179D01*
X117420216Y-51230178D01*
X117420214Y-51230176D01*
X117183576Y-51086274D01*
X116929551Y-50975936D01*
X116929549Y-50975935D01*
X116929548Y-50975935D01*
X116853673Y-50954676D01*
X116662864Y-50901213D01*
X116662860Y-50901212D01*
X116662859Y-50901212D01*
X116435110Y-50869909D01*
X116388481Y-50863500D01*
X116388480Y-50863500D01*
X116111520Y-50863500D01*
X116111519Y-50863500D01*
X115837141Y-50901212D01*
X115837135Y-50901213D01*
X115570448Y-50975936D01*
X115316423Y-51086274D01*
X115079785Y-51230176D01*
X114864941Y-51404965D01*
X114675907Y-51607372D01*
X114516186Y-51833643D01*
X114388763Y-52079558D01*
X114388760Y-52079564D01*
X114296019Y-52340514D01*
X114296014Y-52340530D01*
X114239669Y-52611683D01*
X114239668Y-52611685D01*
X114220769Y-52888000D01*
X108119231Y-52888000D01*
X108100331Y-52611686D01*
X108082595Y-52526335D01*
X108043985Y-52340530D01*
X108043980Y-52340514D01*
X107951239Y-52079564D01*
X107951236Y-52079558D01*
X107951234Y-52079552D01*
X107823814Y-51833644D01*
X107664097Y-51607377D01*
X107475058Y-51404965D01*
X107260218Y-51230179D01*
X107260216Y-51230178D01*
X107260214Y-51230176D01*
X107023576Y-51086274D01*
X106769551Y-50975936D01*
X106769549Y-50975935D01*
X106769548Y-50975935D01*
X106693673Y-50954676D01*
X106502864Y-50901213D01*
X106502860Y-50901212D01*
X106502859Y-50901212D01*
X106275110Y-50869909D01*
X106228481Y-50863500D01*
X106228480Y-50863500D01*
X105951520Y-50863500D01*
X105951519Y-50863500D01*
X105677141Y-50901212D01*
X105677135Y-50901213D01*
X105410448Y-50975936D01*
X105156423Y-51086274D01*
X104919785Y-51230176D01*
X104704941Y-51404965D01*
X104515907Y-51607372D01*
X104356186Y-51833643D01*
X104228763Y-52079558D01*
X104228760Y-52079564D01*
X104136019Y-52340514D01*
X104136014Y-52340530D01*
X104079669Y-52611683D01*
X104079668Y-52611685D01*
X104060769Y-52888000D01*
X103039231Y-52888000D01*
X103020331Y-52611686D01*
X103002595Y-52526335D01*
X102963985Y-52340530D01*
X102963980Y-52340514D01*
X102871239Y-52079564D01*
X102871236Y-52079558D01*
X102871234Y-52079552D01*
X102743814Y-51833644D01*
X102584097Y-51607377D01*
X102395058Y-51404965D01*
X102180218Y-51230179D01*
X102180216Y-51230178D01*
X102180214Y-51230176D01*
X101943576Y-51086274D01*
X101689551Y-50975936D01*
X101689549Y-50975935D01*
X101689548Y-50975935D01*
X101613673Y-50954676D01*
X101422864Y-50901213D01*
X101422860Y-50901212D01*
X101422859Y-50901212D01*
X101195110Y-50869909D01*
X101148481Y-50863500D01*
X101148480Y-50863500D01*
X100871520Y-50863500D01*
X100871519Y-50863500D01*
X100597141Y-50901212D01*
X100597135Y-50901213D01*
X100330448Y-50975936D01*
X100076423Y-51086274D01*
X99839785Y-51230176D01*
X99624941Y-51404965D01*
X99435907Y-51607372D01*
X99276186Y-51833643D01*
X99148763Y-52079558D01*
X99148760Y-52079564D01*
X99056019Y-52340514D01*
X99056014Y-52340530D01*
X98999669Y-52611683D01*
X98999668Y-52611685D01*
X98980769Y-52888000D01*
X98999668Y-53164314D01*
X98999669Y-53164316D01*
X99056014Y-53435469D01*
X99056019Y-53435485D01*
X99148760Y-53696435D01*
X99148763Y-53696441D01*
X99148764Y-53696444D01*
X99148766Y-53696448D01*
X99276186Y-53942356D01*
X99435903Y-54168623D01*
X99624942Y-54371035D01*
X99839782Y-54545821D01*
X99839784Y-54545822D01*
X99839785Y-54545823D01*
X100076423Y-54689725D01*
X100249917Y-54765083D01*
X100330452Y-54800065D01*
X100597141Y-54874788D01*
X100818778Y-54905250D01*
X100882513Y-54933879D01*
X100889574Y-54940413D01*
X105235271Y-59286111D01*
X105296118Y-59330319D01*
X105379868Y-59391167D01*
X105539119Y-59472309D01*
X105539121Y-59472310D01*
X105697670Y-59523825D01*
X105709103Y-59527540D01*
X105885634Y-59555500D01*
X119874299Y-59555500D01*
X119941338Y-59575185D01*
X119961980Y-59591819D01*
X127352181Y-66982020D01*
X127385666Y-67043343D01*
X127388500Y-67069701D01*
X127388500Y-72026832D01*
X127368815Y-72093871D01*
X127316011Y-72139626D01*
X127246853Y-72149570D01*
X127195610Y-72129935D01*
X127141636Y-72093871D01*
X127061947Y-72040625D01*
X127061944Y-72040623D01*
X127061943Y-72040623D01*
X126901528Y-71974177D01*
X126901518Y-71974174D01*
X126731223Y-71940300D01*
X126731221Y-71940300D01*
X126557579Y-71940300D01*
X126557577Y-71940300D01*
X126387281Y-71974174D01*
X126387271Y-71974177D01*
X126226856Y-72040622D01*
X126082473Y-72137095D01*
X125959696Y-72259872D01*
X125959693Y-72259876D01*
X125949602Y-72274979D01*
X125895989Y-72319784D01*
X125826664Y-72328491D01*
X125763637Y-72298336D01*
X125726918Y-72238893D01*
X125722500Y-72206088D01*
X125722500Y-67644446D01*
X125722501Y-67644425D01*
X125722501Y-67489685D01*
X125693506Y-67343925D01*
X125693505Y-67343923D01*
X125693505Y-67343921D01*
X125682385Y-67317076D01*
X125636629Y-67206610D01*
X125566856Y-67102187D01*
X125554060Y-67083035D01*
X125554059Y-67083034D01*
X125502400Y-67031375D01*
X125448966Y-66977941D01*
X122119852Y-63648827D01*
X118700969Y-60229943D01*
X118700968Y-60229942D01*
X118577392Y-60147372D01*
X118577391Y-60147371D01*
X118577389Y-60147370D01*
X118577386Y-60147368D01*
X118577381Y-60147366D01*
X118485962Y-60109500D01*
X118485960Y-60109499D01*
X118440084Y-60090496D01*
X118440080Y-60090495D01*
X118415894Y-60085684D01*
X118294314Y-60061499D01*
X118294312Y-60061499D01*
X118145688Y-60061499D01*
X118139574Y-60061499D01*
X118139554Y-60061500D01*
X102139446Y-60061500D01*
X102139426Y-60061499D01*
X102133312Y-60061499D01*
X101984688Y-60061499D01*
X101984686Y-60061499D01*
X101863105Y-60085684D01*
X101848540Y-60088581D01*
X101838918Y-60090495D01*
X101838917Y-60090495D01*
X101793037Y-60109500D01*
X101701613Y-60147368D01*
X101701611Y-60147370D01*
X101578033Y-60229941D01*
X101525487Y-60282487D01*
X101472941Y-60335034D01*
X101472939Y-60335036D01*
X101039399Y-60768574D01*
X100978076Y-60802059D01*
X100931309Y-60803202D01*
X100729335Y-60769500D01*
X100480665Y-60769500D01*
X100235383Y-60810429D01*
X100000197Y-60891169D01*
X100000188Y-60891172D01*
X99781491Y-61009525D01*
X99781487Y-61009528D01*
X99654518Y-61108353D01*
X99589524Y-61133996D01*
X99578356Y-61134500D01*
X98168630Y-61134500D01*
X97992105Y-61162458D01*
X97880557Y-61198702D01*
X97880558Y-61198703D01*
X97822114Y-61217692D01*
X97662867Y-61298833D01*
X97546517Y-61383368D01*
X97546515Y-61383369D01*
X97518275Y-61403885D01*
X96161890Y-62760270D01*
X96056833Y-62904867D01*
X95975243Y-63064997D01*
X95974184Y-63068754D01*
X95920458Y-63234105D01*
X95893312Y-63405495D01*
X95893313Y-63405496D01*
X95892500Y-63410630D01*
X95892500Y-69882370D01*
X95919731Y-70054298D01*
X95920459Y-70058897D01*
X95940748Y-70121337D01*
X95956768Y-70170641D01*
X95956768Y-70170642D01*
X95975689Y-70228878D01*
X95975691Y-70228881D01*
X96056833Y-70388132D01*
X96154942Y-70523166D01*
X96154941Y-70523166D01*
X96161886Y-70532725D01*
X96161892Y-70532732D01*
X98958454Y-73329293D01*
X98991939Y-73390616D01*
X98994484Y-73408512D01*
X98999668Y-73484314D01*
X98999669Y-73484316D01*
X99056014Y-73755469D01*
X99056019Y-73755485D01*
X99148760Y-74016435D01*
X99148763Y-74016441D01*
X99148764Y-74016444D01*
X99148766Y-74016448D01*
X99276186Y-74262356D01*
X99435903Y-74488623D01*
X99435907Y-74488627D01*
X99541662Y-74601864D01*
X99573033Y-74664294D01*
X99565673Y-74733775D01*
X99521916Y-74788246D01*
X99455656Y-74810414D01*
X99451038Y-74810500D01*
X95163177Y-74810500D01*
X94992881Y-74844374D01*
X94992871Y-74844377D01*
X94832456Y-74910822D01*
X94688073Y-75007295D01*
X93661795Y-76033573D01*
X93565323Y-76177956D01*
X93498876Y-76338374D01*
X93498874Y-76338383D01*
X93477369Y-76446499D01*
X93477369Y-76446500D01*
X93473453Y-76466185D01*
X93465000Y-76508678D01*
X93465000Y-80901613D01*
X93445315Y-80968652D01*
X93428681Y-80989294D01*
X91898181Y-82519794D01*
X91836858Y-82553279D01*
X91767166Y-82548295D01*
X91711233Y-82506423D01*
X91686816Y-82440959D01*
X91686500Y-82432113D01*
X91686500Y-52687886D01*
X91706185Y-52620847D01*
X91722819Y-52600205D01*
X95272205Y-49050819D01*
X95333528Y-49017334D01*
X95359886Y-49014500D01*
X119838669Y-49014500D01*
X119852552Y-49015279D01*
X119864995Y-49016681D01*
X119887999Y-49019274D01*
X119888000Y-49019274D01*
X119888001Y-49019274D01*
X119911004Y-49016681D01*
X119923447Y-49015279D01*
X119937331Y-49014500D01*
X119962312Y-49014500D01*
X119998941Y-49007213D01*
X120009215Y-49005615D01*
X120056954Y-49000237D01*
X120078946Y-48992541D01*
X120095717Y-48987963D01*
X120099339Y-48987243D01*
X120108072Y-48985507D01*
X120108073Y-48985506D01*
X120108080Y-48985505D01*
X120153991Y-48966486D01*
X120160448Y-48964021D01*
X120217437Y-48944082D01*
X120226676Y-48938276D01*
X120245205Y-48928705D01*
X120245390Y-48928629D01*
X120296979Y-48894156D01*
X120299841Y-48892303D01*
X120361400Y-48853624D01*
X120361402Y-48853622D01*
X120361890Y-48853135D01*
X120481127Y-48733898D01*
X120481128Y-48733899D01*
X120481142Y-48733881D01*
X120481624Y-48733400D01*
X120520303Y-48671841D01*
X120522156Y-48668979D01*
X120556629Y-48617390D01*
X120556705Y-48617205D01*
X120566276Y-48598676D01*
X120572082Y-48589437D01*
X120592021Y-48532448D01*
X120594492Y-48525977D01*
X120613505Y-48480080D01*
X120615963Y-48467717D01*
X120620542Y-48450943D01*
X120628237Y-48428954D01*
X120633615Y-48381215D01*
X120635213Y-48370941D01*
X120642500Y-48334312D01*
X120642500Y-48309330D01*
X120643280Y-48295445D01*
X120647274Y-48260000D01*
X120647274Y-48259997D01*
X120643280Y-48224552D01*
X120642500Y-48210668D01*
X120642500Y-48185687D01*
X120635216Y-48149071D01*
X120633615Y-48138779D01*
X120628237Y-48091046D01*
X120620536Y-48069041D01*
X120615964Y-48052285D01*
X120613505Y-48039920D01*
X120594489Y-47994013D01*
X120592014Y-47987529D01*
X120589018Y-47978966D01*
X120572082Y-47930563D01*
X120566278Y-47921326D01*
X120556706Y-47902796D01*
X120556629Y-47902610D01*
X120556628Y-47902609D01*
X120522174Y-47851045D01*
X120520319Y-47848184D01*
X120481624Y-47786600D01*
X120478399Y-47783375D01*
X120478379Y-47783353D01*
X120365870Y-47670844D01*
X120365839Y-47670815D01*
X120361400Y-47666376D01*
X120299857Y-47627706D01*
X120296939Y-47625815D01*
X120245386Y-47591368D01*
X120245193Y-47591289D01*
X120226675Y-47581722D01*
X120222039Y-47578809D01*
X120217436Y-47575917D01*
X120160471Y-47555985D01*
X120153972Y-47553504D01*
X120108079Y-47534494D01*
X120108076Y-47534493D01*
X120095707Y-47532033D01*
X120078947Y-47527458D01*
X120056957Y-47519763D01*
X120009234Y-47514385D01*
X119998935Y-47512783D01*
X119962315Y-47505500D01*
X119962312Y-47505500D01*
X119937331Y-47505500D01*
X119923447Y-47504720D01*
X119911004Y-47503318D01*
X119888001Y-47500726D01*
X119887999Y-47500726D01*
X119864995Y-47503318D01*
X119852552Y-47504720D01*
X119838669Y-47505500D01*
X95076446Y-47505500D01*
X95076426Y-47505499D01*
X95070312Y-47505499D01*
X94921688Y-47505499D01*
X94921686Y-47505499D01*
X94800105Y-47529684D01*
X94788297Y-47532033D01*
X94775918Y-47534495D01*
X94775917Y-47534495D01*
X94719045Y-47558052D01*
X94719045Y-47558053D01*
X94638807Y-47591289D01*
X94638609Y-47591371D01*
X94515033Y-47673941D01*
X94483268Y-47705707D01*
X94409941Y-47779034D01*
X94409939Y-47779036D01*
X90345943Y-51843030D01*
X90345942Y-51843031D01*
X90263372Y-51966607D01*
X90263366Y-51966618D01*
X90206496Y-52103916D01*
X90206493Y-52103926D01*
X90177499Y-52249685D01*
X90177499Y-52404425D01*
X90177500Y-52404446D01*
X90177500Y-82754668D01*
X90176720Y-82768552D01*
X90172726Y-82804000D01*
X90175771Y-82831028D01*
X90176720Y-82839445D01*
X90177500Y-82853330D01*
X90177500Y-82878315D01*
X90184783Y-82914935D01*
X90186385Y-82925234D01*
X90191763Y-82972957D01*
X90199458Y-82994947D01*
X90204033Y-83011707D01*
X90206493Y-83024076D01*
X90206494Y-83024079D01*
X90225504Y-83069972D01*
X90227985Y-83076471D01*
X90247917Y-83133436D01*
X90253721Y-83142672D01*
X90263289Y-83161193D01*
X90263368Y-83161386D01*
X90297815Y-83212939D01*
X90299706Y-83215857D01*
X90338376Y-83277400D01*
X90342815Y-83281839D01*
X90342844Y-83281870D01*
X90455353Y-83394379D01*
X90455375Y-83394399D01*
X90458600Y-83397624D01*
X90520184Y-83436319D01*
X90523036Y-83438168D01*
X90568785Y-83468737D01*
X90574609Y-83472628D01*
X90574610Y-83472629D01*
X90574796Y-83472706D01*
X90593326Y-83482278D01*
X90602563Y-83488082D01*
X90638948Y-83500813D01*
X90658773Y-83507750D01*
X90715550Y-83548471D01*
X90741298Y-83613424D01*
X90727842Y-83681985D01*
X90705501Y-83712473D01*
X89866181Y-84551794D01*
X89804858Y-84585279D01*
X89735167Y-84580295D01*
X89679233Y-84538423D01*
X89654816Y-84472959D01*
X89654500Y-84464113D01*
X89654500Y-50909886D01*
X89674185Y-50842847D01*
X89690819Y-50822205D01*
X93748205Y-46764819D01*
X93809528Y-46731334D01*
X93835886Y-46728500D01*
X120600669Y-46728500D01*
X120614552Y-46729279D01*
X120626995Y-46730681D01*
X120649999Y-46733274D01*
X120650000Y-46733274D01*
X120650001Y-46733274D01*
X120673004Y-46730681D01*
X120685447Y-46729279D01*
X120699331Y-46728500D01*
X120724312Y-46728500D01*
X120760941Y-46721213D01*
X120771215Y-46719615D01*
X120818954Y-46714237D01*
X120840946Y-46706541D01*
X120857717Y-46701963D01*
X120861339Y-46701243D01*
X120870072Y-46699507D01*
X120870073Y-46699506D01*
X120870080Y-46699505D01*
X120915991Y-46680486D01*
X120922448Y-46678021D01*
X120979437Y-46658082D01*
X120988676Y-46652276D01*
X121007205Y-46642705D01*
X121007390Y-46642629D01*
X121058979Y-46608156D01*
X121061841Y-46606303D01*
X121123400Y-46567624D01*
X121123402Y-46567622D01*
X121123890Y-46567135D01*
X121243127Y-46447898D01*
X121243128Y-46447899D01*
X121243142Y-46447881D01*
X121243624Y-46447400D01*
X121282303Y-46385841D01*
X121284156Y-46382979D01*
X121318629Y-46331390D01*
X121318705Y-46331205D01*
X121328276Y-46312676D01*
X121334082Y-46303437D01*
X121354021Y-46246448D01*
X121356492Y-46239977D01*
X121375505Y-46194080D01*
X121377963Y-46181717D01*
X121382542Y-46164943D01*
X121390237Y-46142954D01*
X121395615Y-46095215D01*
X121397213Y-46084941D01*
X121404500Y-46048312D01*
X121404500Y-46023330D01*
X121405280Y-46009445D01*
X121409274Y-45974000D01*
X121409274Y-45973997D01*
X121405280Y-45938552D01*
X121404500Y-45924668D01*
X121404500Y-45899687D01*
X121397216Y-45863071D01*
X121395615Y-45852779D01*
X121390237Y-45805046D01*
X121382536Y-45783041D01*
X121377964Y-45766285D01*
X121375505Y-45753920D01*
X121356489Y-45708013D01*
X121354014Y-45701529D01*
X121334082Y-45644563D01*
X121328278Y-45635326D01*
X121318706Y-45616796D01*
X121318629Y-45616610D01*
X121318628Y-45616609D01*
X121284174Y-45565045D01*
X121282319Y-45562184D01*
X121243624Y-45500600D01*
X121240399Y-45497375D01*
X121240379Y-45497353D01*
X121127870Y-45384844D01*
X121127839Y-45384815D01*
X121123400Y-45380376D01*
X121061857Y-45341706D01*
X121058939Y-45339815D01*
X121007386Y-45305368D01*
X121007193Y-45305289D01*
X120988675Y-45295722D01*
X120984039Y-45292809D01*
X120979436Y-45289917D01*
X120922471Y-45269985D01*
X120915972Y-45267504D01*
X120870079Y-45248494D01*
X120870076Y-45248493D01*
X120857707Y-45246033D01*
X120840947Y-45241458D01*
X120818957Y-45233763D01*
X120771234Y-45228385D01*
X120760935Y-45226783D01*
X120724315Y-45219500D01*
X120724312Y-45219500D01*
X120699331Y-45219500D01*
X120685447Y-45218720D01*
X120673004Y-45217318D01*
X120650001Y-45214726D01*
X120649999Y-45214726D01*
X120626995Y-45217318D01*
X120614552Y-45218720D01*
X120600669Y-45219500D01*
X93397683Y-45219500D01*
X93251927Y-45248493D01*
X93251919Y-45248495D01*
X93114608Y-45305371D01*
X92991035Y-45387939D01*
X92991034Y-45387940D01*
X92938488Y-45440487D01*
X92885941Y-45493034D01*
X92885939Y-45493036D01*
X88313943Y-50065030D01*
X88313942Y-50065031D01*
X88231372Y-50188607D01*
X88231368Y-50188615D01*
X88203661Y-50255503D01*
X88203662Y-50255504D01*
X88189676Y-50289271D01*
X88189675Y-50289273D01*
X88174495Y-50325919D01*
X88174493Y-50325925D01*
X88145499Y-50471685D01*
X88145499Y-50626425D01*
X88145500Y-50626446D01*
X88145500Y-85040668D01*
X88144720Y-85054552D01*
X88140726Y-85089997D01*
X88140726Y-85090000D01*
X88144720Y-85125445D01*
X88145500Y-85139330D01*
X88145500Y-85164315D01*
X88152783Y-85200935D01*
X88154385Y-85211234D01*
X88159763Y-85258957D01*
X88167458Y-85280947D01*
X88172033Y-85297707D01*
X88174493Y-85310076D01*
X88174494Y-85310079D01*
X88193504Y-85355972D01*
X88195985Y-85362471D01*
X88215917Y-85419436D01*
X88221721Y-85428672D01*
X88231289Y-85447193D01*
X88231368Y-85447386D01*
X88236789Y-85455499D01*
X88263300Y-85495176D01*
X88265815Y-85498939D01*
X88267706Y-85501857D01*
X88306376Y-85563400D01*
X88310815Y-85567839D01*
X88310844Y-85567870D01*
X88423353Y-85680379D01*
X88423375Y-85680399D01*
X88426602Y-85683626D01*
X88483937Y-85719651D01*
X88530229Y-85771985D01*
X88540878Y-85841038D01*
X88512503Y-85904887D01*
X88505647Y-85912326D01*
X87438942Y-86979031D01*
X87356372Y-87102607D01*
X87356366Y-87102618D01*
X87299496Y-87239916D01*
X87299493Y-87239926D01*
X87270499Y-87385685D01*
X87270499Y-87540425D01*
X87270500Y-87540446D01*
X87270500Y-94316770D01*
X87250815Y-94383809D01*
X87234181Y-94404451D01*
X87182289Y-94456342D01*
X87090187Y-94605663D01*
X87090186Y-94605666D01*
X87035001Y-94772203D01*
X87035001Y-94772204D01*
X87035000Y-94772204D01*
X87024500Y-94874983D01*
X87024500Y-95925001D01*
X87024501Y-95925019D01*
X87035000Y-96027796D01*
X87035001Y-96027797D01*
X87064026Y-96115390D01*
X87090186Y-96194334D01*
X87125039Y-96250840D01*
X87143500Y-96315936D01*
X87143500Y-96580122D01*
X87123815Y-96647161D01*
X87071011Y-96692916D01*
X87062833Y-96696304D01*
X86982671Y-96726202D01*
X86982664Y-96726206D01*
X86867455Y-96812452D01*
X86867452Y-96812455D01*
X86781206Y-96927664D01*
X86781202Y-96927671D01*
X86741182Y-97034972D01*
X86699311Y-97090906D01*
X86633846Y-97115323D01*
X86565573Y-97100471D01*
X86516168Y-97051066D01*
X86508818Y-97034972D01*
X86468797Y-96927671D01*
X86468793Y-96927664D01*
X86382547Y-96812455D01*
X86382544Y-96812452D01*
X86267335Y-96726206D01*
X86267328Y-96726202D01*
X86132482Y-96675908D01*
X86132483Y-96675908D01*
X86072883Y-96669501D01*
X86072881Y-96669500D01*
X86072873Y-96669500D01*
X86072865Y-96669500D01*
X85295500Y-96669500D01*
X85228461Y-96649815D01*
X85182706Y-96597011D01*
X85171500Y-96545500D01*
X85171500Y-89682887D01*
X85191185Y-89615848D01*
X85207819Y-89595206D01*
X85937127Y-88865898D01*
X85937128Y-88865899D01*
X85937142Y-88865881D01*
X85937624Y-88865400D01*
X85976300Y-88803846D01*
X85978175Y-88800953D01*
X86012630Y-88749389D01*
X86012706Y-88749204D01*
X86022281Y-88730668D01*
X86028082Y-88721437D01*
X86039718Y-88688184D01*
X86048017Y-88664465D01*
X86050498Y-88657966D01*
X86059947Y-88635154D01*
X86069505Y-88612079D01*
X86071966Y-88599702D01*
X86076539Y-88582951D01*
X86084237Y-88560954D01*
X86089615Y-88513214D01*
X86091210Y-88502957D01*
X86098501Y-88466312D01*
X86098501Y-88441321D01*
X86099281Y-88427436D01*
X86100547Y-88416206D01*
X86103274Y-88392000D01*
X86099280Y-88356552D01*
X86098501Y-88342677D01*
X86098501Y-88317685D01*
X86095158Y-88300885D01*
X86091212Y-88281048D01*
X86089615Y-88270784D01*
X86084237Y-88223046D01*
X86076536Y-88201041D01*
X86071964Y-88184286D01*
X86070016Y-88174493D01*
X86069505Y-88171921D01*
X86050497Y-88126031D01*
X86048020Y-88119540D01*
X86028083Y-88062566D01*
X86028082Y-88062563D01*
X86022277Y-88053325D01*
X86012709Y-88034802D01*
X86012630Y-88034611D01*
X85978165Y-87983031D01*
X85976279Y-87980120D01*
X85955085Y-87946390D01*
X85937624Y-87918600D01*
X85934399Y-87915375D01*
X85934379Y-87915353D01*
X85821870Y-87802844D01*
X85821839Y-87802815D01*
X85817400Y-87798376D01*
X85755862Y-87759709D01*
X85752944Y-87757818D01*
X85701389Y-87723370D01*
X85701387Y-87723369D01*
X85701186Y-87723285D01*
X85682679Y-87713725D01*
X85673438Y-87707918D01*
X85616468Y-87687983D01*
X85609976Y-87685505D01*
X85584091Y-87674784D01*
X85564079Y-87666495D01*
X85564075Y-87666494D01*
X85551705Y-87664033D01*
X85534954Y-87659460D01*
X85512954Y-87651763D01*
X85465238Y-87646386D01*
X85454932Y-87644783D01*
X85418313Y-87637499D01*
X85418312Y-87637499D01*
X85393323Y-87637499D01*
X85379439Y-87636719D01*
X85344002Y-87632726D01*
X85343998Y-87632726D01*
X85308561Y-87636719D01*
X85294677Y-87637499D01*
X85269688Y-87637499D01*
X85233055Y-87644785D01*
X85222753Y-87646387D01*
X85175044Y-87651763D01*
X85153050Y-87659459D01*
X85136301Y-87664031D01*
X85123924Y-87666494D01*
X85123918Y-87666495D01*
X85078027Y-87685503D01*
X85071536Y-87687980D01*
X85014562Y-87707917D01*
X85014561Y-87707918D01*
X85005317Y-87713726D01*
X84986837Y-87723275D01*
X84986621Y-87723364D01*
X84986612Y-87723369D01*
X84935036Y-87757830D01*
X84932120Y-87759719D01*
X84870603Y-87798373D01*
X84870600Y-87798376D01*
X84863037Y-87805938D01*
X84863036Y-87805938D01*
X84863034Y-87805941D01*
X83830943Y-88838030D01*
X83830942Y-88838031D01*
X83748372Y-88961607D01*
X83748366Y-88961617D01*
X83724392Y-89019500D01*
X83693374Y-89094385D01*
X83693372Y-89094391D01*
X83691493Y-89098925D01*
X83691493Y-89098926D01*
X83662499Y-89244685D01*
X83662499Y-89399425D01*
X83662500Y-89399446D01*
X83662500Y-124215552D01*
X83662499Y-124215578D01*
X83662499Y-124369314D01*
X83681661Y-124465644D01*
X83685916Y-124487034D01*
X83691495Y-124515080D01*
X83707355Y-124553370D01*
X83748370Y-124652389D01*
X83803417Y-124734773D01*
X83830942Y-124775968D01*
X83830943Y-124775969D01*
X88309600Y-129254624D01*
X88309621Y-129254647D01*
X88419028Y-129364054D01*
X88419035Y-129364060D01*
X88542608Y-129446628D01*
X88542609Y-129446628D01*
X88542610Y-129446629D01*
X88679920Y-129503505D01*
X88789069Y-129525216D01*
X88825683Y-129532499D01*
X88825687Y-129532500D01*
X88825688Y-129532500D01*
X90120669Y-129532500D01*
X90134552Y-129533279D01*
X90146995Y-129534681D01*
X90169999Y-129537274D01*
X90170000Y-129537274D01*
X90170001Y-129537274D01*
X90193004Y-129534681D01*
X90205447Y-129533279D01*
X90219331Y-129532500D01*
X90244312Y-129532500D01*
X90280941Y-129525213D01*
X90291222Y-129523614D01*
X90297519Y-129522905D01*
X90366340Y-129534963D01*
X90417717Y-129582314D01*
X90433014Y-129621931D01*
X90435568Y-129634769D01*
X90438785Y-129650942D01*
X90440386Y-129661238D01*
X90445763Y-129708954D01*
X90453460Y-129730954D01*
X90458033Y-129747705D01*
X90460495Y-129760079D01*
X90469586Y-129782027D01*
X90479505Y-129805976D01*
X90481983Y-129812468D01*
X90501918Y-129869438D01*
X90507725Y-129878679D01*
X90517285Y-129897186D01*
X90517370Y-129897389D01*
X90551818Y-129948944D01*
X90553709Y-129951862D01*
X90592376Y-130013400D01*
X90596815Y-130017839D01*
X90596844Y-130017870D01*
X90709353Y-130130379D01*
X90709375Y-130130399D01*
X90712599Y-130133623D01*
X90712602Y-130133625D01*
X90774120Y-130172279D01*
X90777031Y-130174165D01*
X90828611Y-130208630D01*
X90828802Y-130208709D01*
X90847328Y-130218279D01*
X90856563Y-130224082D01*
X90856566Y-130224083D01*
X90913540Y-130244020D01*
X90920033Y-130246498D01*
X90965921Y-130265505D01*
X90978291Y-130267965D01*
X90995041Y-130272536D01*
X91017046Y-130280237D01*
X91064784Y-130285615D01*
X91075048Y-130287212D01*
X91098464Y-130291870D01*
X91111686Y-130294501D01*
X91111688Y-130294501D01*
X91136677Y-130294501D01*
X91150561Y-130295281D01*
X91185998Y-130299274D01*
X91186000Y-130299274D01*
X91186002Y-130299274D01*
X91221439Y-130295281D01*
X91235323Y-130294501D01*
X91260313Y-130294501D01*
X91265809Y-130293407D01*
X91296957Y-130287210D01*
X91307214Y-130285615D01*
X91354954Y-130280237D01*
X91376951Y-130272539D01*
X91393702Y-130267966D01*
X91406079Y-130265505D01*
X91451966Y-130246498D01*
X91458465Y-130244017D01*
X91515435Y-130224083D01*
X91515437Y-130224082D01*
X91524668Y-130218281D01*
X91543204Y-130208706D01*
X91543389Y-130208630D01*
X91594959Y-130174171D01*
X91597846Y-130172300D01*
X91619121Y-130158932D01*
X91659400Y-130133624D01*
X91659405Y-130133619D01*
X91659890Y-130133135D01*
X91659897Y-130133127D01*
X91666963Y-130126060D01*
X91666966Y-130126059D01*
X91920963Y-129872060D01*
X91920966Y-129872059D01*
X92026059Y-129766966D01*
X92108629Y-129643390D01*
X92165505Y-129506080D01*
X92194500Y-129360312D01*
X92194500Y-128612886D01*
X92214185Y-128545847D01*
X92266989Y-128500092D01*
X92336147Y-128490148D01*
X92399703Y-128519173D01*
X92406181Y-128525205D01*
X94405600Y-130524624D01*
X94405621Y-130524647D01*
X94515028Y-130634054D01*
X94515035Y-130634060D01*
X94638608Y-130716628D01*
X94638609Y-130716628D01*
X94638610Y-130716629D01*
X94775920Y-130773505D01*
X94921683Y-130802499D01*
X94921687Y-130802500D01*
X94921688Y-130802500D01*
X95070312Y-130802500D01*
X102760113Y-130802500D01*
X102827152Y-130822185D01*
X102847794Y-130838819D01*
X103862569Y-131853594D01*
X103896054Y-131914917D01*
X103891070Y-131984609D01*
X103862570Y-132028956D01*
X103756171Y-132135355D01*
X103640476Y-132294594D01*
X103550485Y-132471213D01*
X103502511Y-132522009D01*
X103434690Y-132538804D01*
X103368555Y-132516267D01*
X103329515Y-132471213D01*
X103239523Y-132294594D01*
X103214158Y-132259682D01*
X103123828Y-132135354D01*
X102984646Y-131996172D01*
X102825405Y-131880476D01*
X102809329Y-131872285D01*
X102650029Y-131791117D01*
X102462826Y-131730290D01*
X102268422Y-131699500D01*
X102268417Y-131699500D01*
X102071583Y-131699500D01*
X102071578Y-131699500D01*
X101877173Y-131730290D01*
X101689970Y-131791117D01*
X101514594Y-131880476D01*
X101468083Y-131914269D01*
X101355354Y-131996172D01*
X101355352Y-131996174D01*
X101355351Y-131996174D01*
X101216174Y-132135351D01*
X101216174Y-132135352D01*
X101216172Y-132135354D01*
X101166485Y-132203741D01*
X101100476Y-132294594D01*
X101010485Y-132471213D01*
X100962511Y-132522009D01*
X100894690Y-132538804D01*
X100828555Y-132516267D01*
X100789515Y-132471213D01*
X100699523Y-132294594D01*
X100674158Y-132259682D01*
X100583828Y-132135354D01*
X100444646Y-131996172D01*
X100285405Y-131880476D01*
X100269329Y-131872285D01*
X100110029Y-131791117D01*
X99922826Y-131730290D01*
X99728422Y-131699500D01*
X99728417Y-131699500D01*
X99531583Y-131699500D01*
X99531578Y-131699500D01*
X99337173Y-131730290D01*
X99149970Y-131791117D01*
X98974594Y-131880476D01*
X98928083Y-131914269D01*
X98815354Y-131996172D01*
X98815352Y-131996174D01*
X98815351Y-131996174D01*
X98676174Y-132135351D01*
X98676174Y-132135352D01*
X98676172Y-132135354D01*
X98626485Y-132203741D01*
X98560476Y-132294594D01*
X98470485Y-132471213D01*
X98422511Y-132522009D01*
X98354690Y-132538804D01*
X98288555Y-132516267D01*
X98249515Y-132471213D01*
X98159523Y-132294594D01*
X98134158Y-132259682D01*
X98043828Y-132135354D01*
X97904646Y-131996172D01*
X97745405Y-131880476D01*
X97729329Y-131872285D01*
X97570029Y-131791117D01*
X97382826Y-131730290D01*
X97188422Y-131699500D01*
X97188417Y-131699500D01*
X96991583Y-131699500D01*
X96991578Y-131699500D01*
X96797173Y-131730290D01*
X96609970Y-131791117D01*
X96434594Y-131880476D01*
X96388083Y-131914269D01*
X96275354Y-131996172D01*
X96275352Y-131996174D01*
X96275351Y-131996174D01*
X96136174Y-132135351D01*
X96136174Y-132135352D01*
X96136172Y-132135354D01*
X96086485Y-132203741D01*
X96020476Y-132294594D01*
X95931117Y-132469970D01*
X95870290Y-132657173D01*
X95839500Y-132851577D01*
X95839500Y-134548422D01*
X95870290Y-134742826D01*
X95931117Y-134930029D01*
X95965919Y-134998331D01*
X96020476Y-135105405D01*
X96136172Y-135264646D01*
X96275354Y-135403828D01*
X96284383Y-135410388D01*
X96327050Y-135465715D01*
X96335500Y-135510707D01*
X96335500Y-137904552D01*
X96335499Y-137904578D01*
X96335499Y-137909688D01*
X96335499Y-138058312D01*
X96335499Y-138058314D01*
X96335498Y-138058314D01*
X96364493Y-138204073D01*
X96364496Y-138204083D01*
X96421366Y-138341381D01*
X96421372Y-138341392D01*
X96503942Y-138464968D01*
X96503943Y-138464969D01*
X98042795Y-140003819D01*
X98076280Y-140065142D01*
X98071296Y-140134833D01*
X98029424Y-140190767D01*
X97963960Y-140215184D01*
X97955114Y-140215500D01*
X75808500Y-140215500D01*
X75741461Y-140195815D01*
X75695706Y-140143011D01*
X75684500Y-140091500D01*
X75684500Y-133857997D01*
X87632726Y-133857997D01*
X87632726Y-133858000D01*
X87636720Y-133893445D01*
X87637500Y-133907330D01*
X87637500Y-136826552D01*
X87637499Y-136826578D01*
X87637499Y-136980312D01*
X87657743Y-137082082D01*
X87657743Y-137082083D01*
X87666492Y-137126072D01*
X87666493Y-137126073D01*
X87666494Y-137126075D01*
X87666495Y-137126080D01*
X87671531Y-137138236D01*
X87671533Y-137138241D01*
X87671532Y-137138241D01*
X87723366Y-137263381D01*
X87723372Y-137263392D01*
X87805942Y-137386968D01*
X87805943Y-137386969D01*
X88190187Y-137771211D01*
X88306376Y-137887400D01*
X88426600Y-138007624D01*
X88488136Y-138046289D01*
X88491015Y-138048153D01*
X88542610Y-138082629D01*
X88542611Y-138082629D01*
X88542612Y-138082630D01*
X88542796Y-138082706D01*
X88561326Y-138092278D01*
X88570563Y-138098082D01*
X88627536Y-138118016D01*
X88634013Y-138120489D01*
X88679920Y-138139505D01*
X88692288Y-138141965D01*
X88709041Y-138146536D01*
X88731046Y-138154237D01*
X88778779Y-138159615D01*
X88789065Y-138161215D01*
X88809680Y-138165315D01*
X88825687Y-138168500D01*
X88825688Y-138168500D01*
X88850669Y-138168500D01*
X88864552Y-138169279D01*
X88876995Y-138170681D01*
X88899999Y-138173274D01*
X88900000Y-138173274D01*
X88900001Y-138173274D01*
X88923004Y-138170681D01*
X88935447Y-138169279D01*
X88949331Y-138168500D01*
X88974312Y-138168500D01*
X89010941Y-138161213D01*
X89021215Y-138159615D01*
X89068954Y-138154237D01*
X89090952Y-138146539D01*
X89107708Y-138141965D01*
X89120079Y-138139505D01*
X89165970Y-138120496D01*
X89172467Y-138118016D01*
X89229432Y-138098084D01*
X89229432Y-138098083D01*
X89229437Y-138098082D01*
X89238677Y-138092275D01*
X89257203Y-138082705D01*
X89257389Y-138082629D01*
X89308944Y-138048181D01*
X89311831Y-138046310D01*
X89311865Y-138046289D01*
X89373400Y-138007624D01*
X89493624Y-137887400D01*
X89532317Y-137825819D01*
X89534185Y-137822936D01*
X89568629Y-137771389D01*
X89568705Y-137771203D01*
X89578275Y-137752677D01*
X89584082Y-137743437D01*
X89604017Y-137686462D01*
X89606498Y-137679965D01*
X89625502Y-137634086D01*
X89625505Y-137634079D01*
X89627965Y-137621708D01*
X89632539Y-137604952D01*
X89640237Y-137582954D01*
X89645615Y-137535215D01*
X89647213Y-137524941D01*
X89654500Y-137488312D01*
X89654500Y-137463330D01*
X89655280Y-137449445D01*
X89658465Y-137421184D01*
X89659274Y-137414000D01*
X89655280Y-137378552D01*
X89654500Y-137364668D01*
X89654500Y-137339687D01*
X89647216Y-137303071D01*
X89645615Y-137292781D01*
X89644083Y-137279186D01*
X89656136Y-137210368D01*
X89703483Y-137158987D01*
X89771093Y-137141361D01*
X89781162Y-137142080D01*
X89794781Y-137143615D01*
X89805065Y-137145215D01*
X89825680Y-137149315D01*
X89841687Y-137152500D01*
X89841688Y-137152500D01*
X89866669Y-137152500D01*
X89880552Y-137153279D01*
X89892995Y-137154681D01*
X89915999Y-137157274D01*
X89916000Y-137157274D01*
X89916001Y-137157274D01*
X89939004Y-137154681D01*
X89951447Y-137153279D01*
X89965331Y-137152500D01*
X89990312Y-137152500D01*
X90026941Y-137145213D01*
X90037215Y-137143615D01*
X90084954Y-137138237D01*
X90106946Y-137130541D01*
X90123717Y-137125963D01*
X90127339Y-137125243D01*
X90136072Y-137123507D01*
X90136073Y-137123506D01*
X90136080Y-137123505D01*
X90181991Y-137104486D01*
X90188448Y-137102021D01*
X90245437Y-137082082D01*
X90254676Y-137076276D01*
X90273205Y-137066705D01*
X90273390Y-137066629D01*
X90324979Y-137032156D01*
X90327841Y-137030303D01*
X90389400Y-136991624D01*
X90389402Y-136991622D01*
X90389890Y-136991135D01*
X90509127Y-136871898D01*
X90509128Y-136871899D01*
X90509142Y-136871881D01*
X90509624Y-136871400D01*
X90543559Y-136817392D01*
X90548303Y-136809841D01*
X90550156Y-136806979D01*
X90584629Y-136755390D01*
X90584705Y-136755205D01*
X90594276Y-136736676D01*
X90600082Y-136727437D01*
X90620021Y-136670448D01*
X90622492Y-136663977D01*
X90641505Y-136618080D01*
X90643963Y-136605717D01*
X90648542Y-136588943D01*
X90656237Y-136566954D01*
X90661615Y-136519215D01*
X90663213Y-136508941D01*
X90670500Y-136472312D01*
X90670500Y-136447330D01*
X90671280Y-136433445D01*
X90675274Y-136398000D01*
X90675274Y-136397997D01*
X90671280Y-136362552D01*
X90670500Y-136348668D01*
X90670500Y-135092044D01*
X90690185Y-135025005D01*
X90742989Y-134979250D01*
X90812147Y-134969306D01*
X90875703Y-134998331D01*
X90904985Y-135035750D01*
X90940474Y-135105403D01*
X90975234Y-135153246D01*
X91056172Y-135264646D01*
X91195354Y-135403828D01*
X91354595Y-135519524D01*
X91437455Y-135561743D01*
X91529970Y-135608882D01*
X91529972Y-135608882D01*
X91529975Y-135608884D01*
X91630317Y-135641487D01*
X91717173Y-135669709D01*
X91911578Y-135700500D01*
X91911583Y-135700500D01*
X92108422Y-135700500D01*
X92302826Y-135669709D01*
X92346344Y-135655569D01*
X92490025Y-135608884D01*
X92665405Y-135519524D01*
X92824646Y-135403828D01*
X92963828Y-135264646D01*
X93079524Y-135105405D01*
X93168884Y-134930025D01*
X93229709Y-134742826D01*
X93236799Y-134698059D01*
X93260500Y-134548422D01*
X93260500Y-132851577D01*
X93229709Y-132657173D01*
X93200018Y-132565794D01*
X93168884Y-132469975D01*
X93168882Y-132469972D01*
X93168882Y-132469970D01*
X93079523Y-132294594D01*
X93054158Y-132259682D01*
X92963828Y-132135354D01*
X92824646Y-131996172D01*
X92665405Y-131880476D01*
X92649329Y-131872285D01*
X92490029Y-131791117D01*
X92302826Y-131730290D01*
X92108422Y-131699500D01*
X92108417Y-131699500D01*
X91911583Y-131699500D01*
X91911578Y-131699500D01*
X91717173Y-131730290D01*
X91529970Y-131791117D01*
X91354594Y-131880476D01*
X91308083Y-131914269D01*
X91195354Y-131996172D01*
X91195352Y-131996174D01*
X91195351Y-131996174D01*
X91056174Y-132135351D01*
X91056174Y-132135352D01*
X91056172Y-132135354D01*
X91006485Y-132203741D01*
X90940476Y-132294594D01*
X90904985Y-132364250D01*
X90857010Y-132415046D01*
X90789189Y-132431841D01*
X90723054Y-132409304D01*
X90679603Y-132354588D01*
X90670500Y-132307955D01*
X90670500Y-132129330D01*
X90671280Y-132115445D01*
X90675274Y-132080000D01*
X90675274Y-132079997D01*
X90671280Y-132044552D01*
X90670500Y-132030668D01*
X90670500Y-132005687D01*
X90666307Y-131984608D01*
X90663215Y-131969065D01*
X90661615Y-131958779D01*
X90656237Y-131911046D01*
X90648536Y-131889041D01*
X90643964Y-131872285D01*
X90641505Y-131859920D01*
X90622489Y-131814013D01*
X90620014Y-131807529D01*
X90617018Y-131798966D01*
X90600082Y-131750563D01*
X90594278Y-131741326D01*
X90584706Y-131722796D01*
X90584629Y-131722610D01*
X90584628Y-131722609D01*
X90575078Y-131708317D01*
X90550168Y-131671036D01*
X90548319Y-131668184D01*
X90509624Y-131606600D01*
X90506399Y-131603375D01*
X90506379Y-131603353D01*
X90393870Y-131490844D01*
X90393839Y-131490815D01*
X90389400Y-131486376D01*
X90327857Y-131447706D01*
X90324939Y-131445815D01*
X90273386Y-131411368D01*
X90273193Y-131411289D01*
X90254675Y-131401722D01*
X90250039Y-131398809D01*
X90245436Y-131395917D01*
X90188471Y-131375985D01*
X90181972Y-131373504D01*
X90136079Y-131354494D01*
X90136076Y-131354493D01*
X90123707Y-131352033D01*
X90106947Y-131347458D01*
X90084957Y-131339763D01*
X90037234Y-131334385D01*
X90026935Y-131332783D01*
X89990315Y-131325500D01*
X89990312Y-131325500D01*
X89965331Y-131325500D01*
X89951447Y-131324720D01*
X89939004Y-131323318D01*
X89916001Y-131320726D01*
X89915999Y-131320726D01*
X89892995Y-131323318D01*
X89880552Y-131324720D01*
X89866669Y-131325500D01*
X89841684Y-131325500D01*
X89805065Y-131332783D01*
X89794766Y-131334385D01*
X89747044Y-131339763D01*
X89725050Y-131347459D01*
X89708300Y-131352031D01*
X89695925Y-131354493D01*
X89695912Y-131354497D01*
X89650031Y-131373502D01*
X89643535Y-131375982D01*
X89586563Y-131395917D01*
X89577315Y-131401728D01*
X89558828Y-131411279D01*
X89558627Y-131411362D01*
X89558607Y-131411372D01*
X89507040Y-131445827D01*
X89504125Y-131447716D01*
X89442603Y-131486373D01*
X89442600Y-131486376D01*
X89435037Y-131493938D01*
X89435036Y-131493938D01*
X89329938Y-131599036D01*
X89329938Y-131599037D01*
X89325623Y-131603353D01*
X89322373Y-131606603D01*
X89283716Y-131668125D01*
X89281827Y-131671040D01*
X89247372Y-131722607D01*
X89247362Y-131722627D01*
X89247279Y-131722828D01*
X89237728Y-131741315D01*
X89231917Y-131750563D01*
X89211982Y-131807535D01*
X89209502Y-131814031D01*
X89190497Y-131859912D01*
X89190493Y-131859925D01*
X89188031Y-131872300D01*
X89183459Y-131889050D01*
X89175763Y-131911044D01*
X89170385Y-131958766D01*
X89168783Y-131969065D01*
X89161500Y-132005684D01*
X89161500Y-132030668D01*
X89160720Y-132044552D01*
X89156726Y-132079997D01*
X89156726Y-132080000D01*
X89160720Y-132115445D01*
X89161500Y-132129330D01*
X89161500Y-133261112D01*
X89141815Y-133328151D01*
X89089011Y-133373906D01*
X89019853Y-133383850D01*
X88956297Y-133354825D01*
X88949819Y-133348793D01*
X88869870Y-133268844D01*
X88869839Y-133268815D01*
X88865400Y-133264376D01*
X88803857Y-133225706D01*
X88800939Y-133223815D01*
X88749386Y-133189368D01*
X88749193Y-133189289D01*
X88730675Y-133179722D01*
X88726039Y-133176809D01*
X88721436Y-133173917D01*
X88664471Y-133153985D01*
X88657972Y-133151504D01*
X88612079Y-133132494D01*
X88612076Y-133132493D01*
X88599707Y-133130033D01*
X88582947Y-133125458D01*
X88560957Y-133117763D01*
X88513234Y-133112385D01*
X88502935Y-133110783D01*
X88466315Y-133103500D01*
X88466312Y-133103500D01*
X88441331Y-133103500D01*
X88427447Y-133102720D01*
X88415004Y-133101318D01*
X88392001Y-133098726D01*
X88391999Y-133098726D01*
X88368995Y-133101318D01*
X88356552Y-133102720D01*
X88342669Y-133103500D01*
X88317684Y-133103500D01*
X88281065Y-133110783D01*
X88270766Y-133112385D01*
X88223044Y-133117763D01*
X88201050Y-133125459D01*
X88184300Y-133130031D01*
X88171925Y-133132493D01*
X88171912Y-133132497D01*
X88126031Y-133151502D01*
X88119535Y-133153982D01*
X88062563Y-133173917D01*
X88053315Y-133179728D01*
X88034828Y-133189279D01*
X88034627Y-133189362D01*
X88034607Y-133189372D01*
X87983040Y-133223827D01*
X87980125Y-133225716D01*
X87918603Y-133264373D01*
X87918600Y-133264376D01*
X87911037Y-133271938D01*
X87911036Y-133271938D01*
X87805938Y-133377036D01*
X87805938Y-133377037D01*
X87799126Y-133383850D01*
X87798373Y-133384603D01*
X87759716Y-133446125D01*
X87757827Y-133449040D01*
X87723372Y-133500607D01*
X87723362Y-133500627D01*
X87723279Y-133500828D01*
X87713728Y-133519315D01*
X87707917Y-133528563D01*
X87687982Y-133585535D01*
X87685502Y-133592031D01*
X87666497Y-133637912D01*
X87666493Y-133637925D01*
X87664031Y-133650300D01*
X87659459Y-133667050D01*
X87651763Y-133689044D01*
X87646385Y-133736766D01*
X87644783Y-133747065D01*
X87637500Y-133783684D01*
X87637500Y-133808668D01*
X87636720Y-133822552D01*
X87632726Y-133857997D01*
X75684500Y-133857997D01*
X75684500Y-41264500D01*
X75704185Y-41197461D01*
X75756989Y-41151706D01*
X75808500Y-41140500D01*
X153807500Y-41140500D01*
X153874539Y-41160185D01*
G37*
%TD.AperFunction*%
%TA.AperFunction,Conductor*%
G36*
X127832703Y-84704173D02*
G01*
X127839178Y-84710202D01*
X128572043Y-85443067D01*
X128605527Y-85504389D01*
X128600543Y-85574081D01*
X128558671Y-85630014D01*
X128531814Y-85645308D01*
X128420615Y-85691368D01*
X128420607Y-85691372D01*
X128297031Y-85773942D01*
X128191942Y-85879031D01*
X128109372Y-86002607D01*
X128109366Y-86002618D01*
X128052496Y-86139916D01*
X128052493Y-86139926D01*
X128023499Y-86285685D01*
X128023499Y-86285688D01*
X128023499Y-86434312D01*
X128023499Y-86434314D01*
X128023498Y-86434314D01*
X128052493Y-86580073D01*
X128052496Y-86580083D01*
X128109366Y-86717381D01*
X128109372Y-86717392D01*
X128191942Y-86840968D01*
X128191943Y-86840969D01*
X129285553Y-87934578D01*
X129319038Y-87995901D01*
X129314054Y-88065593D01*
X129272182Y-88121526D01*
X129217365Y-88142815D01*
X129217663Y-88144310D01*
X129065926Y-88174493D01*
X129065916Y-88174496D01*
X128928618Y-88231366D01*
X128928607Y-88231372D01*
X128805031Y-88313942D01*
X128699942Y-88419031D01*
X128617372Y-88542607D01*
X128617366Y-88542618D01*
X128560496Y-88679916D01*
X128560493Y-88679926D01*
X128531499Y-88825685D01*
X128531499Y-88825688D01*
X128531499Y-88974312D01*
X128531499Y-88974314D01*
X128531498Y-88974314D01*
X128560493Y-89120073D01*
X128560496Y-89120083D01*
X128617366Y-89257381D01*
X128617372Y-89257392D01*
X128699942Y-89380968D01*
X128699943Y-89380969D01*
X135353181Y-96034205D01*
X135386666Y-96095528D01*
X135389500Y-96121886D01*
X135389500Y-107516316D01*
X135418493Y-107662072D01*
X135418495Y-107662080D01*
X135475371Y-107799391D01*
X135557939Y-107922964D01*
X135557945Y-107922971D01*
X135663028Y-108028054D01*
X135663035Y-108028060D01*
X135786608Y-108110628D01*
X135786609Y-108110628D01*
X135786610Y-108110629D01*
X135923920Y-108167505D01*
X136062006Y-108194972D01*
X136069683Y-108196499D01*
X136069687Y-108196500D01*
X136069688Y-108196500D01*
X136218313Y-108196500D01*
X136218314Y-108196499D01*
X136364080Y-108167505D01*
X136501390Y-108110629D01*
X136624966Y-108028059D01*
X136730059Y-107922966D01*
X136812629Y-107799390D01*
X136869505Y-107662080D01*
X136898500Y-107516312D01*
X136898500Y-95838446D01*
X136898501Y-95838425D01*
X136898501Y-95683685D01*
X136872331Y-95552127D01*
X136869505Y-95537920D01*
X136819988Y-95418376D01*
X136812630Y-95400611D01*
X136764028Y-95327873D01*
X136764028Y-95327872D01*
X136730060Y-95277035D01*
X136730054Y-95277028D01*
X136620647Y-95167621D01*
X136620624Y-95167600D01*
X132842446Y-91389421D01*
X132808961Y-91328098D01*
X132813945Y-91258406D01*
X132855817Y-91202473D01*
X132910635Y-91181190D01*
X132910337Y-91179690D01*
X132991541Y-91163536D01*
X133062079Y-91149505D01*
X133199390Y-91092630D01*
X133322966Y-91010059D01*
X133428059Y-90904966D01*
X133510630Y-90781390D01*
X133556692Y-90670182D01*
X133600531Y-90615783D01*
X133666825Y-90593717D01*
X133734524Y-90610996D01*
X133758933Y-90629957D01*
X140433181Y-97304205D01*
X140466666Y-97365528D01*
X140469500Y-97391886D01*
X140469500Y-124888552D01*
X140469499Y-124888578D01*
X140469499Y-124893688D01*
X140469499Y-125042312D01*
X140469499Y-125042314D01*
X140469498Y-125042314D01*
X140498493Y-125188073D01*
X140498496Y-125188083D01*
X140555366Y-125325381D01*
X140555372Y-125325392D01*
X140637942Y-125448968D01*
X144812031Y-129623057D01*
X144812034Y-129623059D01*
X144935611Y-129705630D01*
X145016043Y-129738945D01*
X145016044Y-129738946D01*
X145047150Y-129751830D01*
X145072920Y-129762505D01*
X145072921Y-129762505D01*
X145072923Y-129762506D01*
X145080395Y-129763992D01*
X145095343Y-129766965D01*
X145095347Y-129766967D01*
X145095347Y-129766966D01*
X145138430Y-129775536D01*
X145218687Y-129791501D01*
X145218688Y-129791501D01*
X145373426Y-129791501D01*
X145373446Y-129791500D01*
X147732501Y-129791500D01*
X147799540Y-129811185D01*
X147845295Y-129863989D01*
X147856501Y-129915500D01*
X147856501Y-130384876D01*
X147862908Y-130444483D01*
X147913202Y-130579328D01*
X147913206Y-130579335D01*
X147999452Y-130694544D01*
X147999455Y-130694547D01*
X148114664Y-130780793D01*
X148114671Y-130780797D01*
X148249517Y-130831091D01*
X148249516Y-130831091D01*
X148256444Y-130831835D01*
X148309127Y-130837500D01*
X151004872Y-130837499D01*
X151064483Y-130831091D01*
X151199331Y-130780796D01*
X151314546Y-130694546D01*
X151400796Y-130579331D01*
X151451091Y-130444483D01*
X151457500Y-130384873D01*
X151457499Y-127689128D01*
X151451091Y-127629517D01*
X151446324Y-127616737D01*
X151400797Y-127494671D01*
X151400793Y-127494664D01*
X151314547Y-127379455D01*
X151314544Y-127379452D01*
X151199335Y-127293206D01*
X151199328Y-127293202D01*
X151064482Y-127242908D01*
X151064483Y-127242908D01*
X151004883Y-127236501D01*
X151004881Y-127236500D01*
X151004873Y-127236500D01*
X151004864Y-127236500D01*
X148309129Y-127236500D01*
X148309123Y-127236501D01*
X148249516Y-127242908D01*
X148114671Y-127293202D01*
X148114664Y-127293206D01*
X147999455Y-127379452D01*
X147999452Y-127379455D01*
X147913206Y-127494664D01*
X147913202Y-127494671D01*
X147862908Y-127629517D01*
X147856655Y-127687684D01*
X147856501Y-127689123D01*
X147856500Y-127689135D01*
X147856500Y-128158500D01*
X147836815Y-128225539D01*
X147784011Y-128271294D01*
X147732500Y-128282500D01*
X145656887Y-128282500D01*
X145589848Y-128262815D01*
X145569206Y-128246181D01*
X142014819Y-124691794D01*
X141981334Y-124630471D01*
X141978500Y-124604113D01*
X141978500Y-117942822D01*
X142882499Y-117942822D01*
X142916374Y-118113118D01*
X142916377Y-118113128D01*
X142982821Y-118273540D01*
X142982828Y-118273553D01*
X143079293Y-118417922D01*
X143079296Y-118417926D01*
X143202073Y-118540703D01*
X143202077Y-118540706D01*
X143346446Y-118637171D01*
X143346459Y-118637178D01*
X143502463Y-118701796D01*
X143506876Y-118703624D01*
X143506880Y-118703624D01*
X143506881Y-118703625D01*
X143677177Y-118737500D01*
X143677180Y-118737500D01*
X146695024Y-118737500D01*
X146738357Y-118745318D01*
X146756517Y-118752091D01*
X146756516Y-118752091D01*
X146763444Y-118752835D01*
X146816127Y-118758500D01*
X150871872Y-118758499D01*
X150931483Y-118752091D01*
X151066331Y-118701796D01*
X151181546Y-118615546D01*
X151267796Y-118500331D01*
X151318091Y-118365483D01*
X151324500Y-118305873D01*
X151324499Y-116230128D01*
X151318091Y-116170517D01*
X151316899Y-116167322D01*
X151267797Y-116035671D01*
X151267793Y-116035664D01*
X151181547Y-115920455D01*
X151181544Y-115920452D01*
X151066335Y-115834206D01*
X151066328Y-115834202D01*
X150931482Y-115783908D01*
X150931483Y-115783908D01*
X150871883Y-115777501D01*
X150871881Y-115777500D01*
X150871873Y-115777500D01*
X150871864Y-115777500D01*
X146816129Y-115777500D01*
X146816123Y-115777501D01*
X146756516Y-115783908D01*
X146621671Y-115834202D01*
X146621664Y-115834206D01*
X146506455Y-115920452D01*
X146506452Y-115920455D01*
X146420206Y-116035664D01*
X146420202Y-116035671D01*
X146369908Y-116170517D01*
X146363501Y-116230116D01*
X146363501Y-116230123D01*
X146363500Y-116230135D01*
X146363500Y-116850500D01*
X146343815Y-116917539D01*
X146291011Y-116963294D01*
X146239500Y-116974500D01*
X143677178Y-116974500D01*
X143506881Y-117008374D01*
X143506871Y-117008377D01*
X143346459Y-117074821D01*
X143346446Y-117074828D01*
X143202077Y-117171293D01*
X143202073Y-117171296D01*
X143079296Y-117294073D01*
X143079293Y-117294077D01*
X142982828Y-117438446D01*
X142982821Y-117438459D01*
X142916377Y-117598871D01*
X142916374Y-117598881D01*
X142882500Y-117769177D01*
X142882500Y-117769179D01*
X142882500Y-117769180D01*
X142882500Y-117942820D01*
X142882500Y-117942822D01*
X142882499Y-117942822D01*
X141978500Y-117942822D01*
X141978500Y-110504492D01*
X141998185Y-110437453D01*
X142050989Y-110391698D01*
X142120147Y-110381754D01*
X142180846Y-110409474D01*
X142181367Y-110408841D01*
X142186077Y-110412706D01*
X142330446Y-110509171D01*
X142330459Y-110509178D01*
X142490871Y-110575622D01*
X142490876Y-110575624D01*
X142490880Y-110575624D01*
X142490881Y-110575625D01*
X142661177Y-110609500D01*
X142661180Y-110609500D01*
X145887508Y-110609500D01*
X145954547Y-110629185D01*
X145975189Y-110645819D01*
X146604040Y-111274670D01*
X146637525Y-111335993D01*
X146632541Y-111405685D01*
X146616679Y-111435234D01*
X146579209Y-111486809D01*
X146472697Y-111695849D01*
X146400201Y-111918972D01*
X146381930Y-112034334D01*
X146363500Y-112150695D01*
X146363500Y-112385305D01*
X146368995Y-112420000D01*
X146400201Y-112617027D01*
X146472697Y-112840150D01*
X146512902Y-112919055D01*
X146578848Y-113048482D01*
X146579212Y-113049195D01*
X146717104Y-113238989D01*
X146717108Y-113238994D01*
X146883005Y-113404891D01*
X146883010Y-113404895D01*
X147025669Y-113508542D01*
X147072808Y-113542790D01*
X147272552Y-113644565D01*
X147281849Y-113649302D01*
X147327612Y-113664171D01*
X147504974Y-113721799D01*
X147736695Y-113758500D01*
X147736696Y-113758500D01*
X149951304Y-113758500D01*
X149951305Y-113758500D01*
X150183026Y-113721799D01*
X150406153Y-113649301D01*
X150615192Y-113542790D01*
X150804996Y-113404890D01*
X150970890Y-113238996D01*
X151108790Y-113049192D01*
X151215301Y-112840153D01*
X151287799Y-112617026D01*
X151324500Y-112385305D01*
X151324500Y-112150695D01*
X151287799Y-111918974D01*
X151215301Y-111695847D01*
X151190952Y-111648059D01*
X151178055Y-111579389D01*
X151204331Y-111514649D01*
X151213746Y-111504091D01*
X153719821Y-108998017D01*
X153781142Y-108964534D01*
X153850834Y-108969518D01*
X153906767Y-109011390D01*
X153931184Y-109076854D01*
X153931500Y-109085700D01*
X153931500Y-140091500D01*
X153911815Y-140158539D01*
X153859011Y-140204294D01*
X153807500Y-140215500D01*
X132422887Y-140215500D01*
X132355848Y-140195815D01*
X132310093Y-140143011D01*
X132300149Y-140073853D01*
X132329174Y-140010297D01*
X132335206Y-140003819D01*
X133418258Y-138920767D01*
X138910963Y-133428060D01*
X138910966Y-133428059D01*
X139016059Y-133322966D01*
X139077842Y-133230500D01*
X139098630Y-133199389D01*
X139126338Y-133132495D01*
X139138348Y-133103501D01*
X139138348Y-133103500D01*
X139140325Y-133098726D01*
X139155505Y-133062080D01*
X139167747Y-133000536D01*
X139181724Y-132930271D01*
X139184501Y-132916313D01*
X139184501Y-132762578D01*
X139184500Y-132762552D01*
X139184500Y-123623687D01*
X139184499Y-123623683D01*
X139159956Y-123500297D01*
X139155505Y-123477920D01*
X139098629Y-123340610D01*
X139057210Y-123278622D01*
X139016060Y-123217035D01*
X139016054Y-123217028D01*
X138910971Y-123111945D01*
X138910964Y-123111939D01*
X138787391Y-123029371D01*
X138650080Y-122972495D01*
X138650072Y-122972493D01*
X138504316Y-122943500D01*
X138504312Y-122943500D01*
X138355688Y-122943500D01*
X138355683Y-122943500D01*
X138209927Y-122972493D01*
X138209919Y-122972495D01*
X138072608Y-123029371D01*
X137949035Y-123111939D01*
X137949028Y-123111945D01*
X137843945Y-123217028D01*
X137843939Y-123217035D01*
X137761371Y-123340608D01*
X137704495Y-123477919D01*
X137704493Y-123477927D01*
X137675500Y-123623683D01*
X137675500Y-132478113D01*
X137655815Y-132545152D01*
X137639181Y-132565794D01*
X131295794Y-138909181D01*
X131234471Y-138942666D01*
X131208113Y-138945500D01*
X129628888Y-138945500D01*
X129561849Y-138925815D01*
X129516094Y-138873011D01*
X129506150Y-138803853D01*
X129535175Y-138740297D01*
X129541207Y-138733819D01*
X133010378Y-135264646D01*
X135354963Y-132920060D01*
X135354966Y-132920059D01*
X135460059Y-132814966D01*
X135542629Y-132691390D01*
X135542630Y-132691389D01*
X135542633Y-132691385D01*
X135587930Y-132582023D01*
X135599505Y-132554079D01*
X135623821Y-132431841D01*
X135628501Y-132408314D01*
X135628501Y-132254578D01*
X135628500Y-132254552D01*
X135628500Y-124385687D01*
X135628499Y-124385683D01*
X135610759Y-124296497D01*
X135599505Y-124239920D01*
X135542629Y-124102610D01*
X135525311Y-124076692D01*
X135460060Y-123979035D01*
X135460054Y-123979028D01*
X135354971Y-123873945D01*
X135354964Y-123873939D01*
X135231391Y-123791371D01*
X135094080Y-123734495D01*
X135094072Y-123734493D01*
X134948316Y-123705500D01*
X134948312Y-123705500D01*
X134888490Y-123705500D01*
X134821451Y-123685815D01*
X134775696Y-123633011D01*
X134765752Y-123563853D01*
X134794777Y-123500297D01*
X134800809Y-123493819D01*
X136759487Y-121535141D01*
X138727714Y-119566914D01*
X138727719Y-119566910D01*
X138737922Y-119556706D01*
X138737924Y-119556706D01*
X139876706Y-118417924D01*
X139973175Y-118273547D01*
X140039624Y-118113124D01*
X140073500Y-117942821D01*
X140073500Y-117769179D01*
X140073500Y-117769177D01*
X140073500Y-117769176D01*
X140039625Y-117598881D01*
X140039624Y-117598880D01*
X140039624Y-117598876D01*
X140016588Y-117543261D01*
X139973177Y-117438456D01*
X139876704Y-117294073D01*
X139753926Y-117171295D01*
X139609543Y-117074822D01*
X139449128Y-117008377D01*
X139449118Y-117008374D01*
X139278823Y-116974500D01*
X139278821Y-116974500D01*
X139105179Y-116974500D01*
X139105177Y-116974500D01*
X138934881Y-117008374D01*
X138934871Y-117008377D01*
X138774456Y-117074822D01*
X138630073Y-117171295D01*
X138630072Y-117171296D01*
X137491294Y-118310076D01*
X137110181Y-118691189D01*
X137048858Y-118724674D01*
X136979166Y-118719690D01*
X136923233Y-118677818D01*
X136898816Y-118612354D01*
X136898500Y-118603508D01*
X136898500Y-111939687D01*
X136898499Y-111939683D01*
X136871258Y-111802734D01*
X136869505Y-111793920D01*
X136812629Y-111656610D01*
X136806915Y-111648059D01*
X136730060Y-111533035D01*
X136730054Y-111533028D01*
X136624971Y-111427945D01*
X136624964Y-111427939D01*
X136501391Y-111345371D01*
X136364080Y-111288495D01*
X136364072Y-111288493D01*
X136218316Y-111259500D01*
X136218312Y-111259500D01*
X136069688Y-111259500D01*
X136069683Y-111259500D01*
X135923927Y-111288493D01*
X135923919Y-111288495D01*
X135786608Y-111345371D01*
X135663035Y-111427939D01*
X135663028Y-111427945D01*
X135557945Y-111533028D01*
X135557945Y-111533029D01*
X135557942Y-111533032D01*
X135557941Y-111533034D01*
X135555378Y-111536870D01*
X135553923Y-111539048D01*
X135500309Y-111583851D01*
X135430984Y-111592556D01*
X135367957Y-111562399D01*
X135336262Y-111517606D01*
X135323505Y-111486809D01*
X135288629Y-111402610D01*
X135271311Y-111376692D01*
X135206060Y-111279035D01*
X135206054Y-111279028D01*
X135096655Y-111169629D01*
X135096634Y-111169610D01*
X134846966Y-110919941D01*
X134846965Y-110919940D01*
X134846964Y-110919939D01*
X134846961Y-110919937D01*
X134722241Y-110836602D01*
X134677435Y-110782990D01*
X134668728Y-110713665D01*
X134698882Y-110650638D01*
X134758325Y-110613918D01*
X134791131Y-110609500D01*
X138770822Y-110609500D01*
X138885394Y-110586709D01*
X138941124Y-110575624D01*
X139101547Y-110509175D01*
X139245923Y-110412706D01*
X139368706Y-110289923D01*
X139465175Y-110145547D01*
X139465613Y-110144491D01*
X139493092Y-110078149D01*
X139531624Y-109985124D01*
X139550509Y-109890185D01*
X139565500Y-109814822D01*
X139565500Y-109641177D01*
X139531625Y-109470881D01*
X139531624Y-109470880D01*
X139531624Y-109470876D01*
X139500585Y-109395941D01*
X139465178Y-109310459D01*
X139465171Y-109310446D01*
X139368706Y-109166077D01*
X139368703Y-109166073D01*
X139245926Y-109043296D01*
X139245922Y-109043293D01*
X139101553Y-108946828D01*
X139101540Y-108946821D01*
X138941128Y-108880377D01*
X138941118Y-108880374D01*
X138770822Y-108846500D01*
X138770820Y-108846500D01*
X127471693Y-108846500D01*
X127404654Y-108826815D01*
X127358899Y-108774011D01*
X127348955Y-108704853D01*
X127377980Y-108641297D01*
X127384012Y-108634819D01*
X127913303Y-108105527D01*
X127913304Y-108105526D01*
X127913306Y-108105524D01*
X128009775Y-107961147D01*
X128023414Y-107928221D01*
X128045639Y-107874563D01*
X128076224Y-107800724D01*
X128099781Y-107682299D01*
X128110100Y-107630423D01*
X128110100Y-107456776D01*
X128076225Y-107286481D01*
X128076224Y-107286480D01*
X128076224Y-107286476D01*
X128076222Y-107286471D01*
X128009777Y-107126056D01*
X127993155Y-107101180D01*
X127913306Y-106981676D01*
X127913304Y-106981673D01*
X127786210Y-106854579D01*
X127786187Y-106854558D01*
X127663818Y-106732188D01*
X127630334Y-106670865D01*
X127627500Y-106644507D01*
X127627500Y-91111683D01*
X128023500Y-91111683D01*
X128023500Y-91260316D01*
X128052493Y-91406072D01*
X128052495Y-91406080D01*
X128109371Y-91543391D01*
X128191939Y-91666964D01*
X128191945Y-91666971D01*
X128297028Y-91772054D01*
X128297035Y-91772060D01*
X128420608Y-91854628D01*
X128420609Y-91854628D01*
X128420610Y-91854629D01*
X128557920Y-91911505D01*
X128630562Y-91925954D01*
X128686503Y-91937082D01*
X128748414Y-91969467D01*
X128749993Y-91971018D01*
X128949600Y-92170625D01*
X128949610Y-92170636D01*
X132841555Y-96062579D01*
X132875040Y-96123902D01*
X132870056Y-96193594D01*
X132828184Y-96249527D01*
X132773365Y-96270816D01*
X132773663Y-96272311D01*
X132621927Y-96302493D01*
X132621919Y-96302495D01*
X132484608Y-96359371D01*
X132361038Y-96441938D01*
X132361028Y-96441945D01*
X132255945Y-96547028D01*
X132255939Y-96547035D01*
X132173371Y-96670608D01*
X132116495Y-96807919D01*
X132116493Y-96807927D01*
X132087500Y-96953683D01*
X132087500Y-107108552D01*
X132087499Y-107108578D01*
X132087499Y-107262314D01*
X132111096Y-107380938D01*
X132111096Y-107380939D01*
X132116493Y-107408073D01*
X132116494Y-107408076D01*
X132116495Y-107408080D01*
X132135605Y-107454216D01*
X132135606Y-107454218D01*
X132135605Y-107454218D01*
X132173367Y-107545385D01*
X132255942Y-107668968D01*
X132255943Y-107668969D01*
X132615030Y-108028055D01*
X132615034Y-108028058D01*
X132738603Y-108110625D01*
X132738616Y-108110632D01*
X132861737Y-108161630D01*
X132875921Y-108167505D01*
X133014006Y-108194972D01*
X133021683Y-108196499D01*
X133021686Y-108196500D01*
X133021688Y-108196500D01*
X133170314Y-108196500D01*
X133170315Y-108196499D01*
X133316079Y-108167505D01*
X133453389Y-108110629D01*
X133576965Y-108028058D01*
X133608743Y-107996280D01*
X133643318Y-107961706D01*
X133704641Y-107928221D01*
X133774333Y-107933205D01*
X133818680Y-107961706D01*
X133885028Y-108028054D01*
X133885035Y-108028060D01*
X134008608Y-108110628D01*
X134008609Y-108110628D01*
X134008610Y-108110629D01*
X134145920Y-108167505D01*
X134284006Y-108194972D01*
X134291683Y-108196499D01*
X134291687Y-108196500D01*
X134291688Y-108196500D01*
X134440313Y-108196500D01*
X134440314Y-108196499D01*
X134586080Y-108167505D01*
X134723390Y-108110629D01*
X134846966Y-108028059D01*
X134952059Y-107922966D01*
X135034629Y-107799390D01*
X135091505Y-107662080D01*
X135120500Y-107516312D01*
X135120500Y-96600446D01*
X135120501Y-96600425D01*
X135120501Y-96445685D01*
X135091506Y-96299926D01*
X135091505Y-96299925D01*
X135091505Y-96299921D01*
X135091503Y-96299916D01*
X135034633Y-96162618D01*
X135034632Y-96162617D01*
X135034630Y-96162611D01*
X135003078Y-96115390D01*
X134970027Y-96065925D01*
X134952057Y-96039031D01*
X134842647Y-95929621D01*
X134842624Y-95929600D01*
X130016646Y-91103620D01*
X130016625Y-91103600D01*
X129512969Y-90599943D01*
X129512968Y-90599942D01*
X129389392Y-90517372D01*
X129389391Y-90517371D01*
X129389389Y-90517370D01*
X129389387Y-90517369D01*
X129389385Y-90517368D01*
X129280166Y-90472129D01*
X129252078Y-90460494D01*
X129238066Y-90457707D01*
X129224053Y-90454920D01*
X129186973Y-90447544D01*
X129106314Y-90431499D01*
X129106312Y-90431499D01*
X128957688Y-90431499D01*
X128951574Y-90431499D01*
X128951554Y-90431500D01*
X128703683Y-90431500D01*
X128557927Y-90460493D01*
X128557919Y-90460495D01*
X128420608Y-90517371D01*
X128297035Y-90599939D01*
X128297028Y-90599945D01*
X128191945Y-90705028D01*
X128191939Y-90705035D01*
X128109371Y-90828608D01*
X128052495Y-90965919D01*
X128052493Y-90965927D01*
X128023500Y-91111683D01*
X127627500Y-91111683D01*
X127627500Y-84797886D01*
X127647185Y-84730847D01*
X127699989Y-84685092D01*
X127769147Y-84675148D01*
X127832703Y-84704173D01*
G37*
%TD.AperFunction*%
%TA.AperFunction,Conductor*%
G36*
X99642337Y-116704536D02*
G01*
X99647179Y-116705500D01*
X103428267Y-116705500D01*
X103495306Y-116725185D01*
X103541061Y-116777989D01*
X103551005Y-116847147D01*
X103533260Y-116895473D01*
X103507716Y-116936125D01*
X103505827Y-116939040D01*
X103471372Y-116990607D01*
X103471362Y-116990627D01*
X103471279Y-116990828D01*
X103461728Y-117009315D01*
X103455917Y-117018563D01*
X103435982Y-117075535D01*
X103433502Y-117082031D01*
X103414497Y-117127912D01*
X103414493Y-117127925D01*
X103412031Y-117140300D01*
X103407459Y-117157050D01*
X103399763Y-117179044D01*
X103394385Y-117226766D01*
X103392783Y-117237065D01*
X103385500Y-117273684D01*
X103385500Y-117298668D01*
X103384720Y-117312552D01*
X103380726Y-117347997D01*
X103380726Y-117348000D01*
X103384720Y-117383445D01*
X103385500Y-117397330D01*
X103385500Y-127165112D01*
X103365815Y-127232151D01*
X103313011Y-127277906D01*
X103243853Y-127287850D01*
X103180297Y-127258825D01*
X103173819Y-127252793D01*
X103093870Y-127172844D01*
X103093839Y-127172815D01*
X103089400Y-127168376D01*
X103027857Y-127129706D01*
X103024939Y-127127815D01*
X102973386Y-127093368D01*
X102973193Y-127093289D01*
X102954675Y-127083722D01*
X102950039Y-127080809D01*
X102945436Y-127077917D01*
X102888471Y-127057985D01*
X102881972Y-127055504D01*
X102836079Y-127036494D01*
X102836076Y-127036493D01*
X102823707Y-127034033D01*
X102806947Y-127029458D01*
X102784957Y-127021763D01*
X102737234Y-127016385D01*
X102726935Y-127014783D01*
X102690315Y-127007500D01*
X102690312Y-127007500D01*
X102665331Y-127007500D01*
X102651447Y-127006720D01*
X102639004Y-127005318D01*
X102616001Y-127002726D01*
X102615999Y-127002726D01*
X102592995Y-127005318D01*
X102580552Y-127006720D01*
X102566669Y-127007500D01*
X95299331Y-127007500D01*
X95285447Y-127006720D01*
X95273004Y-127005318D01*
X95250001Y-127002726D01*
X95249999Y-127002726D01*
X95226995Y-127005318D01*
X95214552Y-127006720D01*
X95200669Y-127007500D01*
X95175684Y-127007500D01*
X95139065Y-127014783D01*
X95128766Y-127016385D01*
X95081044Y-127021763D01*
X95059050Y-127029459D01*
X95042300Y-127034031D01*
X95029925Y-127036493D01*
X95029912Y-127036497D01*
X94984031Y-127055502D01*
X94977535Y-127057982D01*
X94920563Y-127077917D01*
X94911315Y-127083728D01*
X94892828Y-127093279D01*
X94892627Y-127093362D01*
X94892607Y-127093372D01*
X94841040Y-127127827D01*
X94838125Y-127129716D01*
X94776603Y-127168373D01*
X94776600Y-127168376D01*
X94769037Y-127175938D01*
X94769036Y-127175938D01*
X94663938Y-127281036D01*
X94663938Y-127281037D01*
X94657126Y-127287850D01*
X94656373Y-127288603D01*
X94617716Y-127350125D01*
X94615827Y-127353040D01*
X94581372Y-127404607D01*
X94581362Y-127404627D01*
X94581279Y-127404828D01*
X94571728Y-127423315D01*
X94565917Y-127432563D01*
X94545982Y-127489535D01*
X94543502Y-127496031D01*
X94524497Y-127541912D01*
X94524493Y-127541925D01*
X94522031Y-127554300D01*
X94517459Y-127571050D01*
X94509763Y-127593044D01*
X94504385Y-127640766D01*
X94502783Y-127651065D01*
X94495500Y-127687684D01*
X94495500Y-127712668D01*
X94494720Y-127726552D01*
X94490726Y-127761997D01*
X94490726Y-127762000D01*
X94494720Y-127797445D01*
X94495500Y-127811330D01*
X94495500Y-127836315D01*
X94502783Y-127872935D01*
X94504385Y-127883234D01*
X94509763Y-127930957D01*
X94517458Y-127952947D01*
X94522033Y-127969707D01*
X94524493Y-127982076D01*
X94524494Y-127982079D01*
X94543504Y-128027972D01*
X94545985Y-128034471D01*
X94565917Y-128091436D01*
X94568447Y-128095462D01*
X94571127Y-128099728D01*
X94571721Y-128100672D01*
X94581289Y-128119193D01*
X94581368Y-128119386D01*
X94615815Y-128170939D01*
X94617706Y-128173857D01*
X94656376Y-128235400D01*
X94660815Y-128239839D01*
X94660844Y-128239870D01*
X94773353Y-128352379D01*
X94773375Y-128352399D01*
X94776600Y-128355624D01*
X94838184Y-128394319D01*
X94841036Y-128396168D01*
X94892610Y-128430629D01*
X94892781Y-128430700D01*
X94892796Y-128430706D01*
X94911326Y-128440278D01*
X94920563Y-128446082D01*
X94977536Y-128466016D01*
X94984013Y-128468489D01*
X95029920Y-128487505D01*
X95042288Y-128489965D01*
X95059041Y-128494536D01*
X95081046Y-128502237D01*
X95128779Y-128507615D01*
X95139065Y-128509215D01*
X95159680Y-128513315D01*
X95175687Y-128516500D01*
X95175688Y-128516500D01*
X95200669Y-128516500D01*
X95214552Y-128517279D01*
X95226995Y-128518681D01*
X95249999Y-128521274D01*
X95250000Y-128521274D01*
X95250001Y-128521274D01*
X95273004Y-128518681D01*
X95285447Y-128517279D01*
X95299331Y-128516500D01*
X102566669Y-128516500D01*
X102580552Y-128517279D01*
X102592995Y-128518681D01*
X102615999Y-128521274D01*
X102616000Y-128521274D01*
X102616001Y-128521274D01*
X102639004Y-128518681D01*
X102651447Y-128517279D01*
X102665331Y-128516500D01*
X102690312Y-128516500D01*
X102726941Y-128509213D01*
X102737215Y-128507615D01*
X102784954Y-128502237D01*
X102806946Y-128494541D01*
X102823717Y-128489963D01*
X102827339Y-128489243D01*
X102836072Y-128487507D01*
X102836073Y-128487506D01*
X102836080Y-128487505D01*
X102881991Y-128468486D01*
X102888448Y-128466021D01*
X102945437Y-128446082D01*
X102954676Y-128440276D01*
X102973205Y-128430705D01*
X102973390Y-128430629D01*
X103024979Y-128396156D01*
X103027841Y-128394303D01*
X103089400Y-128355624D01*
X103089402Y-128355622D01*
X103089890Y-128355135D01*
X103173819Y-128271206D01*
X103235142Y-128237721D01*
X103304834Y-128242705D01*
X103360767Y-128284577D01*
X103385184Y-128350041D01*
X103385500Y-128358887D01*
X103385500Y-129179638D01*
X103365815Y-129246677D01*
X103313011Y-129292432D01*
X103243853Y-129302376D01*
X103237310Y-129301256D01*
X103198312Y-129293499D01*
X103049688Y-129293499D01*
X103043574Y-129293499D01*
X103043554Y-129293500D01*
X95359886Y-129293500D01*
X95292847Y-129273815D01*
X95272205Y-129257181D01*
X93500819Y-127485794D01*
X93467334Y-127424471D01*
X93464500Y-127398113D01*
X93464500Y-117362491D01*
X93484185Y-117295452D01*
X93536989Y-117249697D01*
X93606147Y-117239753D01*
X93669703Y-117268778D01*
X93676181Y-117274810D01*
X95733294Y-119331923D01*
X95803220Y-119401849D01*
X95856078Y-119454707D01*
X95945037Y-119514147D01*
X96000453Y-119551175D01*
X96047438Y-119570636D01*
X96047439Y-119570637D01*
X96094427Y-119590100D01*
X96160876Y-119617625D01*
X96331175Y-119651499D01*
X96331179Y-119651500D01*
X96331180Y-119651500D01*
X96590952Y-119651500D01*
X96657991Y-119671185D01*
X96678628Y-119687814D01*
X96724378Y-119733564D01*
X96760862Y-119770048D01*
X96784414Y-119786539D01*
X96947266Y-119900568D01*
X97005275Y-119927618D01*
X97057714Y-119973791D01*
X97076866Y-120040984D01*
X97056650Y-120107865D01*
X97005275Y-120152382D01*
X96947267Y-120179431D01*
X96947265Y-120179432D01*
X96760858Y-120309954D01*
X96599954Y-120470858D01*
X96469432Y-120657265D01*
X96469431Y-120657267D01*
X96373261Y-120863502D01*
X96373258Y-120863511D01*
X96314366Y-121083302D01*
X96314364Y-121083313D01*
X96294532Y-121309998D01*
X96294532Y-121310001D01*
X96314364Y-121536686D01*
X96314366Y-121536697D01*
X96373258Y-121756488D01*
X96373261Y-121756497D01*
X96469431Y-121962732D01*
X96469432Y-121962734D01*
X96599954Y-122149141D01*
X96760858Y-122310045D01*
X96760861Y-122310047D01*
X96947266Y-122440568D01*
X97005275Y-122467618D01*
X97057714Y-122513791D01*
X97076866Y-122580984D01*
X97056650Y-122647865D01*
X97005275Y-122692382D01*
X96947267Y-122719431D01*
X96947265Y-122719432D01*
X96760858Y-122849954D01*
X96599954Y-123010858D01*
X96469432Y-123197265D01*
X96469431Y-123197267D01*
X96373261Y-123403502D01*
X96373258Y-123403511D01*
X96314366Y-123623302D01*
X96314364Y-123623313D01*
X96294532Y-123849998D01*
X96294532Y-123850001D01*
X96314364Y-124076686D01*
X96314366Y-124076697D01*
X96373258Y-124296488D01*
X96373261Y-124296497D01*
X96469431Y-124502732D01*
X96469432Y-124502734D01*
X96599954Y-124689141D01*
X96760858Y-124850045D01*
X96760861Y-124850047D01*
X96947266Y-124980568D01*
X97153504Y-125076739D01*
X97373308Y-125135635D01*
X97535230Y-125149801D01*
X97599998Y-125155468D01*
X97600000Y-125155468D01*
X97600002Y-125155468D01*
X97656673Y-125150509D01*
X97826692Y-125135635D01*
X98046496Y-125076739D01*
X98252734Y-124980568D01*
X98439139Y-124850047D01*
X98600047Y-124689139D01*
X98730568Y-124502734D01*
X98826739Y-124296496D01*
X98885635Y-124076692D01*
X98905468Y-123850000D01*
X98885635Y-123623308D01*
X98826739Y-123403504D01*
X98730568Y-123197266D01*
X98600047Y-123010861D01*
X98600045Y-123010858D01*
X98439141Y-122849954D01*
X98252734Y-122719432D01*
X98252728Y-122719429D01*
X98194725Y-122692382D01*
X98142285Y-122646210D01*
X98123133Y-122579017D01*
X98143348Y-122512135D01*
X98194725Y-122467618D01*
X98252734Y-122440568D01*
X98439139Y-122310047D01*
X98600047Y-122149139D01*
X98730568Y-121962734D01*
X98826739Y-121756496D01*
X98885635Y-121536692D01*
X98905468Y-121310000D01*
X98885635Y-121083308D01*
X98826739Y-120863504D01*
X98730568Y-120657266D01*
X98600047Y-120470861D01*
X98600045Y-120470858D01*
X98439141Y-120309954D01*
X98252734Y-120179432D01*
X98252728Y-120179429D01*
X98194725Y-120152382D01*
X98142285Y-120106210D01*
X98123133Y-120039017D01*
X98143348Y-119972135D01*
X98194725Y-119927618D01*
X98252734Y-119900568D01*
X98439139Y-119770047D01*
X98600047Y-119609139D01*
X98730568Y-119422734D01*
X98826739Y-119216496D01*
X98885635Y-118996692D01*
X98900205Y-118830155D01*
X98925656Y-118765089D01*
X98982247Y-118724111D01*
X99047924Y-118719348D01*
X99139176Y-118737500D01*
X99139179Y-118737500D01*
X100670822Y-118737500D01*
X100785394Y-118714709D01*
X100841124Y-118703624D01*
X101001547Y-118637175D01*
X101145923Y-118540706D01*
X101268706Y-118417923D01*
X101365175Y-118273547D01*
X101431624Y-118113124D01*
X101442709Y-118057394D01*
X101465500Y-117942822D01*
X101465500Y-117769177D01*
X101431625Y-117598881D01*
X101431624Y-117598880D01*
X101431624Y-117598876D01*
X101391076Y-117500984D01*
X101365178Y-117438459D01*
X101365171Y-117438446D01*
X101268706Y-117294077D01*
X101268703Y-117294073D01*
X101145926Y-117171296D01*
X101145922Y-117171293D01*
X101001553Y-117074828D01*
X101001540Y-117074821D01*
X100841128Y-117008377D01*
X100841118Y-117008374D01*
X100670822Y-116974500D01*
X100670820Y-116974500D01*
X99642491Y-116974500D01*
X99575452Y-116954815D01*
X99554810Y-116938181D01*
X99530464Y-116913835D01*
X99496979Y-116852512D01*
X99501963Y-116782820D01*
X99543835Y-116726887D01*
X99609299Y-116702470D01*
X99642337Y-116704536D01*
G37*
%TD.AperFunction*%
%TA.AperFunction,Conductor*%
G36*
X132452926Y-110629185D02*
G01*
X132498681Y-110681989D01*
X132508625Y-110751147D01*
X132488990Y-110802390D01*
X132427370Y-110894611D01*
X132370495Y-111031919D01*
X132370493Y-111031927D01*
X132341500Y-111177683D01*
X132341500Y-121740316D01*
X132370493Y-121886072D01*
X132370495Y-121886080D01*
X132427371Y-122023391D01*
X132509939Y-122146964D01*
X132509945Y-122146971D01*
X132615028Y-122252054D01*
X132615035Y-122252060D01*
X132738608Y-122334628D01*
X132738609Y-122334628D01*
X132738610Y-122334629D01*
X132875920Y-122391505D01*
X133021683Y-122420499D01*
X133021687Y-122420500D01*
X133081508Y-122420500D01*
X133148547Y-122440185D01*
X133194302Y-122492989D01*
X133204246Y-122562147D01*
X133175221Y-122625703D01*
X133169189Y-122632181D01*
X128703189Y-127098181D01*
X128641866Y-127131666D01*
X128615508Y-127134500D01*
X115101907Y-127134500D01*
X115034868Y-127114815D01*
X114989113Y-127062011D01*
X114979169Y-126992853D01*
X115008194Y-126929297D01*
X115030784Y-126908925D01*
X115179139Y-126805047D01*
X115340047Y-126644139D01*
X115470568Y-126457734D01*
X115566739Y-126251496D01*
X115625635Y-126031692D01*
X115645468Y-125805000D01*
X115641933Y-125764600D01*
X115631958Y-125650578D01*
X115625635Y-125578308D01*
X115566739Y-125358504D01*
X115470568Y-125152266D01*
X115340047Y-124965861D01*
X115340045Y-124965858D01*
X115179141Y-124804954D01*
X114992734Y-124674432D01*
X114992732Y-124674431D01*
X114786497Y-124578261D01*
X114786488Y-124578258D01*
X114566697Y-124519366D01*
X114566693Y-124519365D01*
X114566692Y-124519365D01*
X114566691Y-124519364D01*
X114566686Y-124519364D01*
X114340002Y-124499532D01*
X114339998Y-124499532D01*
X114113313Y-124519364D01*
X114113302Y-124519366D01*
X113893511Y-124578258D01*
X113893502Y-124578261D01*
X113687267Y-124674431D01*
X113687265Y-124674432D01*
X113500858Y-124804954D01*
X113339954Y-124965858D01*
X113209432Y-125152265D01*
X113209431Y-125152267D01*
X113113261Y-125358502D01*
X113113258Y-125358511D01*
X113054366Y-125578302D01*
X113054364Y-125578313D01*
X113034532Y-125804998D01*
X113034532Y-125805001D01*
X113054364Y-126031686D01*
X113054366Y-126031697D01*
X113113258Y-126251488D01*
X113113261Y-126251497D01*
X113209431Y-126457732D01*
X113209432Y-126457734D01*
X113339954Y-126644141D01*
X113500858Y-126805045D01*
X113500861Y-126805047D01*
X113647036Y-126907399D01*
X113649216Y-126908925D01*
X113692841Y-126963501D01*
X113700035Y-127033000D01*
X113668513Y-127095354D01*
X113608283Y-127130769D01*
X113578093Y-127134500D01*
X111677129Y-127134500D01*
X111610090Y-127114815D01*
X111564335Y-127062011D01*
X111554391Y-126992853D01*
X111583416Y-126929297D01*
X111608237Y-126907399D01*
X111625082Y-126896143D01*
X111660944Y-126872181D01*
X111663831Y-126870310D01*
X111663865Y-126870289D01*
X111725400Y-126831624D01*
X111845624Y-126711400D01*
X111884317Y-126649819D01*
X111886185Y-126646936D01*
X111920629Y-126595389D01*
X111920705Y-126595203D01*
X111930275Y-126576677D01*
X111936082Y-126567437D01*
X111956017Y-126510462D01*
X111958498Y-126503965D01*
X111977502Y-126458086D01*
X111977505Y-126458079D01*
X111979965Y-126445708D01*
X111984539Y-126428952D01*
X111992237Y-126406954D01*
X111997615Y-126359215D01*
X111999213Y-126348941D01*
X112006500Y-126312312D01*
X112006500Y-126287330D01*
X112007280Y-126273445D01*
X112007453Y-126271915D01*
X112011274Y-126238000D01*
X112009427Y-126221612D01*
X112007280Y-126202552D01*
X112006500Y-126188668D01*
X112006500Y-126163687D01*
X112000715Y-126134608D01*
X111999215Y-126127065D01*
X111997615Y-126116779D01*
X111992237Y-126069046D01*
X111984536Y-126047041D01*
X111979964Y-126030285D01*
X111977505Y-126017920D01*
X111958489Y-125972013D01*
X111956014Y-125965529D01*
X111936082Y-125908563D01*
X111934434Y-125905941D01*
X111930279Y-125899328D01*
X111920706Y-125880796D01*
X111920630Y-125880612D01*
X111920629Y-125880610D01*
X111886153Y-125829015D01*
X111884289Y-125826136D01*
X111845624Y-125764600D01*
X111725400Y-125644376D01*
X111534819Y-125453794D01*
X111501334Y-125392471D01*
X111498500Y-125366113D01*
X111498500Y-119486361D01*
X111518185Y-119419322D01*
X111570989Y-119373567D01*
X111640147Y-119363623D01*
X111646694Y-119364744D01*
X111685687Y-119372501D01*
X111685688Y-119372501D01*
X111840426Y-119372501D01*
X111840446Y-119372500D01*
X113080675Y-119372500D01*
X113147714Y-119392185D01*
X113193469Y-119444989D01*
X113203413Y-119514147D01*
X113179941Y-119570809D01*
X113159959Y-119597504D01*
X113096204Y-119682668D01*
X113096202Y-119682671D01*
X113045908Y-119817517D01*
X113039501Y-119877116D01*
X113039500Y-119877135D01*
X113039500Y-121572870D01*
X113039501Y-121572876D01*
X113045908Y-121632483D01*
X113096202Y-121767328D01*
X113096206Y-121767335D01*
X113182452Y-121882544D01*
X113182455Y-121882547D01*
X113297664Y-121968793D01*
X113297671Y-121968797D01*
X113432517Y-122019091D01*
X113432516Y-122019091D01*
X113439444Y-122019835D01*
X113492127Y-122025500D01*
X115187872Y-122025499D01*
X115247483Y-122019091D01*
X115382331Y-121968796D01*
X115497546Y-121882546D01*
X115583796Y-121767331D01*
X115593872Y-121740316D01*
X115613695Y-121687168D01*
X115655565Y-121631234D01*
X115721030Y-121606816D01*
X115729877Y-121606500D01*
X117903096Y-121606500D01*
X117970135Y-121626185D01*
X118015890Y-121678989D01*
X118019279Y-121687171D01*
X118021201Y-121692327D01*
X118021206Y-121692335D01*
X118107452Y-121807544D01*
X118107455Y-121807547D01*
X118222664Y-121893793D01*
X118222671Y-121893797D01*
X118357517Y-121944091D01*
X118357516Y-121944091D01*
X118364444Y-121944835D01*
X118417127Y-121950500D01*
X120312872Y-121950499D01*
X120372483Y-121944091D01*
X120507331Y-121893796D01*
X120622546Y-121807546D01*
X120708796Y-121692331D01*
X120720723Y-121660353D01*
X120737455Y-121615493D01*
X120779326Y-121559559D01*
X120844790Y-121535141D01*
X120913063Y-121549992D01*
X120944866Y-121574843D01*
X120952302Y-121582920D01*
X120953215Y-121583912D01*
X120953222Y-121583918D01*
X121136365Y-121726464D01*
X121136371Y-121726468D01*
X121136374Y-121726470D01*
X121340497Y-121836936D01*
X121413987Y-121862165D01*
X121560015Y-121912297D01*
X121560017Y-121912297D01*
X121560019Y-121912298D01*
X121788951Y-121950500D01*
X121788952Y-121950500D01*
X122021048Y-121950500D01*
X122021049Y-121950500D01*
X122249981Y-121912298D01*
X122469503Y-121836936D01*
X122673626Y-121726470D01*
X122675455Y-121725047D01*
X122794381Y-121632483D01*
X122856784Y-121583913D01*
X123013979Y-121413153D01*
X123140924Y-121218849D01*
X123234157Y-121006300D01*
X123291134Y-120781305D01*
X123310300Y-120550000D01*
X123302904Y-120460748D01*
X123316984Y-120392314D01*
X123338792Y-120362835D01*
X123564705Y-120136924D01*
X123567693Y-120132453D01*
X123661175Y-119992547D01*
X123727624Y-119832124D01*
X123739972Y-119770047D01*
X123740215Y-119768826D01*
X123740215Y-119768825D01*
X123761500Y-119661823D01*
X123761500Y-116516351D01*
X123781185Y-116449312D01*
X123786546Y-116441624D01*
X123905058Y-116284689D01*
X124004229Y-116085528D01*
X124065115Y-115871536D01*
X124085643Y-115650000D01*
X124065115Y-115428464D01*
X124004229Y-115214472D01*
X123986399Y-115178664D01*
X123905061Y-115015316D01*
X123905056Y-115015308D01*
X123770979Y-114837761D01*
X123606562Y-114687876D01*
X123606560Y-114687874D01*
X123417404Y-114570754D01*
X123417398Y-114570752D01*
X123209940Y-114490382D01*
X122991243Y-114449500D01*
X122768757Y-114449500D01*
X122550060Y-114490382D01*
X122444754Y-114531178D01*
X122342601Y-114570752D01*
X122342595Y-114570754D01*
X122153439Y-114687874D01*
X122153437Y-114687876D01*
X121989020Y-114837761D01*
X121854943Y-115015308D01*
X121854938Y-115015316D01*
X121755775Y-115214461D01*
X121755769Y-115214476D01*
X121694885Y-115428462D01*
X121694884Y-115428464D01*
X121674357Y-115649999D01*
X121674357Y-115650000D01*
X121694884Y-115871535D01*
X121694885Y-115871537D01*
X121755769Y-116085523D01*
X121755775Y-116085538D01*
X121854938Y-116284683D01*
X121854943Y-116284691D01*
X121892711Y-116334703D01*
X121965564Y-116431177D01*
X121973454Y-116441624D01*
X121998146Y-116506985D01*
X121998500Y-116516351D01*
X121998500Y-119025500D01*
X121978815Y-119092539D01*
X121926011Y-119138294D01*
X121874500Y-119149500D01*
X121788951Y-119149500D01*
X121750550Y-119155908D01*
X121560015Y-119187702D01*
X121340504Y-119263061D01*
X121340495Y-119263064D01*
X121136371Y-119373531D01*
X121136365Y-119373535D01*
X120953222Y-119516081D01*
X120953218Y-119516085D01*
X120944866Y-119525158D01*
X120884979Y-119561148D01*
X120815141Y-119559047D01*
X120757525Y-119519522D01*
X120737455Y-119484507D01*
X120708797Y-119407671D01*
X120708793Y-119407664D01*
X120622547Y-119292455D01*
X120622544Y-119292452D01*
X120507335Y-119206206D01*
X120507328Y-119206202D01*
X120372482Y-119155908D01*
X120372483Y-119155908D01*
X120312883Y-119149501D01*
X120312881Y-119149500D01*
X120312873Y-119149500D01*
X120312864Y-119149500D01*
X118417129Y-119149500D01*
X118417123Y-119149501D01*
X118357516Y-119155908D01*
X118222671Y-119206202D01*
X118222664Y-119206206D01*
X118107455Y-119292452D01*
X118107452Y-119292455D01*
X118021206Y-119407664D01*
X118021202Y-119407671D01*
X117970908Y-119542517D01*
X117964501Y-119602116D01*
X117964500Y-119602135D01*
X117964500Y-119719500D01*
X117944815Y-119786539D01*
X117892011Y-119832294D01*
X117840500Y-119843500D01*
X115729878Y-119843500D01*
X115662839Y-119823815D01*
X115617084Y-119771011D01*
X115613696Y-119762833D01*
X115583797Y-119682671D01*
X115583795Y-119682668D01*
X115575199Y-119671185D01*
X115500058Y-119570809D01*
X115475641Y-119505347D01*
X115490492Y-119437074D01*
X115539897Y-119387668D01*
X115599325Y-119372500D01*
X115743554Y-119372500D01*
X115743574Y-119372501D01*
X115749688Y-119372501D01*
X115898314Y-119372501D01*
X116019894Y-119348315D01*
X116019894Y-119348316D01*
X116019900Y-119348313D01*
X116044080Y-119343505D01*
X116135378Y-119305688D01*
X116181389Y-119286630D01*
X116304966Y-119204059D01*
X118386059Y-117122966D01*
X118468630Y-116999389D01*
X118525505Y-116862079D01*
X118544679Y-116765688D01*
X118554501Y-116716314D01*
X118554501Y-116641405D01*
X118574186Y-116574366D01*
X118594963Y-116549768D01*
X118690979Y-116462238D01*
X118695164Y-116456697D01*
X118825058Y-116284689D01*
X118924229Y-116085528D01*
X118985115Y-115871536D01*
X119005643Y-115650000D01*
X118985115Y-115428464D01*
X118924229Y-115214472D01*
X118906399Y-115178664D01*
X118825061Y-115015316D01*
X118825056Y-115015308D01*
X118690979Y-114837761D01*
X118526562Y-114687876D01*
X118526560Y-114687874D01*
X118337404Y-114570754D01*
X118337398Y-114570752D01*
X118129940Y-114490382D01*
X117911243Y-114449500D01*
X117688757Y-114449500D01*
X117470060Y-114490382D01*
X117364754Y-114531178D01*
X117262601Y-114570752D01*
X117262595Y-114570754D01*
X117073439Y-114687874D01*
X117073437Y-114687876D01*
X116909020Y-114837761D01*
X116774943Y-115015308D01*
X116774938Y-115015316D01*
X116675775Y-115214461D01*
X116675769Y-115214476D01*
X116614885Y-115428462D01*
X116614884Y-115428464D01*
X116594357Y-115649999D01*
X116594357Y-115650000D01*
X116614884Y-115871535D01*
X116614885Y-115871537D01*
X116675769Y-116085523D01*
X116675775Y-116085538D01*
X116774938Y-116284683D01*
X116774943Y-116284691D01*
X116845593Y-116378246D01*
X116870285Y-116443607D01*
X116855720Y-116511942D01*
X116834320Y-116540654D01*
X115547794Y-117827181D01*
X115486471Y-117860666D01*
X115460113Y-117863500D01*
X112123886Y-117863500D01*
X112056847Y-117843815D01*
X112036205Y-117827181D01*
X111406413Y-117197389D01*
X111134205Y-116925180D01*
X111100721Y-116863859D01*
X111105705Y-116794167D01*
X111147577Y-116738234D01*
X111213041Y-116713817D01*
X111276961Y-116727722D01*
X111277473Y-116726694D01*
X111282590Y-116729241D01*
X111282599Y-116729247D01*
X111490060Y-116809618D01*
X111708757Y-116850500D01*
X111708759Y-116850500D01*
X111931241Y-116850500D01*
X111931243Y-116850500D01*
X112149940Y-116809618D01*
X112357401Y-116729247D01*
X112546562Y-116612124D01*
X112599502Y-116563863D01*
X112662306Y-116533246D01*
X112683040Y-116531500D01*
X114052823Y-116531500D01*
X114176064Y-116506985D01*
X114223124Y-116497624D01*
X114321958Y-116456686D01*
X114383543Y-116431177D01*
X114383544Y-116431176D01*
X114383547Y-116431175D01*
X114527924Y-116334706D01*
X118407714Y-112454913D01*
X118407719Y-112454910D01*
X118417922Y-112444706D01*
X118417924Y-112444706D01*
X120216811Y-110645819D01*
X120278134Y-110612334D01*
X120304492Y-110609500D01*
X132385887Y-110609500D01*
X132452926Y-110629185D01*
G37*
%TD.AperFunction*%
%TA.AperFunction,Conductor*%
G36*
X107918353Y-109567877D02*
G01*
X107953768Y-109628106D01*
X107957500Y-109658298D01*
X107957500Y-112412113D01*
X107937815Y-112479152D01*
X107921181Y-112499794D01*
X107871938Y-112549036D01*
X107871938Y-112549037D01*
X107864376Y-112556600D01*
X107864373Y-112556603D01*
X107825719Y-112618120D01*
X107823830Y-112621036D01*
X107789369Y-112672612D01*
X107789364Y-112672621D01*
X107789275Y-112672837D01*
X107779726Y-112691317D01*
X107773918Y-112700561D01*
X107773917Y-112700562D01*
X107753980Y-112757536D01*
X107751503Y-112764027D01*
X107732495Y-112809918D01*
X107732494Y-112809924D01*
X107730031Y-112822301D01*
X107725459Y-112839050D01*
X107717763Y-112861044D01*
X107712387Y-112908753D01*
X107710785Y-112919055D01*
X107703499Y-112955687D01*
X107703499Y-112980677D01*
X107702719Y-112994561D01*
X107698726Y-113030000D01*
X107700888Y-113049192D01*
X107702719Y-113065436D01*
X107703499Y-113079321D01*
X107703499Y-113104313D01*
X107710783Y-113140932D01*
X107712386Y-113151238D01*
X107717763Y-113198954D01*
X107725460Y-113220954D01*
X107730033Y-113237705D01*
X107732459Y-113249898D01*
X107732495Y-113250079D01*
X107735346Y-113256962D01*
X107751505Y-113295976D01*
X107753983Y-113302468D01*
X107773918Y-113359438D01*
X107779725Y-113368679D01*
X107789285Y-113387186D01*
X107789370Y-113387389D01*
X107823818Y-113438944D01*
X107825709Y-113441862D01*
X107864376Y-113503400D01*
X107868815Y-113507839D01*
X107868844Y-113507870D01*
X107981353Y-113620379D01*
X107981375Y-113620399D01*
X107984600Y-113623624D01*
X108017928Y-113644565D01*
X108046120Y-113662279D01*
X108049031Y-113664165D01*
X108100611Y-113698630D01*
X108100802Y-113698709D01*
X108119328Y-113708279D01*
X108128563Y-113714082D01*
X108128566Y-113714083D01*
X108185540Y-113734020D01*
X108192033Y-113736498D01*
X108237921Y-113755505D01*
X108250291Y-113757965D01*
X108267041Y-113762536D01*
X108289046Y-113770237D01*
X108336784Y-113775615D01*
X108347048Y-113777212D01*
X108370464Y-113781870D01*
X108383686Y-113784501D01*
X108383688Y-113784501D01*
X108408677Y-113784501D01*
X108422561Y-113785281D01*
X108457998Y-113789274D01*
X108458000Y-113789274D01*
X108458002Y-113789274D01*
X108493439Y-113785281D01*
X108507323Y-113784501D01*
X108532313Y-113784501D01*
X108537809Y-113783407D01*
X108568957Y-113777210D01*
X108579214Y-113775615D01*
X108626954Y-113770237D01*
X108648951Y-113762539D01*
X108665702Y-113757966D01*
X108678079Y-113755505D01*
X108723966Y-113736498D01*
X108730465Y-113734017D01*
X108787435Y-113714083D01*
X108787437Y-113714082D01*
X108796668Y-113708281D01*
X108815204Y-113698706D01*
X108815389Y-113698630D01*
X108866959Y-113664171D01*
X108869846Y-113662300D01*
X108873954Y-113659718D01*
X108931400Y-113623624D01*
X108931405Y-113623619D01*
X108931890Y-113623135D01*
X108931897Y-113623127D01*
X108938963Y-113616060D01*
X108938966Y-113616059D01*
X109015821Y-113539203D01*
X109077141Y-113505720D01*
X109146833Y-113510704D01*
X109202767Y-113552575D01*
X109227184Y-113618039D01*
X109227500Y-113626886D01*
X109227500Y-115062742D01*
X109207815Y-115129781D01*
X109155011Y-115175536D01*
X109085853Y-115185480D01*
X109022297Y-115156455D01*
X109015819Y-115150423D01*
X108934647Y-115069251D01*
X108934624Y-115069230D01*
X106309339Y-112443943D01*
X106309338Y-112443942D01*
X106185762Y-112361372D01*
X106185761Y-112361371D01*
X106185759Y-112361370D01*
X106185756Y-112361368D01*
X106185751Y-112361366D01*
X106090527Y-112321924D01*
X106048450Y-112304495D01*
X106024264Y-112299684D01*
X105902684Y-112275499D01*
X105902682Y-112275499D01*
X105754058Y-112275499D01*
X105747944Y-112275499D01*
X105747924Y-112275500D01*
X105713331Y-112275500D01*
X105699447Y-112274720D01*
X105687004Y-112273318D01*
X105664001Y-112270726D01*
X105657036Y-112270726D01*
X105657036Y-112268534D01*
X105598549Y-112258283D01*
X105547175Y-112210928D01*
X105529500Y-112147124D01*
X105529500Y-110441178D01*
X105529499Y-110441174D01*
X105523836Y-110412703D01*
X105495625Y-110270876D01*
X105431499Y-110116065D01*
X105429856Y-110111473D01*
X105429175Y-110110453D01*
X105361152Y-110008650D01*
X105332707Y-109966078D01*
X105289247Y-109922618D01*
X105224808Y-109858179D01*
X105191325Y-109796859D01*
X105196309Y-109727167D01*
X105238180Y-109671233D01*
X105303644Y-109646816D01*
X105312491Y-109646500D01*
X105710952Y-109646500D01*
X105777991Y-109666185D01*
X105798628Y-109682814D01*
X105842981Y-109727167D01*
X105880862Y-109765048D01*
X105950475Y-109813791D01*
X106067266Y-109895568D01*
X106273504Y-109991739D01*
X106273509Y-109991740D01*
X106273511Y-109991741D01*
X106326415Y-110005916D01*
X106493308Y-110050635D01*
X106655230Y-110064801D01*
X106719998Y-110070468D01*
X106720000Y-110070468D01*
X106720002Y-110070468D01*
X106776673Y-110065509D01*
X106946692Y-110050635D01*
X107166496Y-109991739D01*
X107372734Y-109895568D01*
X107559139Y-109765047D01*
X107720047Y-109604139D01*
X107731924Y-109587175D01*
X107786499Y-109543551D01*
X107855998Y-109536356D01*
X107918353Y-109567877D01*
G37*
%TD.AperFunction*%
%TA.AperFunction,Conductor*%
G36*
X98906167Y-104266924D02*
G01*
X98950559Y-104296586D01*
X98956609Y-104300628D01*
X98956610Y-104300629D01*
X98956796Y-104300706D01*
X98975326Y-104310278D01*
X98984563Y-104316082D01*
X99041536Y-104336016D01*
X99048013Y-104338489D01*
X99093920Y-104357505D01*
X99106288Y-104359965D01*
X99123041Y-104364536D01*
X99145046Y-104372237D01*
X99192779Y-104377615D01*
X99203065Y-104379215D01*
X99223680Y-104383315D01*
X99239687Y-104386500D01*
X99239688Y-104386500D01*
X99264669Y-104386500D01*
X99278552Y-104387279D01*
X99290995Y-104388681D01*
X99313999Y-104391274D01*
X99314000Y-104391274D01*
X99314001Y-104391274D01*
X99337004Y-104388681D01*
X99349447Y-104387279D01*
X99363331Y-104386500D01*
X99388312Y-104386500D01*
X99424941Y-104379213D01*
X99435215Y-104377615D01*
X99482954Y-104372237D01*
X99504946Y-104364541D01*
X99521717Y-104359963D01*
X99525339Y-104359243D01*
X99534072Y-104357507D01*
X99534075Y-104357505D01*
X99534080Y-104357505D01*
X99578177Y-104339237D01*
X99647646Y-104331766D01*
X99710127Y-104363039D01*
X99740195Y-104406345D01*
X99802822Y-104557543D01*
X99899295Y-104701926D01*
X100022073Y-104824704D01*
X100166456Y-104921177D01*
X100324616Y-104986688D01*
X100326876Y-104987624D01*
X100326880Y-104987624D01*
X100326881Y-104987625D01*
X100497176Y-105021500D01*
X100497179Y-105021500D01*
X100670823Y-105021500D01*
X100787664Y-104998258D01*
X100841124Y-104987624D01*
X100893791Y-104965808D01*
X100963256Y-104958340D01*
X101025736Y-104989614D01*
X101061389Y-105049703D01*
X101058896Y-105119528D01*
X101028923Y-105168050D01*
X100995942Y-105201031D01*
X100913372Y-105324607D01*
X100913366Y-105324618D01*
X100898435Y-105360668D01*
X100891617Y-105377128D01*
X100880974Y-105402824D01*
X100863669Y-105444601D01*
X100863668Y-105444603D01*
X100856496Y-105461915D01*
X100856493Y-105461925D01*
X100827499Y-105607685D01*
X100827499Y-105762425D01*
X100827500Y-105762446D01*
X100827500Y-108933508D01*
X100807815Y-109000547D01*
X100755011Y-109046302D01*
X100685853Y-109056246D01*
X100622297Y-109027221D01*
X100615819Y-109021189D01*
X99519927Y-107925296D01*
X99519926Y-107925295D01*
X99375543Y-107828822D01*
X99215128Y-107762377D01*
X99215118Y-107762374D01*
X99044823Y-107728500D01*
X99044821Y-107728500D01*
X99044820Y-107728500D01*
X98989878Y-107728500D01*
X98922839Y-107708815D01*
X98877084Y-107656011D01*
X98873696Y-107647833D01*
X98843797Y-107567671D01*
X98843793Y-107567664D01*
X98757547Y-107452455D01*
X98757544Y-107452452D01*
X98642335Y-107366206D01*
X98642328Y-107366202D01*
X98507482Y-107315908D01*
X98507483Y-107315908D01*
X98447883Y-107309501D01*
X98447881Y-107309500D01*
X98447873Y-107309500D01*
X98447864Y-107309500D01*
X96752129Y-107309500D01*
X96752123Y-107309501D01*
X96692516Y-107315908D01*
X96557671Y-107366202D01*
X96557664Y-107366206D01*
X96442455Y-107452452D01*
X96442452Y-107452455D01*
X96356206Y-107567664D01*
X96356201Y-107567673D01*
X96326305Y-107647832D01*
X96284435Y-107703766D01*
X96218970Y-107728184D01*
X96210123Y-107728500D01*
X96001500Y-107728500D01*
X95934461Y-107708815D01*
X95888706Y-107656011D01*
X95877500Y-107604500D01*
X95877500Y-106759322D01*
X95897185Y-106692283D01*
X95949989Y-106646528D01*
X96019147Y-106636584D01*
X96039919Y-106642284D01*
X96040086Y-106641735D01*
X96045909Y-106643500D01*
X96045920Y-106643505D01*
X96058288Y-106645965D01*
X96075041Y-106650536D01*
X96097046Y-106658237D01*
X96144779Y-106663615D01*
X96155065Y-106665215D01*
X96175680Y-106669315D01*
X96191687Y-106672500D01*
X96191688Y-106672500D01*
X96216669Y-106672500D01*
X96230552Y-106673279D01*
X96242995Y-106674681D01*
X96265999Y-106677274D01*
X96266000Y-106677274D01*
X96266001Y-106677274D01*
X96289004Y-106674681D01*
X96301447Y-106673279D01*
X96315331Y-106672500D01*
X96340312Y-106672500D01*
X96376941Y-106665213D01*
X96387215Y-106663615D01*
X96434954Y-106658237D01*
X96456946Y-106650541D01*
X96473717Y-106645963D01*
X96477339Y-106645243D01*
X96486072Y-106643507D01*
X96486073Y-106643506D01*
X96486080Y-106643505D01*
X96531991Y-106624486D01*
X96538448Y-106622021D01*
X96595437Y-106602082D01*
X96604676Y-106596276D01*
X96623205Y-106586705D01*
X96623390Y-106586629D01*
X96674979Y-106552156D01*
X96677841Y-106550303D01*
X96739400Y-106511624D01*
X96739402Y-106511622D01*
X96739890Y-106511135D01*
X96859127Y-106391898D01*
X96859128Y-106391899D01*
X96859142Y-106391881D01*
X96859624Y-106391400D01*
X96881553Y-106356500D01*
X96898303Y-106329841D01*
X96900156Y-106326979D01*
X96934629Y-106275390D01*
X96934705Y-106275205D01*
X96944276Y-106256676D01*
X96950082Y-106247437D01*
X96970021Y-106190448D01*
X96972492Y-106183977D01*
X96973685Y-106181098D01*
X96991505Y-106138080D01*
X96993963Y-106125717D01*
X96998542Y-106108943D01*
X97008538Y-106080379D01*
X97009778Y-106080813D01*
X97039342Y-106027311D01*
X98565963Y-104500690D01*
X98565966Y-104500689D01*
X98671059Y-104395596D01*
X98734176Y-104301133D01*
X98787785Y-104256331D01*
X98857110Y-104247622D01*
X98906167Y-104266924D01*
G37*
%TD.AperFunction*%
%TA.AperFunction,Conductor*%
G36*
X122161717Y-97167185D02*
G01*
X122207472Y-97219989D01*
X122217416Y-97289147D01*
X122211714Y-97309926D01*
X122212263Y-97310093D01*
X122210493Y-97315927D01*
X122181500Y-97461683D01*
X122181500Y-102760112D01*
X122161815Y-102827151D01*
X122145181Y-102847793D01*
X121562180Y-103430793D01*
X121500857Y-103464278D01*
X121431165Y-103459294D01*
X121375232Y-103417422D01*
X121350815Y-103351958D01*
X121350499Y-103343134D01*
X121350499Y-102287128D01*
X121344091Y-102227517D01*
X121343971Y-102227196D01*
X121293797Y-102092671D01*
X121293793Y-102092664D01*
X121207547Y-101977455D01*
X121207544Y-101977452D01*
X121092335Y-101891206D01*
X121092328Y-101891202D01*
X120957482Y-101840908D01*
X120957483Y-101840908D01*
X120897883Y-101834501D01*
X120897881Y-101834500D01*
X120897873Y-101834500D01*
X120897864Y-101834500D01*
X119302129Y-101834500D01*
X119302123Y-101834501D01*
X119242516Y-101840908D01*
X119107671Y-101891202D01*
X119107664Y-101891206D01*
X118992455Y-101977452D01*
X118992452Y-101977455D01*
X118906206Y-102092664D01*
X118906202Y-102092671D01*
X118855908Y-102227517D01*
X118849501Y-102287116D01*
X118849501Y-102287123D01*
X118849500Y-102287135D01*
X118849500Y-102753500D01*
X118829815Y-102820539D01*
X118777011Y-102866294D01*
X118725500Y-102877500D01*
X117911126Y-102877500D01*
X117844087Y-102857815D01*
X117798332Y-102805011D01*
X117788388Y-102735853D01*
X117817413Y-102672297D01*
X117834653Y-102655889D01*
X117835181Y-102655474D01*
X117835185Y-102655472D01*
X117955472Y-102535185D01*
X118043478Y-102389606D01*
X118094086Y-102227196D01*
X118094985Y-102217293D01*
X118120652Y-102152314D01*
X118130787Y-102140841D01*
X119024705Y-101246924D01*
X119030039Y-101238941D01*
X119112978Y-101114815D01*
X119121170Y-101102555D01*
X119121171Y-101102552D01*
X119121175Y-101102547D01*
X119187624Y-100942124D01*
X119202866Y-100865498D01*
X119221500Y-100771822D01*
X119221500Y-97271500D01*
X119241185Y-97204461D01*
X119293989Y-97158706D01*
X119345500Y-97147500D01*
X122094678Y-97147500D01*
X122161717Y-97167185D01*
G37*
%TD.AperFunction*%
%TA.AperFunction,Conductor*%
G36*
X95934050Y-100054998D02*
G01*
X95995561Y-100058762D01*
X96051922Y-100100056D01*
X96077011Y-100165266D01*
X96075042Y-100199577D01*
X96064078Y-100254693D01*
X96031692Y-100316603D01*
X95970976Y-100351177D01*
X95942461Y-100354500D01*
X95022129Y-100354500D01*
X95022123Y-100354501D01*
X94962516Y-100360908D01*
X94827671Y-100411202D01*
X94827664Y-100411206D01*
X94712455Y-100497452D01*
X94712452Y-100497455D01*
X94626206Y-100612664D01*
X94626202Y-100612671D01*
X94575908Y-100747517D01*
X94569501Y-100807116D01*
X94569501Y-100807123D01*
X94569500Y-100807135D01*
X94569500Y-103002870D01*
X94569501Y-103002876D01*
X94575908Y-103062483D01*
X94612231Y-103159869D01*
X94617215Y-103229561D01*
X94583730Y-103290884D01*
X94522406Y-103324368D01*
X94452715Y-103319383D01*
X94396781Y-103277512D01*
X94392947Y-103272093D01*
X94360174Y-103223045D01*
X94358319Y-103220184D01*
X94319624Y-103158600D01*
X94316399Y-103155375D01*
X94316379Y-103155353D01*
X94203870Y-103042844D01*
X94203839Y-103042815D01*
X94199400Y-103038376D01*
X94137857Y-102999706D01*
X94134938Y-102997814D01*
X94101609Y-102975544D01*
X94056804Y-102921931D01*
X94046500Y-102872442D01*
X94046500Y-100710886D01*
X94066185Y-100643847D01*
X94082819Y-100623205D01*
X94601205Y-100104819D01*
X94662528Y-100071334D01*
X94688886Y-100068500D01*
X95708669Y-100068500D01*
X95722552Y-100069279D01*
X95734995Y-100070681D01*
X95757999Y-100073274D01*
X95758000Y-100073274D01*
X95758001Y-100073274D01*
X95781004Y-100070681D01*
X95793447Y-100069279D01*
X95807331Y-100068500D01*
X95832312Y-100068500D01*
X95868941Y-100061213D01*
X95879215Y-100059615D01*
X95926954Y-100054237D01*
X95926954Y-100054236D01*
X95933877Y-100053457D01*
X95934050Y-100054998D01*
G37*
%TD.AperFunction*%
%TA.AperFunction,Conductor*%
G36*
X108923322Y-85445661D02*
G01*
X108932517Y-85449091D01*
X108992127Y-85455500D01*
X110037872Y-85455499D01*
X110090194Y-85449874D01*
X110158952Y-85462280D01*
X110210089Y-85509891D01*
X110227368Y-85577590D01*
X110205303Y-85643884D01*
X110191128Y-85660845D01*
X109649942Y-86202031D01*
X109567372Y-86325607D01*
X109567368Y-86325614D01*
X109541928Y-86387034D01*
X109510495Y-86462919D01*
X109510494Y-86462922D01*
X109508855Y-86471157D01*
X109508856Y-86471158D01*
X109481499Y-86608685D01*
X109481499Y-86763425D01*
X109481500Y-86763446D01*
X109481500Y-93038316D01*
X109510493Y-93184072D01*
X109510495Y-93184080D01*
X109567371Y-93321391D01*
X109649939Y-93444964D01*
X109649945Y-93444971D01*
X109755028Y-93550054D01*
X109755035Y-93550060D01*
X109878608Y-93632628D01*
X109878609Y-93632628D01*
X109878610Y-93632629D01*
X110015920Y-93689505D01*
X110148602Y-93715897D01*
X110161683Y-93718499D01*
X110161687Y-93718500D01*
X110161688Y-93718500D01*
X110310313Y-93718500D01*
X110310314Y-93718499D01*
X110456080Y-93689505D01*
X110553049Y-93649338D01*
X110622516Y-93641870D01*
X110684995Y-93673145D01*
X110720648Y-93733233D01*
X110724500Y-93763900D01*
X110724500Y-94057869D01*
X110724501Y-94057876D01*
X110730908Y-94117483D01*
X110734334Y-94126667D01*
X110739318Y-94196359D01*
X110734335Y-94213329D01*
X110730910Y-94222510D01*
X110730908Y-94222520D01*
X110727513Y-94254101D01*
X110724501Y-94282123D01*
X110724500Y-94282135D01*
X110724500Y-95327870D01*
X110724501Y-95327872D01*
X110730908Y-95387483D01*
X110734334Y-95396667D01*
X110739318Y-95466359D01*
X110734335Y-95483329D01*
X110730910Y-95492510D01*
X110730908Y-95492520D01*
X110724501Y-95552116D01*
X110724500Y-95552127D01*
X110724500Y-96597870D01*
X110724501Y-96597872D01*
X110729486Y-96644247D01*
X110717079Y-96713006D01*
X110669468Y-96764143D01*
X110606196Y-96781500D01*
X94314446Y-96781500D01*
X94314426Y-96781499D01*
X94308312Y-96781499D01*
X94159688Y-96781499D01*
X94159687Y-96781499D01*
X94110374Y-96791308D01*
X94061061Y-96801118D01*
X94061060Y-96801118D01*
X94013927Y-96810493D01*
X94013919Y-96810495D01*
X93971843Y-96827924D01*
X93876614Y-96867368D01*
X93876607Y-96867372D01*
X93753031Y-96949942D01*
X93753030Y-96949943D01*
X92431581Y-98271393D01*
X92370258Y-98304878D01*
X92300566Y-98299894D01*
X92244633Y-98258022D01*
X92220216Y-98192558D01*
X92219900Y-98183712D01*
X92219900Y-97534530D01*
X92220680Y-97520645D01*
X92224674Y-97485200D01*
X92224674Y-97485197D01*
X92220680Y-97449752D01*
X92219900Y-97435868D01*
X92219900Y-97410887D01*
X92212616Y-97374271D01*
X92211015Y-97363979D01*
X92205637Y-97316246D01*
X92197936Y-97294241D01*
X92193364Y-97277485D01*
X92190905Y-97265120D01*
X92171889Y-97219213D01*
X92169414Y-97212729D01*
X92157475Y-97178608D01*
X92149482Y-97155763D01*
X92143678Y-97146526D01*
X92134106Y-97127996D01*
X92134029Y-97127810D01*
X92134028Y-97127809D01*
X92130231Y-97122127D01*
X92099568Y-97076236D01*
X92097719Y-97073384D01*
X92059024Y-97011800D01*
X92055799Y-97008575D01*
X92055779Y-97008553D01*
X91943270Y-96896044D01*
X91943239Y-96896015D01*
X91938800Y-96891576D01*
X91877257Y-96852906D01*
X91874339Y-96851015D01*
X91822786Y-96816568D01*
X91822593Y-96816489D01*
X91804075Y-96806922D01*
X91794847Y-96801124D01*
X91794836Y-96801117D01*
X91737871Y-96781185D01*
X91731372Y-96778704D01*
X91685479Y-96759694D01*
X91685476Y-96759693D01*
X91673107Y-96757233D01*
X91656347Y-96752658D01*
X91634357Y-96744963D01*
X91586634Y-96739585D01*
X91576335Y-96737983D01*
X91539715Y-96730700D01*
X91539712Y-96730700D01*
X91514731Y-96730700D01*
X91500847Y-96729920D01*
X91488404Y-96728518D01*
X91465401Y-96725926D01*
X91465399Y-96725926D01*
X91442395Y-96728518D01*
X91429952Y-96729920D01*
X91416069Y-96730700D01*
X91391084Y-96730700D01*
X91354465Y-96737983D01*
X91344166Y-96739585D01*
X91296444Y-96744963D01*
X91274450Y-96752659D01*
X91257700Y-96757231D01*
X91245325Y-96759693D01*
X91245312Y-96759697D01*
X91199431Y-96778702D01*
X91192935Y-96781182D01*
X91135963Y-96801117D01*
X91126715Y-96806928D01*
X91108228Y-96816479D01*
X91108027Y-96816562D01*
X91108007Y-96816572D01*
X91056440Y-96851027D01*
X91053525Y-96852916D01*
X90992003Y-96891573D01*
X90992000Y-96891576D01*
X90984437Y-96899138D01*
X90984436Y-96899138D01*
X90879338Y-97004236D01*
X90879338Y-97004237D01*
X90875023Y-97008553D01*
X90871773Y-97011803D01*
X90833116Y-97073325D01*
X90831227Y-97076240D01*
X90796772Y-97127807D01*
X90796762Y-97127827D01*
X90796679Y-97128028D01*
X90787128Y-97146515D01*
X90781317Y-97155763D01*
X90761382Y-97212735D01*
X90758902Y-97219231D01*
X90739897Y-97265112D01*
X90739893Y-97265125D01*
X90737431Y-97277500D01*
X90732859Y-97294250D01*
X90725163Y-97316244D01*
X90719785Y-97363966D01*
X90718183Y-97374265D01*
X90710900Y-97410884D01*
X90710900Y-97435868D01*
X90710120Y-97449752D01*
X90706126Y-97485197D01*
X90706126Y-97485200D01*
X90710120Y-97520645D01*
X90710900Y-97534530D01*
X90710900Y-98670712D01*
X90691215Y-98737751D01*
X90674581Y-98758393D01*
X90546943Y-98886030D01*
X90546942Y-98886031D01*
X90464370Y-99009610D01*
X90459288Y-99021879D01*
X90447019Y-99051500D01*
X90440392Y-99067499D01*
X90408279Y-99145028D01*
X90408276Y-99145034D01*
X90407497Y-99146914D01*
X90407493Y-99146924D01*
X90378499Y-99292685D01*
X90378499Y-99447425D01*
X90378500Y-99447446D01*
X90378500Y-99974840D01*
X90376117Y-99999032D01*
X90355299Y-100103685D01*
X90355299Y-100258425D01*
X90355300Y-100258446D01*
X90355300Y-102582313D01*
X90335615Y-102649352D01*
X90318981Y-102669994D01*
X90129621Y-102859353D01*
X90068298Y-102892838D01*
X89998606Y-102887854D01*
X89942674Y-102845984D01*
X89932546Y-102832454D01*
X89932544Y-102832452D01*
X89932543Y-102832451D01*
X89817335Y-102746206D01*
X89817328Y-102746202D01*
X89682482Y-102695908D01*
X89682483Y-102695908D01*
X89622883Y-102689501D01*
X89622881Y-102689500D01*
X89622873Y-102689500D01*
X89622865Y-102689500D01*
X88780500Y-102689500D01*
X88713461Y-102669815D01*
X88667706Y-102617011D01*
X88656500Y-102565500D01*
X88656500Y-100103610D01*
X88676185Y-100036571D01*
X88681234Y-100029299D01*
X88768793Y-99912335D01*
X88768792Y-99912335D01*
X88768796Y-99912331D01*
X88819091Y-99777483D01*
X88825500Y-99717873D01*
X88825499Y-98565557D01*
X88834938Y-98518105D01*
X88872624Y-98427124D01*
X88883709Y-98371393D01*
X88906500Y-98256823D01*
X88906500Y-96315936D01*
X88924960Y-96250840D01*
X88959814Y-96194334D01*
X89014999Y-96027797D01*
X89025500Y-95925009D01*
X89025499Y-94874992D01*
X89023059Y-94851109D01*
X89014999Y-94772203D01*
X89014998Y-94772200D01*
X89013737Y-94768396D01*
X88959814Y-94605666D01*
X88867712Y-94456344D01*
X88815819Y-94404451D01*
X88782334Y-94343128D01*
X88779500Y-94316770D01*
X88779500Y-87823886D01*
X88799185Y-87756847D01*
X88815814Y-87736209D01*
X89711818Y-86840205D01*
X89773141Y-86806721D01*
X89842833Y-86811705D01*
X89898766Y-86853577D01*
X89923183Y-86919041D01*
X89923499Y-86927887D01*
X89923499Y-86942313D01*
X89930783Y-86978932D01*
X89932386Y-86989238D01*
X89937763Y-87036954D01*
X89945460Y-87058954D01*
X89950033Y-87075705D01*
X89952494Y-87088075D01*
X89952495Y-87088079D01*
X89958514Y-87102611D01*
X89971505Y-87133976D01*
X89973983Y-87140468D01*
X89993918Y-87197438D01*
X89999725Y-87206679D01*
X90009285Y-87225186D01*
X90009370Y-87225389D01*
X90043504Y-87276475D01*
X90043818Y-87276944D01*
X90045709Y-87279862D01*
X90084376Y-87341400D01*
X90088815Y-87345839D01*
X90088844Y-87345870D01*
X90549155Y-87806179D01*
X90582640Y-87867502D01*
X90577656Y-87937193D01*
X90566466Y-87959835D01*
X90553715Y-87980127D01*
X90551827Y-87983040D01*
X90517372Y-88034607D01*
X90517362Y-88034627D01*
X90517279Y-88034828D01*
X90507728Y-88053315D01*
X90501917Y-88062563D01*
X90481982Y-88119535D01*
X90479502Y-88126031D01*
X90460497Y-88171912D01*
X90460493Y-88171925D01*
X90458031Y-88184300D01*
X90453459Y-88201050D01*
X90445763Y-88223044D01*
X90440385Y-88270766D01*
X90438783Y-88281065D01*
X90431500Y-88317684D01*
X90431500Y-88342668D01*
X90430720Y-88356552D01*
X90426726Y-88392000D01*
X90429453Y-88416206D01*
X90430720Y-88427445D01*
X90431500Y-88441330D01*
X90431500Y-88466315D01*
X90438783Y-88502935D01*
X90440385Y-88513234D01*
X90445763Y-88560957D01*
X90453458Y-88582947D01*
X90458033Y-88599707D01*
X90460493Y-88612076D01*
X90460494Y-88612079D01*
X90479504Y-88657972D01*
X90481985Y-88664471D01*
X90501917Y-88721436D01*
X90507721Y-88730672D01*
X90517289Y-88749193D01*
X90517368Y-88749386D01*
X90551815Y-88800939D01*
X90553706Y-88803857D01*
X90592376Y-88865400D01*
X90596815Y-88869839D01*
X90596844Y-88869870D01*
X90709353Y-88982379D01*
X90709375Y-88982399D01*
X90712600Y-88985624D01*
X90774184Y-89024319D01*
X90777036Y-89026168D01*
X90828607Y-89060627D01*
X90828609Y-89060628D01*
X90828610Y-89060629D01*
X90828796Y-89060706D01*
X90847326Y-89070278D01*
X90856563Y-89076082D01*
X90913536Y-89096016D01*
X90920013Y-89098489D01*
X90965920Y-89117505D01*
X90978288Y-89119965D01*
X90995041Y-89124536D01*
X91017046Y-89132237D01*
X91064779Y-89137615D01*
X91075065Y-89139215D01*
X91095680Y-89143315D01*
X91111687Y-89146500D01*
X91111688Y-89146500D01*
X91136669Y-89146500D01*
X91150552Y-89147279D01*
X91162995Y-89148681D01*
X91185999Y-89151274D01*
X91186000Y-89151274D01*
X91186001Y-89151274D01*
X91209004Y-89148681D01*
X91221447Y-89147279D01*
X91235331Y-89146500D01*
X99741554Y-89146500D01*
X99741574Y-89146501D01*
X99747688Y-89146501D01*
X99896314Y-89146501D01*
X100017894Y-89122315D01*
X100017894Y-89122316D01*
X100017900Y-89122313D01*
X100042080Y-89117505D01*
X100087971Y-89098496D01*
X100098944Y-89093951D01*
X100098947Y-89093949D01*
X100098955Y-89093946D01*
X100179389Y-89060630D01*
X100302966Y-88978059D01*
X101105963Y-88175060D01*
X101105966Y-88175059D01*
X101211059Y-88069966D01*
X101293629Y-87946390D01*
X101350505Y-87809080D01*
X101379500Y-87663312D01*
X101379500Y-85579499D01*
X101399185Y-85512460D01*
X101451989Y-85466705D01*
X101503500Y-85455499D01*
X102417871Y-85455499D01*
X102417872Y-85455499D01*
X102477483Y-85449091D01*
X102486660Y-85445667D01*
X102556351Y-85440679D01*
X102573322Y-85445661D01*
X102582517Y-85449091D01*
X102642127Y-85455500D01*
X103687872Y-85455499D01*
X103747483Y-85449091D01*
X103756660Y-85445667D01*
X103826351Y-85440679D01*
X103843322Y-85445661D01*
X103852517Y-85449091D01*
X103912127Y-85455500D01*
X104957872Y-85455499D01*
X105017483Y-85449091D01*
X105017482Y-85449091D01*
X105025196Y-85448262D01*
X105025535Y-85451418D01*
X105080685Y-85454342D01*
X105137381Y-85495176D01*
X105163000Y-85560179D01*
X105163500Y-85571303D01*
X105163500Y-86942316D01*
X105192493Y-87088072D01*
X105192495Y-87088080D01*
X105249371Y-87225391D01*
X105331939Y-87348964D01*
X105331945Y-87348971D01*
X105437028Y-87454054D01*
X105437035Y-87454060D01*
X105560608Y-87536628D01*
X105560609Y-87536628D01*
X105560610Y-87536629D01*
X105697920Y-87593505D01*
X105820135Y-87617815D01*
X105843683Y-87622499D01*
X105843687Y-87622500D01*
X105843688Y-87622500D01*
X105992313Y-87622500D01*
X105992314Y-87622499D01*
X106138080Y-87593505D01*
X106275390Y-87536629D01*
X106398966Y-87454059D01*
X106504059Y-87348966D01*
X106586629Y-87225390D01*
X106643505Y-87088080D01*
X106672500Y-86942312D01*
X106672500Y-85579499D01*
X106692185Y-85512460D01*
X106744989Y-85466705D01*
X106796500Y-85455499D01*
X107497871Y-85455499D01*
X107497872Y-85455499D01*
X107557483Y-85449091D01*
X107566660Y-85445667D01*
X107636351Y-85440679D01*
X107653322Y-85445661D01*
X107662517Y-85449091D01*
X107722127Y-85455500D01*
X108767872Y-85455499D01*
X108827483Y-85449091D01*
X108836660Y-85445667D01*
X108906351Y-85440679D01*
X108923322Y-85445661D01*
G37*
%TD.AperFunction*%
%TA.AperFunction,Conductor*%
G36*
X115872805Y-86662785D02*
G01*
X115918560Y-86715589D01*
X115929237Y-86755659D01*
X115934284Y-86810135D01*
X115934285Y-86810137D01*
X115995169Y-87024123D01*
X115995175Y-87024138D01*
X116094338Y-87223283D01*
X116094343Y-87223291D01*
X116228420Y-87400838D01*
X116392836Y-87550723D01*
X116392838Y-87550724D01*
X116409682Y-87561153D01*
X116456318Y-87613180D01*
X116467423Y-87682162D01*
X116439471Y-87746197D01*
X116413298Y-87769682D01*
X116359034Y-87805940D01*
X116320531Y-87844444D01*
X116253941Y-87911034D01*
X116253939Y-87911036D01*
X114838943Y-89326030D01*
X114838942Y-89326031D01*
X114756372Y-89449607D01*
X114756368Y-89449614D01*
X114746741Y-89472858D01*
X114699495Y-89586920D01*
X114694684Y-89611105D01*
X114670499Y-89732685D01*
X114670499Y-89878641D01*
X114652616Y-89942791D01*
X114581522Y-90060393D01*
X114530913Y-90222807D01*
X114525951Y-90277419D01*
X114524500Y-90293384D01*
X114524500Y-90956616D01*
X114525346Y-90965920D01*
X114530913Y-91027192D01*
X114530913Y-91027194D01*
X114530914Y-91027196D01*
X114581522Y-91189606D01*
X114665230Y-91328076D01*
X114669530Y-91335188D01*
X114684179Y-91349836D01*
X114717666Y-91411158D01*
X114720500Y-91437519D01*
X114720500Y-92727126D01*
X114700815Y-92794165D01*
X114684181Y-92814807D01*
X114677032Y-92821955D01*
X114677029Y-92821959D01*
X114588001Y-92966294D01*
X114587996Y-92966305D01*
X114534651Y-93127290D01*
X114524500Y-93226647D01*
X114524500Y-93823337D01*
X114524501Y-93823355D01*
X114534650Y-93922707D01*
X114534651Y-93922710D01*
X114587996Y-94083694D01*
X114588001Y-94083705D01*
X114677029Y-94228040D01*
X114677032Y-94228044D01*
X114796955Y-94347967D01*
X114796959Y-94347970D01*
X114941294Y-94436998D01*
X114941297Y-94436999D01*
X114941303Y-94437003D01*
X115102292Y-94490349D01*
X115201655Y-94500500D01*
X115748344Y-94500499D01*
X115748352Y-94500498D01*
X115748355Y-94500498D01*
X115802760Y-94494940D01*
X115847708Y-94490349D01*
X116008697Y-94437003D01*
X116153044Y-94347968D01*
X116272968Y-94228044D01*
X116362003Y-94083697D01*
X116415349Y-93922708D01*
X116425500Y-93823345D01*
X116425499Y-93226656D01*
X116422939Y-93201599D01*
X116415349Y-93127292D01*
X116415348Y-93127289D01*
X116362003Y-92966303D01*
X116361999Y-92966297D01*
X116361998Y-92966294D01*
X116272970Y-92821959D01*
X116272967Y-92821955D01*
X116265819Y-92814807D01*
X116232334Y-92753484D01*
X116229500Y-92727126D01*
X116229500Y-91544520D01*
X116249185Y-91477481D01*
X116301989Y-91431726D01*
X116371147Y-91421782D01*
X116434703Y-91450807D01*
X116439171Y-91454968D01*
X116439811Y-91455469D01*
X116439813Y-91455470D01*
X116439815Y-91455472D01*
X116585394Y-91543478D01*
X116747804Y-91594086D01*
X116757706Y-91594985D01*
X116822685Y-91620653D01*
X116834165Y-91630795D01*
X117422181Y-92218811D01*
X117455666Y-92280134D01*
X117458500Y-92306492D01*
X117458500Y-100268507D01*
X117438815Y-100335546D01*
X117422181Y-100356188D01*
X116959165Y-100819203D01*
X116897842Y-100852688D01*
X116882715Y-100855012D01*
X116872815Y-100855912D01*
X116872807Y-100855913D01*
X116872804Y-100855914D01*
X116778875Y-100885183D01*
X116710393Y-100906522D01*
X116567650Y-100992814D01*
X116500095Y-101010650D01*
X116433621Y-100989132D01*
X116389334Y-100935092D01*
X116379500Y-100886697D01*
X116379500Y-99622874D01*
X116399185Y-99555835D01*
X116415819Y-99535193D01*
X116416932Y-99534080D01*
X116422968Y-99528044D01*
X116512003Y-99383697D01*
X116565349Y-99222708D01*
X116575500Y-99123345D01*
X116575499Y-98526656D01*
X116565349Y-98427292D01*
X116512003Y-98266303D01*
X116511999Y-98266297D01*
X116511998Y-98266294D01*
X116422970Y-98121959D01*
X116422967Y-98121955D01*
X116303044Y-98002032D01*
X116303040Y-98002029D01*
X116158705Y-97913001D01*
X116158699Y-97912998D01*
X116158697Y-97912997D01*
X116158694Y-97912996D01*
X115997709Y-97859651D01*
X115898346Y-97849500D01*
X115351662Y-97849500D01*
X115351644Y-97849501D01*
X115252292Y-97859650D01*
X115252289Y-97859651D01*
X115091305Y-97912996D01*
X115091294Y-97913001D01*
X114946959Y-98002029D01*
X114946955Y-98002032D01*
X114827032Y-98121955D01*
X114827029Y-98121959D01*
X114738001Y-98266294D01*
X114737996Y-98266305D01*
X114684651Y-98427290D01*
X114674500Y-98526647D01*
X114674500Y-98526655D01*
X114674500Y-98758393D01*
X114674501Y-98943500D01*
X114654817Y-99010539D01*
X114602013Y-99056294D01*
X114550501Y-99067500D01*
X97420446Y-99067500D01*
X97420426Y-99067499D01*
X97414312Y-99067499D01*
X97265688Y-99067499D01*
X97265686Y-99067499D01*
X97144105Y-99091684D01*
X97119920Y-99096495D01*
X97002708Y-99145046D01*
X96982607Y-99153371D01*
X96859035Y-99235939D01*
X96726048Y-99368926D01*
X96664725Y-99402410D01*
X96595033Y-99397426D01*
X96539100Y-99355554D01*
X96515147Y-99295126D01*
X96513278Y-99278540D01*
X96512500Y-99264668D01*
X96512500Y-99239687D01*
X96505216Y-99203071D01*
X96503615Y-99192779D01*
X96498237Y-99145046D01*
X96490536Y-99123041D01*
X96485964Y-99106285D01*
X96483505Y-99093920D01*
X96464489Y-99048013D01*
X96462014Y-99041529D01*
X96442082Y-98984563D01*
X96436278Y-98975326D01*
X96426706Y-98956796D01*
X96426629Y-98956610D01*
X96426628Y-98956609D01*
X96392174Y-98905045D01*
X96390319Y-98902184D01*
X96351624Y-98840600D01*
X96348399Y-98837375D01*
X96348379Y-98837353D01*
X96235870Y-98724844D01*
X96235839Y-98724815D01*
X96231400Y-98720376D01*
X96169857Y-98681706D01*
X96166939Y-98679815D01*
X96115386Y-98645368D01*
X96115193Y-98645289D01*
X96096675Y-98635722D01*
X96092039Y-98632809D01*
X96087436Y-98629917D01*
X96030471Y-98609985D01*
X96023972Y-98607504D01*
X95978079Y-98588494D01*
X95978076Y-98588493D01*
X95965707Y-98586033D01*
X95948947Y-98581458D01*
X95926957Y-98573763D01*
X95879234Y-98568385D01*
X95868935Y-98566783D01*
X95832315Y-98559500D01*
X95832312Y-98559500D01*
X95807331Y-98559500D01*
X95793447Y-98558720D01*
X95781004Y-98557318D01*
X95758001Y-98554726D01*
X95757999Y-98554726D01*
X95734995Y-98557318D01*
X95722552Y-98558720D01*
X95708669Y-98559500D01*
X94576887Y-98559500D01*
X94509848Y-98539815D01*
X94464093Y-98487011D01*
X94454149Y-98417853D01*
X94483174Y-98354297D01*
X94489206Y-98347819D01*
X94510206Y-98326819D01*
X94571529Y-98293334D01*
X94597887Y-98290500D01*
X111031894Y-98290500D01*
X111075227Y-98298318D01*
X111117517Y-98314091D01*
X111117516Y-98314091D01*
X111124444Y-98314835D01*
X111177127Y-98320500D01*
X113372872Y-98320499D01*
X113432483Y-98314091D01*
X113567331Y-98263796D01*
X113682546Y-98177546D01*
X113768796Y-98062331D01*
X113819091Y-97927483D01*
X113825500Y-97867873D01*
X113825499Y-96822128D01*
X113819091Y-96762517D01*
X113818038Y-96759695D01*
X113815667Y-96753337D01*
X113810680Y-96683646D01*
X113815662Y-96666675D01*
X113819091Y-96657483D01*
X113825500Y-96597873D01*
X113825499Y-95552128D01*
X113819091Y-95492517D01*
X113819088Y-95492510D01*
X113815667Y-95483337D01*
X113810680Y-95413646D01*
X113815662Y-95396675D01*
X113819091Y-95387483D01*
X113825500Y-95327873D01*
X113825499Y-94282128D01*
X113819091Y-94222517D01*
X113819088Y-94222510D01*
X113815667Y-94213337D01*
X113810680Y-94143646D01*
X113815662Y-94126675D01*
X113819091Y-94117483D01*
X113825500Y-94057873D01*
X113825499Y-93012128D01*
X113819091Y-92952517D01*
X113815666Y-92943336D01*
X113810680Y-92873646D01*
X113815662Y-92856675D01*
X113819091Y-92847483D01*
X113825500Y-92787873D01*
X113825499Y-91742128D01*
X113819091Y-91682517D01*
X113815666Y-91673336D01*
X113810680Y-91603646D01*
X113815662Y-91586675D01*
X113819091Y-91577483D01*
X113825500Y-91517873D01*
X113825499Y-90472128D01*
X113819091Y-90412517D01*
X113815666Y-90403336D01*
X113810680Y-90333646D01*
X113815662Y-90316675D01*
X113819091Y-90307483D01*
X113825500Y-90247873D01*
X113825499Y-89333499D01*
X113845183Y-89266461D01*
X113897987Y-89220706D01*
X113949499Y-89209500D01*
X114094554Y-89209500D01*
X114094574Y-89209501D01*
X114100688Y-89209501D01*
X114249314Y-89209501D01*
X114370894Y-89185315D01*
X114370894Y-89185316D01*
X114370900Y-89185313D01*
X114395080Y-89180505D01*
X114430942Y-89165649D01*
X114451944Y-89156951D01*
X114451947Y-89156949D01*
X114451955Y-89156946D01*
X114532389Y-89123630D01*
X114655966Y-89041059D01*
X114836059Y-88860966D01*
X114918630Y-88737389D01*
X114975505Y-88600079D01*
X114992780Y-88513234D01*
X115004501Y-88454314D01*
X115004501Y-88305685D01*
X114975506Y-88159926D01*
X114975505Y-88159925D01*
X114975505Y-88159921D01*
X114961470Y-88126038D01*
X114918633Y-88022618D01*
X114918632Y-88022617D01*
X114918630Y-88022611D01*
X114878123Y-87961988D01*
X114857246Y-87895313D01*
X114875730Y-87827933D01*
X114912333Y-87789998D01*
X115034966Y-87708059D01*
X115140059Y-87602966D01*
X115222629Y-87479390D01*
X115279505Y-87342080D01*
X115308500Y-87196312D01*
X115308500Y-87047688D01*
X115279505Y-86901920D01*
X115243315Y-86814552D01*
X115235847Y-86745084D01*
X115267122Y-86682604D01*
X115327211Y-86646952D01*
X115357877Y-86643100D01*
X115805766Y-86643100D01*
X115872805Y-86662785D01*
G37*
%TD.AperFunction*%
%TA.AperFunction,Conductor*%
G36*
X118417539Y-89166185D02*
G01*
X118463294Y-89218989D01*
X118474500Y-89270500D01*
X118474500Y-90137870D01*
X118474501Y-90137876D01*
X118480908Y-90197483D01*
X118531202Y-90332328D01*
X118531206Y-90332335D01*
X118617452Y-90447544D01*
X118617455Y-90447547D01*
X118732664Y-90533793D01*
X118732671Y-90533797D01*
X118867517Y-90584091D01*
X118867516Y-90584091D01*
X118874444Y-90584835D01*
X118927127Y-90590500D01*
X120522872Y-90590499D01*
X120582483Y-90584091D01*
X120717331Y-90533796D01*
X120832546Y-90447546D01*
X120918796Y-90332331D01*
X120924640Y-90316663D01*
X120925318Y-90314846D01*
X120967188Y-90258912D01*
X121032652Y-90234494D01*
X121100925Y-90249345D01*
X121150331Y-90298750D01*
X121165500Y-90358178D01*
X121165500Y-91768316D01*
X121194493Y-91914072D01*
X121194495Y-91914080D01*
X121251371Y-92051391D01*
X121333939Y-92174964D01*
X121333945Y-92174971D01*
X121439028Y-92280054D01*
X121439035Y-92280060D01*
X121562608Y-92362628D01*
X121562609Y-92362628D01*
X121562610Y-92362629D01*
X121699920Y-92419505D01*
X121845683Y-92448499D01*
X121845687Y-92448500D01*
X121845688Y-92448500D01*
X121994313Y-92448500D01*
X121994314Y-92448499D01*
X122140080Y-92419505D01*
X122140092Y-92419499D01*
X122145907Y-92417737D01*
X122146515Y-92419744D01*
X122206512Y-92413291D01*
X122268992Y-92444564D01*
X122304647Y-92504651D01*
X122308500Y-92535322D01*
X122308500Y-95087508D01*
X122288815Y-95154547D01*
X122272181Y-95175189D01*
X122099189Y-95348181D01*
X122037866Y-95381666D01*
X122011508Y-95384500D01*
X119345500Y-95384500D01*
X119278461Y-95364815D01*
X119232706Y-95312011D01*
X119221500Y-95260500D01*
X119221500Y-91803178D01*
X119202212Y-91706217D01*
X119202212Y-91706216D01*
X119187624Y-91632876D01*
X119121175Y-91472453D01*
X119024706Y-91328076D01*
X119024704Y-91328073D01*
X119024703Y-91328072D01*
X118005795Y-90309165D01*
X117972310Y-90247842D01*
X117969987Y-90232725D01*
X117969086Y-90222804D01*
X117918478Y-90060394D01*
X117830472Y-89914815D01*
X117830470Y-89914813D01*
X117830469Y-89914811D01*
X117710188Y-89794530D01*
X117564606Y-89706522D01*
X117488757Y-89682887D01*
X117402196Y-89655914D01*
X117402194Y-89655913D01*
X117402192Y-89655913D01*
X117352778Y-89651423D01*
X117331616Y-89649500D01*
X116948886Y-89649500D01*
X116881847Y-89629815D01*
X116836092Y-89577011D01*
X116826148Y-89507853D01*
X116855173Y-89444297D01*
X116861205Y-89437819D01*
X117116205Y-89182819D01*
X117177528Y-89149334D01*
X117203886Y-89146500D01*
X118350500Y-89146500D01*
X118417539Y-89166185D01*
G37*
%TD.AperFunction*%
%TA.AperFunction,Conductor*%
G36*
X118536494Y-81429123D02*
G01*
X119457294Y-82349923D01*
X119539484Y-82432113D01*
X119580078Y-82472707D01*
X119724446Y-82569171D01*
X119724459Y-82569178D01*
X119767628Y-82587059D01*
X119767629Y-82587059D01*
X119884876Y-82635625D01*
X120055175Y-82669499D01*
X120055179Y-82669500D01*
X120055180Y-82669500D01*
X120995508Y-82669500D01*
X121062547Y-82689185D01*
X121083189Y-82705819D01*
X122272181Y-83894810D01*
X122305666Y-83956133D01*
X122308500Y-83982491D01*
X122308500Y-87160113D01*
X122288815Y-87227152D01*
X122236011Y-87272907D01*
X122166853Y-87282851D01*
X122103297Y-87253826D01*
X122096819Y-87247794D01*
X117631669Y-82782644D01*
X117598184Y-82721321D01*
X117603168Y-82651629D01*
X117645040Y-82595696D01*
X117654073Y-82589536D01*
X117658074Y-82587059D01*
X117845962Y-82470724D01*
X118010381Y-82320836D01*
X118144458Y-82143289D01*
X118243629Y-81944128D01*
X118304515Y-81730136D01*
X118325043Y-81508600D01*
X118325042Y-81508594D01*
X118325342Y-81505363D01*
X118351128Y-81440426D01*
X118407928Y-81399738D01*
X118477709Y-81396218D01*
X118536494Y-81429123D01*
G37*
%TD.AperFunction*%
%TA.AperFunction,Conductor*%
G36*
X95994991Y-80690500D02*
G01*
X96402113Y-80690499D01*
X96469152Y-80710183D01*
X96489794Y-80726818D01*
X96879600Y-81116624D01*
X96879621Y-81116647D01*
X96922293Y-81159319D01*
X96955778Y-81220642D01*
X96950794Y-81290334D01*
X96922293Y-81334681D01*
X96228943Y-82028030D01*
X96228942Y-82028031D01*
X96146372Y-82151607D01*
X96146366Y-82151617D01*
X96117596Y-82221079D01*
X96117596Y-82221080D01*
X96094038Y-82277953D01*
X96050196Y-82332357D01*
X95983902Y-82354421D01*
X95979477Y-82354500D01*
X95022129Y-82354500D01*
X95022123Y-82354501D01*
X94962516Y-82360908D01*
X94827671Y-82411202D01*
X94827664Y-82411206D01*
X94712455Y-82497452D01*
X94712452Y-82497455D01*
X94626206Y-82612664D01*
X94626202Y-82612671D01*
X94575908Y-82747517D01*
X94569836Y-82804000D01*
X94569501Y-82807123D01*
X94569500Y-82807135D01*
X94569500Y-85002870D01*
X94569501Y-85002876D01*
X94575908Y-85062483D01*
X94621294Y-85184167D01*
X94626278Y-85253859D01*
X94592793Y-85315182D01*
X94531470Y-85348666D01*
X94505112Y-85351500D01*
X92819886Y-85351500D01*
X92752847Y-85331815D01*
X92732209Y-85315185D01*
X92428966Y-85011941D01*
X92428965Y-85011940D01*
X92425854Y-85008829D01*
X92425839Y-85008815D01*
X92421400Y-85004376D01*
X92359862Y-84965709D01*
X92356944Y-84963818D01*
X92305389Y-84929370D01*
X92305186Y-84929285D01*
X92286679Y-84919725D01*
X92277438Y-84913918D01*
X92220468Y-84893983D01*
X92213976Y-84891505D01*
X92200765Y-84886033D01*
X92168079Y-84872495D01*
X92168075Y-84872494D01*
X92155705Y-84870033D01*
X92138954Y-84865460D01*
X92116954Y-84857763D01*
X92069238Y-84852386D01*
X92058932Y-84850783D01*
X92022313Y-84843499D01*
X92022312Y-84843499D01*
X92007887Y-84843499D01*
X91940848Y-84823814D01*
X91895093Y-84771010D01*
X91885149Y-84701852D01*
X91914174Y-84638296D01*
X91920206Y-84631818D01*
X93202363Y-83349661D01*
X94529937Y-82022086D01*
X94591258Y-81988603D01*
X94593290Y-81988179D01*
X94603624Y-81986124D01*
X94764047Y-81919675D01*
X94908423Y-81823206D01*
X95031206Y-81700423D01*
X95127675Y-81556047D01*
X95194124Y-81395624D01*
X95196152Y-81385426D01*
X95228532Y-81323518D01*
X95230032Y-81321990D01*
X95832230Y-80719792D01*
X95893551Y-80686309D01*
X95932512Y-80684117D01*
X95994991Y-80690500D01*
G37*
%TD.AperFunction*%
%TA.AperFunction,Conductor*%
G36*
X105335309Y-65671185D02*
G01*
X105381064Y-65723989D01*
X105391008Y-65793147D01*
X105361983Y-65856703D01*
X105308533Y-65892781D01*
X105080197Y-65971169D01*
X105080188Y-65971172D01*
X104861493Y-66089524D01*
X104665257Y-66242261D01*
X104496833Y-66425217D01*
X104360826Y-66633393D01*
X104260936Y-66861118D01*
X104199892Y-67102175D01*
X104199890Y-67102187D01*
X104179357Y-67349994D01*
X104179357Y-67350005D01*
X104199890Y-67597812D01*
X104199892Y-67597824D01*
X104260936Y-67838881D01*
X104360826Y-68066606D01*
X104496836Y-68274786D01*
X104499984Y-68278830D01*
X104498780Y-68279766D01*
X104526651Y-68336232D01*
X104528500Y-68357566D01*
X104528500Y-71870175D01*
X104508815Y-71937214D01*
X104505804Y-71941683D01*
X104356190Y-72153636D01*
X104356186Y-72153642D01*
X104228763Y-72399558D01*
X104228760Y-72399564D01*
X104136019Y-72660514D01*
X104136014Y-72660530D01*
X104079669Y-72931683D01*
X104079668Y-72931685D01*
X104060769Y-73208000D01*
X104079668Y-73484314D01*
X104079669Y-73484316D01*
X104136014Y-73755469D01*
X104136019Y-73755485D01*
X104228760Y-74016435D01*
X104228763Y-74016441D01*
X104228764Y-74016444D01*
X104228766Y-74016448D01*
X104356186Y-74262356D01*
X104515903Y-74488623D01*
X104515907Y-74488627D01*
X104704941Y-74691035D01*
X104737240Y-74717312D01*
X104776821Y-74774890D01*
X104778989Y-74844726D01*
X104743057Y-74904648D01*
X104680433Y-74935631D01*
X104658985Y-74937500D01*
X103712446Y-74937500D01*
X103712426Y-74937499D01*
X103706312Y-74937499D01*
X103557688Y-74937499D01*
X103557686Y-74937499D01*
X103436105Y-74961684D01*
X103421540Y-74964581D01*
X103411918Y-74966495D01*
X103411917Y-74966495D01*
X103355045Y-74990053D01*
X103274614Y-75023368D01*
X103151031Y-75105942D01*
X102029942Y-76227031D01*
X101947372Y-76350607D01*
X101947366Y-76350618D01*
X101890496Y-76487916D01*
X101890493Y-76487926D01*
X101861499Y-76633685D01*
X101861499Y-76788425D01*
X101861500Y-76788446D01*
X101861500Y-77868113D01*
X101841815Y-77935152D01*
X101825181Y-77955794D01*
X101201794Y-78579181D01*
X101140471Y-78612666D01*
X101114113Y-78615500D01*
X100857882Y-78615500D01*
X100813892Y-78606750D01*
X100813866Y-78606839D01*
X100812968Y-78606566D01*
X100810431Y-78606062D01*
X100808039Y-78605071D01*
X100808033Y-78605069D01*
X100654352Y-78574500D01*
X100654350Y-78574500D01*
X99037650Y-78574500D01*
X99037648Y-78574500D01*
X98883966Y-78605069D01*
X98883956Y-78605072D01*
X98739195Y-78665033D01*
X98739182Y-78665040D01*
X98608898Y-78752094D01*
X98608894Y-78752097D01*
X98498097Y-78862894D01*
X98498094Y-78862898D01*
X98411040Y-78993182D01*
X98411033Y-78993195D01*
X98351072Y-79137956D01*
X98351069Y-79137966D01*
X98320500Y-79291647D01*
X98320500Y-79291650D01*
X98320500Y-79448350D01*
X98320500Y-79448352D01*
X98320499Y-79448352D01*
X98351069Y-79602033D01*
X98351072Y-79602043D01*
X98397466Y-79714048D01*
X98404935Y-79783517D01*
X98373660Y-79845996D01*
X98313571Y-79881648D01*
X98282905Y-79885500D01*
X97869499Y-79885500D01*
X97802460Y-79865815D01*
X97756705Y-79813011D01*
X97745499Y-79761500D01*
X97745499Y-79389998D01*
X97745498Y-79389981D01*
X97734999Y-79287203D01*
X97734998Y-79287200D01*
X97679814Y-79120666D01*
X97587712Y-78971344D01*
X97463656Y-78847288D01*
X97370888Y-78790069D01*
X97314336Y-78755187D01*
X97314331Y-78755185D01*
X97312862Y-78754698D01*
X97147797Y-78700001D01*
X97147795Y-78700000D01*
X97045010Y-78689500D01*
X95994998Y-78689500D01*
X95994980Y-78689501D01*
X95892203Y-78700000D01*
X95892200Y-78700001D01*
X95725668Y-78755185D01*
X95725663Y-78755187D01*
X95576342Y-78847289D01*
X95452286Y-78971345D01*
X95449262Y-78975170D01*
X95392239Y-79015544D01*
X95322439Y-79018679D01*
X95262025Y-78983580D01*
X95230178Y-78921391D01*
X95228000Y-78898254D01*
X95228000Y-77011992D01*
X95247685Y-76944953D01*
X95264319Y-76924311D01*
X95578811Y-76609819D01*
X95640134Y-76576334D01*
X95666492Y-76573500D01*
X100924822Y-76573500D01*
X101039394Y-76550709D01*
X101095124Y-76539624D01*
X101255547Y-76473175D01*
X101399923Y-76376706D01*
X101522706Y-76253923D01*
X101619175Y-76109547D01*
X101685624Y-75949124D01*
X101719500Y-75778820D01*
X101719500Y-75605180D01*
X101719500Y-75605177D01*
X101685625Y-75434881D01*
X101685624Y-75434880D01*
X101685624Y-75434876D01*
X101622355Y-75282132D01*
X101614887Y-75212664D01*
X101646162Y-75150185D01*
X101687516Y-75120947D01*
X101689544Y-75120066D01*
X101689548Y-75120065D01*
X101912162Y-75023370D01*
X101943572Y-75009727D01*
X101943576Y-75009725D01*
X101947574Y-75007294D01*
X102180218Y-74865821D01*
X102395058Y-74691035D01*
X102584097Y-74488623D01*
X102743814Y-74262356D01*
X102871234Y-74016448D01*
X102883283Y-73982547D01*
X102963980Y-73755485D01*
X102963985Y-73755469D01*
X102994973Y-73606343D01*
X103020331Y-73484314D01*
X103039231Y-73208000D01*
X103020331Y-72931686D01*
X102979455Y-72734979D01*
X102963985Y-72660530D01*
X102963980Y-72660514D01*
X102871239Y-72399564D01*
X102871236Y-72399558D01*
X102871234Y-72399552D01*
X102743814Y-72153644D01*
X102584097Y-71927377D01*
X102395058Y-71724965D01*
X102180218Y-71550179D01*
X102180216Y-71550178D01*
X102180214Y-71550176D01*
X101943576Y-71406274D01*
X101689551Y-71295936D01*
X101689549Y-71295935D01*
X101689548Y-71295935D01*
X101587902Y-71267455D01*
X101422864Y-71221213D01*
X101422860Y-71221212D01*
X101422859Y-71221212D01*
X101248018Y-71197181D01*
X101148481Y-71183500D01*
X101148480Y-71183500D01*
X100871520Y-71183500D01*
X100871519Y-71183500D01*
X100597141Y-71221212D01*
X100597135Y-71221213D01*
X100330451Y-71295935D01*
X100272830Y-71320963D01*
X100203499Y-71329616D01*
X100140495Y-71299411D01*
X100135749Y-71294909D01*
X100038021Y-71197181D01*
X100004536Y-71135858D01*
X100009520Y-71066166D01*
X100051392Y-71010233D01*
X100116856Y-70985816D01*
X100125702Y-70985500D01*
X100162822Y-70985500D01*
X100277394Y-70962709D01*
X100333124Y-70951624D01*
X100493547Y-70885175D01*
X100637923Y-70788706D01*
X100760706Y-70665923D01*
X100857175Y-70521547D01*
X100923624Y-70361124D01*
X100957500Y-70190820D01*
X100957500Y-68974499D01*
X100977185Y-68907460D01*
X101029989Y-68861705D01*
X101081500Y-68850499D01*
X101652871Y-68850499D01*
X101652872Y-68850499D01*
X101712483Y-68844091D01*
X101847331Y-68793796D01*
X101962546Y-68707546D01*
X102048796Y-68592331D01*
X102099091Y-68457483D01*
X102105500Y-68397873D01*
X102105499Y-66683700D01*
X102125184Y-66616662D01*
X102141818Y-66596020D01*
X103032698Y-65705142D01*
X103032700Y-65705137D01*
X103037602Y-65700236D01*
X103050026Y-65687814D01*
X103111351Y-65654332D01*
X103137702Y-65651500D01*
X105268270Y-65651500D01*
X105335309Y-65671185D01*
G37*
%TD.AperFunction*%
%TA.AperFunction,Conductor*%
G36*
X117923152Y-61590185D02*
G01*
X117943794Y-61606819D01*
X124177181Y-67840206D01*
X124210666Y-67901529D01*
X124213500Y-67927887D01*
X124213500Y-68667108D01*
X124193815Y-68734147D01*
X124141011Y-68779902D01*
X124071853Y-68789846D01*
X124008297Y-68760821D01*
X124001819Y-68754789D01*
X121912327Y-66665296D01*
X121912326Y-66665295D01*
X121767943Y-66568822D01*
X121607528Y-66502377D01*
X121607518Y-66502374D01*
X121437223Y-66468500D01*
X121437221Y-66468500D01*
X121437220Y-66468500D01*
X106967402Y-66468500D01*
X106900363Y-66448815D01*
X106876172Y-66428483D01*
X106849797Y-66399832D01*
X106704744Y-66242262D01*
X106508509Y-66089526D01*
X106508507Y-66089525D01*
X106508506Y-66089524D01*
X106289811Y-65971172D01*
X106289802Y-65971169D01*
X106061467Y-65892781D01*
X106004452Y-65852396D01*
X105978321Y-65787596D01*
X105991372Y-65718956D01*
X106039461Y-65668268D01*
X106101730Y-65651500D01*
X116929365Y-65651500D01*
X116929366Y-65651500D01*
X117105897Y-65623540D01*
X117105900Y-65623539D01*
X117105901Y-65623539D01*
X117275878Y-65568310D01*
X117275878Y-65568309D01*
X117275881Y-65568309D01*
X117435132Y-65487167D01*
X117579728Y-65382111D01*
X117706111Y-65255728D01*
X117811167Y-65111132D01*
X117892309Y-64951881D01*
X117947540Y-64781897D01*
X117975500Y-64605366D01*
X117975500Y-64426634D01*
X117947540Y-64250103D01*
X117947539Y-64250099D01*
X117947539Y-64250098D01*
X117892310Y-64080121D01*
X117892308Y-64080118D01*
X117862544Y-64021701D01*
X117811167Y-63920868D01*
X117706111Y-63776272D01*
X117579728Y-63649889D01*
X117435132Y-63544833D01*
X117275881Y-63463691D01*
X117275878Y-63463689D01*
X117105899Y-63408460D01*
X116988209Y-63389820D01*
X116929366Y-63380500D01*
X115913366Y-63380500D01*
X102526634Y-63380500D01*
X102467790Y-63389820D01*
X102350101Y-63408460D01*
X102350098Y-63408460D01*
X102180121Y-63463689D01*
X102180118Y-63463691D01*
X102020867Y-63544833D01*
X101959574Y-63589366D01*
X101876271Y-63649889D01*
X101876269Y-63649891D01*
X101876268Y-63649891D01*
X101446043Y-64080118D01*
X101368272Y-64157889D01*
X99865272Y-65660889D01*
X99821025Y-65705136D01*
X99738889Y-65787271D01*
X99738885Y-65787276D01*
X99730810Y-65798390D01*
X99675478Y-65841053D01*
X99630498Y-65849500D01*
X99557130Y-65849500D01*
X99557123Y-65849501D01*
X99497516Y-65855908D01*
X99362671Y-65906202D01*
X99362664Y-65906206D01*
X99247455Y-65992452D01*
X99247452Y-65992455D01*
X99161206Y-66107664D01*
X99161202Y-66107671D01*
X99110908Y-66242517D01*
X99104501Y-66302116D01*
X99104500Y-66302135D01*
X99104500Y-68397870D01*
X99104501Y-68397876D01*
X99110908Y-68457483D01*
X99161203Y-68592329D01*
X99169766Y-68603768D01*
X99194184Y-68669232D01*
X99194500Y-68678080D01*
X99194500Y-70054298D01*
X99174815Y-70121337D01*
X99122011Y-70167092D01*
X99052853Y-70177036D01*
X98989297Y-70148011D01*
X98982819Y-70141979D01*
X98199819Y-69358979D01*
X98166334Y-69297656D01*
X98163500Y-69271298D01*
X98163500Y-64021701D01*
X98183185Y-63954662D01*
X98199819Y-63934020D01*
X98692020Y-63441819D01*
X98753343Y-63408334D01*
X98779701Y-63405500D01*
X99578356Y-63405500D01*
X99645395Y-63425185D01*
X99654518Y-63431647D01*
X99781487Y-63530471D01*
X99781491Y-63530474D01*
X100000190Y-63648828D01*
X100235386Y-63729571D01*
X100480665Y-63770500D01*
X100729335Y-63770500D01*
X100974614Y-63729571D01*
X101209810Y-63648828D01*
X101428509Y-63530474D01*
X101624744Y-63377738D01*
X101793164Y-63194785D01*
X101929173Y-62986607D01*
X102029063Y-62758881D01*
X102090108Y-62517821D01*
X102094858Y-62460500D01*
X102110643Y-62270005D01*
X102110643Y-62269994D01*
X102090109Y-62022187D01*
X102090106Y-62022170D01*
X102073000Y-61954622D01*
X102075624Y-61884801D01*
X102105524Y-61836499D01*
X102335205Y-61606819D01*
X102396528Y-61573334D01*
X102422886Y-61570500D01*
X117856113Y-61570500D01*
X117923152Y-61590185D01*
G37*
%TD.AperFunction*%
%TD*%
M02*
