%TF.GenerationSoftware,KiCad,Pcbnew,8.0.3*%
%TF.CreationDate,2024-08-31T20:41:35-05:00*%
%TF.ProjectId,solder_oven_PCB,736f6c64-6572-45f6-9f76-656e5f504342,rev?*%
%TF.SameCoordinates,Original*%
%TF.FileFunction,Soldermask,Bot*%
%TF.FilePolarity,Negative*%
%FSLAX46Y46*%
G04 Gerber Fmt 4.6, Leading zero omitted, Abs format (unit mm)*
G04 Created by KiCad (PCBNEW 8.0.3) date 2024-08-31 20:41:35*
%MOMM*%
%LPD*%
G01*
G04 APERTURE LIST*
G04 Aperture macros list*
%AMRoundRect*
0 Rectangle with rounded corners*
0 $1 Rounding radius*
0 $2 $3 $4 $5 $6 $7 $8 $9 X,Y pos of 4 corners*
0 Add a 4 corners polygon primitive as box body*
4,1,4,$2,$3,$4,$5,$6,$7,$8,$9,$2,$3,0*
0 Add four circle primitives for the rounded corners*
1,1,$1+$1,$2,$3*
1,1,$1+$1,$4,$5*
1,1,$1+$1,$6,$7*
1,1,$1+$1,$8,$9*
0 Add four rect primitives between the rounded corners*
20,1,$1+$1,$2,$3,$4,$5,0*
20,1,$1+$1,$4,$5,$6,$7,0*
20,1,$1+$1,$6,$7,$8,$9,0*
20,1,$1+$1,$8,$9,$2,$3,0*%
G04 Aperture macros list end*
%ADD10C,5.600000*%
%ADD11R,2.000000X2.000000*%
%ADD12C,2.000000*%
%ADD13R,2.600000X2.600000*%
%ADD14C,2.600000*%
%ADD15O,1.500000X3.000000*%
%ADD16R,1.700000X1.700000*%
%ADD17O,1.700000X1.700000*%
%ADD18C,1.400000*%
%ADD19O,1.400000X1.400000*%
%ADD20O,2.000000X2.000000*%
%ADD21R,1.800000X1.800000*%
%ADD22C,1.800000*%
%ADD23O,3.960000X1.980000*%
%ADD24R,3.960000X1.980000*%
%ADD25R,1.600000X1.600000*%
%ADD26C,1.600000*%
%ADD27O,1.600000X1.600000*%
%ADD28R,3.048000X3.048000*%
%ADD29C,3.048000*%
%ADD30RoundRect,0.250000X1.712500X0.550000X-1.712500X0.550000X-1.712500X-0.550000X1.712500X-0.550000X0*%
%ADD31RoundRect,0.250000X-1.712500X-0.550000X1.712500X-0.550000X1.712500X0.550000X-1.712500X0.550000X0*%
%ADD32R,2.060000X1.540000*%
%ADD33R,6.000000X3.500000*%
%ADD34R,1.020000X3.080000*%
%ADD35R,11.000000X8.500000*%
G04 APERTURE END LIST*
D10*
%TO.C,H3*%
X150700000Y-137075000D03*
%TD*%
D11*
%TO.C,C2*%
X138075000Y-72625000D03*
D12*
X141875000Y-72625000D03*
%TD*%
D13*
%TO.C,P1*%
X148844000Y-86868000D03*
D14*
X148844000Y-81788000D03*
%TD*%
D15*
%TO.C,T1*%
X92010000Y-133700000D03*
X94550000Y-133700000D03*
X97090000Y-133700000D03*
X99630000Y-133700000D03*
X102170000Y-133700000D03*
X104710000Y-133700000D03*
X107250000Y-133700000D03*
X109790000Y-133700000D03*
X112330000Y-133700000D03*
X114870000Y-133700000D03*
X117410000Y-133700000D03*
X119950000Y-133700000D03*
X122490000Y-133700000D03*
X125030000Y-133700000D03*
%TD*%
D16*
%TO.C,J1*%
X138300000Y-50450000D03*
D17*
X138300000Y-52990000D03*
X138300000Y-55530000D03*
%TD*%
D10*
%TO.C,H2*%
X150275000Y-44400000D03*
%TD*%
D18*
%TO.C,R6*%
X136450000Y-60445000D03*
D19*
X136450000Y-65525000D03*
%TD*%
D13*
%TO.C,TC1*%
X149657000Y-129037000D03*
D14*
X149657000Y-123957000D03*
%TD*%
D10*
%TO.C,H4*%
X78675000Y-137225000D03*
%TD*%
D11*
%TO.C,D3*%
X100605000Y-67350000D03*
D20*
X105685000Y-67350000D03*
X105685000Y-62270000D03*
X100605000Y-62270000D03*
%TD*%
D21*
%TO.C,D4*%
X140650000Y-63600000D03*
D22*
X140650000Y-61060000D03*
%TD*%
D13*
%TO.C,R1*%
X149149000Y-99065000D03*
D14*
X149149000Y-93985000D03*
%TD*%
D10*
%TO.C,H1*%
X78675000Y-44400000D03*
%TD*%
D23*
%TO.C,D1*%
X148844000Y-107268000D03*
X148844000Y-112268000D03*
D24*
X148844000Y-117268000D03*
%TD*%
D25*
%TO.C,U7*%
X97600000Y-108610000D03*
D26*
X97600000Y-111150000D03*
X97600000Y-113690000D03*
X97600000Y-116230000D03*
X97600000Y-118770000D03*
X97600000Y-121310000D03*
X97600000Y-123850000D03*
X97600000Y-126390000D03*
X89980000Y-126390000D03*
X89980000Y-123850000D03*
X89980000Y-121310000D03*
X89980000Y-118770000D03*
X89980000Y-116230000D03*
X89980000Y-113690000D03*
X89980000Y-111150000D03*
X89980000Y-108610000D03*
%TD*%
D25*
%TO.C,U5*%
X114340000Y-120725000D03*
D27*
X114340000Y-123265000D03*
X114340000Y-125805000D03*
X106720000Y-125805000D03*
X106720000Y-123265000D03*
X106720000Y-120725000D03*
%TD*%
D18*
%TO.C,R11*%
X111820000Y-115650000D03*
D19*
X106740000Y-115650000D03*
%TD*%
D28*
%TO.C,T2*%
X121330000Y-52888000D03*
D29*
X116250000Y-52888000D03*
X106090000Y-52888000D03*
X101010000Y-52888000D03*
X101010000Y-73208000D03*
X106090000Y-73208000D03*
X116250000Y-73208000D03*
X121330000Y-73208000D03*
%TD*%
D18*
%TO.C,R2*%
X122880000Y-115650000D03*
D19*
X117800000Y-115650000D03*
%TD*%
D25*
%TO.C,U4*%
X114340000Y-106225000D03*
D27*
X114340000Y-108765000D03*
X114340000Y-111305000D03*
X106720000Y-111305000D03*
X106720000Y-108765000D03*
X106720000Y-106225000D03*
%TD*%
D18*
%TO.C,R8*%
X121386600Y-85039200D03*
D19*
X121386600Y-79959200D03*
%TD*%
D18*
%TO.C,R5*%
X102790000Y-113750000D03*
D19*
X102790000Y-108670000D03*
%TD*%
D30*
%TO.C,C3*%
X94087500Y-82910000D03*
X87912500Y-82910000D03*
%TD*%
D31*
%TO.C,C4*%
X113912500Y-93910000D03*
X120087500Y-93910000D03*
%TD*%
D21*
%TO.C,D2*%
X119365000Y-120550000D03*
D22*
X121905000Y-120550000D03*
%TD*%
D32*
%TO.C,D5*%
X107375000Y-78100000D03*
X102375000Y-78100000D03*
%TD*%
D33*
%TO.C,L1*%
X91000000Y-91360000D03*
X91000000Y-100460000D03*
%TD*%
D34*
%TO.C,U6*%
X100600000Y-82250000D03*
X102300000Y-82250000D03*
D35*
X104000000Y-92570000D03*
D34*
X104000000Y-82250000D03*
X105700000Y-82250000D03*
X107400000Y-82250000D03*
%TD*%
D18*
%TO.C,R3*%
X123080000Y-106250000D03*
D19*
X118000000Y-106250000D03*
%TD*%
D18*
%TO.C,R4*%
X103632000Y-105156000D03*
D19*
X98552000Y-105156000D03*
%TD*%
D18*
%TO.C,R7*%
X117119400Y-81508600D03*
D19*
X117119400Y-86588600D03*
%TD*%
M02*
