%TF.GenerationSoftware,KiCad,Pcbnew,8.0.3*%
%TF.CreationDate,2024-08-31T20:41:35-05:00*%
%TF.ProjectId,solder_oven_PCB,736f6c64-6572-45f6-9f76-656e5f504342,rev?*%
%TF.SameCoordinates,Original*%
%TF.FileFunction,Paste,Top*%
%TF.FilePolarity,Positive*%
%FSLAX46Y46*%
G04 Gerber Fmt 4.6, Leading zero omitted, Abs format (unit mm)*
G04 Created by KiCad (PCBNEW 8.0.3) date 2024-08-31 20:41:35*
%MOMM*%
%LPD*%
G01*
G04 APERTURE LIST*
G04 Aperture macros list*
%AMRoundRect*
0 Rectangle with rounded corners*
0 $1 Rounding radius*
0 $2 $3 $4 $5 $6 $7 $8 $9 X,Y pos of 4 corners*
0 Add a 4 corners polygon primitive as box body*
4,1,4,$2,$3,$4,$5,$6,$7,$8,$9,$2,$3,0*
0 Add four circle primitives for the rounded corners*
1,1,$1+$1,$2,$3*
1,1,$1+$1,$4,$5*
1,1,$1+$1,$6,$7*
1,1,$1+$1,$8,$9*
0 Add four rect primitives between the rounded corners*
20,1,$1+$1,$2,$3,$4,$5,0*
20,1,$1+$1,$4,$5,$6,$7,0*
20,1,$1+$1,$6,$7,$8,$9,0*
20,1,$1+$1,$8,$9,$2,$3,0*%
G04 Aperture macros list end*
%ADD10RoundRect,0.250000X-0.250000X-0.475000X0.250000X-0.475000X0.250000X0.475000X-0.250000X0.475000X0*%
%ADD11RoundRect,0.225000X-0.225000X-0.250000X0.225000X-0.250000X0.225000X0.250000X-0.225000X0.250000X0*%
%ADD12RoundRect,0.250000X0.475000X-0.250000X0.475000X0.250000X-0.475000X0.250000X-0.475000X-0.250000X0*%
%ADD13RoundRect,0.200000X0.200000X0.275000X-0.200000X0.275000X-0.200000X-0.275000X0.200000X-0.275000X0*%
%ADD14R,1.100000X2.500000*%
%ADD15R,3.600000X2.340000*%
%ADD16O,2.050000X0.590000*%
%ADD17R,1.500000X1.230000*%
%ADD18R,0.950000X2.100000*%
%ADD19R,2.100000X0.950000*%
%ADD20R,0.900000X0.900000*%
G04 APERTURE END LIST*
D10*
%TO.C,C7*%
X88025000Y-95400000D03*
X89925000Y-95400000D03*
%TD*%
D11*
%TO.C,C6*%
X115475000Y-93525000D03*
X117025000Y-93525000D03*
%TD*%
D12*
%TO.C,C1*%
X96520000Y-79690000D03*
X96520000Y-77790000D03*
%TD*%
D13*
%TO.C,R10*%
X117075000Y-90625000D03*
X115425000Y-90625000D03*
%TD*%
D11*
%TO.C,C5*%
X115625000Y-98825000D03*
X117175000Y-98825000D03*
%TD*%
D14*
%TO.C,U3*%
X90075000Y-98420000D03*
X87775000Y-98420000D03*
X85475000Y-98420000D03*
D15*
X87775000Y-104360000D03*
%TD*%
D13*
%TO.C,R9*%
X117200000Y-101825000D03*
X115550000Y-101825000D03*
%TD*%
D16*
%TO.C,U2*%
X99846000Y-76830000D03*
X99846000Y-78110000D03*
X99846000Y-79370000D03*
X99846000Y-80640000D03*
X105386000Y-80640000D03*
X105386000Y-79370000D03*
X105386000Y-78110000D03*
X105386000Y-76830000D03*
%TD*%
D17*
%TO.C,B2*%
X119725000Y-94075000D03*
X119725000Y-89475000D03*
%TD*%
D18*
%TO.C,U1*%
X94275000Y-101905000D03*
X95545000Y-101905000D03*
X96815000Y-101905000D03*
X98085000Y-101905000D03*
X99355000Y-101905000D03*
X100625000Y-101905000D03*
X101895000Y-101905000D03*
X103165000Y-101905000D03*
X104435000Y-101905000D03*
X105705000Y-101905000D03*
X106975000Y-101905000D03*
X108245000Y-101905000D03*
X109515000Y-101905000D03*
X110785000Y-101905000D03*
D19*
X112275000Y-98615000D03*
X112275000Y-97345000D03*
X112275000Y-96075000D03*
X112275000Y-94805000D03*
X112275000Y-93535000D03*
X112275000Y-92265000D03*
X112275000Y-90995000D03*
X112275000Y-89725000D03*
X112275000Y-88455000D03*
X112275000Y-87185000D03*
D18*
X110785000Y-83905000D03*
X109515000Y-83905000D03*
X108245000Y-83905000D03*
X106975000Y-83905000D03*
X105705000Y-83905000D03*
X104435000Y-83905000D03*
X103165000Y-83905000D03*
X101895000Y-83905000D03*
X100625000Y-83905000D03*
X99355000Y-83905000D03*
X98085000Y-83905000D03*
X96815000Y-83905000D03*
X95545000Y-83905000D03*
X94275000Y-83905000D03*
D20*
X100555000Y-93005000D03*
X100555000Y-94405000D03*
X100555000Y-95805000D03*
X101955000Y-93005000D03*
X101955000Y-94405000D03*
X101955000Y-95805000D03*
X103355000Y-93005000D03*
X103355000Y-94405000D03*
X103355000Y-95805000D03*
%TD*%
D17*
%TO.C,B1*%
X120100000Y-98350000D03*
X120100000Y-102950000D03*
%TD*%
M02*
