%TF.GenerationSoftware,KiCad,Pcbnew,8.0.4*%
%TF.CreationDate,2024-09-26T20:40:34-05:00*%
%TF.ProjectId,solder_oven_PCB,736f6c64-6572-45f6-9f76-656e5f504342,rev?*%
%TF.SameCoordinates,Original*%
%TF.FileFunction,Paste,Top*%
%TF.FilePolarity,Positive*%
%FSLAX46Y46*%
G04 Gerber Fmt 4.6, Leading zero omitted, Abs format (unit mm)*
G04 Created by KiCad (PCBNEW 8.0.4) date 2024-09-26 20:40:34*
%MOMM*%
%LPD*%
G01*
G04 APERTURE LIST*
G04 Aperture macros list*
%AMRoundRect*
0 Rectangle with rounded corners*
0 $1 Rounding radius*
0 $2 $3 $4 $5 $6 $7 $8 $9 X,Y pos of 4 corners*
0 Add a 4 corners polygon primitive as box body*
4,1,4,$2,$3,$4,$5,$6,$7,$8,$9,$2,$3,0*
0 Add four circle primitives for the rounded corners*
1,1,$1+$1,$2,$3*
1,1,$1+$1,$4,$5*
1,1,$1+$1,$6,$7*
1,1,$1+$1,$8,$9*
0 Add four rect primitives between the rounded corners*
20,1,$1+$1,$2,$3,$4,$5,0*
20,1,$1+$1,$4,$5,$6,$7,0*
20,1,$1+$1,$6,$7,$8,$9,0*
20,1,$1+$1,$8,$9,$2,$3,0*%
G04 Aperture macros list end*
%ADD10RoundRect,0.225000X-0.225000X-0.250000X0.225000X-0.250000X0.225000X0.250000X-0.225000X0.250000X0*%
%ADD11RoundRect,0.250000X-0.475000X0.250000X-0.475000X-0.250000X0.475000X-0.250000X0.475000X0.250000X0*%
%ADD12RoundRect,0.200000X0.200000X0.275000X-0.200000X0.275000X-0.200000X-0.275000X0.200000X-0.275000X0*%
%ADD13O,2.050000X0.590000*%
%ADD14R,1.500000X1.230000*%
%ADD15R,2.100000X0.950000*%
%ADD16R,0.950000X2.100000*%
%ADD17R,0.900000X0.900000*%
G04 APERTURE END LIST*
D10*
%TO.C,C6*%
X96425000Y-96613000D03*
X97975000Y-96613000D03*
%TD*%
D11*
%TO.C,C1*%
X104800000Y-81300000D03*
X104800000Y-83200000D03*
%TD*%
D12*
%TO.C,R10*%
X98025000Y-93713000D03*
X96375000Y-93713000D03*
%TD*%
D10*
%TO.C,C5*%
X69350000Y-93788000D03*
X70900000Y-93788000D03*
%TD*%
D12*
%TO.C,R9*%
X70925000Y-96788000D03*
X69275000Y-96788000D03*
%TD*%
D13*
%TO.C,U2*%
X101970000Y-84560000D03*
X101970000Y-83280000D03*
X101970000Y-82020000D03*
X101970000Y-80750000D03*
X96430000Y-80750000D03*
X96430000Y-82020000D03*
X96430000Y-83280000D03*
X96430000Y-84560000D03*
%TD*%
D14*
%TO.C,B2*%
X93325000Y-97613000D03*
X93325000Y-93013000D03*
%TD*%
D15*
%TO.C,U1*%
X74525000Y-72003000D03*
X74525000Y-73273000D03*
X74525000Y-74543000D03*
X74525000Y-75813000D03*
X74525000Y-77083000D03*
X74525000Y-78353000D03*
X74525000Y-79623000D03*
X74525000Y-80893000D03*
X74525000Y-82163000D03*
X74525000Y-83433000D03*
X74525000Y-84703000D03*
X74525000Y-85973000D03*
X74525000Y-87243000D03*
X74525000Y-88513000D03*
D16*
X77815000Y-90003000D03*
X79085000Y-90003000D03*
X80355000Y-90003000D03*
X81625000Y-90003000D03*
X82895000Y-90003000D03*
X84165000Y-90003000D03*
X85435000Y-90003000D03*
X86705000Y-90003000D03*
X87975000Y-90003000D03*
X89245000Y-90003000D03*
D15*
X92525000Y-88513000D03*
X92525000Y-87243000D03*
X92525000Y-85973000D03*
X92525000Y-84703000D03*
X92525000Y-83433000D03*
X92525000Y-82163000D03*
X92525000Y-80893000D03*
X92525000Y-79623000D03*
X92525000Y-78353000D03*
X92525000Y-77083000D03*
X92525000Y-75813000D03*
X92525000Y-74543000D03*
X92525000Y-73273000D03*
X92525000Y-72003000D03*
D17*
X83425000Y-78283000D03*
X82025000Y-78283000D03*
X80625000Y-78283000D03*
X83425000Y-79683000D03*
X82025000Y-79683000D03*
X80625000Y-79683000D03*
X83425000Y-81083000D03*
X82025000Y-81083000D03*
X80625000Y-81083000D03*
%TD*%
D14*
%TO.C,B1*%
X73825000Y-93313000D03*
X73825000Y-97913000D03*
%TD*%
M02*
