%TF.GenerationSoftware,KiCad,Pcbnew,8.0.3*%
%TF.CreationDate,2024-08-31T20:41:35-05:00*%
%TF.ProjectId,solder_oven_PCB,736f6c64-6572-45f6-9f76-656e5f504342,rev?*%
%TF.SameCoordinates,Original*%
%TF.FileFunction,Soldermask,Top*%
%TF.FilePolarity,Negative*%
%FSLAX46Y46*%
G04 Gerber Fmt 4.6, Leading zero omitted, Abs format (unit mm)*
G04 Created by KiCad (PCBNEW 8.0.3) date 2024-08-31 20:41:35*
%MOMM*%
%LPD*%
G01*
G04 APERTURE LIST*
G04 Aperture macros list*
%AMRoundRect*
0 Rectangle with rounded corners*
0 $1 Rounding radius*
0 $2 $3 $4 $5 $6 $7 $8 $9 X,Y pos of 4 corners*
0 Add a 4 corners polygon primitive as box body*
4,1,4,$2,$3,$4,$5,$6,$7,$8,$9,$2,$3,0*
0 Add four circle primitives for the rounded corners*
1,1,$1+$1,$2,$3*
1,1,$1+$1,$4,$5*
1,1,$1+$1,$6,$7*
1,1,$1+$1,$8,$9*
0 Add four rect primitives between the rounded corners*
20,1,$1+$1,$2,$3,$4,$5,0*
20,1,$1+$1,$4,$5,$6,$7,0*
20,1,$1+$1,$6,$7,$8,$9,0*
20,1,$1+$1,$8,$9,$2,$3,0*%
G04 Aperture macros list end*
%ADD10C,5.600000*%
%ADD11R,2.000000X2.000000*%
%ADD12C,2.000000*%
%ADD13R,2.600000X2.600000*%
%ADD14C,2.600000*%
%ADD15O,1.500000X3.000000*%
%ADD16RoundRect,0.250000X-0.250000X-0.475000X0.250000X-0.475000X0.250000X0.475000X-0.250000X0.475000X0*%
%ADD17R,1.700000X1.700000*%
%ADD18O,1.700000X1.700000*%
%ADD19RoundRect,0.225000X-0.225000X-0.250000X0.225000X-0.250000X0.225000X0.250000X-0.225000X0.250000X0*%
%ADD20C,1.400000*%
%ADD21O,1.400000X1.400000*%
%ADD22RoundRect,0.250000X0.475000X-0.250000X0.475000X0.250000X-0.475000X0.250000X-0.475000X-0.250000X0*%
%ADD23RoundRect,0.200000X0.200000X0.275000X-0.200000X0.275000X-0.200000X-0.275000X0.200000X-0.275000X0*%
%ADD24O,2.000000X2.000000*%
%ADD25R,1.800000X1.800000*%
%ADD26C,1.800000*%
%ADD27R,1.100000X2.500000*%
%ADD28R,3.600000X2.340000*%
%ADD29O,2.050000X0.590000*%
%ADD30R,1.500000X1.230000*%
%ADD31R,0.950000X2.100000*%
%ADD32R,2.100000X0.950000*%
%ADD33R,0.900000X0.900000*%
%ADD34O,3.960000X1.980000*%
%ADD35R,3.960000X1.980000*%
%ADD36R,1.600000X1.600000*%
%ADD37C,1.600000*%
%ADD38O,1.600000X1.600000*%
%ADD39R,3.048000X3.048000*%
%ADD40C,3.048000*%
G04 APERTURE END LIST*
D10*
%TO.C,H3*%
X150700000Y-137075000D03*
%TD*%
D11*
%TO.C,C2*%
X138075000Y-72625000D03*
D12*
X141875000Y-72625000D03*
%TD*%
D13*
%TO.C,P1*%
X148844000Y-86868000D03*
D14*
X148844000Y-81788000D03*
%TD*%
D15*
%TO.C,T1*%
X92010000Y-133700000D03*
X94550000Y-133700000D03*
X97090000Y-133700000D03*
X99630000Y-133700000D03*
X102170000Y-133700000D03*
X104710000Y-133700000D03*
X107250000Y-133700000D03*
X109790000Y-133700000D03*
X112330000Y-133700000D03*
X114870000Y-133700000D03*
X117410000Y-133700000D03*
X119950000Y-133700000D03*
X122490000Y-133700000D03*
X125030000Y-133700000D03*
%TD*%
D16*
%TO.C,C7*%
X88025000Y-95400000D03*
X89925000Y-95400000D03*
%TD*%
D17*
%TO.C,J1*%
X138300000Y-50450000D03*
D18*
X138300000Y-52990000D03*
X138300000Y-55530000D03*
%TD*%
D10*
%TO.C,H2*%
X150275000Y-44400000D03*
%TD*%
D19*
%TO.C,C6*%
X115475000Y-93525000D03*
X117025000Y-93525000D03*
%TD*%
D20*
%TO.C,R6*%
X136450000Y-60445000D03*
D21*
X136450000Y-65525000D03*
%TD*%
D22*
%TO.C,C1*%
X96520000Y-79690000D03*
X96520000Y-77790000D03*
%TD*%
D13*
%TO.C,TC1*%
X149657000Y-129037000D03*
D14*
X149657000Y-123957000D03*
%TD*%
D10*
%TO.C,H4*%
X78675000Y-137225000D03*
%TD*%
D23*
%TO.C,R10*%
X117075000Y-90625000D03*
X115425000Y-90625000D03*
%TD*%
D19*
%TO.C,C5*%
X115625000Y-98825000D03*
X117175000Y-98825000D03*
%TD*%
D11*
%TO.C,D3*%
X100605000Y-67350000D03*
D24*
X105685000Y-67350000D03*
X105685000Y-62270000D03*
X100605000Y-62270000D03*
%TD*%
D25*
%TO.C,D4*%
X140650000Y-63600000D03*
D26*
X140650000Y-61060000D03*
%TD*%
D27*
%TO.C,U3*%
X90075000Y-98420000D03*
X87775000Y-98420000D03*
X85475000Y-98420000D03*
D28*
X87775000Y-104360000D03*
%TD*%
D23*
%TO.C,R9*%
X117200000Y-101825000D03*
X115550000Y-101825000D03*
%TD*%
D13*
%TO.C,R1*%
X149149000Y-99065000D03*
D14*
X149149000Y-93985000D03*
%TD*%
D29*
%TO.C,U2*%
X99846000Y-76830000D03*
X99846000Y-78110000D03*
X99846000Y-79370000D03*
X99846000Y-80640000D03*
X105386000Y-80640000D03*
X105386000Y-79370000D03*
X105386000Y-78110000D03*
X105386000Y-76830000D03*
%TD*%
D10*
%TO.C,H1*%
X78675000Y-44400000D03*
%TD*%
D30*
%TO.C,B2*%
X119725000Y-94075000D03*
X119725000Y-89475000D03*
%TD*%
D31*
%TO.C,U1*%
X94275000Y-101905000D03*
X95545000Y-101905000D03*
X96815000Y-101905000D03*
X98085000Y-101905000D03*
X99355000Y-101905000D03*
X100625000Y-101905000D03*
X101895000Y-101905000D03*
X103165000Y-101905000D03*
X104435000Y-101905000D03*
X105705000Y-101905000D03*
X106975000Y-101905000D03*
X108245000Y-101905000D03*
X109515000Y-101905000D03*
X110785000Y-101905000D03*
D32*
X112275000Y-98615000D03*
X112275000Y-97345000D03*
X112275000Y-96075000D03*
X112275000Y-94805000D03*
X112275000Y-93535000D03*
X112275000Y-92265000D03*
X112275000Y-90995000D03*
X112275000Y-89725000D03*
X112275000Y-88455000D03*
X112275000Y-87185000D03*
D31*
X110785000Y-83905000D03*
X109515000Y-83905000D03*
X108245000Y-83905000D03*
X106975000Y-83905000D03*
X105705000Y-83905000D03*
X104435000Y-83905000D03*
X103165000Y-83905000D03*
X101895000Y-83905000D03*
X100625000Y-83905000D03*
X99355000Y-83905000D03*
X98085000Y-83905000D03*
X96815000Y-83905000D03*
X95545000Y-83905000D03*
X94275000Y-83905000D03*
D33*
X100555000Y-93005000D03*
X100555000Y-94405000D03*
X100555000Y-95805000D03*
X101955000Y-93005000D03*
X101955000Y-94405000D03*
X101955000Y-95805000D03*
X103355000Y-93005000D03*
X103355000Y-94405000D03*
X103355000Y-95805000D03*
%TD*%
D30*
%TO.C,B1*%
X120100000Y-98350000D03*
X120100000Y-102950000D03*
%TD*%
D34*
%TO.C,D1*%
X148844000Y-107268000D03*
X148844000Y-112268000D03*
D35*
X148844000Y-117268000D03*
%TD*%
D36*
%TO.C,U7*%
X97600000Y-108610000D03*
D37*
X97600000Y-111150000D03*
X97600000Y-113690000D03*
X97600000Y-116230000D03*
X97600000Y-118770000D03*
X97600000Y-121310000D03*
X97600000Y-123850000D03*
X97600000Y-126390000D03*
X89980000Y-126390000D03*
X89980000Y-123850000D03*
X89980000Y-121310000D03*
X89980000Y-118770000D03*
X89980000Y-116230000D03*
X89980000Y-113690000D03*
X89980000Y-111150000D03*
X89980000Y-108610000D03*
%TD*%
D36*
%TO.C,U5*%
X114340000Y-120725000D03*
D38*
X114340000Y-123265000D03*
X114340000Y-125805000D03*
X106720000Y-125805000D03*
X106720000Y-123265000D03*
X106720000Y-120725000D03*
%TD*%
D20*
%TO.C,R11*%
X111820000Y-115650000D03*
D21*
X106740000Y-115650000D03*
%TD*%
D39*
%TO.C,T2*%
X121330000Y-52888000D03*
D40*
X116250000Y-52888000D03*
X106090000Y-52888000D03*
X101010000Y-52888000D03*
X101010000Y-73208000D03*
X106090000Y-73208000D03*
X116250000Y-73208000D03*
X121330000Y-73208000D03*
%TD*%
D20*
%TO.C,R2*%
X122880000Y-115650000D03*
D21*
X117800000Y-115650000D03*
%TD*%
D36*
%TO.C,U4*%
X114340000Y-106225000D03*
D38*
X114340000Y-108765000D03*
X114340000Y-111305000D03*
X106720000Y-111305000D03*
X106720000Y-108765000D03*
X106720000Y-106225000D03*
%TD*%
D20*
%TO.C,R8*%
X121386600Y-85039200D03*
D21*
X121386600Y-79959200D03*
%TD*%
D20*
%TO.C,R5*%
X102790000Y-113750000D03*
D21*
X102790000Y-108670000D03*
%TD*%
D25*
%TO.C,D2*%
X119365000Y-120550000D03*
D26*
X121905000Y-120550000D03*
%TD*%
D20*
%TO.C,R3*%
X123080000Y-106250000D03*
D21*
X118000000Y-106250000D03*
%TD*%
D20*
%TO.C,R4*%
X103632000Y-105156000D03*
D21*
X98552000Y-105156000D03*
%TD*%
D20*
%TO.C,R7*%
X117119400Y-81508600D03*
D21*
X117119400Y-86588600D03*
%TD*%
M02*
