M48
; DRILL file {KiCad 8.0.4} date 2024-09-26T20:40:37-0500
; FORMAT={-:-/ absolute / inch / decimal}
; #@! TF.CreationDate,2024-09-26T20:40:37-05:00
; #@! TF.GenerationSoftware,Kicad,Pcbnew,8.0.4
; #@! TF.FileFunction,Plated,1,4,PTH
FMAT,2
INCH
; #@! TA.AperFunction,Plated,PTH,ViaDrill
T1C0.0100
; #@! TA.AperFunction,Plated,PTH,ViaDrill
T2C0.0118
; #@! TA.AperFunction,Plated,PTH,ViaDrill
T3C0.0200
; #@! TA.AperFunction,Plated,PTH,ComponentDrill
T4C0.0276
; #@! TA.AperFunction,Plated,PTH,ComponentDrill
T5C0.0315
; #@! TA.AperFunction,Plated,PTH,ComponentDrill
T6C0.0354
; #@! TA.AperFunction,Plated,PTH,ComponentDrill
T7C0.0354
; #@! TA.AperFunction,Plated,PTH,ComponentDrill
T8C0.0394
; #@! TA.AperFunction,Plated,PTH,ComponentDrill
T9C0.0500
; #@! TA.AperFunction,Plated,PTH,ComponentDrill
T10C0.0512
; #@! TA.AperFunction,Plated,PTH,ComponentDrill
T11C0.0520
; #@! TA.AperFunction,Plated,PTH,ComponentDrill
T12C0.1260
%
G90
G05
T1
X2.6319Y-3.7579
X2.6457Y-3.2756
X2.6496Y-3.8346
X2.6555Y-3.4429
X2.6732Y-2.0354
X2.6969Y-3.0394
X2.6969Y-3.4961
X2.7283Y-3.5787
X2.7748Y-3.326
X2.79Y-2.175
X2.79Y-2.425
X2.8071Y-3.2559
X2.8096Y-2.9291
X2.815Y-3.0748
X2.8189Y-2.876
X2.83Y-2.835
X2.8307Y-3.563
X2.84Y-3.67
X2.8425Y-3.189
X2.845Y-2.46
X2.85Y-2.15
X2.8543Y-2.9882
X2.8937Y-3.7441
X2.905Y-3.61
X2.9291Y-2.0827
X2.96Y-3.67
X3.045Y-3.015
X3.055Y-3.0748
X3.063Y-2.8307
X3.065Y-3.46
X3.0748Y-2.9291
X3.0748Y-3.7441
X3.105Y-3.64
X3.1378Y-2.6024
X3.165Y-3.29
X3.17Y-3.14
X3.173Y-3.194
X3.1732Y-3.0827
X3.2126Y-3.689
X3.225Y-3.29
X3.226Y-3.194
X3.2283Y-3.0827
X3.23Y-3.14
X3.28Y-3.14
X3.2835Y-3.0827
X3.284Y-3.196
X3.285Y-3.295
X3.3071Y-3.7913
X3.31Y-2.645
X3.36Y-3.075
X3.36Y-3.135
X3.36Y-3.195
X3.36Y-3.295
X3.4016Y-3.378
X3.4055Y-4.126
X3.4941Y-2.877
X3.51Y-2.51
X3.51Y-2.72
X3.5118Y-3.4213
X3.5394Y-4.126
X3.5472Y-3.3819
X3.5551Y-3.1378
X3.61Y-3.88
X3.625Y-2.755
X3.6575Y-3.5906
X3.68Y-3.9
X3.7244Y-2.9843
X3.745Y-3.895
X3.752Y-3.0276
X3.7835Y-3.5906
X3.8031Y-2.9016
X3.8346Y-2.9764
X3.845Y-3.91
X3.855Y-3.75
X3.8583Y-4.126
X3.9764Y-3.3976
X4.0394Y-4.122
X4.075Y-3.37
X4.0945Y-3.0512
X4.095Y-3.325
X4.0984Y-2.7559
X4.12Y-2.24
X4.13Y-2.095
X4.18Y-2.185
X4.185Y-3.28
X4.4528Y-2.7283
X4.5748Y-4.0827
X5.1142Y-4.0157
T2
X3.9961Y-4.0787
X3.9961Y-4.2047
T3
X4.96Y-3.765
X5.17Y-3.765
T4
X3.8148Y-2.436
X3.8187Y-2.5738
X4.0014Y-3.5492
X4.0148Y-2.436
X4.0187Y-2.5738
X4.2014Y-3.5492
X4.2618Y-4.2244
X4.3035Y-3.5512
X4.4618Y-4.2244
X4.5035Y-3.5512
X4.5402Y-4.7598
X4.7402Y-4.7598
X5.252Y-3.8307
X5.2573Y-4.3376
X5.452Y-3.8307
X5.4573Y-4.3376
X5.6346Y-4.3376
X5.8346Y-4.3376
T5
X2.4955Y-2.5749
X2.4955Y-2.6749
X2.4955Y-2.7749
X2.4955Y-2.8749
X2.4955Y-2.9749
X2.4955Y-3.0749
X2.4955Y-3.1749
X2.4955Y-3.2749
X2.4955Y-3.3749
X2.4955Y-3.4749
X2.4955Y-3.5749
X2.4955Y-3.6749
X2.4955Y-3.7749
X2.4955Y-3.8749
X3.9951Y-3.7173
X3.9951Y-3.8173
X3.9951Y-3.9173
X4.2835Y-4.3661
X4.2951Y-3.7173
X4.2951Y-3.8173
X4.2951Y-3.9173
X4.3819Y-4.3661
X5.2Y-3.9764
X5.2Y-4.0764
X5.2Y-4.1764
X5.5Y-3.9764
X5.5Y-4.0764
X5.5Y-4.1764
T6
X4.4035Y-3.8839
X4.5035Y-3.8839
X4.9069Y-4.7559
X5.0069Y-4.7559
T7
X3.086Y-4.0094
X3.086Y-4.3094
X3.186Y-4.0094
X3.186Y-4.3094
X3.286Y-4.0094
X3.286Y-4.3094
X3.386Y-4.0094
X3.386Y-4.3094
X3.486Y-4.0094
X3.486Y-4.3094
X3.586Y-4.0094
X3.586Y-4.3094
X3.686Y-4.0094
X3.686Y-4.3094
X3.786Y-4.0094
X3.786Y-4.3094
T8
X4.4278Y-2.1681
X4.5278Y-2.1681
X4.6278Y-2.1681
X4.7728Y-3.9314
X4.7728Y-4.1314
X4.8002Y-4.3876
X4.8002Y-4.5372
X4.9728Y-3.9314
X4.9728Y-4.1314
T9
X4.7941Y-2.8016
X4.7941Y-3.6016
X4.9941Y-2.8016
X4.9941Y-3.6016
X5.3941Y-2.8016
X5.3941Y-3.6016
X5.5941Y-2.8016
X5.5941Y-3.6016
T10
X2.7412Y-4.829
X2.9412Y-4.829
X3.3693Y-4.8452
X3.5693Y-4.8452
X5.2728Y-4.8452
X5.4728Y-4.8452
T11
X3.887Y-4.8184
X4.0839Y-4.8184
X4.2807Y-4.8184
T12
X2.2559Y-2.0428
X2.2618Y-4.8785
X5.9104Y-2.0428
X5.9104Y-4.8617
M30
