%TF.GenerationSoftware,KiCad,Pcbnew,8.0.4*%
%TF.CreationDate,2024-09-26T20:40:34-05:00*%
%TF.ProjectId,solder_oven_PCB,736f6c64-6572-45f6-9f76-656e5f504342,rev?*%
%TF.SameCoordinates,Original*%
%TF.FileFunction,Legend,Bot*%
%TF.FilePolarity,Positive*%
%FSLAX46Y46*%
G04 Gerber Fmt 4.6, Leading zero omitted, Abs format (unit mm)*
G04 Created by KiCad (PCBNEW 8.0.4) date 2024-09-26 20:40:34*
%MOMM*%
%LPD*%
G01*
G04 APERTURE LIST*
%ADD10C,0.150000*%
%ADD11C,0.100000*%
%ADD12C,0.250000*%
%ADD13C,0.120000*%
%ADD14C,0.400000*%
G04 APERTURE END LIST*
D10*
X99786904Y-105304819D02*
X99786904Y-106114342D01*
X99786904Y-106114342D02*
X99739285Y-106209580D01*
X99739285Y-106209580D02*
X99691666Y-106257200D01*
X99691666Y-106257200D02*
X99596428Y-106304819D01*
X99596428Y-106304819D02*
X99405952Y-106304819D01*
X99405952Y-106304819D02*
X99310714Y-106257200D01*
X99310714Y-106257200D02*
X99263095Y-106209580D01*
X99263095Y-106209580D02*
X99215476Y-106114342D01*
X99215476Y-106114342D02*
X99215476Y-105304819D01*
X98834523Y-105304819D02*
X98167857Y-105304819D01*
X98167857Y-105304819D02*
X98596428Y-106304819D01*
X106046904Y-91544819D02*
X106046904Y-92354342D01*
X106046904Y-92354342D02*
X105999285Y-92449580D01*
X105999285Y-92449580D02*
X105951666Y-92497200D01*
X105951666Y-92497200D02*
X105856428Y-92544819D01*
X105856428Y-92544819D02*
X105665952Y-92544819D01*
X105665952Y-92544819D02*
X105570714Y-92497200D01*
X105570714Y-92497200D02*
X105523095Y-92449580D01*
X105523095Y-92449580D02*
X105475476Y-92354342D01*
X105475476Y-92354342D02*
X105475476Y-91544819D01*
X104523095Y-91544819D02*
X104999285Y-91544819D01*
X104999285Y-91544819D02*
X105046904Y-92021009D01*
X105046904Y-92021009D02*
X104999285Y-91973390D01*
X104999285Y-91973390D02*
X104904047Y-91925771D01*
X104904047Y-91925771D02*
X104665952Y-91925771D01*
X104665952Y-91925771D02*
X104570714Y-91973390D01*
X104570714Y-91973390D02*
X104523095Y-92021009D01*
X104523095Y-92021009D02*
X104475476Y-92116247D01*
X104475476Y-92116247D02*
X104475476Y-92354342D01*
X104475476Y-92354342D02*
X104523095Y-92449580D01*
X104523095Y-92449580D02*
X104570714Y-92497200D01*
X104570714Y-92497200D02*
X104665952Y-92544819D01*
X104665952Y-92544819D02*
X104904047Y-92544819D01*
X104904047Y-92544819D02*
X104999285Y-92497200D01*
X104999285Y-92497200D02*
X105046904Y-92449580D01*
X116034580Y-113046333D02*
X116082200Y-112998714D01*
X116082200Y-112998714D02*
X116129819Y-112855857D01*
X116129819Y-112855857D02*
X116129819Y-112760619D01*
X116129819Y-112760619D02*
X116082200Y-112617762D01*
X116082200Y-112617762D02*
X115986961Y-112522524D01*
X115986961Y-112522524D02*
X115891723Y-112474905D01*
X115891723Y-112474905D02*
X115701247Y-112427286D01*
X115701247Y-112427286D02*
X115558390Y-112427286D01*
X115558390Y-112427286D02*
X115367914Y-112474905D01*
X115367914Y-112474905D02*
X115272676Y-112522524D01*
X115272676Y-112522524D02*
X115177438Y-112617762D01*
X115177438Y-112617762D02*
X115129819Y-112760619D01*
X115129819Y-112760619D02*
X115129819Y-112855857D01*
X115129819Y-112855857D02*
X115177438Y-112998714D01*
X115177438Y-112998714D02*
X115225057Y-113046333D01*
X115225057Y-113427286D02*
X115177438Y-113474905D01*
X115177438Y-113474905D02*
X115129819Y-113570143D01*
X115129819Y-113570143D02*
X115129819Y-113808238D01*
X115129819Y-113808238D02*
X115177438Y-113903476D01*
X115177438Y-113903476D02*
X115225057Y-113951095D01*
X115225057Y-113951095D02*
X115320295Y-113998714D01*
X115320295Y-113998714D02*
X115415533Y-113998714D01*
X115415533Y-113998714D02*
X115558390Y-113951095D01*
X115558390Y-113951095D02*
X116129819Y-113379667D01*
X116129819Y-113379667D02*
X116129819Y-113998714D01*
X104817857Y-88684819D02*
X105151190Y-88208628D01*
X105389285Y-88684819D02*
X105389285Y-87684819D01*
X105389285Y-87684819D02*
X105008333Y-87684819D01*
X105008333Y-87684819D02*
X104913095Y-87732438D01*
X104913095Y-87732438D02*
X104865476Y-87780057D01*
X104865476Y-87780057D02*
X104817857Y-87875295D01*
X104817857Y-87875295D02*
X104817857Y-88018152D01*
X104817857Y-88018152D02*
X104865476Y-88113390D01*
X104865476Y-88113390D02*
X104913095Y-88161009D01*
X104913095Y-88161009D02*
X105008333Y-88208628D01*
X105008333Y-88208628D02*
X105389285Y-88208628D01*
X103865476Y-88684819D02*
X104436904Y-88684819D01*
X104151190Y-88684819D02*
X104151190Y-87684819D01*
X104151190Y-87684819D02*
X104246428Y-87827676D01*
X104246428Y-87827676D02*
X104341666Y-87922914D01*
X104341666Y-87922914D02*
X104436904Y-87970533D01*
X102913095Y-88684819D02*
X103484523Y-88684819D01*
X103198809Y-88684819D02*
X103198809Y-87684819D01*
X103198809Y-87684819D02*
X103294047Y-87827676D01*
X103294047Y-87827676D02*
X103389285Y-87922914D01*
X103389285Y-87922914D02*
X103484523Y-87970533D01*
D11*
X131675095Y-70687580D02*
X132246523Y-70687580D01*
X131960809Y-69687580D02*
X131960809Y-70687580D01*
X132532238Y-70592342D02*
X132579857Y-70639961D01*
X132579857Y-70639961D02*
X132675095Y-70687580D01*
X132675095Y-70687580D02*
X132913190Y-70687580D01*
X132913190Y-70687580D02*
X133008428Y-70639961D01*
X133008428Y-70639961D02*
X133056047Y-70592342D01*
X133056047Y-70592342D02*
X133103666Y-70497104D01*
X133103666Y-70497104D02*
X133103666Y-70401866D01*
X133103666Y-70401866D02*
X133056047Y-70259009D01*
X133056047Y-70259009D02*
X132484619Y-69687580D01*
X132484619Y-69687580D02*
X133103666Y-69687580D01*
D10*
X73616666Y-54481580D02*
X73664285Y-54529200D01*
X73664285Y-54529200D02*
X73807142Y-54576819D01*
X73807142Y-54576819D02*
X73902380Y-54576819D01*
X73902380Y-54576819D02*
X74045237Y-54529200D01*
X74045237Y-54529200D02*
X74140475Y-54433961D01*
X74140475Y-54433961D02*
X74188094Y-54338723D01*
X74188094Y-54338723D02*
X74235713Y-54148247D01*
X74235713Y-54148247D02*
X74235713Y-54005390D01*
X74235713Y-54005390D02*
X74188094Y-53814914D01*
X74188094Y-53814914D02*
X74140475Y-53719676D01*
X74140475Y-53719676D02*
X74045237Y-53624438D01*
X74045237Y-53624438D02*
X73902380Y-53576819D01*
X73902380Y-53576819D02*
X73807142Y-53576819D01*
X73807142Y-53576819D02*
X73664285Y-53624438D01*
X73664285Y-53624438D02*
X73616666Y-53672057D01*
X73283332Y-53576819D02*
X72616666Y-53576819D01*
X72616666Y-53576819D02*
X73045237Y-54576819D01*
X112016666Y-88734819D02*
X112349999Y-88258628D01*
X112588094Y-88734819D02*
X112588094Y-87734819D01*
X112588094Y-87734819D02*
X112207142Y-87734819D01*
X112207142Y-87734819D02*
X112111904Y-87782438D01*
X112111904Y-87782438D02*
X112064285Y-87830057D01*
X112064285Y-87830057D02*
X112016666Y-87925295D01*
X112016666Y-87925295D02*
X112016666Y-88068152D01*
X112016666Y-88068152D02*
X112064285Y-88163390D01*
X112064285Y-88163390D02*
X112111904Y-88211009D01*
X112111904Y-88211009D02*
X112207142Y-88258628D01*
X112207142Y-88258628D02*
X112588094Y-88258628D01*
X111635713Y-87830057D02*
X111588094Y-87782438D01*
X111588094Y-87782438D02*
X111492856Y-87734819D01*
X111492856Y-87734819D02*
X111254761Y-87734819D01*
X111254761Y-87734819D02*
X111159523Y-87782438D01*
X111159523Y-87782438D02*
X111111904Y-87830057D01*
X111111904Y-87830057D02*
X111064285Y-87925295D01*
X111064285Y-87925295D02*
X111064285Y-88020533D01*
X111064285Y-88020533D02*
X111111904Y-88163390D01*
X111111904Y-88163390D02*
X111683332Y-88734819D01*
X111683332Y-88734819D02*
X111064285Y-88734819D01*
X136651904Y-98124819D02*
X136651904Y-98934342D01*
X136651904Y-98934342D02*
X136604285Y-99029580D01*
X136604285Y-99029580D02*
X136556666Y-99077200D01*
X136556666Y-99077200D02*
X136461428Y-99124819D01*
X136461428Y-99124819D02*
X136270952Y-99124819D01*
X136270952Y-99124819D02*
X136175714Y-99077200D01*
X136175714Y-99077200D02*
X136128095Y-99029580D01*
X136128095Y-99029580D02*
X136080476Y-98934342D01*
X136080476Y-98934342D02*
X136080476Y-98124819D01*
X135175714Y-98458152D02*
X135175714Y-99124819D01*
X135413809Y-98077200D02*
X135651904Y-98791485D01*
X135651904Y-98791485D02*
X135032857Y-98791485D01*
X99601666Y-60409819D02*
X99934999Y-59933628D01*
X100173094Y-60409819D02*
X100173094Y-59409819D01*
X100173094Y-59409819D02*
X99792142Y-59409819D01*
X99792142Y-59409819D02*
X99696904Y-59457438D01*
X99696904Y-59457438D02*
X99649285Y-59505057D01*
X99649285Y-59505057D02*
X99601666Y-59600295D01*
X99601666Y-59600295D02*
X99601666Y-59743152D01*
X99601666Y-59743152D02*
X99649285Y-59838390D01*
X99649285Y-59838390D02*
X99696904Y-59886009D01*
X99696904Y-59886009D02*
X99792142Y-59933628D01*
X99792142Y-59933628D02*
X100173094Y-59933628D01*
X99030237Y-59838390D02*
X99125475Y-59790771D01*
X99125475Y-59790771D02*
X99173094Y-59743152D01*
X99173094Y-59743152D02*
X99220713Y-59647914D01*
X99220713Y-59647914D02*
X99220713Y-59600295D01*
X99220713Y-59600295D02*
X99173094Y-59505057D01*
X99173094Y-59505057D02*
X99125475Y-59457438D01*
X99125475Y-59457438D02*
X99030237Y-59409819D01*
X99030237Y-59409819D02*
X98839761Y-59409819D01*
X98839761Y-59409819D02*
X98744523Y-59457438D01*
X98744523Y-59457438D02*
X98696904Y-59505057D01*
X98696904Y-59505057D02*
X98649285Y-59600295D01*
X98649285Y-59600295D02*
X98649285Y-59647914D01*
X98649285Y-59647914D02*
X98696904Y-59743152D01*
X98696904Y-59743152D02*
X98744523Y-59790771D01*
X98744523Y-59790771D02*
X98839761Y-59838390D01*
X98839761Y-59838390D02*
X99030237Y-59838390D01*
X99030237Y-59838390D02*
X99125475Y-59886009D01*
X99125475Y-59886009D02*
X99173094Y-59933628D01*
X99173094Y-59933628D02*
X99220713Y-60028866D01*
X99220713Y-60028866D02*
X99220713Y-60219342D01*
X99220713Y-60219342D02*
X99173094Y-60314580D01*
X99173094Y-60314580D02*
X99125475Y-60362200D01*
X99125475Y-60362200D02*
X99030237Y-60409819D01*
X99030237Y-60409819D02*
X98839761Y-60409819D01*
X98839761Y-60409819D02*
X98744523Y-60362200D01*
X98744523Y-60362200D02*
X98696904Y-60314580D01*
X98696904Y-60314580D02*
X98649285Y-60219342D01*
X98649285Y-60219342D02*
X98649285Y-60028866D01*
X98649285Y-60028866D02*
X98696904Y-59933628D01*
X98696904Y-59933628D02*
X98744523Y-59886009D01*
X98744523Y-59886009D02*
X98839761Y-59838390D01*
X145826666Y-108709819D02*
X146159999Y-108233628D01*
X146398094Y-108709819D02*
X146398094Y-107709819D01*
X146398094Y-107709819D02*
X146017142Y-107709819D01*
X146017142Y-107709819D02*
X145921904Y-107757438D01*
X145921904Y-107757438D02*
X145874285Y-107805057D01*
X145874285Y-107805057D02*
X145826666Y-107900295D01*
X145826666Y-107900295D02*
X145826666Y-108043152D01*
X145826666Y-108043152D02*
X145874285Y-108138390D01*
X145874285Y-108138390D02*
X145921904Y-108186009D01*
X145921904Y-108186009D02*
X146017142Y-108233628D01*
X146017142Y-108233628D02*
X146398094Y-108233628D01*
X144921904Y-107709819D02*
X145398094Y-107709819D01*
X145398094Y-107709819D02*
X145445713Y-108186009D01*
X145445713Y-108186009D02*
X145398094Y-108138390D01*
X145398094Y-108138390D02*
X145302856Y-108090771D01*
X145302856Y-108090771D02*
X145064761Y-108090771D01*
X145064761Y-108090771D02*
X144969523Y-108138390D01*
X144969523Y-108138390D02*
X144921904Y-108186009D01*
X144921904Y-108186009D02*
X144874285Y-108281247D01*
X144874285Y-108281247D02*
X144874285Y-108519342D01*
X144874285Y-108519342D02*
X144921904Y-108614580D01*
X144921904Y-108614580D02*
X144969523Y-108662200D01*
X144969523Y-108662200D02*
X145064761Y-108709819D01*
X145064761Y-108709819D02*
X145302856Y-108709819D01*
X145302856Y-108709819D02*
X145398094Y-108662200D01*
X145398094Y-108662200D02*
X145445713Y-108614580D01*
X105759580Y-71933333D02*
X105807200Y-71885714D01*
X105807200Y-71885714D02*
X105854819Y-71742857D01*
X105854819Y-71742857D02*
X105854819Y-71647619D01*
X105854819Y-71647619D02*
X105807200Y-71504762D01*
X105807200Y-71504762D02*
X105711961Y-71409524D01*
X105711961Y-71409524D02*
X105616723Y-71361905D01*
X105616723Y-71361905D02*
X105426247Y-71314286D01*
X105426247Y-71314286D02*
X105283390Y-71314286D01*
X105283390Y-71314286D02*
X105092914Y-71361905D01*
X105092914Y-71361905D02*
X104997676Y-71409524D01*
X104997676Y-71409524D02*
X104902438Y-71504762D01*
X104902438Y-71504762D02*
X104854819Y-71647619D01*
X104854819Y-71647619D02*
X104854819Y-71742857D01*
X104854819Y-71742857D02*
X104902438Y-71885714D01*
X104902438Y-71885714D02*
X104950057Y-71933333D01*
X104854819Y-72266667D02*
X104854819Y-72885714D01*
X104854819Y-72885714D02*
X105235771Y-72552381D01*
X105235771Y-72552381D02*
X105235771Y-72695238D01*
X105235771Y-72695238D02*
X105283390Y-72790476D01*
X105283390Y-72790476D02*
X105331009Y-72838095D01*
X105331009Y-72838095D02*
X105426247Y-72885714D01*
X105426247Y-72885714D02*
X105664342Y-72885714D01*
X105664342Y-72885714D02*
X105759580Y-72838095D01*
X105759580Y-72838095D02*
X105807200Y-72790476D01*
X105807200Y-72790476D02*
X105854819Y-72695238D01*
X105854819Y-72695238D02*
X105854819Y-72409524D01*
X105854819Y-72409524D02*
X105807200Y-72314286D01*
X105807200Y-72314286D02*
X105759580Y-72266667D01*
X77254819Y-65388095D02*
X78064342Y-65388095D01*
X78064342Y-65388095D02*
X78159580Y-65435714D01*
X78159580Y-65435714D02*
X78207200Y-65483333D01*
X78207200Y-65483333D02*
X78254819Y-65578571D01*
X78254819Y-65578571D02*
X78254819Y-65769047D01*
X78254819Y-65769047D02*
X78207200Y-65864285D01*
X78207200Y-65864285D02*
X78159580Y-65911904D01*
X78159580Y-65911904D02*
X78064342Y-65959523D01*
X78064342Y-65959523D02*
X77254819Y-65959523D01*
X77254819Y-66340476D02*
X77254819Y-66959523D01*
X77254819Y-66959523D02*
X77635771Y-66626190D01*
X77635771Y-66626190D02*
X77635771Y-66769047D01*
X77635771Y-66769047D02*
X77683390Y-66864285D01*
X77683390Y-66864285D02*
X77731009Y-66911904D01*
X77731009Y-66911904D02*
X77826247Y-66959523D01*
X77826247Y-66959523D02*
X78064342Y-66959523D01*
X78064342Y-66959523D02*
X78159580Y-66911904D01*
X78159580Y-66911904D02*
X78207200Y-66864285D01*
X78207200Y-66864285D02*
X78254819Y-66769047D01*
X78254819Y-66769047D02*
X78254819Y-66483333D01*
X78254819Y-66483333D02*
X78207200Y-66388095D01*
X78207200Y-66388095D02*
X78159580Y-66340476D01*
X99816666Y-60259580D02*
X99864285Y-60307200D01*
X99864285Y-60307200D02*
X100007142Y-60354819D01*
X100007142Y-60354819D02*
X100102380Y-60354819D01*
X100102380Y-60354819D02*
X100245237Y-60307200D01*
X100245237Y-60307200D02*
X100340475Y-60211961D01*
X100340475Y-60211961D02*
X100388094Y-60116723D01*
X100388094Y-60116723D02*
X100435713Y-59926247D01*
X100435713Y-59926247D02*
X100435713Y-59783390D01*
X100435713Y-59783390D02*
X100388094Y-59592914D01*
X100388094Y-59592914D02*
X100340475Y-59497676D01*
X100340475Y-59497676D02*
X100245237Y-59402438D01*
X100245237Y-59402438D02*
X100102380Y-59354819D01*
X100102380Y-59354819D02*
X100007142Y-59354819D01*
X100007142Y-59354819D02*
X99864285Y-59402438D01*
X99864285Y-59402438D02*
X99816666Y-59450057D01*
X98959523Y-59688152D02*
X98959523Y-60354819D01*
X99197618Y-59307200D02*
X99435713Y-60021485D01*
X99435713Y-60021485D02*
X98816666Y-60021485D01*
X113858094Y-102064819D02*
X113858094Y-101064819D01*
X113858094Y-101064819D02*
X113619999Y-101064819D01*
X113619999Y-101064819D02*
X113477142Y-101112438D01*
X113477142Y-101112438D02*
X113381904Y-101207676D01*
X113381904Y-101207676D02*
X113334285Y-101302914D01*
X113334285Y-101302914D02*
X113286666Y-101493390D01*
X113286666Y-101493390D02*
X113286666Y-101636247D01*
X113286666Y-101636247D02*
X113334285Y-101826723D01*
X113334285Y-101826723D02*
X113381904Y-101921961D01*
X113381904Y-101921961D02*
X113477142Y-102017200D01*
X113477142Y-102017200D02*
X113619999Y-102064819D01*
X113619999Y-102064819D02*
X113858094Y-102064819D01*
X112905713Y-101160057D02*
X112858094Y-101112438D01*
X112858094Y-101112438D02*
X112762856Y-101064819D01*
X112762856Y-101064819D02*
X112524761Y-101064819D01*
X112524761Y-101064819D02*
X112429523Y-101112438D01*
X112429523Y-101112438D02*
X112381904Y-101160057D01*
X112381904Y-101160057D02*
X112334285Y-101255295D01*
X112334285Y-101255295D02*
X112334285Y-101350533D01*
X112334285Y-101350533D02*
X112381904Y-101493390D01*
X112381904Y-101493390D02*
X112953332Y-102064819D01*
X112953332Y-102064819D02*
X112334285Y-102064819D01*
X85413094Y-62779819D02*
X85413094Y-61779819D01*
X85413094Y-61779819D02*
X85174999Y-61779819D01*
X85174999Y-61779819D02*
X85032142Y-61827438D01*
X85032142Y-61827438D02*
X84936904Y-61922676D01*
X84936904Y-61922676D02*
X84889285Y-62017914D01*
X84889285Y-62017914D02*
X84841666Y-62208390D01*
X84841666Y-62208390D02*
X84841666Y-62351247D01*
X84841666Y-62351247D02*
X84889285Y-62541723D01*
X84889285Y-62541723D02*
X84936904Y-62636961D01*
X84936904Y-62636961D02*
X85032142Y-62732200D01*
X85032142Y-62732200D02*
X85174999Y-62779819D01*
X85174999Y-62779819D02*
X85413094Y-62779819D01*
X83936904Y-61779819D02*
X84413094Y-61779819D01*
X84413094Y-61779819D02*
X84460713Y-62256009D01*
X84460713Y-62256009D02*
X84413094Y-62208390D01*
X84413094Y-62208390D02*
X84317856Y-62160771D01*
X84317856Y-62160771D02*
X84079761Y-62160771D01*
X84079761Y-62160771D02*
X83984523Y-62208390D01*
X83984523Y-62208390D02*
X83936904Y-62256009D01*
X83936904Y-62256009D02*
X83889285Y-62351247D01*
X83889285Y-62351247D02*
X83889285Y-62589342D01*
X83889285Y-62589342D02*
X83936904Y-62684580D01*
X83936904Y-62684580D02*
X83984523Y-62732200D01*
X83984523Y-62732200D02*
X84079761Y-62779819D01*
X84079761Y-62779819D02*
X84317856Y-62779819D01*
X84317856Y-62779819D02*
X84413094Y-62732200D01*
X84413094Y-62732200D02*
X84460713Y-62684580D01*
D11*
X87796027Y-65864247D02*
X88034122Y-65864247D01*
X87748408Y-65721390D02*
X87915074Y-66221390D01*
X87915074Y-66221390D02*
X88081741Y-65721390D01*
X81369836Y-65791390D02*
X81369836Y-66291390D01*
X81655550Y-65791390D02*
X81441265Y-66077104D01*
X81655550Y-66291390D02*
X81369836Y-66005676D01*
D10*
X86191666Y-53779819D02*
X86667856Y-53779819D01*
X86667856Y-53779819D02*
X86667856Y-52779819D01*
X85334523Y-53779819D02*
X85905951Y-53779819D01*
X85620237Y-53779819D02*
X85620237Y-52779819D01*
X85620237Y-52779819D02*
X85715475Y-52922676D01*
X85715475Y-52922676D02*
X85810713Y-53017914D01*
X85810713Y-53017914D02*
X85905951Y-53065533D01*
X84761904Y-85024819D02*
X84761904Y-85834342D01*
X84761904Y-85834342D02*
X84714285Y-85929580D01*
X84714285Y-85929580D02*
X84666666Y-85977200D01*
X84666666Y-85977200D02*
X84571428Y-86024819D01*
X84571428Y-86024819D02*
X84380952Y-86024819D01*
X84380952Y-86024819D02*
X84285714Y-85977200D01*
X84285714Y-85977200D02*
X84238095Y-85929580D01*
X84238095Y-85929580D02*
X84190476Y-85834342D01*
X84190476Y-85834342D02*
X84190476Y-85024819D01*
X83285714Y-85024819D02*
X83476190Y-85024819D01*
X83476190Y-85024819D02*
X83571428Y-85072438D01*
X83571428Y-85072438D02*
X83619047Y-85120057D01*
X83619047Y-85120057D02*
X83714285Y-85262914D01*
X83714285Y-85262914D02*
X83761904Y-85453390D01*
X83761904Y-85453390D02*
X83761904Y-85834342D01*
X83761904Y-85834342D02*
X83714285Y-85929580D01*
X83714285Y-85929580D02*
X83666666Y-85977200D01*
X83666666Y-85977200D02*
X83571428Y-86024819D01*
X83571428Y-86024819D02*
X83380952Y-86024819D01*
X83380952Y-86024819D02*
X83285714Y-85977200D01*
X83285714Y-85977200D02*
X83238095Y-85929580D01*
X83238095Y-85929580D02*
X83190476Y-85834342D01*
X83190476Y-85834342D02*
X83190476Y-85596247D01*
X83190476Y-85596247D02*
X83238095Y-85501009D01*
X83238095Y-85501009D02*
X83285714Y-85453390D01*
X83285714Y-85453390D02*
X83380952Y-85405771D01*
X83380952Y-85405771D02*
X83571428Y-85405771D01*
X83571428Y-85405771D02*
X83666666Y-85453390D01*
X83666666Y-85453390D02*
X83714285Y-85501009D01*
X83714285Y-85501009D02*
X83761904Y-85596247D01*
X140966666Y-97854819D02*
X141299999Y-97378628D01*
X141538094Y-97854819D02*
X141538094Y-96854819D01*
X141538094Y-96854819D02*
X141157142Y-96854819D01*
X141157142Y-96854819D02*
X141061904Y-96902438D01*
X141061904Y-96902438D02*
X141014285Y-96950057D01*
X141014285Y-96950057D02*
X140966666Y-97045295D01*
X140966666Y-97045295D02*
X140966666Y-97188152D01*
X140966666Y-97188152D02*
X141014285Y-97283390D01*
X141014285Y-97283390D02*
X141061904Y-97331009D01*
X141061904Y-97331009D02*
X141157142Y-97378628D01*
X141157142Y-97378628D02*
X141538094Y-97378628D01*
X140633332Y-96854819D02*
X140014285Y-96854819D01*
X140014285Y-96854819D02*
X140347618Y-97235771D01*
X140347618Y-97235771D02*
X140204761Y-97235771D01*
X140204761Y-97235771D02*
X140109523Y-97283390D01*
X140109523Y-97283390D02*
X140061904Y-97331009D01*
X140061904Y-97331009D02*
X140014285Y-97426247D01*
X140014285Y-97426247D02*
X140014285Y-97664342D01*
X140014285Y-97664342D02*
X140061904Y-97759580D01*
X140061904Y-97759580D02*
X140109523Y-97807200D01*
X140109523Y-97807200D02*
X140204761Y-97854819D01*
X140204761Y-97854819D02*
X140490475Y-97854819D01*
X140490475Y-97854819D02*
X140585713Y-97807200D01*
X140585713Y-97807200D02*
X140633332Y-97759580D01*
X141241666Y-110629819D02*
X141574999Y-110153628D01*
X141813094Y-110629819D02*
X141813094Y-109629819D01*
X141813094Y-109629819D02*
X141432142Y-109629819D01*
X141432142Y-109629819D02*
X141336904Y-109677438D01*
X141336904Y-109677438D02*
X141289285Y-109725057D01*
X141289285Y-109725057D02*
X141241666Y-109820295D01*
X141241666Y-109820295D02*
X141241666Y-109963152D01*
X141241666Y-109963152D02*
X141289285Y-110058390D01*
X141289285Y-110058390D02*
X141336904Y-110106009D01*
X141336904Y-110106009D02*
X141432142Y-110153628D01*
X141432142Y-110153628D02*
X141813094Y-110153628D01*
X140384523Y-109963152D02*
X140384523Y-110629819D01*
X140622618Y-109582200D02*
X140860713Y-110296485D01*
X140860713Y-110296485D02*
X140241666Y-110296485D01*
X99801666Y-63829819D02*
X100134999Y-63353628D01*
X100373094Y-63829819D02*
X100373094Y-62829819D01*
X100373094Y-62829819D02*
X99992142Y-62829819D01*
X99992142Y-62829819D02*
X99896904Y-62877438D01*
X99896904Y-62877438D02*
X99849285Y-62925057D01*
X99849285Y-62925057D02*
X99801666Y-63020295D01*
X99801666Y-63020295D02*
X99801666Y-63163152D01*
X99801666Y-63163152D02*
X99849285Y-63258390D01*
X99849285Y-63258390D02*
X99896904Y-63306009D01*
X99896904Y-63306009D02*
X99992142Y-63353628D01*
X99992142Y-63353628D02*
X100373094Y-63353628D01*
X99468332Y-62829819D02*
X98801666Y-62829819D01*
X98801666Y-62829819D02*
X99230237Y-63829819D01*
D12*
%TO.C,U7*%
X77115000Y-104630000D02*
X77115000Y-103110000D01*
X77115000Y-106670000D02*
X77115000Y-108190000D01*
X97435000Y-103110000D02*
X77115000Y-103110000D01*
X97435000Y-103110000D02*
X97435000Y-108190000D01*
X97435000Y-108190000D02*
X77115000Y-108190000D01*
X77115000Y-104630000D02*
G75*
G02*
X77115000Y-106670000I0J-1020000D01*
G01*
X76655000Y-101600000D02*
G75*
G02*
X76435000Y-101600000I-110000J0D01*
G01*
X76435000Y-101600000D02*
G75*
G02*
X76655000Y-101600000I110000J0D01*
G01*
D13*
%TO.C,U5*%
X102635000Y-93090000D02*
X102635000Y-100830000D01*
X102635000Y-100830000D02*
X107935000Y-100830000D01*
X104285000Y-93090000D02*
X102635000Y-93090000D01*
X107935000Y-93090000D02*
X106285000Y-93090000D01*
X107935000Y-100830000D02*
X107935000Y-93090000D01*
X106285000Y-93090000D02*
G75*
G02*
X104285000Y-93090000I-1000000J0D01*
G01*
%TO.C,C2*%
X119050000Y-108865677D02*
X119050000Y-107865677D01*
X119550000Y-108365677D02*
X118550000Y-108365677D01*
X120684000Y-114025323D02*
X116890000Y-114025323D01*
X120684000Y-114066323D02*
X116895000Y-114066323D01*
X120684000Y-114106323D02*
X116901000Y-114106323D01*
X120684000Y-114146323D02*
X116907000Y-114146323D01*
X120684000Y-114186323D02*
X116914000Y-114186323D01*
X120684000Y-114226323D02*
X116921000Y-114226323D01*
X120684000Y-114266323D02*
X116928000Y-114266323D01*
X120684000Y-114306323D02*
X116935000Y-114306323D01*
X120684000Y-114346323D02*
X116943000Y-114346323D01*
X120684000Y-114386323D02*
X116951000Y-114386323D01*
X120684000Y-114426323D02*
X116960000Y-114426323D01*
X120684000Y-114466323D02*
X116969000Y-114466323D01*
X120684000Y-114506323D02*
X116978000Y-114506323D01*
X120684000Y-114546323D02*
X116987000Y-114546323D01*
X120684000Y-114586323D02*
X116997000Y-114586323D01*
X120684000Y-114626323D02*
X117007000Y-114626323D01*
X120684000Y-114666323D02*
X117018000Y-114666323D01*
X120684000Y-114706323D02*
X117028000Y-114706323D01*
X120684000Y-114746323D02*
X117040000Y-114746323D01*
X120684000Y-114786323D02*
X117051000Y-114786323D01*
X120684000Y-114826323D02*
X117063000Y-114826323D01*
X120684000Y-114866323D02*
X117075000Y-114866323D01*
X120684000Y-114906323D02*
X117088000Y-114906323D01*
X120684000Y-114946323D02*
X117101000Y-114946323D01*
X120684000Y-114986323D02*
X117114000Y-114986323D01*
X120684000Y-115026323D02*
X117128000Y-115026323D01*
X120684000Y-115066323D02*
X117142000Y-115066323D01*
X120684000Y-115106323D02*
X117157000Y-115106323D01*
X120684000Y-115146323D02*
X117171000Y-115146323D01*
X120684000Y-115186323D02*
X117187000Y-115186323D01*
X120684000Y-115226323D02*
X117202000Y-115226323D01*
X120684000Y-115266323D02*
X117218000Y-115266323D01*
X120684000Y-115306323D02*
X117235000Y-115306323D01*
X120684000Y-115346323D02*
X117251000Y-115346323D01*
X120684000Y-115386323D02*
X117268000Y-115386323D01*
X120684000Y-115426323D02*
X117286000Y-115426323D01*
X120684000Y-115466323D02*
X117304000Y-115466323D01*
X120684000Y-115506323D02*
X117322000Y-115506323D01*
X120684000Y-115546323D02*
X117341000Y-115546323D01*
X120684000Y-115586323D02*
X117361000Y-115586323D01*
X120684000Y-115626323D02*
X117380000Y-115626323D01*
X120684000Y-115666323D02*
X117400000Y-115666323D01*
X120684000Y-115706323D02*
X117421000Y-115706323D01*
X120684000Y-115746323D02*
X117442000Y-115746323D01*
X120684000Y-115786323D02*
X117463000Y-115786323D01*
X120684000Y-115826323D02*
X117485000Y-115826323D01*
X120684000Y-115866323D02*
X117508000Y-115866323D01*
X120684000Y-115906323D02*
X117530000Y-115906323D01*
X120684000Y-115946323D02*
X117554000Y-115946323D01*
X120684000Y-115986323D02*
X117578000Y-115986323D01*
X120684000Y-116026323D02*
X117602000Y-116026323D01*
X120684000Y-116066323D02*
X117627000Y-116066323D01*
X120684000Y-116106323D02*
X117652000Y-116106323D01*
X120684000Y-116146323D02*
X117678000Y-116146323D01*
X120684000Y-116186323D02*
X117704000Y-116186323D01*
X120684000Y-116226323D02*
X117731000Y-116226323D01*
X120684000Y-116266323D02*
X117759000Y-116266323D01*
X120684000Y-116306323D02*
X117787000Y-116306323D01*
X120684000Y-116346323D02*
X117815000Y-116346323D01*
X120684000Y-116386323D02*
X117845000Y-116386323D01*
X120684000Y-116426323D02*
X117875000Y-116426323D01*
X120684000Y-116466323D02*
X117905000Y-116466323D01*
X122524000Y-118426323D02*
X121326000Y-118426323D01*
X122787000Y-118386323D02*
X121063000Y-118386323D01*
X122987000Y-118346323D02*
X120863000Y-118346323D01*
X123155000Y-118306323D02*
X120695000Y-118306323D01*
X123303000Y-118266323D02*
X120547000Y-118266323D01*
X123435000Y-118226323D02*
X120415000Y-118226323D01*
X123555000Y-118186323D02*
X120295000Y-118186323D01*
X123667000Y-118146323D02*
X120183000Y-118146323D01*
X123771000Y-118106323D02*
X120079000Y-118106323D01*
X123869000Y-118066323D02*
X119981000Y-118066323D01*
X123962000Y-118026323D02*
X119888000Y-118026323D01*
X124050000Y-117986323D02*
X119800000Y-117986323D01*
X124134000Y-117946323D02*
X119716000Y-117946323D01*
X124214000Y-117906323D02*
X119636000Y-117906323D01*
X124290000Y-117866323D02*
X119560000Y-117866323D01*
X124364000Y-117826323D02*
X119486000Y-117826323D01*
X124435000Y-117786323D02*
X119415000Y-117786323D01*
X124504000Y-117746323D02*
X119346000Y-117746323D01*
X124570000Y-117706323D02*
X119280000Y-117706323D01*
X124634000Y-117666323D02*
X119216000Y-117666323D01*
X124695000Y-117626323D02*
X119155000Y-117626323D01*
X124755000Y-117586323D02*
X119095000Y-117586323D01*
X124814000Y-117546323D02*
X119036000Y-117546323D01*
X124870000Y-117506323D02*
X118980000Y-117506323D01*
X124925000Y-117466323D02*
X118925000Y-117466323D01*
X124979000Y-117426323D02*
X118871000Y-117426323D01*
X125031000Y-117386323D02*
X118819000Y-117386323D01*
X125081000Y-117346323D02*
X118769000Y-117346323D01*
X125131000Y-117306323D02*
X118719000Y-117306323D01*
X125179000Y-117266323D02*
X118671000Y-117266323D01*
X125226000Y-117226323D02*
X118624000Y-117226323D01*
X125272000Y-117186323D02*
X118578000Y-117186323D01*
X125317000Y-117146323D02*
X118533000Y-117146323D01*
X125361000Y-117106323D02*
X118489000Y-117106323D01*
X125403000Y-117066323D02*
X118447000Y-117066323D01*
X125445000Y-117026323D02*
X118405000Y-117026323D01*
X125486000Y-116986323D02*
X118364000Y-116986323D01*
X125526000Y-116946323D02*
X118324000Y-116946323D01*
X125565000Y-116906323D02*
X118285000Y-116906323D01*
X125604000Y-116866323D02*
X118246000Y-116866323D01*
X125641000Y-116826323D02*
X118209000Y-116826323D01*
X125678000Y-116786323D02*
X118172000Y-116786323D01*
X125714000Y-116746323D02*
X118136000Y-116746323D01*
X125749000Y-116706323D02*
X118101000Y-116706323D01*
X125783000Y-116666323D02*
X118067000Y-116666323D01*
X125817000Y-116626323D02*
X118033000Y-116626323D01*
X125850000Y-116586323D02*
X118000000Y-116586323D01*
X125882000Y-116546323D02*
X117968000Y-116546323D01*
X125914000Y-116506323D02*
X117936000Y-116506323D01*
X125945000Y-116466323D02*
X123166000Y-116466323D01*
X125975000Y-116426323D02*
X123166000Y-116426323D01*
X126005000Y-116386323D02*
X123166000Y-116386323D01*
X126035000Y-116346323D02*
X123166000Y-116346323D01*
X126063000Y-116306323D02*
X123166000Y-116306323D01*
X126091000Y-116266323D02*
X123166000Y-116266323D01*
X126119000Y-116226323D02*
X123166000Y-116226323D01*
X126146000Y-116186323D02*
X123166000Y-116186323D01*
X126172000Y-116146323D02*
X123166000Y-116146323D01*
X126198000Y-116106323D02*
X123166000Y-116106323D01*
X126223000Y-116066323D02*
X123166000Y-116066323D01*
X126248000Y-116026323D02*
X123166000Y-116026323D01*
X126272000Y-115986323D02*
X123166000Y-115986323D01*
X126296000Y-115946323D02*
X123166000Y-115946323D01*
X126320000Y-115906323D02*
X123166000Y-115906323D01*
X126342000Y-115866323D02*
X123166000Y-115866323D01*
X126365000Y-115826323D02*
X123166000Y-115826323D01*
X126387000Y-115786323D02*
X123166000Y-115786323D01*
X126408000Y-115746323D02*
X123166000Y-115746323D01*
X126429000Y-115706323D02*
X123166000Y-115706323D01*
X126450000Y-115666323D02*
X123166000Y-115666323D01*
X126470000Y-115626323D02*
X123166000Y-115626323D01*
X126489000Y-115586323D02*
X123166000Y-115586323D01*
X126509000Y-115546323D02*
X123166000Y-115546323D01*
X126528000Y-115506323D02*
X123166000Y-115506323D01*
X126546000Y-115466323D02*
X123166000Y-115466323D01*
X126564000Y-115426323D02*
X123166000Y-115426323D01*
X126582000Y-115386323D02*
X123166000Y-115386323D01*
X126599000Y-115346323D02*
X123166000Y-115346323D01*
X126615000Y-115306323D02*
X123166000Y-115306323D01*
X126632000Y-115266323D02*
X123166000Y-115266323D01*
X126648000Y-115226323D02*
X123166000Y-115226323D01*
X126663000Y-115186323D02*
X123166000Y-115186323D01*
X126679000Y-115146323D02*
X123166000Y-115146323D01*
X126693000Y-115106323D02*
X123166000Y-115106323D01*
X126708000Y-115066323D02*
X123166000Y-115066323D01*
X126722000Y-115026323D02*
X123166000Y-115026323D01*
X126736000Y-114986323D02*
X123166000Y-114986323D01*
X126749000Y-114946323D02*
X123166000Y-114946323D01*
X126762000Y-114906323D02*
X123166000Y-114906323D01*
X126775000Y-114866323D02*
X123166000Y-114866323D01*
X126787000Y-114826323D02*
X123166000Y-114826323D01*
X126799000Y-114786323D02*
X123166000Y-114786323D01*
X126810000Y-114746323D02*
X123166000Y-114746323D01*
X126822000Y-114706323D02*
X123166000Y-114706323D01*
X126832000Y-114666323D02*
X123166000Y-114666323D01*
X126843000Y-114626323D02*
X123166000Y-114626323D01*
X126853000Y-114586323D02*
X123166000Y-114586323D01*
X126863000Y-114546323D02*
X123166000Y-114546323D01*
X126872000Y-114506323D02*
X123166000Y-114506323D01*
X126881000Y-114466323D02*
X123166000Y-114466323D01*
X126890000Y-114426323D02*
X123166000Y-114426323D01*
X126899000Y-114386323D02*
X123166000Y-114386323D01*
X126907000Y-114346323D02*
X123166000Y-114346323D01*
X126915000Y-114306323D02*
X123166000Y-114306323D01*
X126922000Y-114266323D02*
X123166000Y-114266323D01*
X126929000Y-114226323D02*
X123166000Y-114226323D01*
X126936000Y-114186323D02*
X123166000Y-114186323D01*
X126943000Y-114146323D02*
X123166000Y-114146323D01*
X126949000Y-114106323D02*
X123166000Y-114106323D01*
X126955000Y-114066323D02*
X123166000Y-114066323D01*
X126960000Y-114025323D02*
X123166000Y-114025323D01*
X126965000Y-113985323D02*
X116885000Y-113985323D01*
X126970000Y-113945323D02*
X116880000Y-113945323D01*
X126975000Y-113905323D02*
X116875000Y-113905323D01*
X126979000Y-113865323D02*
X116871000Y-113865323D01*
X126983000Y-113825323D02*
X116867000Y-113825323D01*
X126987000Y-113785323D02*
X116863000Y-113785323D01*
X126990000Y-113745323D02*
X116860000Y-113745323D01*
X126993000Y-113705323D02*
X116857000Y-113705323D01*
X126995000Y-113665323D02*
X116855000Y-113665323D01*
X126998000Y-113625323D02*
X116852000Y-113625323D01*
X127000000Y-113585323D02*
X116850000Y-113585323D01*
X127002000Y-113545323D02*
X116848000Y-113545323D01*
X127003000Y-113505323D02*
X116847000Y-113505323D01*
X127004000Y-113465323D02*
X116846000Y-113465323D01*
X127005000Y-113345323D02*
X116845000Y-113345323D01*
X127005000Y-113385323D02*
X116845000Y-113385323D01*
X127005000Y-113425323D02*
X116845000Y-113425323D01*
X127045000Y-113345323D02*
G75*
G02*
X116805000Y-113345323I-5120000J0D01*
G01*
X116805000Y-113345323D02*
G75*
G02*
X127045000Y-113345323I5120000J0D01*
G01*
%TO.C,R11*%
X102255000Y-89230000D02*
X106095000Y-89230000D01*
X102255000Y-91070000D02*
X106095000Y-91070000D01*
D11*
%TO.C,T2*%
X121261000Y-88433000D02*
X122277000Y-88433000D01*
X121261000Y-89393000D02*
X121261000Y-88433000D01*
X121769000Y-75733000D02*
X121769000Y-73701000D01*
X121769000Y-75733000D02*
X127357000Y-75733000D01*
X127357000Y-88433000D02*
X126341000Y-88433000D01*
X127357000Y-89393000D02*
X127357000Y-88433000D01*
X136578000Y-88382000D02*
X137594000Y-88382000D01*
X136578000Y-89393000D02*
X136578000Y-88382000D01*
X139549000Y-80813000D02*
X123801000Y-80813000D01*
X139549000Y-83353000D02*
X123801000Y-83353000D01*
X142089000Y-75733000D02*
X135485000Y-75733000D01*
X142089000Y-75733000D02*
X142089000Y-73137000D01*
X142674000Y-88382000D02*
X141658000Y-88382000D01*
X142674000Y-89393000D02*
X142674000Y-88382000D01*
X147169000Y-66589000D02*
X116181000Y-66589000D01*
X116181000Y-95037000D01*
X147169000Y-95037000D01*
X147169000Y-66589000D01*
X122277000Y-88433000D02*
G75*
G02*
X124309000Y-88433000I1016000J0D01*
G01*
X124309000Y-88433000D02*
G75*
G02*
X126341000Y-88433000I1016000J0D01*
G01*
X129389000Y-75733000D02*
G75*
G02*
X127357000Y-75733000I-1016000J0D01*
G01*
X131421000Y-75733000D02*
G75*
G02*
X129389000Y-75733000I-1016000J0D01*
G01*
X133453000Y-75733000D02*
G75*
G02*
X131421000Y-75733000I-1016000J0D01*
G01*
X135485000Y-75733000D02*
G75*
G02*
X133453000Y-75733000I-1016000J0D01*
G01*
X137594000Y-88382000D02*
G75*
G02*
X139626000Y-88382000I1016000J0D01*
G01*
X139626000Y-88382000D02*
G75*
G02*
X141658000Y-88382000I1016000J0D01*
G01*
X126841754Y-89307000D02*
G75*
G02*
X126310246Y-89307000I-265754J0D01*
G01*
X126310246Y-89307000D02*
G75*
G02*
X126841754Y-89307000I265754J0D01*
G01*
X141581000Y-74717000D02*
G75*
G02*
X140565000Y-74717000I-508000J0D01*
G01*
X140565000Y-74717000D02*
G75*
G02*
X141581000Y-74717000I508000J0D01*
G01*
X142373416Y-89214000D02*
G75*
G02*
X141832584Y-89214000I-270416J0D01*
G01*
X141832584Y-89214000D02*
G75*
G02*
X142373416Y-89214000I270416J0D01*
G01*
D13*
%TO.C,C7*%
X73188748Y-55315000D02*
X73711252Y-55315000D01*
X73188748Y-56785000D02*
X73711252Y-56785000D01*
%TO.C,R2*%
X109930000Y-89280000D02*
X113770000Y-89280000D01*
X109930000Y-91120000D02*
X113770000Y-91120000D01*
%TO.C,U4*%
X133240000Y-99670000D02*
X133240000Y-107410000D01*
X133240000Y-107410000D02*
X138540000Y-107410000D01*
X134890000Y-99670000D02*
X133240000Y-99670000D01*
X138540000Y-99670000D02*
X136890000Y-99670000D01*
X138540000Y-107410000D02*
X138540000Y-99670000D01*
X136890000Y-99670000D02*
G75*
G02*
X134890000Y-99670000I-1000000J0D01*
G01*
%TO.C,R8*%
X97515000Y-60955000D02*
X101355000Y-60955000D01*
X97515000Y-62795000D02*
X101355000Y-62795000D01*
%TO.C,R5*%
X143740000Y-109255000D02*
X147580000Y-109255000D01*
X143740000Y-111095000D02*
X147580000Y-111095000D01*
%TO.C,C3*%
X95740000Y-68904437D02*
X96804437Y-67840000D01*
X95740000Y-76360000D02*
X95740000Y-68904437D01*
X98940000Y-67840000D02*
X96804437Y-67840000D01*
X98940000Y-76360000D02*
X95740000Y-76360000D01*
X101060000Y-67840000D02*
X103195563Y-67840000D01*
X101060000Y-76360000D02*
X104260000Y-76360000D01*
X104260000Y-68904437D02*
X103195563Y-67840000D01*
X104260000Y-76360000D02*
X104260000Y-68904437D01*
D10*
%TO.C,U3*%
X71270000Y-61780000D02*
X77930000Y-61780000D01*
X71270000Y-64720000D02*
X71270000Y-61780000D01*
X77930000Y-61780000D02*
X77930000Y-64720000D01*
X77930000Y-64720000D02*
X71270000Y-64720000D01*
D13*
%TO.C,C4*%
X95390000Y-53640000D02*
X95390000Y-51504437D01*
X95390000Y-55760000D02*
X95390000Y-57895563D01*
X96454437Y-50440000D02*
X95390000Y-51504437D01*
X96454437Y-58960000D02*
X95390000Y-57895563D01*
X103910000Y-50440000D02*
X96454437Y-50440000D01*
X103910000Y-53640000D02*
X103910000Y-50440000D01*
X103910000Y-55760000D02*
X103910000Y-58960000D01*
X103910000Y-58960000D02*
X96454437Y-58960000D01*
%TO.C,D2*%
X111560000Y-97414000D02*
X111560000Y-97570000D01*
X111560000Y-99730000D02*
X111560000Y-99886000D01*
X111560000Y-97414484D02*
G75*
G02*
X114792335Y-97571392I1560000J-1235516D01*
G01*
X112079039Y-97570000D02*
G75*
G02*
X114161130Y-97570163I1040961J-1080000D01*
G01*
X114161130Y-99729837D02*
G75*
G02*
X112079039Y-99730000I-1041130J1079837D01*
G01*
X114792335Y-99728608D02*
G75*
G02*
X111560000Y-99885516I-1672335J1078608D01*
G01*
D10*
%TO.C,D5*%
X82025000Y-63885000D02*
X82025000Y-63365000D01*
X82025000Y-65585000D02*
X82025000Y-66085000D01*
X83405000Y-63365000D02*
X83405000Y-66085000D01*
X87325000Y-63365000D02*
X82025000Y-63365000D01*
X87325000Y-63755000D02*
X87325000Y-63365000D01*
X87325000Y-65695000D02*
X87325000Y-66085000D01*
X87325000Y-66085000D02*
X82025000Y-66085000D01*
D12*
%TO.C,L1*%
X80945000Y-52115000D02*
X91105000Y-52115000D01*
X80945000Y-54095000D02*
X80945000Y-52115000D01*
X80945000Y-62535000D02*
X80945000Y-60555000D01*
X91105000Y-52115000D02*
X91105000Y-54095000D01*
X91105000Y-60555000D02*
X91105000Y-62535000D01*
X91105000Y-62535000D02*
X80945000Y-62535000D01*
D10*
%TO.C,U6*%
X78840000Y-73070000D02*
X78840000Y-73540000D01*
X78840000Y-75230000D02*
X78840000Y-73420000D01*
X89160000Y-73070000D02*
X78840000Y-73070000D01*
X89160000Y-73070000D02*
X89160000Y-73540000D01*
X89160000Y-75230000D02*
X89160000Y-73440000D01*
D14*
X79630000Y-69510000D02*
G75*
G02*
X79230000Y-69510000I-200000J0D01*
G01*
X79230000Y-69510000D02*
G75*
G02*
X79630000Y-69510000I200000J0D01*
G01*
D13*
%TO.C,R3*%
X137860000Y-96380000D02*
X134020000Y-96380000D01*
X137860000Y-98220000D02*
X134020000Y-98220000D01*
%TO.C,R4*%
X134155000Y-109255000D02*
X137995000Y-109255000D01*
X134155000Y-111095000D02*
X137995000Y-111095000D01*
%TO.C,R7*%
X101455000Y-64455000D02*
X97615000Y-64455000D01*
X101455000Y-66295000D02*
X97615000Y-66295000D01*
%TD*%
M02*
