%TF.GenerationSoftware,KiCad,Pcbnew,8.0.3*%
%TF.CreationDate,2024-08-31T20:41:35-05:00*%
%TF.ProjectId,solder_oven_PCB,736f6c64-6572-45f6-9f76-656e5f504342,rev?*%
%TF.SameCoordinates,Original*%
%TF.FileFunction,Legend,Top*%
%TF.FilePolarity,Positive*%
%FSLAX46Y46*%
G04 Gerber Fmt 4.6, Leading zero omitted, Abs format (unit mm)*
G04 Created by KiCad (PCBNEW 8.0.3) date 2024-08-31 20:41:35*
%MOMM*%
%LPD*%
G01*
G04 APERTURE LIST*
%ADD10C,0.100000*%
%ADD11C,0.200000*%
%ADD12C,0.300000*%
%ADD13C,0.250000*%
%ADD14C,0.150000*%
%ADD15C,0.120000*%
G04 APERTURE END LIST*
D10*
X138684000Y-126537000D02*
X144423000Y-126602000D01*
X138684000Y-131662000D02*
X145434000Y-131662000D01*
X144423000Y-121462000D02*
X138684000Y-121412000D01*
X138684000Y-121412000D02*
X138684000Y-131662000D01*
D11*
X140740028Y-124887564D02*
X140740028Y-124030422D01*
X142240028Y-124458993D02*
X140740028Y-124458993D01*
X141948600Y-123601850D02*
X141948600Y-122687565D01*
D12*
X140640225Y-49650828D02*
X141497368Y-49650828D01*
X141068796Y-51150828D02*
X141068796Y-49650828D01*
X141854510Y-51150828D02*
X142640225Y-50150828D01*
X141854510Y-50150828D02*
X142640225Y-51150828D01*
X141761653Y-53650828D02*
X141261653Y-52936542D01*
X140904510Y-53650828D02*
X140904510Y-52150828D01*
X140904510Y-52150828D02*
X141475939Y-52150828D01*
X141475939Y-52150828D02*
X141618796Y-52222257D01*
X141618796Y-52222257D02*
X141690225Y-52293685D01*
X141690225Y-52293685D02*
X141761653Y-52436542D01*
X141761653Y-52436542D02*
X141761653Y-52650828D01*
X141761653Y-52650828D02*
X141690225Y-52793685D01*
X141690225Y-52793685D02*
X141618796Y-52865114D01*
X141618796Y-52865114D02*
X141475939Y-52936542D01*
X141475939Y-52936542D02*
X140904510Y-52936542D01*
X142261653Y-53650828D02*
X143047368Y-52650828D01*
X142261653Y-52650828D02*
X143047368Y-53650828D01*
X141415225Y-55122257D02*
X141272368Y-55050828D01*
X141272368Y-55050828D02*
X141058082Y-55050828D01*
X141058082Y-55050828D02*
X140843796Y-55122257D01*
X140843796Y-55122257D02*
X140700939Y-55265114D01*
X140700939Y-55265114D02*
X140629510Y-55407971D01*
X140629510Y-55407971D02*
X140558082Y-55693685D01*
X140558082Y-55693685D02*
X140558082Y-55907971D01*
X140558082Y-55907971D02*
X140629510Y-56193685D01*
X140629510Y-56193685D02*
X140700939Y-56336542D01*
X140700939Y-56336542D02*
X140843796Y-56479400D01*
X140843796Y-56479400D02*
X141058082Y-56550828D01*
X141058082Y-56550828D02*
X141200939Y-56550828D01*
X141200939Y-56550828D02*
X141415225Y-56479400D01*
X141415225Y-56479400D02*
X141486653Y-56407971D01*
X141486653Y-56407971D02*
X141486653Y-55907971D01*
X141486653Y-55907971D02*
X141200939Y-55907971D01*
X142129510Y-56550828D02*
X142129510Y-55050828D01*
X142129510Y-55050828D02*
X142986653Y-56550828D01*
X142986653Y-56550828D02*
X142986653Y-55050828D01*
X143700939Y-56550828D02*
X143700939Y-55050828D01*
X143700939Y-55050828D02*
X144058082Y-55050828D01*
X144058082Y-55050828D02*
X144272368Y-55122257D01*
X144272368Y-55122257D02*
X144415225Y-55265114D01*
X144415225Y-55265114D02*
X144486654Y-55407971D01*
X144486654Y-55407971D02*
X144558082Y-55693685D01*
X144558082Y-55693685D02*
X144558082Y-55907971D01*
X144558082Y-55907971D02*
X144486654Y-56193685D01*
X144486654Y-56193685D02*
X144415225Y-56336542D01*
X144415225Y-56336542D02*
X144272368Y-56479400D01*
X144272368Y-56479400D02*
X144058082Y-56550828D01*
X144058082Y-56550828D02*
X143700939Y-56550828D01*
D13*
X140737428Y-130104669D02*
X140737428Y-129247527D01*
X142237428Y-129676098D02*
X140737428Y-129676098D01*
X141946000Y-128818955D02*
X141946000Y-127904670D01*
X142403142Y-128361812D02*
X141488857Y-128361812D01*
D14*
X149938095Y-133729819D02*
X149938095Y-132729819D01*
X149938095Y-133206009D02*
X150509523Y-133206009D01*
X150509523Y-133729819D02*
X150509523Y-132729819D01*
X150890476Y-132729819D02*
X151509523Y-132729819D01*
X151509523Y-132729819D02*
X151176190Y-133110771D01*
X151176190Y-133110771D02*
X151319047Y-133110771D01*
X151319047Y-133110771D02*
X151414285Y-133158390D01*
X151414285Y-133158390D02*
X151461904Y-133206009D01*
X151461904Y-133206009D02*
X151509523Y-133301247D01*
X151509523Y-133301247D02*
X151509523Y-133539342D01*
X151509523Y-133539342D02*
X151461904Y-133634580D01*
X151461904Y-133634580D02*
X151414285Y-133682200D01*
X151414285Y-133682200D02*
X151319047Y-133729819D01*
X151319047Y-133729819D02*
X151033333Y-133729819D01*
X151033333Y-133729819D02*
X150938095Y-133682200D01*
X150938095Y-133682200D02*
X150890476Y-133634580D01*
X139808333Y-66734580D02*
X139760714Y-66782200D01*
X139760714Y-66782200D02*
X139617857Y-66829819D01*
X139617857Y-66829819D02*
X139522619Y-66829819D01*
X139522619Y-66829819D02*
X139379762Y-66782200D01*
X139379762Y-66782200D02*
X139284524Y-66686961D01*
X139284524Y-66686961D02*
X139236905Y-66591723D01*
X139236905Y-66591723D02*
X139189286Y-66401247D01*
X139189286Y-66401247D02*
X139189286Y-66258390D01*
X139189286Y-66258390D02*
X139236905Y-66067914D01*
X139236905Y-66067914D02*
X139284524Y-65972676D01*
X139284524Y-65972676D02*
X139379762Y-65877438D01*
X139379762Y-65877438D02*
X139522619Y-65829819D01*
X139522619Y-65829819D02*
X139617857Y-65829819D01*
X139617857Y-65829819D02*
X139760714Y-65877438D01*
X139760714Y-65877438D02*
X139808333Y-65925057D01*
X140189286Y-65925057D02*
X140236905Y-65877438D01*
X140236905Y-65877438D02*
X140332143Y-65829819D01*
X140332143Y-65829819D02*
X140570238Y-65829819D01*
X140570238Y-65829819D02*
X140665476Y-65877438D01*
X140665476Y-65877438D02*
X140713095Y-65925057D01*
X140713095Y-65925057D02*
X140760714Y-66020295D01*
X140760714Y-66020295D02*
X140760714Y-66115533D01*
X140760714Y-66115533D02*
X140713095Y-66258390D01*
X140713095Y-66258390D02*
X140141667Y-66829819D01*
X140141667Y-66829819D02*
X140760714Y-66829819D01*
X139838819Y-84206094D02*
X138838819Y-84206094D01*
X138838819Y-84206094D02*
X138838819Y-83825142D01*
X138838819Y-83825142D02*
X138886438Y-83729904D01*
X138886438Y-83729904D02*
X138934057Y-83682285D01*
X138934057Y-83682285D02*
X139029295Y-83634666D01*
X139029295Y-83634666D02*
X139172152Y-83634666D01*
X139172152Y-83634666D02*
X139267390Y-83682285D01*
X139267390Y-83682285D02*
X139315009Y-83729904D01*
X139315009Y-83729904D02*
X139362628Y-83825142D01*
X139362628Y-83825142D02*
X139362628Y-84206094D01*
X139838819Y-82682285D02*
X139838819Y-83253713D01*
X139838819Y-82967999D02*
X138838819Y-82967999D01*
X138838819Y-82967999D02*
X138981676Y-83063237D01*
X138981676Y-83063237D02*
X139076914Y-83158475D01*
X139076914Y-83158475D02*
X139124533Y-83253713D01*
X107758095Y-140774819D02*
X108329523Y-140774819D01*
X108043809Y-141774819D02*
X108043809Y-140774819D01*
X109186666Y-141774819D02*
X108615238Y-141774819D01*
X108900952Y-141774819D02*
X108900952Y-140774819D01*
X108900952Y-140774819D02*
X108805714Y-140917676D01*
X108805714Y-140917676D02*
X108710476Y-141012914D01*
X108710476Y-141012914D02*
X108615238Y-141060533D01*
X88808333Y-94079580D02*
X88760714Y-94127200D01*
X88760714Y-94127200D02*
X88617857Y-94174819D01*
X88617857Y-94174819D02*
X88522619Y-94174819D01*
X88522619Y-94174819D02*
X88379762Y-94127200D01*
X88379762Y-94127200D02*
X88284524Y-94031961D01*
X88284524Y-94031961D02*
X88236905Y-93936723D01*
X88236905Y-93936723D02*
X88189286Y-93746247D01*
X88189286Y-93746247D02*
X88189286Y-93603390D01*
X88189286Y-93603390D02*
X88236905Y-93412914D01*
X88236905Y-93412914D02*
X88284524Y-93317676D01*
X88284524Y-93317676D02*
X88379762Y-93222438D01*
X88379762Y-93222438D02*
X88522619Y-93174819D01*
X88522619Y-93174819D02*
X88617857Y-93174819D01*
X88617857Y-93174819D02*
X88760714Y-93222438D01*
X88760714Y-93222438D02*
X88808333Y-93270057D01*
X89141667Y-93174819D02*
X89808333Y-93174819D01*
X89808333Y-93174819D02*
X89379762Y-94174819D01*
X137966666Y-47134819D02*
X137966666Y-47849104D01*
X137966666Y-47849104D02*
X137919047Y-47991961D01*
X137919047Y-47991961D02*
X137823809Y-48087200D01*
X137823809Y-48087200D02*
X137680952Y-48134819D01*
X137680952Y-48134819D02*
X137585714Y-48134819D01*
X138966666Y-48134819D02*
X138395238Y-48134819D01*
X138680952Y-48134819D02*
X138680952Y-47134819D01*
X138680952Y-47134819D02*
X138585714Y-47277676D01*
X138585714Y-47277676D02*
X138490476Y-47372914D01*
X138490476Y-47372914D02*
X138395238Y-47420533D01*
X116083333Y-92454580D02*
X116035714Y-92502200D01*
X116035714Y-92502200D02*
X115892857Y-92549819D01*
X115892857Y-92549819D02*
X115797619Y-92549819D01*
X115797619Y-92549819D02*
X115654762Y-92502200D01*
X115654762Y-92502200D02*
X115559524Y-92406961D01*
X115559524Y-92406961D02*
X115511905Y-92311723D01*
X115511905Y-92311723D02*
X115464286Y-92121247D01*
X115464286Y-92121247D02*
X115464286Y-91978390D01*
X115464286Y-91978390D02*
X115511905Y-91787914D01*
X115511905Y-91787914D02*
X115559524Y-91692676D01*
X115559524Y-91692676D02*
X115654762Y-91597438D01*
X115654762Y-91597438D02*
X115797619Y-91549819D01*
X115797619Y-91549819D02*
X115892857Y-91549819D01*
X115892857Y-91549819D02*
X116035714Y-91597438D01*
X116035714Y-91597438D02*
X116083333Y-91645057D01*
X116940476Y-91549819D02*
X116750000Y-91549819D01*
X116750000Y-91549819D02*
X116654762Y-91597438D01*
X116654762Y-91597438D02*
X116607143Y-91645057D01*
X116607143Y-91645057D02*
X116511905Y-91787914D01*
X116511905Y-91787914D02*
X116464286Y-91978390D01*
X116464286Y-91978390D02*
X116464286Y-92359342D01*
X116464286Y-92359342D02*
X116511905Y-92454580D01*
X116511905Y-92454580D02*
X116559524Y-92502200D01*
X116559524Y-92502200D02*
X116654762Y-92549819D01*
X116654762Y-92549819D02*
X116845238Y-92549819D01*
X116845238Y-92549819D02*
X116940476Y-92502200D01*
X116940476Y-92502200D02*
X116988095Y-92454580D01*
X116988095Y-92454580D02*
X117035714Y-92359342D01*
X117035714Y-92359342D02*
X117035714Y-92121247D01*
X117035714Y-92121247D02*
X116988095Y-92026009D01*
X116988095Y-92026009D02*
X116940476Y-91978390D01*
X116940476Y-91978390D02*
X116845238Y-91930771D01*
X116845238Y-91930771D02*
X116654762Y-91930771D01*
X116654762Y-91930771D02*
X116559524Y-91978390D01*
X116559524Y-91978390D02*
X116511905Y-92026009D01*
X116511905Y-92026009D02*
X116464286Y-92121247D01*
X134904819Y-63151666D02*
X134428628Y-63484999D01*
X134904819Y-63723094D02*
X133904819Y-63723094D01*
X133904819Y-63723094D02*
X133904819Y-63342142D01*
X133904819Y-63342142D02*
X133952438Y-63246904D01*
X133952438Y-63246904D02*
X134000057Y-63199285D01*
X134000057Y-63199285D02*
X134095295Y-63151666D01*
X134095295Y-63151666D02*
X134238152Y-63151666D01*
X134238152Y-63151666D02*
X134333390Y-63199285D01*
X134333390Y-63199285D02*
X134381009Y-63246904D01*
X134381009Y-63246904D02*
X134428628Y-63342142D01*
X134428628Y-63342142D02*
X134428628Y-63723094D01*
X133904819Y-62294523D02*
X133904819Y-62484999D01*
X133904819Y-62484999D02*
X133952438Y-62580237D01*
X133952438Y-62580237D02*
X134000057Y-62627856D01*
X134000057Y-62627856D02*
X134142914Y-62723094D01*
X134142914Y-62723094D02*
X134333390Y-62770713D01*
X134333390Y-62770713D02*
X134714342Y-62770713D01*
X134714342Y-62770713D02*
X134809580Y-62723094D01*
X134809580Y-62723094D02*
X134857200Y-62675475D01*
X134857200Y-62675475D02*
X134904819Y-62580237D01*
X134904819Y-62580237D02*
X134904819Y-62389761D01*
X134904819Y-62389761D02*
X134857200Y-62294523D01*
X134857200Y-62294523D02*
X134809580Y-62246904D01*
X134809580Y-62246904D02*
X134714342Y-62199285D01*
X134714342Y-62199285D02*
X134476247Y-62199285D01*
X134476247Y-62199285D02*
X134381009Y-62246904D01*
X134381009Y-62246904D02*
X134333390Y-62294523D01*
X134333390Y-62294523D02*
X134285771Y-62389761D01*
X134285771Y-62389761D02*
X134285771Y-62580237D01*
X134285771Y-62580237D02*
X134333390Y-62675475D01*
X134333390Y-62675475D02*
X134381009Y-62723094D01*
X134381009Y-62723094D02*
X134476247Y-62770713D01*
X95199580Y-78906666D02*
X95247200Y-78954285D01*
X95247200Y-78954285D02*
X95294819Y-79097142D01*
X95294819Y-79097142D02*
X95294819Y-79192380D01*
X95294819Y-79192380D02*
X95247200Y-79335237D01*
X95247200Y-79335237D02*
X95151961Y-79430475D01*
X95151961Y-79430475D02*
X95056723Y-79478094D01*
X95056723Y-79478094D02*
X94866247Y-79525713D01*
X94866247Y-79525713D02*
X94723390Y-79525713D01*
X94723390Y-79525713D02*
X94532914Y-79478094D01*
X94532914Y-79478094D02*
X94437676Y-79430475D01*
X94437676Y-79430475D02*
X94342438Y-79335237D01*
X94342438Y-79335237D02*
X94294819Y-79192380D01*
X94294819Y-79192380D02*
X94294819Y-79097142D01*
X94294819Y-79097142D02*
X94342438Y-78954285D01*
X94342438Y-78954285D02*
X94390057Y-78906666D01*
X95294819Y-77954285D02*
X95294819Y-78525713D01*
X95294819Y-78239999D02*
X94294819Y-78239999D01*
X94294819Y-78239999D02*
X94437676Y-78335237D01*
X94437676Y-78335237D02*
X94532914Y-78430475D01*
X94532914Y-78430475D02*
X94580533Y-78525713D01*
X148145095Y-132761819D02*
X148716523Y-132761819D01*
X148430809Y-133761819D02*
X148430809Y-132761819D01*
X149621285Y-133666580D02*
X149573666Y-133714200D01*
X149573666Y-133714200D02*
X149430809Y-133761819D01*
X149430809Y-133761819D02*
X149335571Y-133761819D01*
X149335571Y-133761819D02*
X149192714Y-133714200D01*
X149192714Y-133714200D02*
X149097476Y-133618961D01*
X149097476Y-133618961D02*
X149049857Y-133523723D01*
X149049857Y-133523723D02*
X149002238Y-133333247D01*
X149002238Y-133333247D02*
X149002238Y-133190390D01*
X149002238Y-133190390D02*
X149049857Y-132999914D01*
X149049857Y-132999914D02*
X149097476Y-132904676D01*
X149097476Y-132904676D02*
X149192714Y-132809438D01*
X149192714Y-132809438D02*
X149335571Y-132761819D01*
X149335571Y-132761819D02*
X149430809Y-132761819D01*
X149430809Y-132761819D02*
X149573666Y-132809438D01*
X149573666Y-132809438D02*
X149621285Y-132857057D01*
X150573666Y-133761819D02*
X150002238Y-133761819D01*
X150287952Y-133761819D02*
X150287952Y-132761819D01*
X150287952Y-132761819D02*
X150192714Y-132904676D01*
X150192714Y-132904676D02*
X150097476Y-132999914D01*
X150097476Y-132999914D02*
X150002238Y-133047533D01*
X77913095Y-133879819D02*
X77913095Y-132879819D01*
X77913095Y-133356009D02*
X78484523Y-133356009D01*
X78484523Y-133879819D02*
X78484523Y-132879819D01*
X79389285Y-133213152D02*
X79389285Y-133879819D01*
X79151190Y-132832200D02*
X78913095Y-133546485D01*
X78913095Y-133546485D02*
X79532142Y-133546485D01*
X115607142Y-92509819D02*
X115273809Y-92033628D01*
X115035714Y-92509819D02*
X115035714Y-91509819D01*
X115035714Y-91509819D02*
X115416666Y-91509819D01*
X115416666Y-91509819D02*
X115511904Y-91557438D01*
X115511904Y-91557438D02*
X115559523Y-91605057D01*
X115559523Y-91605057D02*
X115607142Y-91700295D01*
X115607142Y-91700295D02*
X115607142Y-91843152D01*
X115607142Y-91843152D02*
X115559523Y-91938390D01*
X115559523Y-91938390D02*
X115511904Y-91986009D01*
X115511904Y-91986009D02*
X115416666Y-92033628D01*
X115416666Y-92033628D02*
X115035714Y-92033628D01*
X116559523Y-92509819D02*
X115988095Y-92509819D01*
X116273809Y-92509819D02*
X116273809Y-91509819D01*
X116273809Y-91509819D02*
X116178571Y-91652676D01*
X116178571Y-91652676D02*
X116083333Y-91747914D01*
X116083333Y-91747914D02*
X115988095Y-91795533D01*
X117178571Y-91509819D02*
X117273809Y-91509819D01*
X117273809Y-91509819D02*
X117369047Y-91557438D01*
X117369047Y-91557438D02*
X117416666Y-91605057D01*
X117416666Y-91605057D02*
X117464285Y-91700295D01*
X117464285Y-91700295D02*
X117511904Y-91890771D01*
X117511904Y-91890771D02*
X117511904Y-92128866D01*
X117511904Y-92128866D02*
X117464285Y-92319342D01*
X117464285Y-92319342D02*
X117416666Y-92414580D01*
X117416666Y-92414580D02*
X117369047Y-92462200D01*
X117369047Y-92462200D02*
X117273809Y-92509819D01*
X117273809Y-92509819D02*
X117178571Y-92509819D01*
X117178571Y-92509819D02*
X117083333Y-92462200D01*
X117083333Y-92462200D02*
X117035714Y-92414580D01*
X117035714Y-92414580D02*
X116988095Y-92319342D01*
X116988095Y-92319342D02*
X116940476Y-92128866D01*
X116940476Y-92128866D02*
X116940476Y-91890771D01*
X116940476Y-91890771D02*
X116988095Y-91700295D01*
X116988095Y-91700295D02*
X117035714Y-91605057D01*
X117035714Y-91605057D02*
X117083333Y-91557438D01*
X117083333Y-91557438D02*
X117178571Y-91509819D01*
X116208333Y-100784580D02*
X116160714Y-100832200D01*
X116160714Y-100832200D02*
X116017857Y-100879819D01*
X116017857Y-100879819D02*
X115922619Y-100879819D01*
X115922619Y-100879819D02*
X115779762Y-100832200D01*
X115779762Y-100832200D02*
X115684524Y-100736961D01*
X115684524Y-100736961D02*
X115636905Y-100641723D01*
X115636905Y-100641723D02*
X115589286Y-100451247D01*
X115589286Y-100451247D02*
X115589286Y-100308390D01*
X115589286Y-100308390D02*
X115636905Y-100117914D01*
X115636905Y-100117914D02*
X115684524Y-100022676D01*
X115684524Y-100022676D02*
X115779762Y-99927438D01*
X115779762Y-99927438D02*
X115922619Y-99879819D01*
X115922619Y-99879819D02*
X116017857Y-99879819D01*
X116017857Y-99879819D02*
X116160714Y-99927438D01*
X116160714Y-99927438D02*
X116208333Y-99975057D01*
X117113095Y-99879819D02*
X116636905Y-99879819D01*
X116636905Y-99879819D02*
X116589286Y-100356009D01*
X116589286Y-100356009D02*
X116636905Y-100308390D01*
X116636905Y-100308390D02*
X116732143Y-100260771D01*
X116732143Y-100260771D02*
X116970238Y-100260771D01*
X116970238Y-100260771D02*
X117065476Y-100308390D01*
X117065476Y-100308390D02*
X117113095Y-100356009D01*
X117113095Y-100356009D02*
X117160714Y-100451247D01*
X117160714Y-100451247D02*
X117160714Y-100689342D01*
X117160714Y-100689342D02*
X117113095Y-100784580D01*
X117113095Y-100784580D02*
X117065476Y-100832200D01*
X117065476Y-100832200D02*
X116970238Y-100879819D01*
X116970238Y-100879819D02*
X116732143Y-100879819D01*
X116732143Y-100879819D02*
X116636905Y-100832200D01*
X116636905Y-100832200D02*
X116589286Y-100784580D01*
X97757819Y-65548094D02*
X96757819Y-65548094D01*
X96757819Y-65548094D02*
X96757819Y-65309999D01*
X96757819Y-65309999D02*
X96805438Y-65167142D01*
X96805438Y-65167142D02*
X96900676Y-65071904D01*
X96900676Y-65071904D02*
X96995914Y-65024285D01*
X96995914Y-65024285D02*
X97186390Y-64976666D01*
X97186390Y-64976666D02*
X97329247Y-64976666D01*
X97329247Y-64976666D02*
X97519723Y-65024285D01*
X97519723Y-65024285D02*
X97614961Y-65071904D01*
X97614961Y-65071904D02*
X97710200Y-65167142D01*
X97710200Y-65167142D02*
X97757819Y-65309999D01*
X97757819Y-65309999D02*
X97757819Y-65548094D01*
X96757819Y-64643332D02*
X96757819Y-64024285D01*
X96757819Y-64024285D02*
X97138771Y-64357618D01*
X97138771Y-64357618D02*
X97138771Y-64214761D01*
X97138771Y-64214761D02*
X97186390Y-64119523D01*
X97186390Y-64119523D02*
X97234009Y-64071904D01*
X97234009Y-64071904D02*
X97329247Y-64024285D01*
X97329247Y-64024285D02*
X97567342Y-64024285D01*
X97567342Y-64024285D02*
X97662580Y-64071904D01*
X97662580Y-64071904D02*
X97710200Y-64119523D01*
X97710200Y-64119523D02*
X97757819Y-64214761D01*
X97757819Y-64214761D02*
X97757819Y-64500475D01*
X97757819Y-64500475D02*
X97710200Y-64595713D01*
X97710200Y-64595713D02*
X97662580Y-64643332D01*
X138144819Y-63068094D02*
X137144819Y-63068094D01*
X137144819Y-63068094D02*
X137144819Y-62829999D01*
X137144819Y-62829999D02*
X137192438Y-62687142D01*
X137192438Y-62687142D02*
X137287676Y-62591904D01*
X137287676Y-62591904D02*
X137382914Y-62544285D01*
X137382914Y-62544285D02*
X137573390Y-62496666D01*
X137573390Y-62496666D02*
X137716247Y-62496666D01*
X137716247Y-62496666D02*
X137906723Y-62544285D01*
X137906723Y-62544285D02*
X138001961Y-62591904D01*
X138001961Y-62591904D02*
X138097200Y-62687142D01*
X138097200Y-62687142D02*
X138144819Y-62829999D01*
X138144819Y-62829999D02*
X138144819Y-63068094D01*
X137478152Y-61639523D02*
X138144819Y-61639523D01*
X137097200Y-61877618D02*
X137811485Y-62115713D01*
X137811485Y-62115713D02*
X137811485Y-61496666D01*
X84029819Y-105151904D02*
X84839342Y-105151904D01*
X84839342Y-105151904D02*
X84934580Y-105104285D01*
X84934580Y-105104285D02*
X84982200Y-105056666D01*
X84982200Y-105056666D02*
X85029819Y-104961428D01*
X85029819Y-104961428D02*
X85029819Y-104770952D01*
X85029819Y-104770952D02*
X84982200Y-104675714D01*
X84982200Y-104675714D02*
X84934580Y-104628095D01*
X84934580Y-104628095D02*
X84839342Y-104580476D01*
X84839342Y-104580476D02*
X84029819Y-104580476D01*
X84029819Y-104199523D02*
X84029819Y-103580476D01*
X84029819Y-103580476D02*
X84410771Y-103913809D01*
X84410771Y-103913809D02*
X84410771Y-103770952D01*
X84410771Y-103770952D02*
X84458390Y-103675714D01*
X84458390Y-103675714D02*
X84506009Y-103628095D01*
X84506009Y-103628095D02*
X84601247Y-103580476D01*
X84601247Y-103580476D02*
X84839342Y-103580476D01*
X84839342Y-103580476D02*
X84934580Y-103628095D01*
X84934580Y-103628095D02*
X84982200Y-103675714D01*
X84982200Y-103675714D02*
X85029819Y-103770952D01*
X85029819Y-103770952D02*
X85029819Y-104056666D01*
X85029819Y-104056666D02*
X84982200Y-104151904D01*
X84982200Y-104151904D02*
X84934580Y-104199523D01*
X116208333Y-103709819D02*
X115875000Y-103233628D01*
X115636905Y-103709819D02*
X115636905Y-102709819D01*
X115636905Y-102709819D02*
X116017857Y-102709819D01*
X116017857Y-102709819D02*
X116113095Y-102757438D01*
X116113095Y-102757438D02*
X116160714Y-102805057D01*
X116160714Y-102805057D02*
X116208333Y-102900295D01*
X116208333Y-102900295D02*
X116208333Y-103043152D01*
X116208333Y-103043152D02*
X116160714Y-103138390D01*
X116160714Y-103138390D02*
X116113095Y-103186009D01*
X116113095Y-103186009D02*
X116017857Y-103233628D01*
X116017857Y-103233628D02*
X115636905Y-103233628D01*
X116684524Y-103709819D02*
X116875000Y-103709819D01*
X116875000Y-103709819D02*
X116970238Y-103662200D01*
X116970238Y-103662200D02*
X117017857Y-103614580D01*
X117017857Y-103614580D02*
X117113095Y-103471723D01*
X117113095Y-103471723D02*
X117160714Y-103281247D01*
X117160714Y-103281247D02*
X117160714Y-102900295D01*
X117160714Y-102900295D02*
X117113095Y-102805057D01*
X117113095Y-102805057D02*
X117065476Y-102757438D01*
X117065476Y-102757438D02*
X116970238Y-102709819D01*
X116970238Y-102709819D02*
X116779762Y-102709819D01*
X116779762Y-102709819D02*
X116684524Y-102757438D01*
X116684524Y-102757438D02*
X116636905Y-102805057D01*
X116636905Y-102805057D02*
X116589286Y-102900295D01*
X116589286Y-102900295D02*
X116589286Y-103138390D01*
X116589286Y-103138390D02*
X116636905Y-103233628D01*
X116636905Y-103233628D02*
X116684524Y-103281247D01*
X116684524Y-103281247D02*
X116779762Y-103328866D01*
X116779762Y-103328866D02*
X116970238Y-103328866D01*
X116970238Y-103328866D02*
X117065476Y-103281247D01*
X117065476Y-103281247D02*
X117113095Y-103233628D01*
X117113095Y-103233628D02*
X117160714Y-103138390D01*
X143343819Y-96691666D02*
X142867628Y-97024999D01*
X143343819Y-97263094D02*
X142343819Y-97263094D01*
X142343819Y-97263094D02*
X142343819Y-96882142D01*
X142343819Y-96882142D02*
X142391438Y-96786904D01*
X142391438Y-96786904D02*
X142439057Y-96739285D01*
X142439057Y-96739285D02*
X142534295Y-96691666D01*
X142534295Y-96691666D02*
X142677152Y-96691666D01*
X142677152Y-96691666D02*
X142772390Y-96739285D01*
X142772390Y-96739285D02*
X142820009Y-96786904D01*
X142820009Y-96786904D02*
X142867628Y-96882142D01*
X142867628Y-96882142D02*
X142867628Y-97263094D01*
X143343819Y-95739285D02*
X143343819Y-96310713D01*
X143343819Y-96024999D02*
X142343819Y-96024999D01*
X142343819Y-96024999D02*
X142486676Y-96120237D01*
X142486676Y-96120237D02*
X142581914Y-96215475D01*
X142581914Y-96215475D02*
X142629533Y-96310713D01*
X102320819Y-83751904D02*
X103130342Y-83751904D01*
X103130342Y-83751904D02*
X103225580Y-83704285D01*
X103225580Y-83704285D02*
X103273200Y-83656666D01*
X103273200Y-83656666D02*
X103320819Y-83561428D01*
X103320819Y-83561428D02*
X103320819Y-83370952D01*
X103320819Y-83370952D02*
X103273200Y-83275714D01*
X103273200Y-83275714D02*
X103225580Y-83228095D01*
X103225580Y-83228095D02*
X103130342Y-83180476D01*
X103130342Y-83180476D02*
X102320819Y-83180476D01*
X102416057Y-82751904D02*
X102368438Y-82704285D01*
X102368438Y-82704285D02*
X102320819Y-82609047D01*
X102320819Y-82609047D02*
X102320819Y-82370952D01*
X102320819Y-82370952D02*
X102368438Y-82275714D01*
X102368438Y-82275714D02*
X102416057Y-82228095D01*
X102416057Y-82228095D02*
X102511295Y-82180476D01*
X102511295Y-82180476D02*
X102606533Y-82180476D01*
X102606533Y-82180476D02*
X102749390Y-82228095D01*
X102749390Y-82228095D02*
X103320819Y-82799523D01*
X103320819Y-82799523D02*
X103320819Y-82180476D01*
X116656009Y-92279761D02*
X116703628Y-92136904D01*
X116703628Y-92136904D02*
X116751247Y-92089285D01*
X116751247Y-92089285D02*
X116846485Y-92041666D01*
X116846485Y-92041666D02*
X116989342Y-92041666D01*
X116989342Y-92041666D02*
X117084580Y-92089285D01*
X117084580Y-92089285D02*
X117132200Y-92136904D01*
X117132200Y-92136904D02*
X117179819Y-92232142D01*
X117179819Y-92232142D02*
X117179819Y-92613094D01*
X117179819Y-92613094D02*
X116179819Y-92613094D01*
X116179819Y-92613094D02*
X116179819Y-92279761D01*
X116179819Y-92279761D02*
X116227438Y-92184523D01*
X116227438Y-92184523D02*
X116275057Y-92136904D01*
X116275057Y-92136904D02*
X116370295Y-92089285D01*
X116370295Y-92089285D02*
X116465533Y-92089285D01*
X116465533Y-92089285D02*
X116560771Y-92136904D01*
X116560771Y-92136904D02*
X116608390Y-92184523D01*
X116608390Y-92184523D02*
X116656009Y-92279761D01*
X116656009Y-92279761D02*
X116656009Y-92613094D01*
X116275057Y-91660713D02*
X116227438Y-91613094D01*
X116227438Y-91613094D02*
X116179819Y-91517856D01*
X116179819Y-91517856D02*
X116179819Y-91279761D01*
X116179819Y-91279761D02*
X116227438Y-91184523D01*
X116227438Y-91184523D02*
X116275057Y-91136904D01*
X116275057Y-91136904D02*
X116370295Y-91089285D01*
X116370295Y-91089285D02*
X116465533Y-91089285D01*
X116465533Y-91089285D02*
X116608390Y-91136904D01*
X116608390Y-91136904D02*
X117179819Y-91708332D01*
X117179819Y-91708332D02*
X117179819Y-91089285D01*
X89479819Y-93756904D02*
X90289342Y-93756904D01*
X90289342Y-93756904D02*
X90384580Y-93709285D01*
X90384580Y-93709285D02*
X90432200Y-93661666D01*
X90432200Y-93661666D02*
X90479819Y-93566428D01*
X90479819Y-93566428D02*
X90479819Y-93375952D01*
X90479819Y-93375952D02*
X90432200Y-93280714D01*
X90432200Y-93280714D02*
X90384580Y-93233095D01*
X90384580Y-93233095D02*
X90289342Y-93185476D01*
X90289342Y-93185476D02*
X89479819Y-93185476D01*
X90479819Y-92185476D02*
X90479819Y-92756904D01*
X90479819Y-92471190D02*
X89479819Y-92471190D01*
X89479819Y-92471190D02*
X89622676Y-92566428D01*
X89622676Y-92566428D02*
X89717914Y-92661666D01*
X89717914Y-92661666D02*
X89765533Y-92756904D01*
X122631009Y-101054761D02*
X122678628Y-100911904D01*
X122678628Y-100911904D02*
X122726247Y-100864285D01*
X122726247Y-100864285D02*
X122821485Y-100816666D01*
X122821485Y-100816666D02*
X122964342Y-100816666D01*
X122964342Y-100816666D02*
X123059580Y-100864285D01*
X123059580Y-100864285D02*
X123107200Y-100911904D01*
X123107200Y-100911904D02*
X123154819Y-101007142D01*
X123154819Y-101007142D02*
X123154819Y-101388094D01*
X123154819Y-101388094D02*
X122154819Y-101388094D01*
X122154819Y-101388094D02*
X122154819Y-101054761D01*
X122154819Y-101054761D02*
X122202438Y-100959523D01*
X122202438Y-100959523D02*
X122250057Y-100911904D01*
X122250057Y-100911904D02*
X122345295Y-100864285D01*
X122345295Y-100864285D02*
X122440533Y-100864285D01*
X122440533Y-100864285D02*
X122535771Y-100911904D01*
X122535771Y-100911904D02*
X122583390Y-100959523D01*
X122583390Y-100959523D02*
X122631009Y-101054761D01*
X122631009Y-101054761D02*
X122631009Y-101388094D01*
X123154819Y-99864285D02*
X123154819Y-100435713D01*
X123154819Y-100149999D02*
X122154819Y-100149999D01*
X122154819Y-100149999D02*
X122297676Y-100245237D01*
X122297676Y-100245237D02*
X122392914Y-100340475D01*
X122392914Y-100340475D02*
X122440533Y-100435713D01*
X142198819Y-113006094D02*
X141198819Y-113006094D01*
X141198819Y-113006094D02*
X141198819Y-112767999D01*
X141198819Y-112767999D02*
X141246438Y-112625142D01*
X141246438Y-112625142D02*
X141341676Y-112529904D01*
X141341676Y-112529904D02*
X141436914Y-112482285D01*
X141436914Y-112482285D02*
X141627390Y-112434666D01*
X141627390Y-112434666D02*
X141770247Y-112434666D01*
X141770247Y-112434666D02*
X141960723Y-112482285D01*
X141960723Y-112482285D02*
X142055961Y-112529904D01*
X142055961Y-112529904D02*
X142151200Y-112625142D01*
X142151200Y-112625142D02*
X142198819Y-112767999D01*
X142198819Y-112767999D02*
X142198819Y-113006094D01*
X142198819Y-111482285D02*
X142198819Y-112053713D01*
X142198819Y-111767999D02*
X141198819Y-111767999D01*
X141198819Y-111767999D02*
X141341676Y-111863237D01*
X141341676Y-111863237D02*
X141436914Y-111958475D01*
X141436914Y-111958475D02*
X141484533Y-112053713D01*
D15*
%TO.C,C2*%
X134495354Y-69750000D02*
X135495354Y-69750000D01*
X134995354Y-69250000D02*
X134995354Y-70250000D01*
X139975000Y-67545000D02*
X139975000Y-77705000D01*
X140015000Y-67545000D02*
X140015000Y-77705000D01*
X140055000Y-67545000D02*
X140055000Y-77705000D01*
X140095000Y-67546000D02*
X140095000Y-77704000D01*
X140135000Y-67547000D02*
X140135000Y-77703000D01*
X140175000Y-67548000D02*
X140175000Y-77702000D01*
X140215000Y-67550000D02*
X140215000Y-77700000D01*
X140255000Y-67552000D02*
X140255000Y-77698000D01*
X140295000Y-67555000D02*
X140295000Y-77695000D01*
X140335000Y-67557000D02*
X140335000Y-77693000D01*
X140375000Y-67560000D02*
X140375000Y-77690000D01*
X140415000Y-67563000D02*
X140415000Y-77687000D01*
X140455000Y-67567000D02*
X140455000Y-77683000D01*
X140495000Y-67571000D02*
X140495000Y-77679000D01*
X140535000Y-67575000D02*
X140535000Y-77675000D01*
X140575000Y-67580000D02*
X140575000Y-77670000D01*
X140615000Y-67585000D02*
X140615000Y-77665000D01*
X140655000Y-67590000D02*
X140655000Y-71384000D01*
X140655000Y-73866000D02*
X140655000Y-77660000D01*
X140696000Y-67595000D02*
X140696000Y-71384000D01*
X140696000Y-73866000D02*
X140696000Y-77655000D01*
X140736000Y-67601000D02*
X140736000Y-71384000D01*
X140736000Y-73866000D02*
X140736000Y-77649000D01*
X140776000Y-67607000D02*
X140776000Y-71384000D01*
X140776000Y-73866000D02*
X140776000Y-77643000D01*
X140816000Y-67614000D02*
X140816000Y-71384000D01*
X140816000Y-73866000D02*
X140816000Y-77636000D01*
X140856000Y-67621000D02*
X140856000Y-71384000D01*
X140856000Y-73866000D02*
X140856000Y-77629000D01*
X140896000Y-67628000D02*
X140896000Y-71384000D01*
X140896000Y-73866000D02*
X140896000Y-77622000D01*
X140936000Y-67635000D02*
X140936000Y-71384000D01*
X140936000Y-73866000D02*
X140936000Y-77615000D01*
X140976000Y-67643000D02*
X140976000Y-71384000D01*
X140976000Y-73866000D02*
X140976000Y-77607000D01*
X141016000Y-67651000D02*
X141016000Y-71384000D01*
X141016000Y-73866000D02*
X141016000Y-77599000D01*
X141056000Y-67660000D02*
X141056000Y-71384000D01*
X141056000Y-73866000D02*
X141056000Y-77590000D01*
X141096000Y-67669000D02*
X141096000Y-71384000D01*
X141096000Y-73866000D02*
X141096000Y-77581000D01*
X141136000Y-67678000D02*
X141136000Y-71384000D01*
X141136000Y-73866000D02*
X141136000Y-77572000D01*
X141176000Y-67687000D02*
X141176000Y-71384000D01*
X141176000Y-73866000D02*
X141176000Y-77563000D01*
X141216000Y-67697000D02*
X141216000Y-71384000D01*
X141216000Y-73866000D02*
X141216000Y-77553000D01*
X141256000Y-67707000D02*
X141256000Y-71384000D01*
X141256000Y-73866000D02*
X141256000Y-77543000D01*
X141296000Y-67718000D02*
X141296000Y-71384000D01*
X141296000Y-73866000D02*
X141296000Y-77532000D01*
X141336000Y-67728000D02*
X141336000Y-71384000D01*
X141336000Y-73866000D02*
X141336000Y-77522000D01*
X141376000Y-67740000D02*
X141376000Y-71384000D01*
X141376000Y-73866000D02*
X141376000Y-77510000D01*
X141416000Y-67751000D02*
X141416000Y-71384000D01*
X141416000Y-73866000D02*
X141416000Y-77499000D01*
X141456000Y-67763000D02*
X141456000Y-71384000D01*
X141456000Y-73866000D02*
X141456000Y-77487000D01*
X141496000Y-67775000D02*
X141496000Y-71384000D01*
X141496000Y-73866000D02*
X141496000Y-77475000D01*
X141536000Y-67788000D02*
X141536000Y-71384000D01*
X141536000Y-73866000D02*
X141536000Y-77462000D01*
X141576000Y-67801000D02*
X141576000Y-71384000D01*
X141576000Y-73866000D02*
X141576000Y-77449000D01*
X141616000Y-67814000D02*
X141616000Y-71384000D01*
X141616000Y-73866000D02*
X141616000Y-77436000D01*
X141656000Y-67828000D02*
X141656000Y-71384000D01*
X141656000Y-73866000D02*
X141656000Y-77422000D01*
X141696000Y-67842000D02*
X141696000Y-71384000D01*
X141696000Y-73866000D02*
X141696000Y-77408000D01*
X141736000Y-67857000D02*
X141736000Y-71384000D01*
X141736000Y-73866000D02*
X141736000Y-77393000D01*
X141776000Y-67871000D02*
X141776000Y-71384000D01*
X141776000Y-73866000D02*
X141776000Y-77379000D01*
X141816000Y-67887000D02*
X141816000Y-71384000D01*
X141816000Y-73866000D02*
X141816000Y-77363000D01*
X141856000Y-67902000D02*
X141856000Y-71384000D01*
X141856000Y-73866000D02*
X141856000Y-77348000D01*
X141896000Y-67918000D02*
X141896000Y-71384000D01*
X141896000Y-73866000D02*
X141896000Y-77332000D01*
X141936000Y-67935000D02*
X141936000Y-71384000D01*
X141936000Y-73866000D02*
X141936000Y-77315000D01*
X141976000Y-67951000D02*
X141976000Y-71384000D01*
X141976000Y-73866000D02*
X141976000Y-77299000D01*
X142016000Y-67968000D02*
X142016000Y-71384000D01*
X142016000Y-73866000D02*
X142016000Y-77282000D01*
X142056000Y-67986000D02*
X142056000Y-71384000D01*
X142056000Y-73866000D02*
X142056000Y-77264000D01*
X142096000Y-68004000D02*
X142096000Y-71384000D01*
X142096000Y-73866000D02*
X142096000Y-77246000D01*
X142136000Y-68022000D02*
X142136000Y-71384000D01*
X142136000Y-73866000D02*
X142136000Y-77228000D01*
X142176000Y-68041000D02*
X142176000Y-71384000D01*
X142176000Y-73866000D02*
X142176000Y-77209000D01*
X142216000Y-68061000D02*
X142216000Y-71384000D01*
X142216000Y-73866000D02*
X142216000Y-77189000D01*
X142256000Y-68080000D02*
X142256000Y-71384000D01*
X142256000Y-73866000D02*
X142256000Y-77170000D01*
X142296000Y-68100000D02*
X142296000Y-71384000D01*
X142296000Y-73866000D02*
X142296000Y-77150000D01*
X142336000Y-68121000D02*
X142336000Y-71384000D01*
X142336000Y-73866000D02*
X142336000Y-77129000D01*
X142376000Y-68142000D02*
X142376000Y-71384000D01*
X142376000Y-73866000D02*
X142376000Y-77108000D01*
X142416000Y-68163000D02*
X142416000Y-71384000D01*
X142416000Y-73866000D02*
X142416000Y-77087000D01*
X142456000Y-68185000D02*
X142456000Y-71384000D01*
X142456000Y-73866000D02*
X142456000Y-77065000D01*
X142496000Y-68208000D02*
X142496000Y-71384000D01*
X142496000Y-73866000D02*
X142496000Y-77042000D01*
X142536000Y-68230000D02*
X142536000Y-71384000D01*
X142536000Y-73866000D02*
X142536000Y-77020000D01*
X142576000Y-68254000D02*
X142576000Y-71384000D01*
X142576000Y-73866000D02*
X142576000Y-76996000D01*
X142616000Y-68278000D02*
X142616000Y-71384000D01*
X142616000Y-73866000D02*
X142616000Y-76972000D01*
X142656000Y-68302000D02*
X142656000Y-71384000D01*
X142656000Y-73866000D02*
X142656000Y-76948000D01*
X142696000Y-68327000D02*
X142696000Y-71384000D01*
X142696000Y-73866000D02*
X142696000Y-76923000D01*
X142736000Y-68352000D02*
X142736000Y-71384000D01*
X142736000Y-73866000D02*
X142736000Y-76898000D01*
X142776000Y-68378000D02*
X142776000Y-71384000D01*
X142776000Y-73866000D02*
X142776000Y-76872000D01*
X142816000Y-68404000D02*
X142816000Y-71384000D01*
X142816000Y-73866000D02*
X142816000Y-76846000D01*
X142856000Y-68431000D02*
X142856000Y-71384000D01*
X142856000Y-73866000D02*
X142856000Y-76819000D01*
X142896000Y-68459000D02*
X142896000Y-71384000D01*
X142896000Y-73866000D02*
X142896000Y-76791000D01*
X142936000Y-68487000D02*
X142936000Y-71384000D01*
X142936000Y-73866000D02*
X142936000Y-76763000D01*
X142976000Y-68515000D02*
X142976000Y-71384000D01*
X142976000Y-73866000D02*
X142976000Y-76735000D01*
X143016000Y-68545000D02*
X143016000Y-71384000D01*
X143016000Y-73866000D02*
X143016000Y-76705000D01*
X143056000Y-68575000D02*
X143056000Y-71384000D01*
X143056000Y-73866000D02*
X143056000Y-76675000D01*
X143096000Y-68605000D02*
X143096000Y-71384000D01*
X143096000Y-73866000D02*
X143096000Y-76645000D01*
X143136000Y-68636000D02*
X143136000Y-76614000D01*
X143176000Y-68668000D02*
X143176000Y-76582000D01*
X143216000Y-68700000D02*
X143216000Y-76550000D01*
X143256000Y-68733000D02*
X143256000Y-76517000D01*
X143296000Y-68767000D02*
X143296000Y-76483000D01*
X143336000Y-68801000D02*
X143336000Y-76449000D01*
X143376000Y-68836000D02*
X143376000Y-76414000D01*
X143416000Y-68872000D02*
X143416000Y-76378000D01*
X143456000Y-68909000D02*
X143456000Y-76341000D01*
X143496000Y-68946000D02*
X143496000Y-76304000D01*
X143536000Y-68985000D02*
X143536000Y-76265000D01*
X143576000Y-69024000D02*
X143576000Y-76226000D01*
X143616000Y-69064000D02*
X143616000Y-76186000D01*
X143656000Y-69105000D02*
X143656000Y-76145000D01*
X143696000Y-69147000D02*
X143696000Y-76103000D01*
X143736000Y-69189000D02*
X143736000Y-76061000D01*
X143776000Y-69233000D02*
X143776000Y-76017000D01*
X143816000Y-69278000D02*
X143816000Y-75972000D01*
X143856000Y-69324000D02*
X143856000Y-75926000D01*
X143896000Y-69371000D02*
X143896000Y-75879000D01*
X143936000Y-69419000D02*
X143936000Y-75831000D01*
X143976000Y-69469000D02*
X143976000Y-75781000D01*
X144016000Y-69519000D02*
X144016000Y-75731000D01*
X144056000Y-69571000D02*
X144056000Y-75679000D01*
X144096000Y-69625000D02*
X144096000Y-75625000D01*
X144136000Y-69680000D02*
X144136000Y-75570000D01*
X144176000Y-69736000D02*
X144176000Y-75514000D01*
X144216000Y-69795000D02*
X144216000Y-75455000D01*
X144256000Y-69855000D02*
X144256000Y-75395000D01*
X144296000Y-69916000D02*
X144296000Y-75334000D01*
X144336000Y-69980000D02*
X144336000Y-75270000D01*
X144376000Y-70046000D02*
X144376000Y-75204000D01*
X144416000Y-70115000D02*
X144416000Y-75135000D01*
X144456000Y-70186000D02*
X144456000Y-75064000D01*
X144496000Y-70260000D02*
X144496000Y-74990000D01*
X144536000Y-70336000D02*
X144536000Y-74914000D01*
X144576000Y-70416000D02*
X144576000Y-74834000D01*
X144616000Y-70500000D02*
X144616000Y-74750000D01*
X144656000Y-70588000D02*
X144656000Y-74662000D01*
X144696000Y-70681000D02*
X144696000Y-74569000D01*
X144736000Y-70779000D02*
X144736000Y-74471000D01*
X144776000Y-70883000D02*
X144776000Y-74367000D01*
X144816000Y-70995000D02*
X144816000Y-74255000D01*
X144856000Y-71115000D02*
X144856000Y-74135000D01*
X144896000Y-71247000D02*
X144896000Y-74003000D01*
X144936000Y-71395000D02*
X144936000Y-73855000D01*
X144976000Y-71563000D02*
X144976000Y-73687000D01*
X145016000Y-71763000D02*
X145016000Y-73487000D01*
X145056000Y-72026000D02*
X145056000Y-73224000D01*
X145095000Y-72625000D02*
G75*
G02*
X134855000Y-72625000I-5120000J0D01*
G01*
X134855000Y-72625000D02*
G75*
G02*
X145095000Y-72625000I5120000J0D01*
G01*
%TO.C,P1*%
X143583000Y-79188000D02*
X153504000Y-79188000D01*
X143583000Y-89468000D02*
X143583000Y-79188000D01*
X143583000Y-89468000D02*
X153504000Y-89468000D01*
X146543000Y-89468000D02*
X146543000Y-79188000D01*
X147569000Y-80718000D02*
X147605000Y-80753000D01*
X147775000Y-80513000D02*
X147821000Y-80560000D01*
X149867000Y-83015000D02*
X149913000Y-83062000D01*
X150083000Y-82822000D02*
X150118000Y-82857000D01*
X151444000Y-89468000D02*
X151444000Y-79188000D01*
X152944000Y-89468000D02*
X152944000Y-79188000D01*
X153004000Y-89708000D02*
X153744000Y-89708000D01*
X153504000Y-89468000D02*
X153504000Y-79188000D01*
X153744000Y-89708000D02*
X153744000Y-89208000D01*
X147308573Y-87551042D02*
G75*
G02*
X147309000Y-86184000I1535420J683041D01*
G01*
X148160958Y-85332573D02*
G75*
G02*
X149528000Y-85333000I683042J-1535427D01*
G01*
X149527042Y-88403427D02*
G75*
G02*
X148160000Y-88403000I-683041J1535420D01*
G01*
X150378756Y-86184682D02*
G75*
G02*
X150524000Y-86868000I-1534756J-683318D01*
G01*
X150524253Y-86839195D02*
G75*
G02*
X150379000Y-87552000I-1680254J-28806D01*
G01*
X150524000Y-81788000D02*
G75*
G02*
X147164000Y-81788000I-1680000J0D01*
G01*
X147164000Y-81788000D02*
G75*
G02*
X150524000Y-81788000I1680000J0D01*
G01*
%TO.C,T1*%
X83120000Y-48610000D02*
X83120000Y-137510000D01*
X83120000Y-56484000D02*
X133920000Y-56484000D01*
X83120000Y-124810000D02*
X133920000Y-124810000D01*
X83120000Y-137510000D02*
X133920000Y-137510000D01*
X90760000Y-131446000D02*
X126280000Y-131446000D01*
X90760000Y-135700000D02*
X90760000Y-131700000D01*
X93280000Y-131700000D02*
X93280000Y-135700000D01*
X126280000Y-131700000D02*
X126280000Y-135700000D01*
X126280000Y-135700000D02*
X90760000Y-135700000D01*
X133920000Y-48610000D02*
X83120000Y-48610000D01*
X133920000Y-137510000D02*
X133920000Y-48610000D01*
X88091051Y-129001000D02*
G75*
G02*
X84498949Y-129001000I-1796051J0D01*
G01*
X84498949Y-129001000D02*
G75*
G02*
X88091051Y-129001000I1796051J0D01*
G01*
X88472051Y-52420000D02*
G75*
G02*
X84879949Y-52420000I-1796051J0D01*
G01*
X84879949Y-52420000D02*
G75*
G02*
X88472051Y-52420000I1796051J0D01*
G01*
X132414051Y-52420000D02*
G75*
G02*
X128821949Y-52420000I-1796051J0D01*
G01*
X128821949Y-52420000D02*
G75*
G02*
X132414051Y-52420000I1796051J0D01*
G01*
X132541051Y-129001000D02*
G75*
G02*
X128948949Y-129001000I-1796051J0D01*
G01*
X128948949Y-129001000D02*
G75*
G02*
X132541051Y-129001000I1796051J0D01*
G01*
%TO.C,C7*%
X88713748Y-94665000D02*
X89236252Y-94665000D01*
X88713748Y-96135000D02*
X89236252Y-96135000D01*
%TO.C,J1*%
X136970000Y-51720000D02*
X136970000Y-56860000D01*
X136970000Y-51720000D02*
X139630000Y-51720000D01*
X136970000Y-56860000D02*
X139630000Y-56860000D01*
X138300000Y-49120000D02*
X139630000Y-49120000D01*
X139630000Y-49120000D02*
X139630000Y-50450000D01*
X139630000Y-51720000D02*
X139630000Y-56860000D01*
%TO.C,C6*%
X116109420Y-93015000D02*
X116390580Y-93015000D01*
X116109420Y-94035000D02*
X116390580Y-94035000D01*
%TO.C,R6*%
X135530000Y-61065000D02*
X135530000Y-64905000D01*
X137370000Y-61065000D02*
X137370000Y-64905000D01*
%TO.C,C1*%
X95785000Y-79001252D02*
X95785000Y-78478748D01*
X97255000Y-79001252D02*
X97255000Y-78478748D01*
%TO.C,TC1*%
X144396000Y-121357000D02*
X154317000Y-121357000D01*
X144396000Y-131637000D02*
X144396000Y-121357000D01*
X144396000Y-131637000D02*
X154317000Y-131637000D01*
X147356000Y-131637000D02*
X147356000Y-121357000D01*
X148382000Y-122887000D02*
X148418000Y-122922000D01*
X148588000Y-122682000D02*
X148634000Y-122729000D01*
X150680000Y-125184000D02*
X150726000Y-125231000D01*
X150896000Y-124991000D02*
X150931000Y-125026000D01*
X152257000Y-131637000D02*
X152257000Y-121357000D01*
X153757000Y-131637000D02*
X153757000Y-121357000D01*
X153817000Y-131877000D02*
X154557000Y-131877000D01*
X154317000Y-131637000D02*
X154317000Y-121357000D01*
X154557000Y-131877000D02*
X154557000Y-131377000D01*
X148121573Y-129720042D02*
G75*
G02*
X148122000Y-128353000I1535420J683041D01*
G01*
X148973958Y-127501573D02*
G75*
G02*
X150341000Y-127502000I683042J-1535427D01*
G01*
X150340042Y-130572427D02*
G75*
G02*
X148973000Y-130572000I-683041J1535420D01*
G01*
X151191756Y-128353682D02*
G75*
G02*
X151337000Y-129037000I-1534756J-683318D01*
G01*
X151337253Y-129008195D02*
G75*
G02*
X151192000Y-129721000I-1680254J-28806D01*
G01*
X151337000Y-123957000D02*
G75*
G02*
X147977000Y-123957000I-1680000J0D01*
G01*
X147977000Y-123957000D02*
G75*
G02*
X151337000Y-123957000I1680000J0D01*
G01*
%TO.C,R10*%
X116487258Y-90102500D02*
X116012742Y-90102500D01*
X116487258Y-91147500D02*
X116012742Y-91147500D01*
%TO.C,C5*%
X116259420Y-98315000D02*
X116540580Y-98315000D01*
X116259420Y-99335000D02*
X116540580Y-99335000D01*
%TO.C,D3*%
X100224000Y-68874000D02*
X106066000Y-68874000D01*
X99081000Y-67731000D02*
G75*
G02*
X106066000Y-68874000I4064000J2921000D01*
G01*
%TO.C,D4*%
X139414000Y-63890000D02*
X139570000Y-63890000D01*
X141730000Y-63890000D02*
X141886000Y-63890000D01*
X139414484Y-63890000D02*
G75*
G02*
X139571392Y-60657665I1235516J1560000D01*
G01*
X139570000Y-63370961D02*
G75*
G02*
X139570163Y-61288870I1080000J1040961D01*
G01*
X141728608Y-60657665D02*
G75*
G02*
X141885516Y-63890000I-1078608J-1672335D01*
G01*
X141729837Y-61288870D02*
G75*
G02*
X141730000Y-63370961I-1079837J-1041130D01*
G01*
D14*
%TO.C,U3*%
X84445000Y-100020000D02*
X91105000Y-100020000D01*
X84445000Y-102960000D02*
X84445000Y-100020000D01*
X91105000Y-100020000D02*
X91105000Y-102960000D01*
X91105000Y-102960000D02*
X84445000Y-102960000D01*
D15*
%TO.C,R9*%
X116612258Y-101302500D02*
X116137742Y-101302500D01*
X116612258Y-102347500D02*
X116137742Y-102347500D01*
%TO.C,R1*%
X143888000Y-91385000D02*
X153809000Y-91385000D01*
X143888000Y-101665000D02*
X143888000Y-91385000D01*
X143888000Y-101665000D02*
X153809000Y-101665000D01*
X146848000Y-101665000D02*
X146848000Y-91385000D01*
X147874000Y-92915000D02*
X147910000Y-92950000D01*
X148080000Y-92710000D02*
X148126000Y-92757000D01*
X150172000Y-95212000D02*
X150218000Y-95259000D01*
X150388000Y-95019000D02*
X150423000Y-95054000D01*
X151749000Y-101665000D02*
X151749000Y-91385000D01*
X153249000Y-101665000D02*
X153249000Y-91385000D01*
X153309000Y-101905000D02*
X154049000Y-101905000D01*
X153809000Y-101665000D02*
X153809000Y-91385000D01*
X154049000Y-101905000D02*
X154049000Y-101405000D01*
X147613573Y-99748042D02*
G75*
G02*
X147614000Y-98381000I1535420J683041D01*
G01*
X148465958Y-97529573D02*
G75*
G02*
X149833000Y-97530000I683042J-1535427D01*
G01*
X149832042Y-100600427D02*
G75*
G02*
X148465000Y-100600000I-683041J1535420D01*
G01*
X150683756Y-98381682D02*
G75*
G02*
X150829000Y-99065000I-1534756J-683318D01*
G01*
X150829253Y-99036195D02*
G75*
G02*
X150684000Y-99749000I-1680254J-28806D01*
G01*
X150829000Y-93985000D02*
G75*
G02*
X147469000Y-93985000I-1680000J0D01*
G01*
X147469000Y-93985000D02*
G75*
G02*
X150829000Y-93985000I1680000J0D01*
G01*
D14*
%TO.C,U2*%
X101096000Y-76210000D02*
X104136000Y-76210000D01*
X101096000Y-81270000D02*
X101096000Y-76210000D01*
X104136000Y-76210000D02*
X104136000Y-81270000D01*
X104136000Y-81270000D02*
X101096000Y-81270000D01*
D12*
X99996000Y-76090000D02*
G75*
G02*
X99696000Y-76090000I-150000J0D01*
G01*
X99696000Y-76090000D02*
G75*
G02*
X99996000Y-76090000I150000J0D01*
G01*
X101996000Y-76830000D02*
G75*
G02*
X101696000Y-76830000I-150000J0D01*
G01*
X101696000Y-76830000D02*
G75*
G02*
X101996000Y-76830000I150000J0D01*
G01*
D14*
%TO.C,B2*%
X118185000Y-89745000D02*
X118185000Y-93805000D01*
X118185000Y-93805000D02*
X118845000Y-93805000D01*
X118865000Y-89745000D02*
X118185000Y-89745000D01*
X121265000Y-89745000D02*
X120585000Y-89745000D01*
X121265000Y-89745000D02*
X121265000Y-93805000D01*
X121265000Y-93805000D02*
X120605000Y-93805000D01*
D11*
X120525000Y-91775000D02*
G75*
G02*
X118925000Y-91775000I-800000J0D01*
G01*
X118925000Y-91775000D02*
G75*
G02*
X120525000Y-91775000I800000J0D01*
G01*
D13*
%TO.C,U1*%
X86795000Y-83905000D02*
X86795000Y-101905000D01*
X86795000Y-83905000D02*
X93255000Y-83905000D01*
X86795000Y-101905000D02*
X93245000Y-101905000D01*
X93075000Y-83905000D02*
X93075000Y-101905000D01*
X93075000Y-101905000D02*
X93585000Y-101905000D01*
X93585000Y-83885000D02*
X93075000Y-83885000D01*
X111455000Y-101905000D02*
X112295000Y-101905000D01*
X112295000Y-83885000D02*
X111455000Y-83885000D01*
X112295000Y-86505000D02*
X112295000Y-83885000D01*
X112295000Y-101905000D02*
X112295000Y-99305000D01*
D14*
%TO.C,B1*%
X118560000Y-98620000D02*
X119220000Y-98620000D01*
X118560000Y-102680000D02*
X118560000Y-98620000D01*
X118560000Y-102680000D02*
X119240000Y-102680000D01*
X120960000Y-102680000D02*
X121640000Y-102680000D01*
X121640000Y-98620000D02*
X120980000Y-98620000D01*
X121640000Y-102680000D02*
X121640000Y-98620000D01*
D11*
X120900000Y-100650000D02*
G75*
G02*
X119300000Y-100650000I-800000J0D01*
G01*
X119300000Y-100650000D02*
G75*
G02*
X120900000Y-100650000I800000J0D01*
G01*
D15*
%TO.C,D1*%
X142544000Y-104018000D02*
X142544000Y-119918000D01*
X142544000Y-119918000D02*
X155144000Y-119918000D01*
X147344000Y-104518000D02*
X147594000Y-104018000D01*
X147594000Y-104018000D02*
X142544000Y-104018000D01*
X152494000Y-104018000D02*
X152744000Y-104518000D01*
X152744000Y-104518000D02*
X147344000Y-104518000D01*
X154194000Y-104518000D02*
X154494000Y-104018000D01*
X154494000Y-104018000D02*
X152494000Y-104018000D01*
X155144000Y-104518000D02*
X154194000Y-104518000D01*
X155144000Y-119918000D02*
X155144000Y-104518000D01*
%TD*%
M02*
