%TF.GenerationSoftware,KiCad,Pcbnew,8.0.4*%
%TF.CreationDate,2024-09-26T20:40:34-05:00*%
%TF.ProjectId,solder_oven_PCB,736f6c64-6572-45f6-9f76-656e5f504342,rev?*%
%TF.SameCoordinates,Original*%
%TF.FileFunction,Soldermask,Top*%
%TF.FilePolarity,Negative*%
%FSLAX46Y46*%
G04 Gerber Fmt 4.6, Leading zero omitted, Abs format (unit mm)*
G04 Created by KiCad (PCBNEW 8.0.4) date 2024-09-26 20:40:34*
%MOMM*%
%LPD*%
G01*
G04 APERTURE LIST*
G04 Aperture macros list*
%AMRoundRect*
0 Rectangle with rounded corners*
0 $1 Rounding radius*
0 $2 $3 $4 $5 $6 $7 $8 $9 X,Y pos of 4 corners*
0 Add a 4 corners polygon primitive as box body*
4,1,4,$2,$3,$4,$5,$6,$7,$8,$9,$2,$3,0*
0 Add four circle primitives for the rounded corners*
1,1,$1+$1,$2,$3*
1,1,$1+$1,$4,$5*
1,1,$1+$1,$6,$7*
1,1,$1+$1,$8,$9*
0 Add four rect primitives between the rounded corners*
20,1,$1+$1,$2,$3,$4,$5,0*
20,1,$1+$1,$4,$5,$6,$7,0*
20,1,$1+$1,$6,$7,$8,$9,0*
20,1,$1+$1,$8,$9,$2,$3,0*%
G04 Aperture macros list end*
%ADD10C,5.600000*%
%ADD11R,2.600000X2.600000*%
%ADD12C,2.600000*%
%ADD13R,1.700000X1.700000*%
%ADD14O,1.700000X1.700000*%
%ADD15RoundRect,0.225000X-0.225000X-0.250000X0.225000X-0.250000X0.225000X0.250000X-0.225000X0.250000X0*%
%ADD16C,1.400000*%
%ADD17O,1.400000X1.400000*%
%ADD18RoundRect,0.250000X-0.475000X0.250000X-0.475000X-0.250000X0.475000X-0.250000X0.475000X0.250000X0*%
%ADD19RoundRect,0.200000X0.200000X0.275000X-0.200000X0.275000X-0.200000X-0.275000X0.200000X-0.275000X0*%
%ADD20O,3.000000X1.500000*%
%ADD21R,2.000000X2.000000*%
%ADD22O,2.000000X2.000000*%
%ADD23R,1.800000X1.800000*%
%ADD24C,1.800000*%
%ADD25C,1.600000*%
%ADD26O,2.050000X0.590000*%
%ADD27R,1.500000X1.230000*%
%ADD28R,2.100000X0.950000*%
%ADD29R,0.950000X2.100000*%
%ADD30R,0.900000X0.900000*%
%ADD31O,1.980000X3.960000*%
%ADD32R,1.980000X3.960000*%
%ADD33R,1.600000X1.600000*%
%ADD34O,1.600000X1.600000*%
%ADD35C,2.000000*%
%ADD36R,3.048000X3.048000*%
%ADD37C,3.048000*%
G04 APERTURE END LIST*
D10*
%TO.C,H3*%
X57450000Y-123913000D03*
%TD*%
D11*
%TO.C,P1*%
X133930000Y-123068000D03*
D12*
X139010000Y-123068000D03*
%TD*%
D13*
%TO.C,J1*%
X117545000Y-55070000D03*
D14*
X115005000Y-55070000D03*
X112465000Y-55070000D03*
%TD*%
D10*
%TO.C,H2*%
X150125000Y-123488000D03*
%TD*%
D15*
%TO.C,C6*%
X96425000Y-96613000D03*
X97975000Y-96613000D03*
%TD*%
D16*
%TO.C,R6*%
X120400000Y-120900000D03*
D17*
X115320000Y-120900000D03*
%TD*%
D18*
%TO.C,C1*%
X104800000Y-81300000D03*
X104800000Y-83200000D03*
%TD*%
D11*
%TO.C,TC1*%
X69627500Y-122656500D03*
D12*
X74707500Y-122656500D03*
%TD*%
D10*
%TO.C,H4*%
X57300000Y-51888000D03*
%TD*%
D19*
%TO.C,R10*%
X98025000Y-93713000D03*
X96375000Y-93713000D03*
%TD*%
D15*
%TO.C,C5*%
X69350000Y-93788000D03*
X70900000Y-93788000D03*
%TD*%
D20*
%TO.C,T1*%
X63385000Y-65403000D03*
X63385000Y-67943000D03*
X63385000Y-70483000D03*
X63385000Y-73023000D03*
X63385000Y-75563000D03*
X63385000Y-78103000D03*
X63385000Y-80643000D03*
X63385000Y-83183000D03*
X63385000Y-85723000D03*
X63385000Y-88263000D03*
X63385000Y-90803000D03*
X63385000Y-93343000D03*
X63385000Y-95883000D03*
X63385000Y-98423000D03*
%TD*%
D21*
%TO.C,D3*%
X121230000Y-104938000D03*
D22*
X126310000Y-104938000D03*
X126310000Y-99858000D03*
X121230000Y-99858000D03*
%TD*%
D23*
%TO.C,D4*%
X127175000Y-120800000D03*
D24*
X124635000Y-120800000D03*
%TD*%
D19*
%TO.C,R9*%
X70925000Y-96788000D03*
X69275000Y-96788000D03*
%TD*%
D25*
%TO.C,C8*%
X108800000Y-110900000D03*
X111300000Y-110900000D03*
%TD*%
D11*
%TO.C,R1*%
X85580000Y-123068000D03*
D12*
X90660000Y-123068000D03*
%TD*%
D26*
%TO.C,U2*%
X101970000Y-84560000D03*
X101970000Y-83280000D03*
X101970000Y-82020000D03*
X101970000Y-80750000D03*
X96430000Y-80750000D03*
X96430000Y-82020000D03*
X96430000Y-83280000D03*
X96430000Y-84560000D03*
%TD*%
D10*
%TO.C,H1*%
X150125000Y-51888000D03*
%TD*%
D27*
%TO.C,B2*%
X93325000Y-97613000D03*
X93325000Y-93013000D03*
%TD*%
D28*
%TO.C,U1*%
X74525000Y-72003000D03*
X74525000Y-73273000D03*
X74525000Y-74543000D03*
X74525000Y-75813000D03*
X74525000Y-77083000D03*
X74525000Y-78353000D03*
X74525000Y-79623000D03*
X74525000Y-80893000D03*
X74525000Y-82163000D03*
X74525000Y-83433000D03*
X74525000Y-84703000D03*
X74525000Y-85973000D03*
X74525000Y-87243000D03*
X74525000Y-88513000D03*
D29*
X77815000Y-90003000D03*
X79085000Y-90003000D03*
X80355000Y-90003000D03*
X81625000Y-90003000D03*
X82895000Y-90003000D03*
X84165000Y-90003000D03*
X85435000Y-90003000D03*
X86705000Y-90003000D03*
X87975000Y-90003000D03*
X89245000Y-90003000D03*
D28*
X92525000Y-88513000D03*
X92525000Y-87243000D03*
X92525000Y-85973000D03*
X92525000Y-84703000D03*
X92525000Y-83433000D03*
X92525000Y-82163000D03*
X92525000Y-80893000D03*
X92525000Y-79623000D03*
X92525000Y-78353000D03*
X92525000Y-77083000D03*
X92525000Y-75813000D03*
X92525000Y-74543000D03*
X92525000Y-73273000D03*
X92525000Y-72003000D03*
D30*
X83425000Y-78283000D03*
X82025000Y-78283000D03*
X80625000Y-78283000D03*
X83425000Y-79683000D03*
X82025000Y-79683000D03*
X80625000Y-79683000D03*
X83425000Y-81083000D03*
X82025000Y-81083000D03*
X80625000Y-81083000D03*
%TD*%
D16*
%TO.C,R12*%
X108250000Y-107300000D03*
D17*
X113330000Y-107300000D03*
%TD*%
D27*
%TO.C,B1*%
X73825000Y-93313000D03*
X73825000Y-97913000D03*
%TD*%
D31*
%TO.C,D1*%
X108730000Y-122388000D03*
X103730000Y-122388000D03*
D32*
X98730000Y-122388000D03*
%TD*%
D33*
%TO.C,U7*%
X78385000Y-101840000D03*
D25*
X80925000Y-101840000D03*
X83465000Y-101840000D03*
X86005000Y-101840000D03*
X88545000Y-101840000D03*
X91085000Y-101840000D03*
X93625000Y-101840000D03*
X96165000Y-101840000D03*
X96165000Y-109460000D03*
X93625000Y-109460000D03*
X91085000Y-109460000D03*
X88545000Y-109460000D03*
X86005000Y-109460000D03*
X83465000Y-109460000D03*
X80925000Y-109460000D03*
X78385000Y-109460000D03*
%TD*%
D33*
%TO.C,U5*%
X109095000Y-94420000D03*
D34*
X109095000Y-96960000D03*
X109095000Y-99500000D03*
X101475000Y-99500000D03*
X101475000Y-96960000D03*
X101475000Y-94420000D03*
%TD*%
D21*
%TO.C,C2*%
X121925000Y-111445323D03*
D35*
X121925000Y-115245323D03*
%TD*%
D16*
%TO.C,R11*%
X106715000Y-90150000D03*
D17*
X101635000Y-90150000D03*
%TD*%
D36*
%TO.C,T2*%
X142089000Y-71161000D03*
D37*
X137009000Y-71161000D03*
X126849000Y-71161000D03*
X121769000Y-71161000D03*
X121769000Y-91481000D03*
X126849000Y-91481000D03*
X137009000Y-91481000D03*
X142089000Y-91481000D03*
%TD*%
D16*
%TO.C,R2*%
X114390000Y-90200000D03*
D17*
X109310000Y-90200000D03*
%TD*%
D33*
%TO.C,U4*%
X139700000Y-101000000D03*
D34*
X139700000Y-103540000D03*
X139700000Y-106080000D03*
X132080000Y-106080000D03*
X132080000Y-103540000D03*
X132080000Y-101000000D03*
%TD*%
D16*
%TO.C,R8*%
X101975000Y-61875000D03*
D17*
X96895000Y-61875000D03*
%TD*%
D16*
%TO.C,R5*%
X148200000Y-110175000D03*
D17*
X143120000Y-110175000D03*
%TD*%
D23*
%TO.C,D2*%
X111850000Y-98650000D03*
D24*
X114390000Y-98650000D03*
%TD*%
D16*
%TO.C,R3*%
X133400000Y-97300000D03*
D17*
X138480000Y-97300000D03*
%TD*%
D16*
%TO.C,R4*%
X138615000Y-110175000D03*
D17*
X133535000Y-110175000D03*
%TD*%
D16*
%TO.C,R7*%
X96995000Y-65375000D03*
D17*
X102075000Y-65375000D03*
%TD*%
M02*
