M48
; DRILL file {KiCad 8.0.3} date 2024-08-31T20:41:31-0500
; FORMAT={-:-/ absolute / inch / decimal}
; #@! TF.CreationDate,2024-08-31T20:41:31-05:00
; #@! TF.GenerationSoftware,Kicad,Pcbnew,8.0.3
; #@! TF.FileFunction,Plated,1,2,PTH
FMAT,2
INCH
; #@! TA.AperFunction,Plated,PTH,ViaDrill
T1C0.0100
; #@! TA.AperFunction,Plated,PTH,ComponentDrill
T2C0.0276
; #@! TA.AperFunction,Plated,PTH,ComponentDrill
T3C0.0315
; #@! TA.AperFunction,Plated,PTH,ComponentDrill
T4C0.0354
; #@! TA.AperFunction,Plated,PTH,ComponentDrill
T5C0.0354
; #@! TA.AperFunction,Plated,PTH,ComponentDrill
T6C0.0394
; #@! TA.AperFunction,Plated,PTH,ComponentDrill
T7C0.0500
; #@! TA.AperFunction,Plated,PTH,ComponentDrill
T8C0.0512
; #@! TA.AperFunction,Plated,PTH,ComponentDrill
T9C0.0520
; #@! TA.AperFunction,Plated,PTH,ComponentDrill
T10C0.1260
%
G90
G05
T1
X3.36Y-3.48
X3.37Y-4.01
X3.44Y-4.33
X3.45Y-4.94
X3.48Y-5.27
X3.5Y-3.35
X3.5Y-5.41
X3.52Y-4.21
X3.54Y-5.2
X3.54Y-5.37
X3.55Y-5.07
X3.57Y-3.42
X3.57Y-4.07
X3.58Y-3.26
X3.59Y-3.48
X3.59Y-5.1
X3.6Y-4.22
X3.601Y-3.838
X3.62Y-3.37
X3.63Y-4.07
X3.65Y-4.23
X3.67Y-3.36
X3.68Y-4.17
X3.69Y-4.08
X3.75Y-5.03
X3.77Y-3.91
X3.79Y-4.17
X3.83Y-3.89
X3.91Y-4.08
X3.94Y-2.76
X3.96Y-3.55
X3.96Y-3.6
X3.96Y-3.66
X3.96Y-3.72
X3.96Y-3.77
X3.96Y-4.1
X3.96Y-4.64
X3.97Y-2.98
X4.02Y-3.55
X4.02Y-3.6
X4.02Y-3.66
X4.02Y-3.72
X4.02Y-3.77
X4.04Y-5.03
X4.06Y-4.41
X4.07Y-3.66
X4.07Y-3.72
X4.07Y-3.78
X4.08Y-2.78
X4.08Y-3.55
X4.08Y-3.6
X4.1Y-4.62
X4.11Y-4.09
X4.15Y-3.55
X4.15Y-3.59
X4.15Y-3.64
X4.15Y-3.68
X4.15Y-3.73
X4.15Y-3.78
X4.15Y-4.09
X4.16Y-4.45
X4.17Y-3.42
X4.18Y-5.07
X4.2Y-3.55
X4.2Y-3.59
X4.2Y-3.64
X4.2Y-3.68
X4.2Y-3.73
X4.2Y-3.78
X4.25Y-3.55
X4.25Y-3.59
X4.25Y-3.64
X4.25Y-3.68
X4.25Y-3.73
X4.25Y-3.78
X4.27Y-4.45
X4.28Y-3.21
X4.31Y-4.86
X4.34Y-3.66
X4.35Y-3.07
X4.36Y-4.15
X4.36Y-4.7
X4.37Y-3.21
X4.37Y-4.44
X4.38Y-4.26
X4.38Y-4.97
X4.38Y-5.12
X4.46Y-5.12
X4.498Y-3.4795
X4.51Y-3.43
X4.6Y-2.54
X4.72Y-1.9
X4.73Y-3.64
X4.75Y-1.81
X4.78Y-3.94
X4.8Y-3.61
X4.84Y-3.84
X4.863Y-2.737
X4.92Y-3.08
X4.92Y-3.28
X4.95Y-1.95
X4.986Y-2.867
X4.989Y-3.065
X4.99Y-3.32
X5.01Y-1.87
X5.07Y-3.4
X5.07Y-3.59
X5.09Y-3.5
X5.16Y-2.54
X5.23Y-3.56
X5.23Y-3.82
X5.24Y-4.23
X5.24Y-4.38
X5.24Y-4.79
X5.24Y-4.98
X5.29Y-4.23
X5.29Y-4.39
X5.3Y-4.73
X5.31Y-4.9
X5.36Y-4.23
X5.36Y-4.41
X5.36Y-4.68
X5.45Y-4.87
X5.46Y-4.32
X5.48Y-4.64
X5.62Y-4.32
X5.66Y-4.64
T2
X3.88Y-4.14
X4.0469Y-4.2783
X4.0469Y-4.4783
X4.08Y-4.14
X4.2024Y-4.5531
X4.4024Y-4.5531
X4.611Y-3.209
X4.611Y-3.409
X4.6378Y-4.5531
X4.6457Y-4.1831
X4.779Y-3.148
X4.779Y-3.348
X4.8378Y-4.5531
X4.8457Y-4.1831
X5.372Y-2.3797
X5.372Y-2.5797
T3
X3.6224Y-5.2638
X3.7224Y-5.2638
X3.8224Y-5.2638
X3.9224Y-5.2638
X4.0224Y-5.2638
X4.1224Y-5.2638
X4.2016Y-4.1821
X4.2016Y-4.2821
X4.2016Y-4.3821
X4.2016Y-4.753
X4.2016Y-4.853
X4.2016Y-4.953
X4.2224Y-5.2638
X4.3224Y-5.2638
X4.4224Y-5.2638
X4.5016Y-4.1821
X4.5016Y-4.2821
X4.5016Y-4.3821
X4.5016Y-4.753
X4.5016Y-4.853
X4.5016Y-4.953
X4.5224Y-5.2638
X4.6224Y-5.2638
X4.7224Y-5.2638
X4.8224Y-5.2638
X4.9224Y-5.2638
T4
X4.6994Y-4.7461
X4.7994Y-4.7461
X5.5374Y-2.4039
X5.5374Y-2.5039
T5
X3.5425Y-4.276
X3.5425Y-4.376
X3.5425Y-4.476
X3.5425Y-4.576
X3.5425Y-4.676
X3.5425Y-4.776
X3.5425Y-4.876
X3.5425Y-4.976
X3.8425Y-4.276
X3.8425Y-4.376
X3.8425Y-4.476
X3.8425Y-4.576
X3.8425Y-4.676
X3.8425Y-4.776
X3.8425Y-4.876
X3.8425Y-4.976
T6
X3.9608Y-2.4516
X3.9608Y-2.6516
X4.1608Y-2.4516
X4.1608Y-2.6516
X5.436Y-2.8593
X5.4449Y-1.9862
X5.4449Y-2.0862
X5.4449Y-2.1862
X5.5856Y-2.8593
T7
X3.9768Y-2.0822
X3.9768Y-2.8822
X4.1768Y-2.0822
X4.1768Y-2.8822
X4.5768Y-2.0822
X4.5768Y-2.8822
X4.7768Y-2.0822
X4.7768Y-2.8822
T8
X5.86Y-3.22
X5.86Y-3.42
X5.872Y-3.7002
X5.872Y-3.9002
X5.892Y-4.8802
X5.892Y-5.0802
T9
X5.86Y-4.2231
X5.86Y-4.42
X5.86Y-4.6169
T10
X3.0974Y-1.748
X3.0974Y-5.4026
X5.9163Y-1.748
X5.9331Y-5.3967
M30
