%TF.GenerationSoftware,KiCad,Pcbnew,8.0.4*%
%TF.CreationDate,2024-09-26T20:40:34-05:00*%
%TF.ProjectId,solder_oven_PCB,736f6c64-6572-45f6-9f76-656e5f504342,rev?*%
%TF.SameCoordinates,Original*%
%TF.FileFunction,Copper,L3,Inr*%
%TF.FilePolarity,Positive*%
%FSLAX46Y46*%
G04 Gerber Fmt 4.6, Leading zero omitted, Abs format (unit mm)*
G04 Created by KiCad (PCBNEW 8.0.4) date 2024-09-26 20:40:34*
%MOMM*%
%LPD*%
G01*
G04 APERTURE LIST*
%TA.AperFunction,ComponentPad*%
%ADD10C,5.600000*%
%TD*%
%TA.AperFunction,ComponentPad*%
%ADD11R,2.600000X2.600000*%
%TD*%
%TA.AperFunction,ComponentPad*%
%ADD12C,2.600000*%
%TD*%
%TA.AperFunction,ComponentPad*%
%ADD13R,1.700000X1.700000*%
%TD*%
%TA.AperFunction,ComponentPad*%
%ADD14O,1.700000X1.700000*%
%TD*%
%TA.AperFunction,ComponentPad*%
%ADD15C,1.400000*%
%TD*%
%TA.AperFunction,ComponentPad*%
%ADD16O,1.400000X1.400000*%
%TD*%
%TA.AperFunction,ComponentPad*%
%ADD17O,3.000000X1.500000*%
%TD*%
%TA.AperFunction,ComponentPad*%
%ADD18R,2.000000X2.000000*%
%TD*%
%TA.AperFunction,ComponentPad*%
%ADD19O,2.000000X2.000000*%
%TD*%
%TA.AperFunction,ComponentPad*%
%ADD20R,1.800000X1.800000*%
%TD*%
%TA.AperFunction,ComponentPad*%
%ADD21C,1.800000*%
%TD*%
%TA.AperFunction,ComponentPad*%
%ADD22C,1.600000*%
%TD*%
%TA.AperFunction,ComponentPad*%
%ADD23O,1.980000X3.960000*%
%TD*%
%TA.AperFunction,ComponentPad*%
%ADD24R,1.980000X3.960000*%
%TD*%
%TA.AperFunction,ComponentPad*%
%ADD25R,1.600000X1.600000*%
%TD*%
%TA.AperFunction,ComponentPad*%
%ADD26O,1.600000X1.600000*%
%TD*%
%TA.AperFunction,ComponentPad*%
%ADD27C,2.000000*%
%TD*%
%TA.AperFunction,ComponentPad*%
%ADD28R,3.048000X3.048000*%
%TD*%
%TA.AperFunction,ComponentPad*%
%ADD29C,3.048000*%
%TD*%
%TA.AperFunction,ViaPad*%
%ADD30C,0.508000*%
%TD*%
%TA.AperFunction,ViaPad*%
%ADD31C,0.600000*%
%TD*%
%TA.AperFunction,ViaPad*%
%ADD32C,1.524000*%
%TD*%
G04 APERTURE END LIST*
D10*
%TO.N,GND*%
%TO.C,H3*%
X57450000Y-123913000D03*
%TD*%
D11*
%TO.N,Fase*%
%TO.C,P1*%
X133930000Y-123068000D03*
D12*
%TO.N,Neutro*%
X139010000Y-123068000D03*
%TD*%
D13*
%TO.N,/esp32/Tx*%
%TO.C,J1*%
X117545000Y-55070000D03*
D14*
%TO.N,/esp32/Rx*%
X115005000Y-55070000D03*
%TO.N,GND*%
X112465000Y-55070000D03*
%TD*%
D10*
%TO.N,GND*%
%TO.C,H2*%
X150125000Y-123488000D03*
%TD*%
D15*
%TO.N,Net-(D4-A)*%
%TO.C,R6*%
X120400000Y-120900000D03*
D16*
%TO.N,+12v*%
X115320000Y-120900000D03*
%TD*%
D11*
%TO.N,Net-(TC1-+)*%
%TO.C,TC1*%
X69627500Y-122656500D03*
D12*
%TO.N,GND*%
X74707500Y-122656500D03*
%TD*%
D10*
%TO.N,GND*%
%TO.C,H4*%
X57300000Y-51888000D03*
%TD*%
D17*
%TO.N,+5V*%
%TO.C,T1*%
X63385000Y-65403000D03*
%TO.N,GND*%
X63385000Y-67943000D03*
%TO.N,/esp32/CS*%
X63385000Y-70483000D03*
%TO.N,/esp32/RST*%
X63385000Y-73023000D03*
%TO.N,/esp32/D{slash}C*%
X63385000Y-75563000D03*
%TO.N,/esp32/MOSI*%
X63385000Y-78103000D03*
%TO.N,/esp32/CLK*%
X63385000Y-80643000D03*
%TO.N,/esp32/LED*%
X63385000Y-83183000D03*
%TO.N,/esp32/MISO*%
X63385000Y-85723000D03*
%TO.N,/esp32/T_CLK*%
X63385000Y-88263000D03*
%TO.N,/esp32/T_CS*%
X63385000Y-90803000D03*
%TO.N,/esp32/T_DIN*%
X63385000Y-93343000D03*
%TO.N,/esp32/T_DO*%
X63385000Y-95883000D03*
%TO.N,/esp32/T_IRQ*%
X63385000Y-98423000D03*
%TD*%
D18*
%TO.N,+12v*%
%TO.C,D3*%
X121230000Y-104938000D03*
D19*
%TO.N,12_{NN}*%
X126310000Y-104938000D03*
%TO.N,GND*%
X126310000Y-99858000D03*
%TO.N,12_{V_{ac}}*%
X121230000Y-99858000D03*
%TD*%
D20*
%TO.N,GND*%
%TO.C,D4*%
X127175000Y-120800000D03*
D21*
%TO.N,Net-(D4-A)*%
X124635000Y-120800000D03*
%TD*%
D22*
%TO.N,/modules/shot*%
%TO.C,C8*%
X108800000Y-110900000D03*
%TO.N,Net-(D1-A1)*%
X111300000Y-110900000D03*
%TD*%
D11*
%TO.N,Net-(D1-A1)*%
%TO.C,R1*%
X85580000Y-123068000D03*
D12*
%TO.N,Neutro*%
X90660000Y-123068000D03*
%TD*%
D10*
%TO.N,GND*%
%TO.C,H1*%
X150125000Y-51888000D03*
%TD*%
D15*
%TO.N,/modules/shot*%
%TO.C,R12*%
X108250000Y-107300000D03*
D16*
%TO.N,Net-(D1-A1)*%
X113330000Y-107300000D03*
%TD*%
D23*
%TO.N,Net-(D1-A1)*%
%TO.C,D1*%
X108730000Y-122388000D03*
%TO.N,Fase*%
X103730000Y-122388000D03*
D24*
%TO.N,/modules/shot*%
X98730000Y-122388000D03*
%TD*%
D25*
%TO.N,+3.3V*%
%TO.C,U7*%
X78385000Y-101840000D03*
D22*
%TO.N,Net-(U7-B)*%
X80925000Y-101840000D03*
%TO.N,Net-(U7-A)*%
X83465000Y-101840000D03*
%TO.N,/Zero_Cross*%
X86005000Y-101840000D03*
%TO.N,Net-(U7-B)*%
X88545000Y-101840000D03*
%TO.N,unconnected-(U7-NotC-Pad6)*%
X91085000Y-101840000D03*
%TO.N,unconnected-(U7-C-Pad7)*%
X93625000Y-101840000D03*
%TO.N,GND*%
X96165000Y-101840000D03*
%TO.N,unconnected-(U7-D-Pad9)*%
X96165000Y-109460000D03*
%TO.N,unconnected-(U7-NotD-Pad10)*%
X93625000Y-109460000D03*
%TO.N,unconnected-(U7-E-Pad11)*%
X91085000Y-109460000D03*
%TO.N,unconnected-(U7-NotE-Pad12)*%
X88545000Y-109460000D03*
%TO.N,unconnected-(U7-NC-Pad13)*%
X86005000Y-109460000D03*
%TO.N,unconnected-(U7-F-Pad14)*%
X83465000Y-109460000D03*
%TO.N,unconnected-(U7-NotF-Pad15)*%
X80925000Y-109460000D03*
%TO.N,+3.3V*%
X78385000Y-109460000D03*
%TD*%
D25*
%TO.N,Net-(D2-K)*%
%TO.C,U5*%
X109095000Y-94420000D03*
D26*
%TO.N,GND*%
X109095000Y-96960000D03*
%TO.N,unconnected-(U5-NC-Pad3)*%
X109095000Y-99500000D03*
%TO.N,/modules/shot*%
X101475000Y-99500000D03*
%TO.N,unconnected-(U5-NC-Pad5)*%
X101475000Y-96960000D03*
%TO.N,Net-(R11-Pad2)*%
X101475000Y-94420000D03*
%TD*%
D18*
%TO.N,+12v*%
%TO.C,C2*%
X121925000Y-111445323D03*
D27*
%TO.N,GND*%
X121925000Y-115245323D03*
%TD*%
D15*
%TO.N,Fase*%
%TO.C,R11*%
X106715000Y-90150000D03*
D16*
%TO.N,Net-(R11-Pad2)*%
X101635000Y-90150000D03*
%TD*%
D28*
%TO.N,Fase*%
%TO.C,T2*%
X142089000Y-71161000D03*
D29*
%TO.N,unconnected-(T2-Pad2)*%
X137009000Y-71161000D03*
%TO.N,unconnected-(T2-NC-Pad3)*%
X126849000Y-71161000D03*
%TO.N,Neutro*%
X121769000Y-71161000D03*
%TO.N,12_{V_{ac}}*%
X121769000Y-91481000D03*
%TO.N,12_{NN}*%
X126849000Y-91481000D03*
%TO.N,unconnected-(T2-Pad9)*%
X137009000Y-91481000D03*
%TO.N,unconnected-(T2-Pad10)*%
X142089000Y-91481000D03*
%TD*%
D15*
%TO.N,Net-(D2-A)*%
%TO.C,R2*%
X114390000Y-90200000D03*
D16*
%TO.N,/trigger_Gate*%
X109310000Y-90200000D03*
%TD*%
D25*
%TO.N,Net-(R3-Pad2)*%
%TO.C,U4*%
X139700000Y-101000000D03*
D26*
%TO.N,12_{NN}*%
X139700000Y-103540000D03*
%TO.N,unconnected-(U4-NC-Pad3)*%
X139700000Y-106080000D03*
%TO.N,GND*%
X132080000Y-106080000D03*
%TO.N,Net-(U7-A)*%
X132080000Y-103540000D03*
%TO.N,Net-(R4-Pad1)*%
X132080000Y-101000000D03*
%TD*%
D15*
%TO.N,GND*%
%TO.C,R8*%
X101975000Y-61875000D03*
D16*
%TO.N,Net-(U6-FB)*%
X96895000Y-61875000D03*
%TD*%
D15*
%TO.N,+3.3V*%
%TO.C,R5*%
X148200000Y-110175000D03*
D16*
%TO.N,Net-(U7-A)*%
X143120000Y-110175000D03*
%TD*%
D20*
%TO.N,Net-(D2-K)*%
%TO.C,D2*%
X111850000Y-98650000D03*
D21*
%TO.N,Net-(D2-A)*%
X114390000Y-98650000D03*
%TD*%
D15*
%TO.N,12_{V_{ac}}*%
%TO.C,R3*%
X133400000Y-97300000D03*
D16*
%TO.N,Net-(R3-Pad2)*%
X138480000Y-97300000D03*
%TD*%
D15*
%TO.N,Net-(R4-Pad1)*%
%TO.C,R4*%
X138615000Y-110175000D03*
D16*
%TO.N,GND*%
X133535000Y-110175000D03*
%TD*%
D15*
%TO.N,Net-(U6-FB)*%
%TO.C,R7*%
X96995000Y-65375000D03*
D16*
%TO.N,+5V*%
X102075000Y-65375000D03*
%TD*%
D30*
%TO.N,/esp32/EN*%
X71900000Y-90500000D03*
X78100000Y-74400000D03*
%TO.N,GND*%
X104013000Y-84455000D03*
X83413600Y-81178400D03*
X71882000Y-72009000D03*
X89154000Y-69088000D03*
X83439000Y-83693000D03*
X85344000Y-79629000D03*
X97663000Y-99314000D03*
X72390000Y-54610000D03*
X85344000Y-83693000D03*
X83312000Y-79756000D03*
X82042000Y-79756000D03*
X103505000Y-85598000D03*
X72263000Y-62484000D03*
X75184000Y-93218000D03*
X83400000Y-78300000D03*
X89154000Y-63754000D03*
X81915000Y-83566000D03*
X81940400Y-81127600D03*
X84074000Y-67183000D03*
X80391000Y-83566000D03*
X80594200Y-81127600D03*
X91694000Y-98552000D03*
X80518000Y-79756000D03*
X77851000Y-87884000D03*
X106172000Y-55499000D03*
X97917000Y-95250000D03*
X104902000Y-53213000D03*
X106299000Y-83312000D03*
X104648000Y-56896000D03*
X72136000Y-93218000D03*
X70866000Y-61595000D03*
X93472000Y-99060000D03*
X73787000Y-91694000D03*
X92075000Y-69977000D03*
X70866000Y-55245000D03*
X85344000Y-81153000D03*
X85344000Y-78105000D03*
X78867000Y-92456000D03*
X95123000Y-98933000D03*
X82000000Y-78300000D03*
X80600000Y-78300000D03*
%TO.N,+3.3V*%
X96100000Y-91200000D03*
X92900000Y-91200000D03*
X104000000Y-77500000D03*
X73500000Y-95100000D03*
X104100000Y-70000000D03*
X74400000Y-52900000D03*
X79700000Y-66100000D03*
X78100000Y-95100000D03*
X77800000Y-71900000D03*
%TO.N,+12v*%
X113100000Y-69300000D03*
%TO.N,+5V*%
X67900000Y-51700000D03*
D31*
%TO.N,/modules/shot*%
X101500000Y-103600000D03*
X101500000Y-106800000D03*
D32*
%TO.N,12_{V_{ac}}*%
X125984000Y-95631000D03*
X131318000Y-95631000D03*
D30*
%TO.N,/esp32/Tx*%
X95300000Y-76900000D03*
X97400000Y-75600000D03*
%TO.N,/esp32/Rx*%
X94600000Y-75800000D03*
X96600000Y-73700000D03*
%TO.N,/trigger_Gate*%
X101000000Y-86300000D03*
X90100000Y-85900000D03*
%TO.N,Net-(U7-A)*%
X98000000Y-104800000D03*
X102600000Y-104700000D03*
X129900000Y-102000000D03*
X89900000Y-104800000D03*
X86500000Y-104800000D03*
X116200000Y-103700000D03*
%TO.N,/esp32/MOSI*%
X77597000Y-78100000D03*
X71500000Y-78100000D03*
%TO.N,/esp32/T_IRQ*%
X72500000Y-75900000D03*
X67300000Y-97400000D03*
%TO.N,/esp32/T_CS*%
X68500000Y-88800000D03*
X71300000Y-82700000D03*
%TO.N,/esp32/T_CLK*%
X67450000Y-87450000D03*
X70481000Y-84481000D03*
%TO.N,/esp32/LED*%
X67200000Y-83200000D03*
X90300000Y-79700000D03*
%TO.N,/esp32/D{slash}C*%
X71363000Y-74400000D03*
X86400000Y-85800000D03*
X77343000Y-76581000D03*
X89200000Y-86900000D03*
%TO.N,/esp32/T_DO*%
X68500000Y-77200000D03*
X66850000Y-95450000D03*
%TO.N,/esp32/T_DIN*%
X69300000Y-90900000D03*
X72200000Y-81000000D03*
%TO.N,/esp32/RST*%
X88750000Y-73075000D03*
X71600000Y-73050000D03*
%TO.N,/Zero_Cross*%
X81600000Y-93700000D03*
X84000000Y-96300000D03*
%TD*%
%TA.AperFunction,Conductor*%
%TO.N,GND*%
G36*
X153327539Y-48917185D02*
G01*
X153373294Y-48969989D01*
X153384500Y-49021500D01*
X153384500Y-127020500D01*
X153364815Y-127087539D01*
X153312011Y-127133294D01*
X153260500Y-127144500D01*
X54433500Y-127144500D01*
X54366461Y-127124815D01*
X54320706Y-127072011D01*
X54309500Y-127020500D01*
X54309500Y-121308635D01*
X67827000Y-121308635D01*
X67827000Y-124004370D01*
X67827001Y-124004376D01*
X67833408Y-124063983D01*
X67883702Y-124198828D01*
X67883706Y-124198835D01*
X67969952Y-124314044D01*
X67969955Y-124314047D01*
X68085164Y-124400293D01*
X68085171Y-124400297D01*
X68220017Y-124450591D01*
X68220016Y-124450591D01*
X68226944Y-124451335D01*
X68279627Y-124457000D01*
X70975372Y-124456999D01*
X71034983Y-124450591D01*
X71169831Y-124400296D01*
X71285046Y-124314046D01*
X71371296Y-124198831D01*
X71421591Y-124063983D01*
X71428000Y-124004373D01*
X71427999Y-121720135D01*
X83779500Y-121720135D01*
X83779500Y-124415870D01*
X83779501Y-124415876D01*
X83785908Y-124475483D01*
X83836202Y-124610328D01*
X83836206Y-124610335D01*
X83922452Y-124725544D01*
X83922455Y-124725547D01*
X84037664Y-124811793D01*
X84037671Y-124811797D01*
X84172517Y-124862091D01*
X84172516Y-124862091D01*
X84179444Y-124862835D01*
X84232127Y-124868500D01*
X86927872Y-124868499D01*
X86987483Y-124862091D01*
X87122331Y-124811796D01*
X87237546Y-124725546D01*
X87323796Y-124610331D01*
X87374091Y-124475483D01*
X87380500Y-124415873D01*
X87380499Y-123067995D01*
X88854451Y-123067995D01*
X88854451Y-123068004D01*
X88874616Y-123337101D01*
X88934664Y-123600188D01*
X88934666Y-123600195D01*
X89033257Y-123851398D01*
X89168185Y-124085102D01*
X89304080Y-124255509D01*
X89336442Y-124296089D01*
X89502957Y-124450591D01*
X89534259Y-124479635D01*
X89757226Y-124631651D01*
X90000359Y-124748738D01*
X90258228Y-124828280D01*
X90258229Y-124828280D01*
X90258232Y-124828281D01*
X90525063Y-124868499D01*
X90525068Y-124868499D01*
X90525071Y-124868500D01*
X90525072Y-124868500D01*
X90794928Y-124868500D01*
X90794929Y-124868500D01*
X90794936Y-124868499D01*
X91061767Y-124828281D01*
X91061768Y-124828280D01*
X91061772Y-124828280D01*
X91319641Y-124748738D01*
X91562775Y-124631651D01*
X91785741Y-124479635D01*
X91983561Y-124296085D01*
X92151815Y-124085102D01*
X92286743Y-123851398D01*
X92385334Y-123600195D01*
X92445383Y-123337103D01*
X92465549Y-123068000D01*
X92445383Y-122798897D01*
X92385334Y-122535805D01*
X92286743Y-122284602D01*
X92151815Y-122050898D01*
X91983561Y-121839915D01*
X91983560Y-121839914D01*
X91983557Y-121839910D01*
X91785741Y-121656365D01*
X91607278Y-121534691D01*
X91562775Y-121504349D01*
X91562769Y-121504346D01*
X91562768Y-121504345D01*
X91562767Y-121504344D01*
X91319643Y-121387263D01*
X91319645Y-121387263D01*
X91061773Y-121307720D01*
X91061767Y-121307718D01*
X90794936Y-121267500D01*
X90794929Y-121267500D01*
X90525071Y-121267500D01*
X90525063Y-121267500D01*
X90258232Y-121307718D01*
X90258226Y-121307720D01*
X90000358Y-121387262D01*
X89757230Y-121504346D01*
X89534258Y-121656365D01*
X89336442Y-121839910D01*
X89168185Y-122050898D01*
X89033258Y-122284599D01*
X89033256Y-122284603D01*
X88934666Y-122535804D01*
X88934664Y-122535811D01*
X88874616Y-122798898D01*
X88854451Y-123067995D01*
X87380499Y-123067995D01*
X87380499Y-121720128D01*
X87374091Y-121660517D01*
X87372542Y-121656365D01*
X87323797Y-121525671D01*
X87323793Y-121525664D01*
X87237547Y-121410455D01*
X87237544Y-121410452D01*
X87122335Y-121324206D01*
X87122328Y-121324202D01*
X86987482Y-121273908D01*
X86987483Y-121273908D01*
X86927883Y-121267501D01*
X86927881Y-121267500D01*
X86927873Y-121267500D01*
X86927864Y-121267500D01*
X84232129Y-121267500D01*
X84232123Y-121267501D01*
X84172516Y-121273908D01*
X84037671Y-121324202D01*
X84037664Y-121324206D01*
X83922455Y-121410452D01*
X83922452Y-121410455D01*
X83836206Y-121525664D01*
X83836202Y-121525671D01*
X83785908Y-121660517D01*
X83780348Y-121712236D01*
X83779501Y-121720123D01*
X83779500Y-121720135D01*
X71427999Y-121720135D01*
X71427999Y-121308628D01*
X71421591Y-121249017D01*
X71374043Y-121121535D01*
X71371297Y-121114171D01*
X71371293Y-121114164D01*
X71285047Y-120998955D01*
X71285044Y-120998952D01*
X71169835Y-120912706D01*
X71169828Y-120912702D01*
X71034982Y-120862408D01*
X71034983Y-120862408D01*
X70975383Y-120856001D01*
X70975381Y-120856000D01*
X70975373Y-120856000D01*
X70975364Y-120856000D01*
X68279629Y-120856000D01*
X68279623Y-120856001D01*
X68220016Y-120862408D01*
X68085171Y-120912702D01*
X68085164Y-120912706D01*
X67969955Y-120998952D01*
X67969952Y-120998955D01*
X67883706Y-121114164D01*
X67883702Y-121114171D01*
X67833408Y-121249017D01*
X67827001Y-121308616D01*
X67827001Y-121308623D01*
X67827000Y-121308635D01*
X54309500Y-121308635D01*
X54309500Y-120360135D01*
X97239500Y-120360135D01*
X97239500Y-124415870D01*
X97239501Y-124415876D01*
X97245908Y-124475483D01*
X97296202Y-124610328D01*
X97296206Y-124610335D01*
X97382452Y-124725544D01*
X97382455Y-124725547D01*
X97497664Y-124811793D01*
X97497671Y-124811797D01*
X97632517Y-124862091D01*
X97632516Y-124862091D01*
X97639444Y-124862835D01*
X97692127Y-124868500D01*
X99767872Y-124868499D01*
X99827483Y-124862091D01*
X99962331Y-124811796D01*
X100077546Y-124725546D01*
X100163796Y-124610331D01*
X100214091Y-124475483D01*
X100220500Y-124415873D01*
X100220499Y-121280695D01*
X102239500Y-121280695D01*
X102239500Y-123495304D01*
X102276201Y-123727027D01*
X102348697Y-123950150D01*
X102455212Y-124159195D01*
X102593104Y-124348989D01*
X102593108Y-124348994D01*
X102759005Y-124514891D01*
X102759010Y-124514895D01*
X102919715Y-124631653D01*
X102948808Y-124652790D01*
X103137112Y-124748736D01*
X103157849Y-124759302D01*
X103269410Y-124795550D01*
X103380974Y-124831799D01*
X103612695Y-124868500D01*
X103612696Y-124868500D01*
X103847304Y-124868500D01*
X103847305Y-124868500D01*
X104079026Y-124831799D01*
X104302153Y-124759301D01*
X104511192Y-124652790D01*
X104700996Y-124514890D01*
X104866890Y-124348996D01*
X105004790Y-124159192D01*
X105111301Y-123950153D01*
X105183799Y-123727026D01*
X105220500Y-123495305D01*
X105220500Y-121280695D01*
X107239500Y-121280695D01*
X107239500Y-123495304D01*
X107276201Y-123727027D01*
X107348697Y-123950150D01*
X107455212Y-124159195D01*
X107593104Y-124348989D01*
X107593108Y-124348994D01*
X107759005Y-124514891D01*
X107759010Y-124514895D01*
X107919715Y-124631653D01*
X107948808Y-124652790D01*
X108137112Y-124748736D01*
X108157849Y-124759302D01*
X108269410Y-124795550D01*
X108380974Y-124831799D01*
X108612695Y-124868500D01*
X108612696Y-124868500D01*
X108847304Y-124868500D01*
X108847305Y-124868500D01*
X109079026Y-124831799D01*
X109302153Y-124759301D01*
X109511192Y-124652790D01*
X109700996Y-124514890D01*
X109866890Y-124348996D01*
X110004790Y-124159192D01*
X110111301Y-123950153D01*
X110183799Y-123727026D01*
X110220500Y-123495305D01*
X110220500Y-121280695D01*
X110183799Y-121048974D01*
X110135395Y-120899999D01*
X114114357Y-120899999D01*
X114114357Y-120900000D01*
X114134884Y-121121535D01*
X114134885Y-121121537D01*
X114195769Y-121335523D01*
X114195775Y-121335538D01*
X114294938Y-121534683D01*
X114294943Y-121534691D01*
X114429020Y-121712238D01*
X114593437Y-121862123D01*
X114593439Y-121862125D01*
X114782595Y-121979245D01*
X114782596Y-121979245D01*
X114782599Y-121979247D01*
X114990060Y-122059618D01*
X115208757Y-122100500D01*
X115208759Y-122100500D01*
X115431241Y-122100500D01*
X115431243Y-122100500D01*
X115649940Y-122059618D01*
X115857401Y-121979247D01*
X116046562Y-121862124D01*
X116202325Y-121720127D01*
X116210979Y-121712238D01*
X116248047Y-121663153D01*
X116345058Y-121534689D01*
X116444229Y-121335528D01*
X116505115Y-121121536D01*
X116525643Y-120900000D01*
X116525643Y-120899999D01*
X119194357Y-120899999D01*
X119194357Y-120900000D01*
X119214884Y-121121535D01*
X119214885Y-121121537D01*
X119275769Y-121335523D01*
X119275775Y-121335538D01*
X119374938Y-121534683D01*
X119374943Y-121534691D01*
X119509020Y-121712238D01*
X119673437Y-121862123D01*
X119673439Y-121862125D01*
X119862595Y-121979245D01*
X119862596Y-121979245D01*
X119862599Y-121979247D01*
X120070060Y-122059618D01*
X120288757Y-122100500D01*
X120288759Y-122100500D01*
X120511241Y-122100500D01*
X120511243Y-122100500D01*
X120729940Y-122059618D01*
X120937401Y-121979247D01*
X121126562Y-121862124D01*
X121282325Y-121720127D01*
X121290979Y-121712238D01*
X121328047Y-121663153D01*
X121425058Y-121534689D01*
X121524229Y-121335528D01*
X121585115Y-121121536D01*
X121605643Y-120900000D01*
X121596376Y-120799993D01*
X123229700Y-120799993D01*
X123229700Y-120800006D01*
X123248864Y-121031297D01*
X123248866Y-121031308D01*
X123305842Y-121256300D01*
X123399075Y-121468848D01*
X123526016Y-121663147D01*
X123526019Y-121663151D01*
X123526021Y-121663153D01*
X123683216Y-121833913D01*
X123683219Y-121833915D01*
X123683222Y-121833918D01*
X123866365Y-121976464D01*
X123866371Y-121976468D01*
X123866374Y-121976470D01*
X124070497Y-122086936D01*
X124110008Y-122100500D01*
X124290015Y-122162297D01*
X124290017Y-122162297D01*
X124290019Y-122162298D01*
X124518951Y-122200500D01*
X124518952Y-122200500D01*
X124751048Y-122200500D01*
X124751049Y-122200500D01*
X124979981Y-122162298D01*
X125199503Y-122086936D01*
X125403626Y-121976470D01*
X125586784Y-121833913D01*
X125691524Y-121720135D01*
X132129500Y-121720135D01*
X132129500Y-124415870D01*
X132129501Y-124415876D01*
X132135908Y-124475483D01*
X132186202Y-124610328D01*
X132186206Y-124610335D01*
X132272452Y-124725544D01*
X132272455Y-124725547D01*
X132387664Y-124811793D01*
X132387671Y-124811797D01*
X132522517Y-124862091D01*
X132522516Y-124862091D01*
X132529444Y-124862835D01*
X132582127Y-124868500D01*
X135277872Y-124868499D01*
X135337483Y-124862091D01*
X135472331Y-124811796D01*
X135587546Y-124725546D01*
X135673796Y-124610331D01*
X135724091Y-124475483D01*
X135730500Y-124415873D01*
X135730499Y-123067995D01*
X137204451Y-123067995D01*
X137204451Y-123068004D01*
X137224616Y-123337101D01*
X137284664Y-123600188D01*
X137284666Y-123600195D01*
X137383257Y-123851398D01*
X137518185Y-124085102D01*
X137654080Y-124255509D01*
X137686442Y-124296089D01*
X137852957Y-124450591D01*
X137884259Y-124479635D01*
X138107226Y-124631651D01*
X138350359Y-124748738D01*
X138608228Y-124828280D01*
X138608229Y-124828280D01*
X138608232Y-124828281D01*
X138875063Y-124868499D01*
X138875068Y-124868499D01*
X138875071Y-124868500D01*
X138875072Y-124868500D01*
X139144928Y-124868500D01*
X139144929Y-124868500D01*
X139144936Y-124868499D01*
X139411767Y-124828281D01*
X139411768Y-124828280D01*
X139411772Y-124828280D01*
X139669641Y-124748738D01*
X139912775Y-124631651D01*
X140135741Y-124479635D01*
X140333561Y-124296085D01*
X140501815Y-124085102D01*
X140636743Y-123851398D01*
X140735334Y-123600195D01*
X140795383Y-123337103D01*
X140815549Y-123068000D01*
X140795383Y-122798897D01*
X140735334Y-122535805D01*
X140636743Y-122284602D01*
X140501815Y-122050898D01*
X140333561Y-121839915D01*
X140333560Y-121839914D01*
X140333557Y-121839910D01*
X140135741Y-121656365D01*
X139957278Y-121534691D01*
X139912775Y-121504349D01*
X139912769Y-121504346D01*
X139912768Y-121504345D01*
X139912767Y-121504344D01*
X139669643Y-121387263D01*
X139669645Y-121387263D01*
X139411773Y-121307720D01*
X139411767Y-121307718D01*
X139144936Y-121267500D01*
X139144929Y-121267500D01*
X138875071Y-121267500D01*
X138875063Y-121267500D01*
X138608232Y-121307718D01*
X138608226Y-121307720D01*
X138350358Y-121387262D01*
X138107230Y-121504346D01*
X137884258Y-121656365D01*
X137686442Y-121839910D01*
X137518185Y-122050898D01*
X137383258Y-122284599D01*
X137383256Y-122284603D01*
X137284666Y-122535804D01*
X137284664Y-122535811D01*
X137224616Y-122798898D01*
X137204451Y-123067995D01*
X135730499Y-123067995D01*
X135730499Y-121720128D01*
X135724091Y-121660517D01*
X135722542Y-121656365D01*
X135673797Y-121525671D01*
X135673793Y-121525664D01*
X135587547Y-121410455D01*
X135587544Y-121410452D01*
X135472335Y-121324206D01*
X135472328Y-121324202D01*
X135337482Y-121273908D01*
X135337483Y-121273908D01*
X135277883Y-121267501D01*
X135277881Y-121267500D01*
X135277873Y-121267500D01*
X135277864Y-121267500D01*
X132582129Y-121267500D01*
X132582123Y-121267501D01*
X132522516Y-121273908D01*
X132387671Y-121324202D01*
X132387664Y-121324206D01*
X132272455Y-121410452D01*
X132272452Y-121410455D01*
X132186206Y-121525664D01*
X132186202Y-121525671D01*
X132135908Y-121660517D01*
X132130348Y-121712236D01*
X132129501Y-121720123D01*
X132129500Y-121720135D01*
X125691524Y-121720135D01*
X125743979Y-121663153D01*
X125870924Y-121468849D01*
X125964157Y-121256300D01*
X126021134Y-121031305D01*
X126023815Y-120998952D01*
X126040300Y-120800006D01*
X126040300Y-120799993D01*
X126021135Y-120568702D01*
X126021133Y-120568691D01*
X125964157Y-120343699D01*
X125870924Y-120131151D01*
X125743983Y-119936852D01*
X125743980Y-119936849D01*
X125743979Y-119936847D01*
X125586784Y-119766087D01*
X125586779Y-119766083D01*
X125586777Y-119766081D01*
X125403634Y-119623535D01*
X125403628Y-119623531D01*
X125199504Y-119513064D01*
X125199495Y-119513061D01*
X124979984Y-119437702D01*
X124808282Y-119409050D01*
X124751049Y-119399500D01*
X124518951Y-119399500D01*
X124473164Y-119407140D01*
X124290015Y-119437702D01*
X124070504Y-119513061D01*
X124070495Y-119513064D01*
X123866371Y-119623531D01*
X123866365Y-119623535D01*
X123683222Y-119766081D01*
X123683219Y-119766084D01*
X123526016Y-119936852D01*
X123399075Y-120131151D01*
X123305842Y-120343699D01*
X123248866Y-120568691D01*
X123248864Y-120568702D01*
X123229700Y-120799993D01*
X121596376Y-120799993D01*
X121585115Y-120678464D01*
X121524229Y-120464472D01*
X121524224Y-120464461D01*
X121425061Y-120265316D01*
X121425056Y-120265308D01*
X121290979Y-120087761D01*
X121126562Y-119937876D01*
X121126560Y-119937874D01*
X120937404Y-119820754D01*
X120937398Y-119820752D01*
X120729940Y-119740382D01*
X120511243Y-119699500D01*
X120288757Y-119699500D01*
X120070060Y-119740382D01*
X120003716Y-119766084D01*
X119862601Y-119820752D01*
X119862595Y-119820754D01*
X119673439Y-119937874D01*
X119673437Y-119937876D01*
X119509020Y-120087761D01*
X119374943Y-120265308D01*
X119374938Y-120265316D01*
X119275775Y-120464461D01*
X119275769Y-120464476D01*
X119214885Y-120678462D01*
X119214884Y-120678464D01*
X119194357Y-120899999D01*
X116525643Y-120899999D01*
X116505115Y-120678464D01*
X116444229Y-120464472D01*
X116444224Y-120464461D01*
X116345061Y-120265316D01*
X116345056Y-120265308D01*
X116210979Y-120087761D01*
X116046562Y-119937876D01*
X116046560Y-119937874D01*
X115857404Y-119820754D01*
X115857398Y-119820752D01*
X115649940Y-119740382D01*
X115431243Y-119699500D01*
X115208757Y-119699500D01*
X114990060Y-119740382D01*
X114923716Y-119766084D01*
X114782601Y-119820752D01*
X114782595Y-119820754D01*
X114593439Y-119937874D01*
X114593437Y-119937876D01*
X114429020Y-120087761D01*
X114294943Y-120265308D01*
X114294938Y-120265316D01*
X114195775Y-120464461D01*
X114195769Y-120464476D01*
X114134885Y-120678462D01*
X114134884Y-120678464D01*
X114114357Y-120899999D01*
X110135395Y-120899999D01*
X110123181Y-120862409D01*
X110111302Y-120825849D01*
X110036204Y-120678462D01*
X110004790Y-120616808D01*
X109894104Y-120464461D01*
X109866895Y-120427010D01*
X109866891Y-120427005D01*
X109700994Y-120261108D01*
X109700989Y-120261104D01*
X109511195Y-120123212D01*
X109511194Y-120123211D01*
X109511192Y-120123210D01*
X109368397Y-120050452D01*
X109302150Y-120016697D01*
X109079027Y-119944201D01*
X108963165Y-119925850D01*
X108847305Y-119907500D01*
X108612695Y-119907500D01*
X108535454Y-119919733D01*
X108380972Y-119944201D01*
X108157849Y-120016697D01*
X107948804Y-120123212D01*
X107759010Y-120261104D01*
X107759005Y-120261108D01*
X107593108Y-120427005D01*
X107593104Y-120427010D01*
X107455212Y-120616804D01*
X107348697Y-120825849D01*
X107276201Y-121048972D01*
X107239500Y-121280695D01*
X105220500Y-121280695D01*
X105183799Y-121048974D01*
X105123181Y-120862409D01*
X105111302Y-120825849D01*
X105036204Y-120678462D01*
X105004790Y-120616808D01*
X104894104Y-120464461D01*
X104866895Y-120427010D01*
X104866891Y-120427005D01*
X104700994Y-120261108D01*
X104700989Y-120261104D01*
X104511195Y-120123212D01*
X104511194Y-120123211D01*
X104511192Y-120123210D01*
X104368397Y-120050452D01*
X104302150Y-120016697D01*
X104079027Y-119944201D01*
X103963165Y-119925850D01*
X103847305Y-119907500D01*
X103612695Y-119907500D01*
X103535454Y-119919733D01*
X103380972Y-119944201D01*
X103157849Y-120016697D01*
X102948804Y-120123212D01*
X102759010Y-120261104D01*
X102759005Y-120261108D01*
X102593108Y-120427005D01*
X102593104Y-120427010D01*
X102455212Y-120616804D01*
X102348697Y-120825849D01*
X102276201Y-121048972D01*
X102239500Y-121280695D01*
X100220499Y-121280695D01*
X100220499Y-120360128D01*
X100214091Y-120300517D01*
X100199392Y-120261108D01*
X100163797Y-120165671D01*
X100163793Y-120165664D01*
X100077547Y-120050455D01*
X100077544Y-120050452D01*
X99962335Y-119964206D01*
X99962328Y-119964202D01*
X99827482Y-119913908D01*
X99827483Y-119913908D01*
X99767883Y-119907501D01*
X99767881Y-119907500D01*
X99767873Y-119907500D01*
X99767864Y-119907500D01*
X97692129Y-119907500D01*
X97692123Y-119907501D01*
X97632516Y-119913908D01*
X97497671Y-119964202D01*
X97497664Y-119964206D01*
X97382455Y-120050452D01*
X97382452Y-120050455D01*
X97296206Y-120165664D01*
X97296202Y-120165671D01*
X97245908Y-120300517D01*
X97241266Y-120343699D01*
X97239501Y-120360123D01*
X97239500Y-120360135D01*
X54309500Y-120360135D01*
X54309500Y-110899998D01*
X107494532Y-110899998D01*
X107494532Y-110900001D01*
X107514364Y-111126686D01*
X107514366Y-111126697D01*
X107573258Y-111346488D01*
X107573261Y-111346497D01*
X107669431Y-111552732D01*
X107669432Y-111552734D01*
X107799954Y-111739141D01*
X107960858Y-111900045D01*
X107960861Y-111900047D01*
X108147266Y-112030568D01*
X108353504Y-112126739D01*
X108573308Y-112185635D01*
X108735230Y-112199801D01*
X108799998Y-112205468D01*
X108800000Y-112205468D01*
X108800002Y-112205468D01*
X108856673Y-112200509D01*
X109026692Y-112185635D01*
X109246496Y-112126739D01*
X109452734Y-112030568D01*
X109639139Y-111900047D01*
X109800047Y-111739139D01*
X109930568Y-111552734D01*
X109937618Y-111537614D01*
X109983789Y-111485176D01*
X110050982Y-111466023D01*
X110117864Y-111486238D01*
X110162381Y-111537614D01*
X110169432Y-111552733D01*
X110169432Y-111552734D01*
X110299954Y-111739141D01*
X110460858Y-111900045D01*
X110460861Y-111900047D01*
X110647266Y-112030568D01*
X110853504Y-112126739D01*
X111073308Y-112185635D01*
X111235230Y-112199801D01*
X111299998Y-112205468D01*
X111300000Y-112205468D01*
X111300002Y-112205468D01*
X111356673Y-112200509D01*
X111526692Y-112185635D01*
X111746496Y-112126739D01*
X111952734Y-112030568D01*
X112139139Y-111900047D01*
X112300047Y-111739139D01*
X112430568Y-111552734D01*
X112526739Y-111346496D01*
X112585635Y-111126692D01*
X112605468Y-110900000D01*
X112585635Y-110673308D01*
X112526739Y-110453504D01*
X112500604Y-110397458D01*
X120424500Y-110397458D01*
X120424500Y-112493193D01*
X120424501Y-112493199D01*
X120430908Y-112552806D01*
X120481202Y-112687651D01*
X120481206Y-112687658D01*
X120567452Y-112802867D01*
X120567455Y-112802870D01*
X120682664Y-112889116D01*
X120682671Y-112889120D01*
X120817517Y-112939414D01*
X120817516Y-112939414D01*
X120824444Y-112940158D01*
X120877127Y-112945823D01*
X122972872Y-112945822D01*
X123032483Y-112939414D01*
X123167331Y-112889119D01*
X123282546Y-112802869D01*
X123368796Y-112687654D01*
X123419091Y-112552806D01*
X123425500Y-112493196D01*
X123425499Y-110397451D01*
X123419091Y-110337840D01*
X123404657Y-110299141D01*
X123368797Y-110202994D01*
X123368793Y-110202987D01*
X123347841Y-110174999D01*
X137409357Y-110174999D01*
X137409357Y-110175000D01*
X137429884Y-110396535D01*
X137429885Y-110396537D01*
X137490769Y-110610523D01*
X137490775Y-110610538D01*
X137589938Y-110809683D01*
X137589943Y-110809691D01*
X137724020Y-110987238D01*
X137888437Y-111137123D01*
X137888439Y-111137125D01*
X138077595Y-111254245D01*
X138077596Y-111254245D01*
X138077599Y-111254247D01*
X138285060Y-111334618D01*
X138503757Y-111375500D01*
X138503759Y-111375500D01*
X138726241Y-111375500D01*
X138726243Y-111375500D01*
X138944940Y-111334618D01*
X139152401Y-111254247D01*
X139341562Y-111137124D01*
X139505981Y-110987236D01*
X139640058Y-110809689D01*
X139739229Y-110610528D01*
X139800115Y-110396536D01*
X139820643Y-110175000D01*
X139820643Y-110174999D01*
X141914357Y-110174999D01*
X141914357Y-110175000D01*
X141934884Y-110396535D01*
X141934885Y-110396537D01*
X141995769Y-110610523D01*
X141995775Y-110610538D01*
X142094938Y-110809683D01*
X142094943Y-110809691D01*
X142229020Y-110987238D01*
X142393437Y-111137123D01*
X142393439Y-111137125D01*
X142582595Y-111254245D01*
X142582596Y-111254245D01*
X142582599Y-111254247D01*
X142790060Y-111334618D01*
X143008757Y-111375500D01*
X143008759Y-111375500D01*
X143231241Y-111375500D01*
X143231243Y-111375500D01*
X143449940Y-111334618D01*
X143657401Y-111254247D01*
X143846562Y-111137124D01*
X144010981Y-110987236D01*
X144145058Y-110809689D01*
X144244229Y-110610528D01*
X144305115Y-110396536D01*
X144325643Y-110175000D01*
X144325643Y-110174999D01*
X146994357Y-110174999D01*
X146994357Y-110175000D01*
X147014884Y-110396535D01*
X147014885Y-110396537D01*
X147075769Y-110610523D01*
X147075775Y-110610538D01*
X147174938Y-110809683D01*
X147174943Y-110809691D01*
X147309020Y-110987238D01*
X147473437Y-111137123D01*
X147473439Y-111137125D01*
X147662595Y-111254245D01*
X147662596Y-111254245D01*
X147662599Y-111254247D01*
X147870060Y-111334618D01*
X148088757Y-111375500D01*
X148088759Y-111375500D01*
X148311241Y-111375500D01*
X148311243Y-111375500D01*
X148529940Y-111334618D01*
X148737401Y-111254247D01*
X148926562Y-111137124D01*
X149090981Y-110987236D01*
X149225058Y-110809689D01*
X149324229Y-110610528D01*
X149385115Y-110396536D01*
X149405643Y-110175000D01*
X149385115Y-109953464D01*
X149324229Y-109739472D01*
X149291260Y-109673261D01*
X149225061Y-109540316D01*
X149225056Y-109540308D01*
X149090979Y-109362761D01*
X148926562Y-109212876D01*
X148926560Y-109212874D01*
X148737404Y-109095754D01*
X148737398Y-109095752D01*
X148529940Y-109015382D01*
X148311243Y-108974500D01*
X148088757Y-108974500D01*
X147870060Y-109015382D01*
X147738864Y-109066207D01*
X147662601Y-109095752D01*
X147662595Y-109095754D01*
X147473439Y-109212874D01*
X147473437Y-109212876D01*
X147309020Y-109362761D01*
X147174943Y-109540308D01*
X147174938Y-109540316D01*
X147075775Y-109739461D01*
X147075769Y-109739476D01*
X147014885Y-109953462D01*
X147014884Y-109953464D01*
X146994357Y-110174999D01*
X144325643Y-110174999D01*
X144305115Y-109953464D01*
X144244229Y-109739472D01*
X144211260Y-109673261D01*
X144145061Y-109540316D01*
X144145056Y-109540308D01*
X144010979Y-109362761D01*
X143846562Y-109212876D01*
X143846560Y-109212874D01*
X143657404Y-109095754D01*
X143657398Y-109095752D01*
X143449940Y-109015382D01*
X143231243Y-108974500D01*
X143008757Y-108974500D01*
X142790060Y-109015382D01*
X142658864Y-109066207D01*
X142582601Y-109095752D01*
X142582595Y-109095754D01*
X142393439Y-109212874D01*
X142393437Y-109212876D01*
X142229020Y-109362761D01*
X142094943Y-109540308D01*
X142094938Y-109540316D01*
X141995775Y-109739461D01*
X141995769Y-109739476D01*
X141934885Y-109953462D01*
X141934884Y-109953464D01*
X141914357Y-110174999D01*
X139820643Y-110174999D01*
X139800115Y-109953464D01*
X139739229Y-109739472D01*
X139706260Y-109673261D01*
X139640061Y-109540316D01*
X139640056Y-109540308D01*
X139505979Y-109362761D01*
X139341562Y-109212876D01*
X139341560Y-109212874D01*
X139152404Y-109095754D01*
X139152398Y-109095752D01*
X138944940Y-109015382D01*
X138726243Y-108974500D01*
X138503757Y-108974500D01*
X138285060Y-109015382D01*
X138153864Y-109066207D01*
X138077601Y-109095752D01*
X138077595Y-109095754D01*
X137888439Y-109212874D01*
X137888437Y-109212876D01*
X137724020Y-109362761D01*
X137589943Y-109540308D01*
X137589938Y-109540316D01*
X137490775Y-109739461D01*
X137490769Y-109739476D01*
X137429885Y-109953462D01*
X137429884Y-109953464D01*
X137409357Y-110174999D01*
X123347841Y-110174999D01*
X123282547Y-110087778D01*
X123282544Y-110087775D01*
X123167335Y-110001529D01*
X123167328Y-110001525D01*
X123032482Y-109951231D01*
X123032483Y-109951231D01*
X122972883Y-109944824D01*
X122972881Y-109944823D01*
X122972873Y-109944823D01*
X122972864Y-109944823D01*
X120877129Y-109944823D01*
X120877123Y-109944824D01*
X120817516Y-109951231D01*
X120682671Y-110001525D01*
X120682664Y-110001529D01*
X120567455Y-110087775D01*
X120567452Y-110087778D01*
X120481206Y-110202987D01*
X120481202Y-110202994D01*
X120430908Y-110337840D01*
X120424598Y-110396535D01*
X120424501Y-110397446D01*
X120424500Y-110397458D01*
X112500604Y-110397458D01*
X112430568Y-110247266D01*
X112300047Y-110060861D01*
X112300045Y-110060858D01*
X112139141Y-109899954D01*
X111952734Y-109769432D01*
X111952732Y-109769431D01*
X111746497Y-109673261D01*
X111746488Y-109673258D01*
X111526697Y-109614366D01*
X111526693Y-109614365D01*
X111526692Y-109614365D01*
X111526691Y-109614364D01*
X111526686Y-109614364D01*
X111300002Y-109594532D01*
X111299998Y-109594532D01*
X111073313Y-109614364D01*
X111073302Y-109614366D01*
X110853511Y-109673258D01*
X110853502Y-109673261D01*
X110647267Y-109769431D01*
X110647265Y-109769432D01*
X110460858Y-109899954D01*
X110299954Y-110060858D01*
X110200431Y-110202994D01*
X110169432Y-110247266D01*
X110162380Y-110262387D01*
X110116209Y-110314825D01*
X110049015Y-110333976D01*
X109982134Y-110313760D01*
X109937619Y-110262387D01*
X109930568Y-110247266D01*
X109800047Y-110060861D01*
X109800045Y-110060858D01*
X109639141Y-109899954D01*
X109452734Y-109769432D01*
X109452732Y-109769431D01*
X109246497Y-109673261D01*
X109246488Y-109673258D01*
X109026697Y-109614366D01*
X109026693Y-109614365D01*
X109026692Y-109614365D01*
X109026691Y-109614364D01*
X109026686Y-109614364D01*
X108800002Y-109594532D01*
X108799998Y-109594532D01*
X108573313Y-109614364D01*
X108573302Y-109614366D01*
X108353511Y-109673258D01*
X108353502Y-109673261D01*
X108147267Y-109769431D01*
X108147265Y-109769432D01*
X107960858Y-109899954D01*
X107799954Y-110060858D01*
X107669432Y-110247265D01*
X107669431Y-110247267D01*
X107573261Y-110453502D01*
X107573258Y-110453511D01*
X107514366Y-110673302D01*
X107514364Y-110673313D01*
X107494532Y-110899998D01*
X54309500Y-110899998D01*
X54309500Y-109459998D01*
X77079532Y-109459998D01*
X77079532Y-109460001D01*
X77099364Y-109686686D01*
X77099366Y-109686697D01*
X77158258Y-109906488D01*
X77158261Y-109906497D01*
X77254431Y-110112732D01*
X77254432Y-110112734D01*
X77384954Y-110299141D01*
X77545858Y-110460045D01*
X77545861Y-110460047D01*
X77732266Y-110590568D01*
X77938504Y-110686739D01*
X78158308Y-110745635D01*
X78320230Y-110759801D01*
X78384998Y-110765468D01*
X78385000Y-110765468D01*
X78385002Y-110765468D01*
X78441673Y-110760509D01*
X78611692Y-110745635D01*
X78831496Y-110686739D01*
X79037734Y-110590568D01*
X79224139Y-110460047D01*
X79385047Y-110299139D01*
X79515568Y-110112734D01*
X79542618Y-110054724D01*
X79588790Y-110002285D01*
X79655983Y-109983133D01*
X79722865Y-110003348D01*
X79767382Y-110054725D01*
X79794429Y-110112728D01*
X79794432Y-110112734D01*
X79924954Y-110299141D01*
X80085858Y-110460045D01*
X80085861Y-110460047D01*
X80272266Y-110590568D01*
X80478504Y-110686739D01*
X80698308Y-110745635D01*
X80860230Y-110759801D01*
X80924998Y-110765468D01*
X80925000Y-110765468D01*
X80925002Y-110765468D01*
X80981673Y-110760509D01*
X81151692Y-110745635D01*
X81371496Y-110686739D01*
X81577734Y-110590568D01*
X81764139Y-110460047D01*
X81925047Y-110299139D01*
X82055568Y-110112734D01*
X82082618Y-110054724D01*
X82128790Y-110002285D01*
X82195983Y-109983133D01*
X82262865Y-110003348D01*
X82307382Y-110054725D01*
X82334429Y-110112728D01*
X82334432Y-110112734D01*
X82464954Y-110299141D01*
X82625858Y-110460045D01*
X82625861Y-110460047D01*
X82812266Y-110590568D01*
X83018504Y-110686739D01*
X83238308Y-110745635D01*
X83400230Y-110759801D01*
X83464998Y-110765468D01*
X83465000Y-110765468D01*
X83465002Y-110765468D01*
X83521673Y-110760509D01*
X83691692Y-110745635D01*
X83911496Y-110686739D01*
X84117734Y-110590568D01*
X84304139Y-110460047D01*
X84465047Y-110299139D01*
X84595568Y-110112734D01*
X84622618Y-110054724D01*
X84668790Y-110002285D01*
X84735983Y-109983133D01*
X84802865Y-110003348D01*
X84847382Y-110054725D01*
X84874429Y-110112728D01*
X84874432Y-110112734D01*
X85004954Y-110299141D01*
X85165858Y-110460045D01*
X85165861Y-110460047D01*
X85352266Y-110590568D01*
X85558504Y-110686739D01*
X85778308Y-110745635D01*
X85940230Y-110759801D01*
X86004998Y-110765468D01*
X86005000Y-110765468D01*
X86005002Y-110765468D01*
X86061673Y-110760509D01*
X86231692Y-110745635D01*
X86451496Y-110686739D01*
X86657734Y-110590568D01*
X86844139Y-110460047D01*
X87005047Y-110299139D01*
X87135568Y-110112734D01*
X87162618Y-110054724D01*
X87208790Y-110002285D01*
X87275983Y-109983133D01*
X87342865Y-110003348D01*
X87387382Y-110054725D01*
X87414429Y-110112728D01*
X87414432Y-110112734D01*
X87544954Y-110299141D01*
X87705858Y-110460045D01*
X87705861Y-110460047D01*
X87892266Y-110590568D01*
X88098504Y-110686739D01*
X88318308Y-110745635D01*
X88480230Y-110759801D01*
X88544998Y-110765468D01*
X88545000Y-110765468D01*
X88545002Y-110765468D01*
X88601673Y-110760509D01*
X88771692Y-110745635D01*
X88991496Y-110686739D01*
X89197734Y-110590568D01*
X89384139Y-110460047D01*
X89545047Y-110299139D01*
X89675568Y-110112734D01*
X89702618Y-110054724D01*
X89748790Y-110002285D01*
X89815983Y-109983133D01*
X89882865Y-110003348D01*
X89927382Y-110054725D01*
X89954429Y-110112728D01*
X89954432Y-110112734D01*
X90084954Y-110299141D01*
X90245858Y-110460045D01*
X90245861Y-110460047D01*
X90432266Y-110590568D01*
X90638504Y-110686739D01*
X90858308Y-110745635D01*
X91020230Y-110759801D01*
X91084998Y-110765468D01*
X91085000Y-110765468D01*
X91085002Y-110765468D01*
X91141673Y-110760509D01*
X91311692Y-110745635D01*
X91531496Y-110686739D01*
X91737734Y-110590568D01*
X91924139Y-110460047D01*
X92085047Y-110299139D01*
X92215568Y-110112734D01*
X92242618Y-110054724D01*
X92288790Y-110002285D01*
X92355983Y-109983133D01*
X92422865Y-110003348D01*
X92467382Y-110054725D01*
X92494429Y-110112728D01*
X92494432Y-110112734D01*
X92624954Y-110299141D01*
X92785858Y-110460045D01*
X92785861Y-110460047D01*
X92972266Y-110590568D01*
X93178504Y-110686739D01*
X93398308Y-110745635D01*
X93560230Y-110759801D01*
X93624998Y-110765468D01*
X93625000Y-110765468D01*
X93625002Y-110765468D01*
X93681673Y-110760509D01*
X93851692Y-110745635D01*
X94071496Y-110686739D01*
X94277734Y-110590568D01*
X94464139Y-110460047D01*
X94625047Y-110299139D01*
X94755568Y-110112734D01*
X94782618Y-110054724D01*
X94828790Y-110002285D01*
X94895983Y-109983133D01*
X94962865Y-110003348D01*
X95007382Y-110054725D01*
X95034429Y-110112728D01*
X95034432Y-110112734D01*
X95164954Y-110299141D01*
X95325858Y-110460045D01*
X95325861Y-110460047D01*
X95512266Y-110590568D01*
X95718504Y-110686739D01*
X95938308Y-110745635D01*
X96100230Y-110759801D01*
X96164998Y-110765468D01*
X96165000Y-110765468D01*
X96165002Y-110765468D01*
X96221673Y-110760509D01*
X96391692Y-110745635D01*
X96611496Y-110686739D01*
X96817734Y-110590568D01*
X97004139Y-110460047D01*
X97165047Y-110299139D01*
X97295568Y-110112734D01*
X97391739Y-109906496D01*
X97450635Y-109686692D01*
X97470468Y-109460000D01*
X97450635Y-109233308D01*
X97391739Y-109013504D01*
X97295568Y-108807266D01*
X97165047Y-108620861D01*
X97165045Y-108620858D01*
X97004141Y-108459954D01*
X96817734Y-108329432D01*
X96817732Y-108329431D01*
X96611497Y-108233261D01*
X96611488Y-108233258D01*
X96391697Y-108174366D01*
X96391693Y-108174365D01*
X96391692Y-108174365D01*
X96391691Y-108174364D01*
X96391686Y-108174364D01*
X96165002Y-108154532D01*
X96164998Y-108154532D01*
X95938313Y-108174364D01*
X95938302Y-108174366D01*
X95718511Y-108233258D01*
X95718502Y-108233261D01*
X95512267Y-108329431D01*
X95512265Y-108329432D01*
X95325858Y-108459954D01*
X95164954Y-108620858D01*
X95034432Y-108807265D01*
X95034431Y-108807267D01*
X95007382Y-108865275D01*
X94961209Y-108917714D01*
X94894016Y-108936866D01*
X94827135Y-108916650D01*
X94782618Y-108865275D01*
X94755568Y-108807267D01*
X94755567Y-108807265D01*
X94625045Y-108620858D01*
X94464141Y-108459954D01*
X94277734Y-108329432D01*
X94277732Y-108329431D01*
X94071497Y-108233261D01*
X94071488Y-108233258D01*
X93851697Y-108174366D01*
X93851693Y-108174365D01*
X93851692Y-108174365D01*
X93851691Y-108174364D01*
X93851686Y-108174364D01*
X93625002Y-108154532D01*
X93624998Y-108154532D01*
X93398313Y-108174364D01*
X93398302Y-108174366D01*
X93178511Y-108233258D01*
X93178502Y-108233261D01*
X92972267Y-108329431D01*
X92972265Y-108329432D01*
X92785858Y-108459954D01*
X92624954Y-108620858D01*
X92494432Y-108807265D01*
X92494431Y-108807267D01*
X92467382Y-108865275D01*
X92421209Y-108917714D01*
X92354016Y-108936866D01*
X92287135Y-108916650D01*
X92242618Y-108865275D01*
X92215568Y-108807267D01*
X92215567Y-108807265D01*
X92085045Y-108620858D01*
X91924141Y-108459954D01*
X91737734Y-108329432D01*
X91737732Y-108329431D01*
X91531497Y-108233261D01*
X91531488Y-108233258D01*
X91311697Y-108174366D01*
X91311693Y-108174365D01*
X91311692Y-108174365D01*
X91311691Y-108174364D01*
X91311686Y-108174364D01*
X91085002Y-108154532D01*
X91084998Y-108154532D01*
X90858313Y-108174364D01*
X90858302Y-108174366D01*
X90638511Y-108233258D01*
X90638502Y-108233261D01*
X90432267Y-108329431D01*
X90432265Y-108329432D01*
X90245858Y-108459954D01*
X90084954Y-108620858D01*
X89954432Y-108807265D01*
X89954431Y-108807267D01*
X89927382Y-108865275D01*
X89881209Y-108917714D01*
X89814016Y-108936866D01*
X89747135Y-108916650D01*
X89702618Y-108865275D01*
X89675568Y-108807267D01*
X89675567Y-108807265D01*
X89545045Y-108620858D01*
X89384141Y-108459954D01*
X89197734Y-108329432D01*
X89197732Y-108329431D01*
X88991497Y-108233261D01*
X88991488Y-108233258D01*
X88771697Y-108174366D01*
X88771693Y-108174365D01*
X88771692Y-108174365D01*
X88771691Y-108174364D01*
X88771686Y-108174364D01*
X88545002Y-108154532D01*
X88544998Y-108154532D01*
X88318313Y-108174364D01*
X88318302Y-108174366D01*
X88098511Y-108233258D01*
X88098502Y-108233261D01*
X87892267Y-108329431D01*
X87892265Y-108329432D01*
X87705858Y-108459954D01*
X87544954Y-108620858D01*
X87414432Y-108807265D01*
X87414431Y-108807267D01*
X87387382Y-108865275D01*
X87341209Y-108917714D01*
X87274016Y-108936866D01*
X87207135Y-108916650D01*
X87162618Y-108865275D01*
X87135568Y-108807267D01*
X87135567Y-108807265D01*
X87005045Y-108620858D01*
X86844141Y-108459954D01*
X86657734Y-108329432D01*
X86657732Y-108329431D01*
X86451497Y-108233261D01*
X86451488Y-108233258D01*
X86231697Y-108174366D01*
X86231693Y-108174365D01*
X86231692Y-108174365D01*
X86231691Y-108174364D01*
X86231686Y-108174364D01*
X86005002Y-108154532D01*
X86004998Y-108154532D01*
X85778313Y-108174364D01*
X85778302Y-108174366D01*
X85558511Y-108233258D01*
X85558502Y-108233261D01*
X85352267Y-108329431D01*
X85352265Y-108329432D01*
X85165858Y-108459954D01*
X85004954Y-108620858D01*
X84874432Y-108807265D01*
X84874431Y-108807267D01*
X84847382Y-108865275D01*
X84801209Y-108917714D01*
X84734016Y-108936866D01*
X84667135Y-108916650D01*
X84622618Y-108865275D01*
X84595568Y-108807267D01*
X84595567Y-108807265D01*
X84465045Y-108620858D01*
X84304141Y-108459954D01*
X84117734Y-108329432D01*
X84117732Y-108329431D01*
X83911497Y-108233261D01*
X83911488Y-108233258D01*
X83691697Y-108174366D01*
X83691693Y-108174365D01*
X83691692Y-108174365D01*
X83691691Y-108174364D01*
X83691686Y-108174364D01*
X83465002Y-108154532D01*
X83464998Y-108154532D01*
X83238313Y-108174364D01*
X83238302Y-108174366D01*
X83018511Y-108233258D01*
X83018502Y-108233261D01*
X82812267Y-108329431D01*
X82812265Y-108329432D01*
X82625858Y-108459954D01*
X82464954Y-108620858D01*
X82334432Y-108807265D01*
X82334431Y-108807267D01*
X82307382Y-108865275D01*
X82261209Y-108917714D01*
X82194016Y-108936866D01*
X82127135Y-108916650D01*
X82082618Y-108865275D01*
X82055568Y-108807267D01*
X82055567Y-108807265D01*
X81925045Y-108620858D01*
X81764141Y-108459954D01*
X81577734Y-108329432D01*
X81577732Y-108329431D01*
X81371497Y-108233261D01*
X81371488Y-108233258D01*
X81151697Y-108174366D01*
X81151693Y-108174365D01*
X81151692Y-108174365D01*
X81151691Y-108174364D01*
X81151686Y-108174364D01*
X80925002Y-108154532D01*
X80924998Y-108154532D01*
X80698313Y-108174364D01*
X80698302Y-108174366D01*
X80478511Y-108233258D01*
X80478502Y-108233261D01*
X80272267Y-108329431D01*
X80272265Y-108329432D01*
X80085858Y-108459954D01*
X79924954Y-108620858D01*
X79794432Y-108807265D01*
X79794431Y-108807267D01*
X79767382Y-108865275D01*
X79721209Y-108917714D01*
X79654016Y-108936866D01*
X79587135Y-108916650D01*
X79542618Y-108865275D01*
X79515568Y-108807267D01*
X79515567Y-108807265D01*
X79385045Y-108620858D01*
X79224141Y-108459954D01*
X79037734Y-108329432D01*
X79037732Y-108329431D01*
X78831497Y-108233261D01*
X78831488Y-108233258D01*
X78611697Y-108174366D01*
X78611693Y-108174365D01*
X78611692Y-108174365D01*
X78611691Y-108174364D01*
X78611686Y-108174364D01*
X78385002Y-108154532D01*
X78384998Y-108154532D01*
X78158313Y-108174364D01*
X78158302Y-108174366D01*
X77938511Y-108233258D01*
X77938502Y-108233261D01*
X77732267Y-108329431D01*
X77732265Y-108329432D01*
X77545858Y-108459954D01*
X77384954Y-108620858D01*
X77254432Y-108807265D01*
X77254431Y-108807267D01*
X77158261Y-109013502D01*
X77158258Y-109013511D01*
X77099366Y-109233302D01*
X77099364Y-109233313D01*
X77079532Y-109459998D01*
X54309500Y-109459998D01*
X54309500Y-106799996D01*
X100694435Y-106799996D01*
X100694435Y-106800003D01*
X100714630Y-106979249D01*
X100714631Y-106979254D01*
X100774211Y-107149523D01*
X100868762Y-107299999D01*
X100870184Y-107302262D01*
X100997738Y-107429816D01*
X101088080Y-107486582D01*
X101143707Y-107521535D01*
X101150478Y-107525789D01*
X101320745Y-107585368D01*
X101320750Y-107585369D01*
X101499996Y-107605565D01*
X101500000Y-107605565D01*
X101500004Y-107605565D01*
X101679249Y-107585369D01*
X101679252Y-107585368D01*
X101679255Y-107585368D01*
X101849522Y-107525789D01*
X102002262Y-107429816D01*
X102129816Y-107302262D01*
X102131238Y-107299999D01*
X107044357Y-107299999D01*
X107044357Y-107300000D01*
X107064884Y-107521535D01*
X107064885Y-107521537D01*
X107125769Y-107735523D01*
X107125775Y-107735538D01*
X107224938Y-107934683D01*
X107224943Y-107934691D01*
X107359020Y-108112238D01*
X107523437Y-108262123D01*
X107523439Y-108262125D01*
X107712595Y-108379245D01*
X107712596Y-108379245D01*
X107712599Y-108379247D01*
X107920060Y-108459618D01*
X108138757Y-108500500D01*
X108138759Y-108500500D01*
X108361241Y-108500500D01*
X108361243Y-108500500D01*
X108579940Y-108459618D01*
X108787401Y-108379247D01*
X108976562Y-108262124D01*
X109140981Y-108112236D01*
X109275058Y-107934689D01*
X109374229Y-107735528D01*
X109435115Y-107521536D01*
X109455643Y-107300000D01*
X109455643Y-107299999D01*
X112124357Y-107299999D01*
X112124357Y-107300000D01*
X112144884Y-107521535D01*
X112144885Y-107521537D01*
X112205769Y-107735523D01*
X112205775Y-107735538D01*
X112304938Y-107934683D01*
X112304943Y-107934691D01*
X112439020Y-108112238D01*
X112603437Y-108262123D01*
X112603439Y-108262125D01*
X112792595Y-108379245D01*
X112792596Y-108379245D01*
X112792599Y-108379247D01*
X113000060Y-108459618D01*
X113218757Y-108500500D01*
X113218759Y-108500500D01*
X113441241Y-108500500D01*
X113441243Y-108500500D01*
X113659940Y-108459618D01*
X113867401Y-108379247D01*
X114056562Y-108262124D01*
X114220981Y-108112236D01*
X114355058Y-107934689D01*
X114454229Y-107735528D01*
X114515115Y-107521536D01*
X114535643Y-107300000D01*
X114521699Y-107149523D01*
X114515115Y-107078464D01*
X114515114Y-107078462D01*
X114486887Y-106979255D01*
X114454229Y-106864472D01*
X114454224Y-106864461D01*
X114355061Y-106665316D01*
X114355056Y-106665308D01*
X114220979Y-106487761D01*
X114056562Y-106337876D01*
X114056560Y-106337874D01*
X113867404Y-106220754D01*
X113867398Y-106220752D01*
X113659940Y-106140382D01*
X113441243Y-106099500D01*
X113218757Y-106099500D01*
X113000060Y-106140382D01*
X112896948Y-106180328D01*
X112792601Y-106220752D01*
X112792595Y-106220754D01*
X112603439Y-106337874D01*
X112603437Y-106337876D01*
X112439020Y-106487761D01*
X112304943Y-106665308D01*
X112304938Y-106665316D01*
X112205775Y-106864461D01*
X112205769Y-106864476D01*
X112144885Y-107078462D01*
X112144884Y-107078464D01*
X112124357Y-107299999D01*
X109455643Y-107299999D01*
X109441699Y-107149523D01*
X109435115Y-107078464D01*
X109435114Y-107078462D01*
X109406887Y-106979255D01*
X109374229Y-106864472D01*
X109374224Y-106864461D01*
X109275061Y-106665316D01*
X109275056Y-106665308D01*
X109140979Y-106487761D01*
X108976562Y-106337876D01*
X108976560Y-106337874D01*
X108787404Y-106220754D01*
X108787398Y-106220752D01*
X108579940Y-106140382D01*
X108361243Y-106099500D01*
X108138757Y-106099500D01*
X107920060Y-106140382D01*
X107816948Y-106180328D01*
X107712601Y-106220752D01*
X107712595Y-106220754D01*
X107523439Y-106337874D01*
X107523437Y-106337876D01*
X107359020Y-106487761D01*
X107224943Y-106665308D01*
X107224938Y-106665316D01*
X107125775Y-106864461D01*
X107125769Y-106864476D01*
X107064885Y-107078462D01*
X107064884Y-107078464D01*
X107044357Y-107299999D01*
X102131238Y-107299999D01*
X102225789Y-107149522D01*
X102285368Y-106979255D01*
X102292141Y-106919141D01*
X102305565Y-106800003D01*
X102305565Y-106799996D01*
X102285369Y-106620750D01*
X102285368Y-106620745D01*
X102225788Y-106450476D01*
X102129815Y-106297737D01*
X102002262Y-106170184D01*
X101849523Y-106074211D01*
X101679254Y-106014631D01*
X101679249Y-106014630D01*
X101500004Y-105994435D01*
X101499996Y-105994435D01*
X101320750Y-106014630D01*
X101320745Y-106014631D01*
X101150476Y-106074211D01*
X100997737Y-106170184D01*
X100870184Y-106297737D01*
X100774211Y-106450476D01*
X100714631Y-106620745D01*
X100714630Y-106620750D01*
X100694435Y-106799996D01*
X54309500Y-106799996D01*
X54309500Y-104799997D01*
X85740726Y-104799997D01*
X85740726Y-104800002D01*
X85759761Y-104968951D01*
X85780927Y-105029439D01*
X85815918Y-105129437D01*
X85906376Y-105273400D01*
X86026600Y-105393624D01*
X86170563Y-105484082D01*
X86292521Y-105526756D01*
X86331048Y-105540238D01*
X86499997Y-105559274D01*
X86500000Y-105559274D01*
X86500003Y-105559274D01*
X86668951Y-105540238D01*
X86668954Y-105540237D01*
X86829437Y-105484082D01*
X86973400Y-105393624D01*
X87093624Y-105273400D01*
X87184082Y-105129437D01*
X87240237Y-104968954D01*
X87240237Y-104968953D01*
X87240238Y-104968951D01*
X87259274Y-104800002D01*
X87259274Y-104799997D01*
X89140726Y-104799997D01*
X89140726Y-104800002D01*
X89159761Y-104968951D01*
X89180927Y-105029439D01*
X89215918Y-105129437D01*
X89306376Y-105273400D01*
X89426600Y-105393624D01*
X89570563Y-105484082D01*
X89692521Y-105526756D01*
X89731048Y-105540238D01*
X89899997Y-105559274D01*
X89900000Y-105559274D01*
X89900003Y-105559274D01*
X90068951Y-105540238D01*
X90068954Y-105540237D01*
X90229437Y-105484082D01*
X90373400Y-105393624D01*
X90493624Y-105273400D01*
X90584082Y-105129437D01*
X90640237Y-104968954D01*
X90640237Y-104968953D01*
X90640238Y-104968951D01*
X90659274Y-104800002D01*
X90659274Y-104799997D01*
X97240726Y-104799997D01*
X97240726Y-104800002D01*
X97259761Y-104968951D01*
X97280927Y-105029439D01*
X97315918Y-105129437D01*
X97406376Y-105273400D01*
X97526600Y-105393624D01*
X97670563Y-105484082D01*
X97792521Y-105526756D01*
X97831048Y-105540238D01*
X97999997Y-105559274D01*
X98000000Y-105559274D01*
X98000003Y-105559274D01*
X98168951Y-105540238D01*
X98168954Y-105540237D01*
X98329437Y-105484082D01*
X98473400Y-105393624D01*
X98593624Y-105273400D01*
X98684082Y-105129437D01*
X98740237Y-104968954D01*
X98740237Y-104968953D01*
X98740238Y-104968951D01*
X98759274Y-104800002D01*
X98759274Y-104799997D01*
X98740238Y-104631048D01*
X98708395Y-104540047D01*
X98684082Y-104470563D01*
X98593624Y-104326600D01*
X98473400Y-104206376D01*
X98329437Y-104115918D01*
X98290410Y-104102262D01*
X98168951Y-104059761D01*
X98000003Y-104040726D01*
X97999997Y-104040726D01*
X97831048Y-104059761D01*
X97670560Y-104115919D01*
X97526599Y-104206376D01*
X97406376Y-104326599D01*
X97315919Y-104470560D01*
X97259761Y-104631048D01*
X97240726Y-104799997D01*
X90659274Y-104799997D01*
X90640238Y-104631048D01*
X90608395Y-104540047D01*
X90584082Y-104470563D01*
X90493624Y-104326600D01*
X90373400Y-104206376D01*
X90229437Y-104115918D01*
X90190410Y-104102262D01*
X90068951Y-104059761D01*
X89900003Y-104040726D01*
X89899997Y-104040726D01*
X89731048Y-104059761D01*
X89570560Y-104115919D01*
X89426599Y-104206376D01*
X89306376Y-104326599D01*
X89215919Y-104470560D01*
X89159761Y-104631048D01*
X89140726Y-104799997D01*
X87259274Y-104799997D01*
X87240238Y-104631048D01*
X87208395Y-104540047D01*
X87184082Y-104470563D01*
X87093624Y-104326600D01*
X86973400Y-104206376D01*
X86829437Y-104115918D01*
X86790410Y-104102262D01*
X86668951Y-104059761D01*
X86500003Y-104040726D01*
X86499997Y-104040726D01*
X86331048Y-104059761D01*
X86170560Y-104115919D01*
X86026599Y-104206376D01*
X85906376Y-104326599D01*
X85815919Y-104470560D01*
X85759761Y-104631048D01*
X85740726Y-104799997D01*
X54309500Y-104799997D01*
X54309500Y-103599996D01*
X100694435Y-103599996D01*
X100694435Y-103600003D01*
X100714630Y-103779249D01*
X100714631Y-103779254D01*
X100774211Y-103949523D01*
X100814232Y-104013215D01*
X100870184Y-104102262D01*
X100997738Y-104229816D01*
X101150478Y-104325789D01*
X101278426Y-104370560D01*
X101320745Y-104385368D01*
X101320750Y-104385369D01*
X101499996Y-104405565D01*
X101500000Y-104405565D01*
X101500004Y-104405565D01*
X101679249Y-104385369D01*
X101679251Y-104385368D01*
X101679255Y-104385368D01*
X101699991Y-104378111D01*
X101769769Y-104374548D01*
X101830397Y-104409274D01*
X101862627Y-104471267D01*
X101858893Y-104523704D01*
X101861312Y-104524256D01*
X101859762Y-104531045D01*
X101840726Y-104699997D01*
X101840726Y-104700002D01*
X101859761Y-104868951D01*
X101887922Y-104949429D01*
X101915918Y-105029437D01*
X102006376Y-105173400D01*
X102126600Y-105293624D01*
X102270563Y-105384082D01*
X102392521Y-105426756D01*
X102431048Y-105440238D01*
X102599997Y-105459274D01*
X102600000Y-105459274D01*
X102600003Y-105459274D01*
X102768951Y-105440238D01*
X102768954Y-105440237D01*
X102929437Y-105384082D01*
X103073400Y-105293624D01*
X103193624Y-105173400D01*
X103284082Y-105029437D01*
X103340237Y-104868954D01*
X103340237Y-104868953D01*
X103340238Y-104868951D01*
X103359274Y-104700002D01*
X103359274Y-104699997D01*
X103340238Y-104531048D01*
X103326756Y-104492521D01*
X103284082Y-104370563D01*
X103193624Y-104226600D01*
X103073400Y-104106376D01*
X102950956Y-104029439D01*
X102929439Y-104015919D01*
X102929438Y-104015918D01*
X102929437Y-104015918D01*
X102890912Y-104002437D01*
X102768951Y-103959761D01*
X102600003Y-103940726D01*
X102599997Y-103940726D01*
X102431045Y-103959762D01*
X102424256Y-103961312D01*
X102423646Y-103958640D01*
X102366252Y-103961534D01*
X102305646Y-103926767D01*
X102273458Y-103864753D01*
X102278111Y-103799991D01*
X102285368Y-103779255D01*
X102286783Y-103766697D01*
X102294298Y-103699997D01*
X115440726Y-103699997D01*
X115440726Y-103700002D01*
X115459761Y-103868951D01*
X115491538Y-103959762D01*
X115515918Y-104029437D01*
X115606376Y-104173400D01*
X115726600Y-104293624D01*
X115870563Y-104384082D01*
X115992521Y-104426756D01*
X116031048Y-104440238D01*
X116199997Y-104459274D01*
X116200000Y-104459274D01*
X116200003Y-104459274D01*
X116368951Y-104440238D01*
X116368954Y-104440237D01*
X116529437Y-104384082D01*
X116673400Y-104293624D01*
X116793624Y-104173400D01*
X116884082Y-104029437D01*
X116932826Y-103890135D01*
X119729500Y-103890135D01*
X119729500Y-105985870D01*
X119729501Y-105985876D01*
X119735908Y-106045483D01*
X119786202Y-106180328D01*
X119786206Y-106180335D01*
X119872452Y-106295544D01*
X119872455Y-106295547D01*
X119987664Y-106381793D01*
X119987671Y-106381797D01*
X120122517Y-106432091D01*
X120122516Y-106432091D01*
X120129444Y-106432835D01*
X120182127Y-106438500D01*
X122277872Y-106438499D01*
X122337483Y-106432091D01*
X122472331Y-106381796D01*
X122587546Y-106295546D01*
X122673796Y-106180331D01*
X122724091Y-106045483D01*
X122730500Y-105985873D01*
X122730499Y-104937994D01*
X124804357Y-104937994D01*
X124804357Y-104938005D01*
X124824890Y-105185812D01*
X124824892Y-105185824D01*
X124885936Y-105426881D01*
X124985826Y-105654606D01*
X125121833Y-105862782D01*
X125121836Y-105862785D01*
X125290256Y-106045738D01*
X125486491Y-106198474D01*
X125486493Y-106198475D01*
X125686469Y-106306697D01*
X125705190Y-106316828D01*
X125940386Y-106397571D01*
X126185665Y-106438500D01*
X126434335Y-106438500D01*
X126679614Y-106397571D01*
X126914810Y-106316828D01*
X127133509Y-106198474D01*
X127329744Y-106045738D01*
X127498164Y-105862785D01*
X127634173Y-105654607D01*
X127734063Y-105426881D01*
X127795108Y-105185821D01*
X127799780Y-105129437D01*
X127815643Y-104938005D01*
X127815643Y-104937994D01*
X127795109Y-104690187D01*
X127795107Y-104690175D01*
X127734063Y-104449118D01*
X127634173Y-104221393D01*
X127498166Y-104013217D01*
X127418583Y-103926767D01*
X127329744Y-103830262D01*
X127133509Y-103677526D01*
X127133507Y-103677525D01*
X127133506Y-103677524D01*
X126914811Y-103559172D01*
X126914802Y-103559169D01*
X126679616Y-103478429D01*
X126434335Y-103437500D01*
X126185665Y-103437500D01*
X125940383Y-103478429D01*
X125705197Y-103559169D01*
X125705188Y-103559172D01*
X125486493Y-103677524D01*
X125290257Y-103830261D01*
X125121833Y-104013217D01*
X124985826Y-104221393D01*
X124885936Y-104449118D01*
X124824892Y-104690175D01*
X124824890Y-104690187D01*
X124804357Y-104937994D01*
X122730499Y-104937994D01*
X122730499Y-103890128D01*
X122724091Y-103830517D01*
X122712705Y-103799990D01*
X122673797Y-103695671D01*
X122673793Y-103695664D01*
X122587547Y-103580455D01*
X122587544Y-103580452D01*
X122472335Y-103494206D01*
X122472328Y-103494202D01*
X122337482Y-103443908D01*
X122337483Y-103443908D01*
X122277883Y-103437501D01*
X122277881Y-103437500D01*
X122277873Y-103437500D01*
X122277864Y-103437500D01*
X120182129Y-103437500D01*
X120182123Y-103437501D01*
X120122516Y-103443908D01*
X119987671Y-103494202D01*
X119987664Y-103494206D01*
X119872455Y-103580452D01*
X119872452Y-103580455D01*
X119786206Y-103695664D01*
X119786202Y-103695671D01*
X119735908Y-103830517D01*
X119731776Y-103868954D01*
X119729501Y-103890123D01*
X119729500Y-103890135D01*
X116932826Y-103890135D01*
X116940237Y-103868954D01*
X116940237Y-103868953D01*
X116940238Y-103868951D01*
X116959274Y-103700002D01*
X116959274Y-103699997D01*
X116940238Y-103531048D01*
X116921826Y-103478429D01*
X116884082Y-103370563D01*
X116793624Y-103226600D01*
X116673400Y-103106376D01*
X116659651Y-103097737D01*
X116529439Y-103015919D01*
X116529438Y-103015918D01*
X116529437Y-103015918D01*
X116490912Y-103002437D01*
X116368951Y-102959761D01*
X116200003Y-102940726D01*
X116199997Y-102940726D01*
X116031048Y-102959761D01*
X115870560Y-103015919D01*
X115726599Y-103106376D01*
X115606376Y-103226599D01*
X115515919Y-103370560D01*
X115459761Y-103531048D01*
X115440726Y-103699997D01*
X102294298Y-103699997D01*
X102305565Y-103600003D01*
X102305565Y-103599996D01*
X102285369Y-103420750D01*
X102285368Y-103420745D01*
X102225789Y-103250478D01*
X102210785Y-103226600D01*
X102156685Y-103140500D01*
X102129816Y-103097738D01*
X102002262Y-102970184D01*
X101955380Y-102940726D01*
X101849523Y-102874211D01*
X101679254Y-102814631D01*
X101679249Y-102814630D01*
X101500004Y-102794435D01*
X101499996Y-102794435D01*
X101320750Y-102814630D01*
X101320745Y-102814631D01*
X101150476Y-102874211D01*
X100997737Y-102970184D01*
X100870184Y-103097737D01*
X100774211Y-103250476D01*
X100714631Y-103420745D01*
X100714630Y-103420750D01*
X100694435Y-103599996D01*
X54309500Y-103599996D01*
X54309500Y-100992135D01*
X77084500Y-100992135D01*
X77084500Y-102687870D01*
X77084501Y-102687876D01*
X77090908Y-102747483D01*
X77141202Y-102882328D01*
X77141206Y-102882335D01*
X77227452Y-102997544D01*
X77227455Y-102997547D01*
X77342664Y-103083793D01*
X77342671Y-103083797D01*
X77477517Y-103134091D01*
X77477516Y-103134091D01*
X77484444Y-103134835D01*
X77537127Y-103140500D01*
X79232872Y-103140499D01*
X79292483Y-103134091D01*
X79427331Y-103083796D01*
X79542546Y-102997546D01*
X79628796Y-102882331D01*
X79679091Y-102747483D01*
X79682862Y-102712401D01*
X79709599Y-102647855D01*
X79766990Y-102608006D01*
X79836816Y-102605511D01*
X79896905Y-102641163D01*
X79907726Y-102654536D01*
X79924956Y-102679143D01*
X80085858Y-102840045D01*
X80085861Y-102840047D01*
X80272266Y-102970568D01*
X80478504Y-103066739D01*
X80698308Y-103125635D01*
X80860230Y-103139801D01*
X80924998Y-103145468D01*
X80925000Y-103145468D01*
X80925002Y-103145468D01*
X80981807Y-103140498D01*
X81151692Y-103125635D01*
X81371496Y-103066739D01*
X81577734Y-102970568D01*
X81764139Y-102840047D01*
X81925047Y-102679139D01*
X82055568Y-102492734D01*
X82082618Y-102434724D01*
X82128790Y-102382285D01*
X82195983Y-102363133D01*
X82262865Y-102383348D01*
X82307381Y-102434724D01*
X82321517Y-102465038D01*
X82334429Y-102492728D01*
X82334432Y-102492734D01*
X82464954Y-102679141D01*
X82625858Y-102840045D01*
X82625861Y-102840047D01*
X82812266Y-102970568D01*
X83018504Y-103066739D01*
X83238308Y-103125635D01*
X83400230Y-103139801D01*
X83464998Y-103145468D01*
X83465000Y-103145468D01*
X83465002Y-103145468D01*
X83521807Y-103140498D01*
X83691692Y-103125635D01*
X83911496Y-103066739D01*
X84117734Y-102970568D01*
X84304139Y-102840047D01*
X84465047Y-102679139D01*
X84595568Y-102492734D01*
X84622618Y-102434724D01*
X84668790Y-102382285D01*
X84735983Y-102363133D01*
X84802865Y-102383348D01*
X84847381Y-102434724D01*
X84861517Y-102465038D01*
X84874429Y-102492728D01*
X84874432Y-102492734D01*
X85004954Y-102679141D01*
X85165858Y-102840045D01*
X85165861Y-102840047D01*
X85352266Y-102970568D01*
X85558504Y-103066739D01*
X85778308Y-103125635D01*
X85940230Y-103139801D01*
X86004998Y-103145468D01*
X86005000Y-103145468D01*
X86005002Y-103145468D01*
X86061807Y-103140498D01*
X86231692Y-103125635D01*
X86451496Y-103066739D01*
X86657734Y-102970568D01*
X86844139Y-102840047D01*
X87005047Y-102679139D01*
X87135568Y-102492734D01*
X87162618Y-102434724D01*
X87208790Y-102382285D01*
X87275983Y-102363133D01*
X87342865Y-102383348D01*
X87387381Y-102434724D01*
X87401517Y-102465038D01*
X87414429Y-102492728D01*
X87414432Y-102492734D01*
X87544954Y-102679141D01*
X87705858Y-102840045D01*
X87705861Y-102840047D01*
X87892266Y-102970568D01*
X88098504Y-103066739D01*
X88318308Y-103125635D01*
X88480230Y-103139801D01*
X88544998Y-103145468D01*
X88545000Y-103145468D01*
X88545002Y-103145468D01*
X88601807Y-103140498D01*
X88771692Y-103125635D01*
X88991496Y-103066739D01*
X89197734Y-102970568D01*
X89384139Y-102840047D01*
X89545047Y-102679139D01*
X89675568Y-102492734D01*
X89702618Y-102434724D01*
X89748790Y-102382285D01*
X89815983Y-102363133D01*
X89882865Y-102383348D01*
X89927381Y-102434724D01*
X89941517Y-102465038D01*
X89954429Y-102492728D01*
X89954432Y-102492734D01*
X90084954Y-102679141D01*
X90245858Y-102840045D01*
X90245861Y-102840047D01*
X90432266Y-102970568D01*
X90638504Y-103066739D01*
X90858308Y-103125635D01*
X91020230Y-103139801D01*
X91084998Y-103145468D01*
X91085000Y-103145468D01*
X91085002Y-103145468D01*
X91141807Y-103140498D01*
X91311692Y-103125635D01*
X91531496Y-103066739D01*
X91737734Y-102970568D01*
X91924139Y-102840047D01*
X92085047Y-102679139D01*
X92215568Y-102492734D01*
X92242618Y-102434724D01*
X92288790Y-102382285D01*
X92355983Y-102363133D01*
X92422865Y-102383348D01*
X92467381Y-102434724D01*
X92481517Y-102465038D01*
X92494429Y-102492728D01*
X92494432Y-102492734D01*
X92624954Y-102679141D01*
X92785858Y-102840045D01*
X92785861Y-102840047D01*
X92972266Y-102970568D01*
X93178504Y-103066739D01*
X93398308Y-103125635D01*
X93560230Y-103139801D01*
X93624998Y-103145468D01*
X93625000Y-103145468D01*
X93625002Y-103145468D01*
X93681807Y-103140498D01*
X93851692Y-103125635D01*
X94071496Y-103066739D01*
X94277734Y-102970568D01*
X94464139Y-102840047D01*
X94625047Y-102679139D01*
X94755568Y-102492734D01*
X94851739Y-102286496D01*
X94910635Y-102066692D01*
X94916470Y-101999997D01*
X129140726Y-101999997D01*
X129140726Y-102000002D01*
X129159761Y-102168951D01*
X129215919Y-102329439D01*
X129266182Y-102409432D01*
X129306376Y-102473400D01*
X129426600Y-102593624D01*
X129570563Y-102684082D01*
X129692521Y-102726756D01*
X129731048Y-102740238D01*
X129899997Y-102759274D01*
X129900000Y-102759274D01*
X129900003Y-102759274D01*
X130068951Y-102740238D01*
X130068954Y-102740237D01*
X130229437Y-102684082D01*
X130373400Y-102593624D01*
X130493624Y-102473400D01*
X130584082Y-102329437D01*
X130640237Y-102168954D01*
X130640237Y-102168953D01*
X130640238Y-102168951D01*
X130659274Y-102000002D01*
X130659274Y-101999997D01*
X130640238Y-101831048D01*
X130626756Y-101792521D01*
X130584082Y-101670563D01*
X130493624Y-101526600D01*
X130373400Y-101406376D01*
X130229439Y-101315919D01*
X130229438Y-101315918D01*
X130229437Y-101315918D01*
X130174372Y-101296650D01*
X130068951Y-101259761D01*
X129900003Y-101240726D01*
X129899997Y-101240726D01*
X129731048Y-101259761D01*
X129570560Y-101315919D01*
X129426599Y-101406376D01*
X129306376Y-101526599D01*
X129215919Y-101670560D01*
X129159761Y-101831048D01*
X129140726Y-101999997D01*
X94916470Y-101999997D01*
X94929779Y-101847872D01*
X94930468Y-101840001D01*
X94930468Y-101839998D01*
X94910635Y-101613313D01*
X94910635Y-101613308D01*
X94851739Y-101393504D01*
X94755568Y-101187266D01*
X94625047Y-101000861D01*
X94625045Y-101000858D01*
X94464141Y-100839954D01*
X94277734Y-100709432D01*
X94277732Y-100709431D01*
X94071497Y-100613261D01*
X94071488Y-100613258D01*
X93851697Y-100554366D01*
X93851693Y-100554365D01*
X93851692Y-100554365D01*
X93851691Y-100554364D01*
X93851686Y-100554364D01*
X93625002Y-100534532D01*
X93624998Y-100534532D01*
X93398313Y-100554364D01*
X93398302Y-100554366D01*
X93178511Y-100613258D01*
X93178502Y-100613261D01*
X92972267Y-100709431D01*
X92972265Y-100709432D01*
X92785858Y-100839954D01*
X92624954Y-101000858D01*
X92494432Y-101187265D01*
X92494431Y-101187267D01*
X92467382Y-101245275D01*
X92421209Y-101297714D01*
X92354016Y-101316866D01*
X92287135Y-101296650D01*
X92242618Y-101245275D01*
X92233955Y-101226697D01*
X92215568Y-101187266D01*
X92085047Y-101000861D01*
X92085045Y-101000858D01*
X91924141Y-100839954D01*
X91737734Y-100709432D01*
X91737732Y-100709431D01*
X91531497Y-100613261D01*
X91531488Y-100613258D01*
X91311697Y-100554366D01*
X91311693Y-100554365D01*
X91311692Y-100554365D01*
X91311691Y-100554364D01*
X91311686Y-100554364D01*
X91085002Y-100534532D01*
X91084998Y-100534532D01*
X90858313Y-100554364D01*
X90858302Y-100554366D01*
X90638511Y-100613258D01*
X90638502Y-100613261D01*
X90432267Y-100709431D01*
X90432265Y-100709432D01*
X90245858Y-100839954D01*
X90084954Y-101000858D01*
X89954432Y-101187265D01*
X89954431Y-101187267D01*
X89927382Y-101245275D01*
X89881209Y-101297714D01*
X89814016Y-101316866D01*
X89747135Y-101296650D01*
X89702618Y-101245275D01*
X89693955Y-101226697D01*
X89675568Y-101187266D01*
X89545047Y-101000861D01*
X89545045Y-101000858D01*
X89384141Y-100839954D01*
X89197734Y-100709432D01*
X89197732Y-100709431D01*
X88991497Y-100613261D01*
X88991488Y-100613258D01*
X88771697Y-100554366D01*
X88771693Y-100554365D01*
X88771692Y-100554365D01*
X88771691Y-100554364D01*
X88771686Y-100554364D01*
X88545002Y-100534532D01*
X88544998Y-100534532D01*
X88318313Y-100554364D01*
X88318302Y-100554366D01*
X88098511Y-100613258D01*
X88098502Y-100613261D01*
X87892267Y-100709431D01*
X87892265Y-100709432D01*
X87705858Y-100839954D01*
X87544954Y-101000858D01*
X87414432Y-101187265D01*
X87414431Y-101187267D01*
X87387382Y-101245275D01*
X87341209Y-101297714D01*
X87274016Y-101316866D01*
X87207135Y-101296650D01*
X87162618Y-101245275D01*
X87153955Y-101226697D01*
X87135568Y-101187266D01*
X87005047Y-101000861D01*
X87005045Y-101000858D01*
X86844141Y-100839954D01*
X86657734Y-100709432D01*
X86657732Y-100709431D01*
X86451497Y-100613261D01*
X86451488Y-100613258D01*
X86231697Y-100554366D01*
X86231693Y-100554365D01*
X86231692Y-100554365D01*
X86231691Y-100554364D01*
X86231686Y-100554364D01*
X86005002Y-100534532D01*
X86004998Y-100534532D01*
X85778313Y-100554364D01*
X85778302Y-100554366D01*
X85558511Y-100613258D01*
X85558502Y-100613261D01*
X85352267Y-100709431D01*
X85352265Y-100709432D01*
X85165858Y-100839954D01*
X85004954Y-101000858D01*
X84874432Y-101187265D01*
X84874431Y-101187267D01*
X84847382Y-101245275D01*
X84801209Y-101297714D01*
X84734016Y-101316866D01*
X84667135Y-101296650D01*
X84622618Y-101245275D01*
X84613955Y-101226697D01*
X84595568Y-101187266D01*
X84465047Y-101000861D01*
X84465045Y-101000858D01*
X84304141Y-100839954D01*
X84117734Y-100709432D01*
X84117732Y-100709431D01*
X83911497Y-100613261D01*
X83911488Y-100613258D01*
X83691697Y-100554366D01*
X83691693Y-100554365D01*
X83691692Y-100554365D01*
X83691691Y-100554364D01*
X83691686Y-100554364D01*
X83465002Y-100534532D01*
X83464998Y-100534532D01*
X83238313Y-100554364D01*
X83238302Y-100554366D01*
X83018511Y-100613258D01*
X83018502Y-100613261D01*
X82812267Y-100709431D01*
X82812265Y-100709432D01*
X82625858Y-100839954D01*
X82464954Y-101000858D01*
X82334432Y-101187265D01*
X82334431Y-101187267D01*
X82307382Y-101245275D01*
X82261209Y-101297714D01*
X82194016Y-101316866D01*
X82127135Y-101296650D01*
X82082618Y-101245275D01*
X82073955Y-101226697D01*
X82055568Y-101187266D01*
X81925047Y-101000861D01*
X81925045Y-101000858D01*
X81764141Y-100839954D01*
X81577734Y-100709432D01*
X81577732Y-100709431D01*
X81371497Y-100613261D01*
X81371488Y-100613258D01*
X81151697Y-100554366D01*
X81151693Y-100554365D01*
X81151692Y-100554365D01*
X81151691Y-100554364D01*
X81151686Y-100554364D01*
X80925002Y-100534532D01*
X80924998Y-100534532D01*
X80698313Y-100554364D01*
X80698302Y-100554366D01*
X80478511Y-100613258D01*
X80478502Y-100613261D01*
X80272267Y-100709431D01*
X80272265Y-100709432D01*
X80085858Y-100839954D01*
X79924954Y-101000858D01*
X79907725Y-101025464D01*
X79853147Y-101069088D01*
X79783648Y-101076280D01*
X79721294Y-101044757D01*
X79685882Y-100984526D01*
X79682861Y-100967591D01*
X79679091Y-100932516D01*
X79628797Y-100797671D01*
X79628793Y-100797664D01*
X79542547Y-100682455D01*
X79542544Y-100682452D01*
X79427335Y-100596206D01*
X79427328Y-100596202D01*
X79292482Y-100545908D01*
X79292483Y-100545908D01*
X79232883Y-100539501D01*
X79232881Y-100539500D01*
X79232873Y-100539500D01*
X79232864Y-100539500D01*
X77537129Y-100539500D01*
X77537123Y-100539501D01*
X77477516Y-100545908D01*
X77342671Y-100596202D01*
X77342664Y-100596206D01*
X77227455Y-100682452D01*
X77227452Y-100682455D01*
X77141206Y-100797664D01*
X77141202Y-100797671D01*
X77090908Y-100932517D01*
X77084501Y-100992116D01*
X77084500Y-100992135D01*
X54309500Y-100992135D01*
X54309500Y-70384577D01*
X61384500Y-70384577D01*
X61384500Y-70581422D01*
X61415290Y-70775826D01*
X61476117Y-70963029D01*
X61565476Y-71138405D01*
X61681172Y-71297646D01*
X61820354Y-71436828D01*
X61979595Y-71552524D01*
X62014999Y-71570563D01*
X62156213Y-71642515D01*
X62207009Y-71690489D01*
X62223804Y-71758310D01*
X62201267Y-71824445D01*
X62156213Y-71863485D01*
X61979594Y-71953476D01*
X61888741Y-72019485D01*
X61820354Y-72069172D01*
X61820352Y-72069174D01*
X61820351Y-72069174D01*
X61681174Y-72208351D01*
X61681174Y-72208352D01*
X61681172Y-72208354D01*
X61665853Y-72229439D01*
X61565476Y-72367594D01*
X61476117Y-72542970D01*
X61415290Y-72730173D01*
X61384500Y-72924577D01*
X61384500Y-73121422D01*
X61415290Y-73315826D01*
X61476117Y-73503029D01*
X61547754Y-73643623D01*
X61565476Y-73678405D01*
X61681172Y-73837646D01*
X61820354Y-73976828D01*
X61979595Y-74092524D01*
X62102992Y-74155397D01*
X62156213Y-74182515D01*
X62207009Y-74230489D01*
X62223804Y-74298310D01*
X62201267Y-74364445D01*
X62156213Y-74403485D01*
X61979594Y-74493476D01*
X61888741Y-74559485D01*
X61820354Y-74609172D01*
X61820352Y-74609174D01*
X61820351Y-74609174D01*
X61681174Y-74748351D01*
X61681174Y-74748352D01*
X61681172Y-74748354D01*
X61631485Y-74816741D01*
X61565476Y-74907594D01*
X61476117Y-75082970D01*
X61415290Y-75270173D01*
X61384500Y-75464577D01*
X61384500Y-75661422D01*
X61415290Y-75855826D01*
X61476117Y-76043029D01*
X61564209Y-76215918D01*
X61565476Y-76218405D01*
X61681172Y-76377646D01*
X61820354Y-76516828D01*
X61979595Y-76632524D01*
X62102992Y-76695397D01*
X62156213Y-76722515D01*
X62207009Y-76770489D01*
X62223804Y-76838310D01*
X62201267Y-76904445D01*
X62156213Y-76943485D01*
X61979594Y-77033476D01*
X61930768Y-77068951D01*
X61820354Y-77149172D01*
X61820352Y-77149174D01*
X61820351Y-77149174D01*
X61681174Y-77288351D01*
X61681174Y-77288352D01*
X61681172Y-77288354D01*
X61657281Y-77321237D01*
X61565476Y-77447594D01*
X61476117Y-77622970D01*
X61415290Y-77810173D01*
X61384500Y-78004577D01*
X61384500Y-78201422D01*
X61415290Y-78395826D01*
X61476117Y-78583029D01*
X61565476Y-78758405D01*
X61681172Y-78917646D01*
X61820354Y-79056828D01*
X61979595Y-79172524D01*
X62085724Y-79226599D01*
X62156213Y-79262515D01*
X62207009Y-79310489D01*
X62223804Y-79378310D01*
X62201267Y-79444445D01*
X62156213Y-79483485D01*
X61979594Y-79573476D01*
X61888741Y-79639485D01*
X61820354Y-79689172D01*
X61820352Y-79689174D01*
X61820351Y-79689174D01*
X61681174Y-79828351D01*
X61681174Y-79828352D01*
X61681172Y-79828354D01*
X61651674Y-79868954D01*
X61565476Y-79987594D01*
X61476117Y-80162970D01*
X61415290Y-80350173D01*
X61384500Y-80544577D01*
X61384500Y-80741422D01*
X61415290Y-80935826D01*
X61476117Y-81123029D01*
X61565476Y-81298405D01*
X61681172Y-81457646D01*
X61820354Y-81596828D01*
X61979595Y-81712524D01*
X62071348Y-81759274D01*
X62156213Y-81802515D01*
X62207009Y-81850489D01*
X62223804Y-81918310D01*
X62201267Y-81984445D01*
X62156213Y-82023485D01*
X61979594Y-82113476D01*
X61888741Y-82179485D01*
X61820354Y-82229172D01*
X61820352Y-82229174D01*
X61820351Y-82229174D01*
X61681174Y-82368351D01*
X61681174Y-82368352D01*
X61681172Y-82368354D01*
X61631485Y-82436741D01*
X61565476Y-82527594D01*
X61476117Y-82702970D01*
X61415290Y-82890173D01*
X61384500Y-83084577D01*
X61384500Y-83281422D01*
X61415290Y-83475826D01*
X61476117Y-83663029D01*
X61542659Y-83793624D01*
X61565476Y-83838405D01*
X61681172Y-83997646D01*
X61820354Y-84136828D01*
X61979595Y-84252524D01*
X62096414Y-84312046D01*
X62156213Y-84342515D01*
X62207009Y-84390489D01*
X62223804Y-84458310D01*
X62201267Y-84524445D01*
X62156213Y-84563485D01*
X61979594Y-84653476D01*
X61888741Y-84719485D01*
X61820354Y-84769172D01*
X61820352Y-84769174D01*
X61820351Y-84769174D01*
X61681174Y-84908351D01*
X61681174Y-84908352D01*
X61681172Y-84908354D01*
X61631485Y-84976741D01*
X61565476Y-85067594D01*
X61476117Y-85242970D01*
X61415290Y-85430173D01*
X61384500Y-85624577D01*
X61384500Y-85821422D01*
X61415290Y-86015826D01*
X61476117Y-86203029D01*
X61562926Y-86373400D01*
X61565476Y-86378405D01*
X61681172Y-86537646D01*
X61820354Y-86676828D01*
X61979595Y-86792524D01*
X62102992Y-86855397D01*
X62156213Y-86882515D01*
X62207009Y-86930489D01*
X62223804Y-86998310D01*
X62201267Y-87064445D01*
X62156213Y-87103485D01*
X61979594Y-87193476D01*
X61930099Y-87229437D01*
X61820354Y-87309172D01*
X61820352Y-87309174D01*
X61820351Y-87309174D01*
X61681174Y-87448351D01*
X61681174Y-87448352D01*
X61681172Y-87448354D01*
X61679975Y-87450002D01*
X61565476Y-87607594D01*
X61476117Y-87782970D01*
X61415290Y-87970173D01*
X61384500Y-88164577D01*
X61384500Y-88361422D01*
X61415290Y-88555826D01*
X61476117Y-88743029D01*
X61565476Y-88918405D01*
X61681172Y-89077646D01*
X61820354Y-89216828D01*
X61979595Y-89332524D01*
X62088010Y-89387764D01*
X62156213Y-89422515D01*
X62207009Y-89470489D01*
X62223804Y-89538310D01*
X62201267Y-89604445D01*
X62156213Y-89643485D01*
X61979594Y-89733476D01*
X61936930Y-89764474D01*
X61820354Y-89849172D01*
X61820352Y-89849174D01*
X61820351Y-89849174D01*
X61681174Y-89988351D01*
X61681174Y-89988352D01*
X61681172Y-89988354D01*
X61666486Y-90008568D01*
X61565476Y-90147594D01*
X61476117Y-90322970D01*
X61415290Y-90510173D01*
X61384500Y-90704577D01*
X61384500Y-90901422D01*
X61415290Y-91095826D01*
X61476117Y-91283029D01*
X61522164Y-91373400D01*
X61565476Y-91458405D01*
X61681172Y-91617646D01*
X61820354Y-91756828D01*
X61979595Y-91872524D01*
X62102992Y-91935397D01*
X62156213Y-91962515D01*
X62207009Y-92010489D01*
X62223804Y-92078310D01*
X62201267Y-92144445D01*
X62156213Y-92183485D01*
X61979594Y-92273476D01*
X61888741Y-92339485D01*
X61820354Y-92389172D01*
X61820352Y-92389174D01*
X61820351Y-92389174D01*
X61681174Y-92528351D01*
X61681174Y-92528352D01*
X61681172Y-92528354D01*
X61676085Y-92535356D01*
X61565476Y-92687594D01*
X61476117Y-92862970D01*
X61415290Y-93050173D01*
X61384500Y-93244577D01*
X61384500Y-93441422D01*
X61415290Y-93635826D01*
X61476117Y-93823029D01*
X61552787Y-93973502D01*
X61565476Y-93998405D01*
X61681172Y-94157646D01*
X61820354Y-94296828D01*
X61979595Y-94412524D01*
X62071348Y-94459274D01*
X62156213Y-94502515D01*
X62207009Y-94550489D01*
X62223804Y-94618310D01*
X62201267Y-94684445D01*
X62156213Y-94723485D01*
X61979594Y-94813476D01*
X61906618Y-94866497D01*
X61820354Y-94929172D01*
X61820352Y-94929174D01*
X61820351Y-94929174D01*
X61681174Y-95068351D01*
X61681174Y-95068352D01*
X61681172Y-95068354D01*
X61643242Y-95120560D01*
X61565476Y-95227594D01*
X61476117Y-95402970D01*
X61415290Y-95590173D01*
X61384500Y-95784577D01*
X61384500Y-95981422D01*
X61415290Y-96175826D01*
X61476117Y-96363029D01*
X61539673Y-96487764D01*
X61565476Y-96538405D01*
X61681172Y-96697646D01*
X61820354Y-96836828D01*
X61979595Y-96952524D01*
X62102992Y-97015397D01*
X62156213Y-97042515D01*
X62207009Y-97090489D01*
X62223804Y-97158310D01*
X62201267Y-97224445D01*
X62156213Y-97263485D01*
X61979594Y-97353476D01*
X61906618Y-97406497D01*
X61820354Y-97469172D01*
X61820352Y-97469174D01*
X61820351Y-97469174D01*
X61681174Y-97608351D01*
X61681174Y-97608352D01*
X61681172Y-97608354D01*
X61656351Y-97642517D01*
X61565476Y-97767594D01*
X61476117Y-97942970D01*
X61415290Y-98130173D01*
X61384500Y-98324577D01*
X61384500Y-98521422D01*
X61415290Y-98715826D01*
X61476117Y-98903029D01*
X61491498Y-98933215D01*
X61565476Y-99078405D01*
X61681172Y-99237646D01*
X61820354Y-99376828D01*
X61979595Y-99492524D01*
X62020082Y-99513153D01*
X62154970Y-99581882D01*
X62154972Y-99581882D01*
X62154975Y-99581884D01*
X62204181Y-99597872D01*
X62342173Y-99642709D01*
X62536578Y-99673500D01*
X62536583Y-99673500D01*
X64233422Y-99673500D01*
X64427826Y-99642709D01*
X64451118Y-99635141D01*
X64615025Y-99581884D01*
X64790405Y-99492524D01*
X64949646Y-99376828D01*
X65088828Y-99237646D01*
X65204524Y-99078405D01*
X65293884Y-98903025D01*
X65354709Y-98715826D01*
X65385500Y-98521422D01*
X65385500Y-98324577D01*
X65354709Y-98130173D01*
X65310341Y-97993624D01*
X65293884Y-97942975D01*
X65293882Y-97942972D01*
X65293882Y-97942970D01*
X65220596Y-97799139D01*
X65204524Y-97767595D01*
X65088828Y-97608354D01*
X64949646Y-97469172D01*
X64854442Y-97400002D01*
X64854435Y-97399997D01*
X66540726Y-97399997D01*
X66540726Y-97400002D01*
X66559761Y-97568951D01*
X66615919Y-97729439D01*
X66639894Y-97767595D01*
X66706376Y-97873400D01*
X66826600Y-97993624D01*
X66970563Y-98084082D01*
X67092521Y-98126756D01*
X67131048Y-98140238D01*
X67299997Y-98159274D01*
X67300000Y-98159274D01*
X67300003Y-98159274D01*
X67468951Y-98140238D01*
X67468954Y-98140237D01*
X67629437Y-98084082D01*
X67773400Y-97993624D01*
X67893624Y-97873400D01*
X67984082Y-97729437D01*
X68040237Y-97568954D01*
X68040237Y-97568953D01*
X68040238Y-97568951D01*
X68059274Y-97400002D01*
X68059274Y-97399997D01*
X68040238Y-97231048D01*
X68014786Y-97158310D01*
X67984082Y-97070563D01*
X67893624Y-96926600D01*
X67773400Y-96806376D01*
X67720919Y-96773400D01*
X67629439Y-96715919D01*
X67629438Y-96715918D01*
X67629437Y-96715918D01*
X67577221Y-96697647D01*
X67468951Y-96659761D01*
X67300003Y-96640726D01*
X67299997Y-96640726D01*
X67131048Y-96659761D01*
X66970560Y-96715919D01*
X66826599Y-96806376D01*
X66706376Y-96926599D01*
X66615919Y-97070560D01*
X66559761Y-97231048D01*
X66540726Y-97399997D01*
X64854435Y-97399997D01*
X64790403Y-97353474D01*
X64613787Y-97263485D01*
X64562990Y-97215511D01*
X64546195Y-97147690D01*
X64568732Y-97081555D01*
X64613787Y-97042515D01*
X64790403Y-96952525D01*
X64790402Y-96952525D01*
X64790405Y-96952524D01*
X64949646Y-96836828D01*
X65088828Y-96697646D01*
X65204524Y-96538405D01*
X65293884Y-96363025D01*
X65314363Y-96299997D01*
X83240726Y-96299997D01*
X83240726Y-96300002D01*
X83259761Y-96468951D01*
X83315919Y-96629439D01*
X83381188Y-96733313D01*
X83406376Y-96773400D01*
X83526600Y-96893624D01*
X83670563Y-96984082D01*
X83792521Y-97026756D01*
X83831048Y-97040238D01*
X83999997Y-97059274D01*
X84000000Y-97059274D01*
X84000003Y-97059274D01*
X84168951Y-97040238D01*
X84168954Y-97040237D01*
X84329437Y-96984082D01*
X84473400Y-96893624D01*
X84593624Y-96773400D01*
X84684082Y-96629437D01*
X84740237Y-96468954D01*
X84740237Y-96468953D01*
X84740238Y-96468951D01*
X84759274Y-96300002D01*
X84759274Y-96299997D01*
X84740238Y-96131048D01*
X84726756Y-96092521D01*
X84684082Y-95970563D01*
X84593624Y-95826600D01*
X84473400Y-95706376D01*
X84405636Y-95663797D01*
X84329439Y-95615919D01*
X84329438Y-95615918D01*
X84329437Y-95615918D01*
X84290912Y-95602437D01*
X84168951Y-95559761D01*
X84000003Y-95540726D01*
X83999997Y-95540726D01*
X83831048Y-95559761D01*
X83670560Y-95615919D01*
X83526599Y-95706376D01*
X83406376Y-95826599D01*
X83315919Y-95970560D01*
X83259761Y-96131048D01*
X83240726Y-96299997D01*
X65314363Y-96299997D01*
X65354709Y-96175826D01*
X65361801Y-96131048D01*
X65385500Y-95981422D01*
X65385500Y-95784577D01*
X65354709Y-95590173D01*
X65309162Y-95449997D01*
X66090726Y-95449997D01*
X66090726Y-95450002D01*
X66109761Y-95618951D01*
X66165919Y-95779439D01*
X66169151Y-95784583D01*
X66256376Y-95923400D01*
X66376600Y-96043624D01*
X66520563Y-96134082D01*
X66639861Y-96175826D01*
X66681048Y-96190238D01*
X66849997Y-96209274D01*
X66850000Y-96209274D01*
X66850003Y-96209274D01*
X67018951Y-96190238D01*
X67018954Y-96190237D01*
X67179437Y-96134082D01*
X67323400Y-96043624D01*
X67443624Y-95923400D01*
X67534082Y-95779437D01*
X67590237Y-95618954D01*
X67590237Y-95618953D01*
X67590238Y-95618951D01*
X67609274Y-95450002D01*
X67609274Y-95449997D01*
X67590238Y-95281048D01*
X67561022Y-95197554D01*
X67534082Y-95120563D01*
X67521160Y-95099997D01*
X72740726Y-95099997D01*
X72740726Y-95100002D01*
X72759761Y-95268951D01*
X72780243Y-95327483D01*
X72812632Y-95420047D01*
X72815919Y-95429439D01*
X72892029Y-95550567D01*
X72906376Y-95573400D01*
X73026600Y-95693624D01*
X73170563Y-95784082D01*
X73292071Y-95826599D01*
X73331048Y-95840238D01*
X73499997Y-95859274D01*
X73500000Y-95859274D01*
X73500003Y-95859274D01*
X73668951Y-95840238D01*
X73668954Y-95840237D01*
X73829437Y-95784082D01*
X73973400Y-95693624D01*
X74093624Y-95573400D01*
X74184082Y-95429437D01*
X74240237Y-95268954D01*
X74240237Y-95268953D01*
X74240238Y-95268951D01*
X74259274Y-95100002D01*
X74259274Y-95099997D01*
X77340726Y-95099997D01*
X77340726Y-95100002D01*
X77359761Y-95268951D01*
X77380243Y-95327483D01*
X77412632Y-95420047D01*
X77415919Y-95429439D01*
X77492029Y-95550567D01*
X77506376Y-95573400D01*
X77626600Y-95693624D01*
X77770563Y-95784082D01*
X77892071Y-95826599D01*
X77931048Y-95840238D01*
X78099997Y-95859274D01*
X78100000Y-95859274D01*
X78100003Y-95859274D01*
X78268951Y-95840238D01*
X78268954Y-95840237D01*
X78429437Y-95784082D01*
X78573400Y-95693624D01*
X78693624Y-95573400D01*
X78784082Y-95429437D01*
X78840237Y-95268954D01*
X78840237Y-95268953D01*
X78840238Y-95268951D01*
X78859274Y-95100002D01*
X78859274Y-95099997D01*
X78840238Y-94931048D01*
X78826756Y-94892521D01*
X78784082Y-94770563D01*
X78693624Y-94626600D01*
X78573400Y-94506376D01*
X78468142Y-94440238D01*
X78429439Y-94415919D01*
X78429438Y-94415918D01*
X78429437Y-94415918D01*
X78390912Y-94402437D01*
X78268951Y-94359761D01*
X78100003Y-94340726D01*
X78099997Y-94340726D01*
X77931048Y-94359761D01*
X77770560Y-94415919D01*
X77626599Y-94506376D01*
X77506376Y-94626599D01*
X77415919Y-94770560D01*
X77359761Y-94931048D01*
X77340726Y-95099997D01*
X74259274Y-95099997D01*
X74240238Y-94931048D01*
X74226756Y-94892521D01*
X74184082Y-94770563D01*
X74093624Y-94626600D01*
X73973400Y-94506376D01*
X73868142Y-94440238D01*
X73829439Y-94415919D01*
X73829438Y-94415918D01*
X73829437Y-94415918D01*
X73790912Y-94402437D01*
X73668951Y-94359761D01*
X73500003Y-94340726D01*
X73499997Y-94340726D01*
X73331048Y-94359761D01*
X73170560Y-94415919D01*
X73026599Y-94506376D01*
X72906376Y-94626599D01*
X72815919Y-94770560D01*
X72759761Y-94931048D01*
X72740726Y-95099997D01*
X67521160Y-95099997D01*
X67443624Y-94976600D01*
X67323400Y-94856376D01*
X67179439Y-94765919D01*
X67179438Y-94765918D01*
X67179437Y-94765918D01*
X67140912Y-94752437D01*
X67018951Y-94709761D01*
X66850003Y-94690726D01*
X66849997Y-94690726D01*
X66681048Y-94709761D01*
X66520560Y-94765919D01*
X66376599Y-94856376D01*
X66256376Y-94976599D01*
X66165919Y-95120560D01*
X66109761Y-95281048D01*
X66090726Y-95449997D01*
X65309162Y-95449997D01*
X65293884Y-95402975D01*
X65293882Y-95402972D01*
X65293882Y-95402970D01*
X65225596Y-95268951D01*
X65204524Y-95227595D01*
X65088828Y-95068354D01*
X64949646Y-94929172D01*
X64863369Y-94866488D01*
X64790403Y-94813474D01*
X64613787Y-94723485D01*
X64562990Y-94675511D01*
X64546195Y-94607690D01*
X64568732Y-94541555D01*
X64613787Y-94502515D01*
X64790403Y-94412525D01*
X64790402Y-94412525D01*
X64790405Y-94412524D01*
X64949646Y-94296828D01*
X65088828Y-94157646D01*
X65204524Y-93998405D01*
X65293884Y-93823025D01*
X65333858Y-93699997D01*
X80840726Y-93699997D01*
X80840726Y-93700002D01*
X80859761Y-93868951D01*
X80896346Y-93973502D01*
X80915918Y-94029437D01*
X81006376Y-94173400D01*
X81126600Y-94293624D01*
X81270563Y-94384082D01*
X81392521Y-94426756D01*
X81431048Y-94440238D01*
X81599997Y-94459274D01*
X81600000Y-94459274D01*
X81600003Y-94459274D01*
X81768951Y-94440238D01*
X81768954Y-94440237D01*
X81826794Y-94419998D01*
X100169532Y-94419998D01*
X100169532Y-94420001D01*
X100189364Y-94646686D01*
X100189366Y-94646697D01*
X100248258Y-94866488D01*
X100248261Y-94866497D01*
X100344431Y-95072732D01*
X100344432Y-95072734D01*
X100474954Y-95259141D01*
X100635858Y-95420045D01*
X100635861Y-95420047D01*
X100822266Y-95550568D01*
X100880275Y-95577618D01*
X100932714Y-95623791D01*
X100951866Y-95690984D01*
X100931650Y-95757865D01*
X100880275Y-95802382D01*
X100822267Y-95829431D01*
X100822265Y-95829432D01*
X100635858Y-95959954D01*
X100474954Y-96120858D01*
X100344432Y-96307265D01*
X100344431Y-96307267D01*
X100248261Y-96513502D01*
X100248258Y-96513511D01*
X100189366Y-96733302D01*
X100189364Y-96733313D01*
X100169532Y-96959998D01*
X100169532Y-96960001D01*
X100189364Y-97186686D01*
X100189366Y-97186697D01*
X100248258Y-97406488D01*
X100248261Y-97406497D01*
X100344431Y-97612732D01*
X100344432Y-97612734D01*
X100474954Y-97799141D01*
X100635858Y-97960045D01*
X100635861Y-97960047D01*
X100822266Y-98090568D01*
X100880275Y-98117618D01*
X100932714Y-98163791D01*
X100951866Y-98230984D01*
X100931650Y-98297865D01*
X100880275Y-98342382D01*
X100822267Y-98369431D01*
X100822265Y-98369432D01*
X100635858Y-98499954D01*
X100474954Y-98660858D01*
X100344432Y-98847265D01*
X100344431Y-98847267D01*
X100248261Y-99053502D01*
X100248258Y-99053511D01*
X100189366Y-99273302D01*
X100189364Y-99273313D01*
X100169532Y-99499998D01*
X100169532Y-99500001D01*
X100189364Y-99726686D01*
X100189366Y-99726697D01*
X100248258Y-99946488D01*
X100248261Y-99946497D01*
X100344431Y-100152732D01*
X100344432Y-100152734D01*
X100474954Y-100339141D01*
X100635858Y-100500045D01*
X100635861Y-100500047D01*
X100822266Y-100630568D01*
X101028504Y-100726739D01*
X101248308Y-100785635D01*
X101410230Y-100799801D01*
X101474998Y-100805468D01*
X101475000Y-100805468D01*
X101475002Y-100805468D01*
X101531673Y-100800509D01*
X101701692Y-100785635D01*
X101921496Y-100726739D01*
X102127734Y-100630568D01*
X102314139Y-100500047D01*
X102475047Y-100339139D01*
X102605568Y-100152734D01*
X102701739Y-99946496D01*
X102760635Y-99726692D01*
X102780468Y-99500000D01*
X102780468Y-99499998D01*
X107789532Y-99499998D01*
X107789532Y-99500001D01*
X107809364Y-99726686D01*
X107809366Y-99726697D01*
X107868258Y-99946488D01*
X107868261Y-99946497D01*
X107964431Y-100152732D01*
X107964432Y-100152734D01*
X108094954Y-100339141D01*
X108255858Y-100500045D01*
X108255861Y-100500047D01*
X108442266Y-100630568D01*
X108648504Y-100726739D01*
X108868308Y-100785635D01*
X109030230Y-100799801D01*
X109094998Y-100805468D01*
X109095000Y-100805468D01*
X109095002Y-100805468D01*
X109151673Y-100800509D01*
X109321692Y-100785635D01*
X109541496Y-100726739D01*
X109747734Y-100630568D01*
X109934139Y-100500047D01*
X110095047Y-100339139D01*
X110225568Y-100152734D01*
X110321739Y-99946496D01*
X110321740Y-99946488D01*
X110321743Y-99946483D01*
X110334714Y-99898072D01*
X110371077Y-99838411D01*
X110433924Y-99807880D01*
X110503299Y-99816174D01*
X110553755Y-99855851D01*
X110592455Y-99907547D01*
X110707664Y-99993793D01*
X110707671Y-99993797D01*
X110842517Y-100044091D01*
X110842516Y-100044091D01*
X110849444Y-100044835D01*
X110902127Y-100050500D01*
X112797872Y-100050499D01*
X112857483Y-100044091D01*
X112992331Y-99993796D01*
X113107546Y-99907546D01*
X113193796Y-99792331D01*
X113207270Y-99756206D01*
X113222455Y-99715493D01*
X113264326Y-99659559D01*
X113329790Y-99635141D01*
X113398063Y-99649992D01*
X113429866Y-99674843D01*
X113437302Y-99682920D01*
X113438215Y-99683912D01*
X113438222Y-99683918D01*
X113621365Y-99826464D01*
X113621371Y-99826468D01*
X113621374Y-99826470D01*
X113825497Y-99936936D01*
X113939487Y-99976068D01*
X114045015Y-100012297D01*
X114045017Y-100012297D01*
X114045019Y-100012298D01*
X114273951Y-100050500D01*
X114273952Y-100050500D01*
X114506048Y-100050500D01*
X114506049Y-100050500D01*
X114734981Y-100012298D01*
X114954503Y-99936936D01*
X115100375Y-99857994D01*
X119724357Y-99857994D01*
X119724357Y-99858005D01*
X119744890Y-100105812D01*
X119744892Y-100105824D01*
X119805936Y-100346881D01*
X119905826Y-100574606D01*
X120041833Y-100782782D01*
X120062717Y-100805468D01*
X120210256Y-100965738D01*
X120406491Y-101118474D01*
X120406493Y-101118475D01*
X120606469Y-101226697D01*
X120625190Y-101236828D01*
X120860386Y-101317571D01*
X121105665Y-101358500D01*
X121354335Y-101358500D01*
X121599614Y-101317571D01*
X121834810Y-101236828D01*
X122053509Y-101118474D01*
X122205727Y-100999998D01*
X130774532Y-100999998D01*
X130774532Y-101000001D01*
X130794364Y-101226686D01*
X130794366Y-101226697D01*
X130853258Y-101446488D01*
X130853261Y-101446497D01*
X130949431Y-101652732D01*
X130949432Y-101652734D01*
X131079954Y-101839141D01*
X131240858Y-102000045D01*
X131240861Y-102000047D01*
X131427266Y-102130568D01*
X131485275Y-102157618D01*
X131537714Y-102203791D01*
X131556866Y-102270984D01*
X131536650Y-102337865D01*
X131485275Y-102382382D01*
X131427267Y-102409431D01*
X131427265Y-102409432D01*
X131240858Y-102539954D01*
X131079954Y-102700858D01*
X130949432Y-102887265D01*
X130949431Y-102887267D01*
X130853261Y-103093502D01*
X130853258Y-103093511D01*
X130794366Y-103313302D01*
X130794364Y-103313313D01*
X130774532Y-103539998D01*
X130774532Y-103540001D01*
X130794364Y-103766686D01*
X130794366Y-103766697D01*
X130853258Y-103986488D01*
X130853261Y-103986497D01*
X130949431Y-104192732D01*
X130949432Y-104192734D01*
X131079954Y-104379141D01*
X131240858Y-104540045D01*
X131240861Y-104540047D01*
X131427266Y-104670568D01*
X131633504Y-104766739D01*
X131853308Y-104825635D01*
X132015230Y-104839801D01*
X132079998Y-104845468D01*
X132080000Y-104845468D01*
X132080002Y-104845468D01*
X132136673Y-104840509D01*
X132306692Y-104825635D01*
X132526496Y-104766739D01*
X132732734Y-104670568D01*
X132919139Y-104540047D01*
X133080047Y-104379139D01*
X133210568Y-104192734D01*
X133306739Y-103986496D01*
X133365635Y-103766692D01*
X133385468Y-103540000D01*
X133385468Y-103539998D01*
X138394532Y-103539998D01*
X138394532Y-103540001D01*
X138414364Y-103766686D01*
X138414366Y-103766697D01*
X138473258Y-103986488D01*
X138473261Y-103986497D01*
X138569431Y-104192732D01*
X138569432Y-104192734D01*
X138699954Y-104379141D01*
X138860858Y-104540045D01*
X138860861Y-104540047D01*
X139047266Y-104670568D01*
X139089322Y-104690179D01*
X139105275Y-104697618D01*
X139157714Y-104743791D01*
X139176866Y-104810984D01*
X139156650Y-104877865D01*
X139105275Y-104922382D01*
X139047267Y-104949431D01*
X139047265Y-104949432D01*
X138860858Y-105079954D01*
X138699954Y-105240858D01*
X138569432Y-105427265D01*
X138569431Y-105427267D01*
X138473261Y-105633502D01*
X138473258Y-105633511D01*
X138414366Y-105853302D01*
X138414364Y-105853313D01*
X138394532Y-106079998D01*
X138394532Y-106080001D01*
X138414364Y-106306686D01*
X138414366Y-106306697D01*
X138473258Y-106526488D01*
X138473261Y-106526497D01*
X138569431Y-106732732D01*
X138569432Y-106732734D01*
X138699954Y-106919141D01*
X138860858Y-107080045D01*
X138860861Y-107080047D01*
X139047266Y-107210568D01*
X139253504Y-107306739D01*
X139473308Y-107365635D01*
X139635230Y-107379801D01*
X139699998Y-107385468D01*
X139700000Y-107385468D01*
X139700002Y-107385468D01*
X139756673Y-107380509D01*
X139926692Y-107365635D01*
X140146496Y-107306739D01*
X140352734Y-107210568D01*
X140539139Y-107080047D01*
X140700047Y-106919139D01*
X140830568Y-106732734D01*
X140926739Y-106526496D01*
X140985635Y-106306692D01*
X141005468Y-106080000D01*
X141002470Y-106045738D01*
X140986464Y-105862785D01*
X140985635Y-105853308D01*
X140926739Y-105633504D01*
X140830568Y-105427266D01*
X140700047Y-105240861D01*
X140700045Y-105240858D01*
X140539141Y-105079954D01*
X140352734Y-104949432D01*
X140352728Y-104949429D01*
X140294725Y-104922382D01*
X140242285Y-104876210D01*
X140223133Y-104809017D01*
X140243348Y-104742135D01*
X140294725Y-104697618D01*
X140352734Y-104670568D01*
X140539139Y-104540047D01*
X140700047Y-104379139D01*
X140830568Y-104192734D01*
X140926739Y-103986496D01*
X140985635Y-103766692D01*
X141005468Y-103540000D01*
X140985635Y-103313308D01*
X140930188Y-103106376D01*
X140926741Y-103093511D01*
X140926738Y-103093502D01*
X140830568Y-102887266D01*
X140700047Y-102700861D01*
X140700045Y-102700858D01*
X140539143Y-102539956D01*
X140514536Y-102522726D01*
X140470912Y-102468149D01*
X140463719Y-102398650D01*
X140495241Y-102336296D01*
X140555471Y-102300882D01*
X140572404Y-102297861D01*
X140607483Y-102294091D01*
X140742331Y-102243796D01*
X140857546Y-102157546D01*
X140943796Y-102042331D01*
X140994091Y-101907483D01*
X141000500Y-101847873D01*
X141000499Y-100152128D01*
X140994091Y-100092517D01*
X140978419Y-100050499D01*
X140943797Y-99957671D01*
X140943793Y-99957664D01*
X140857547Y-99842455D01*
X140857544Y-99842452D01*
X140742335Y-99756206D01*
X140742328Y-99756202D01*
X140607482Y-99705908D01*
X140607483Y-99705908D01*
X140547883Y-99699501D01*
X140547881Y-99699500D01*
X140547873Y-99699500D01*
X140547864Y-99699500D01*
X138852129Y-99699500D01*
X138852123Y-99699501D01*
X138792516Y-99705908D01*
X138657671Y-99756202D01*
X138657664Y-99756206D01*
X138542455Y-99842452D01*
X138542452Y-99842455D01*
X138456206Y-99957664D01*
X138456202Y-99957671D01*
X138405908Y-100092517D01*
X138399501Y-100152116D01*
X138399501Y-100152123D01*
X138399500Y-100152135D01*
X138399500Y-101847870D01*
X138399501Y-101847876D01*
X138405908Y-101907483D01*
X138456202Y-102042328D01*
X138456206Y-102042335D01*
X138542452Y-102157544D01*
X138542455Y-102157547D01*
X138657664Y-102243793D01*
X138657671Y-102243797D01*
X138702618Y-102260561D01*
X138792517Y-102294091D01*
X138827596Y-102297862D01*
X138892144Y-102324599D01*
X138931993Y-102381991D01*
X138934488Y-102451816D01*
X138898836Y-102511905D01*
X138885464Y-102522725D01*
X138860858Y-102539954D01*
X138699954Y-102700858D01*
X138569432Y-102887265D01*
X138569431Y-102887267D01*
X138473261Y-103093502D01*
X138473258Y-103093511D01*
X138414366Y-103313302D01*
X138414364Y-103313313D01*
X138394532Y-103539998D01*
X133385468Y-103539998D01*
X133365635Y-103313308D01*
X133310188Y-103106376D01*
X133306741Y-103093511D01*
X133306738Y-103093502D01*
X133210568Y-102887266D01*
X133080047Y-102700861D01*
X133080045Y-102700858D01*
X132919141Y-102539954D01*
X132732734Y-102409432D01*
X132732728Y-102409429D01*
X132674725Y-102382382D01*
X132622285Y-102336210D01*
X132603133Y-102269017D01*
X132623348Y-102202135D01*
X132674725Y-102157618D01*
X132732734Y-102130568D01*
X132919139Y-102000047D01*
X133080047Y-101839139D01*
X133210568Y-101652734D01*
X133306739Y-101446496D01*
X133365635Y-101226692D01*
X133385468Y-101000000D01*
X133382470Y-100965738D01*
X133371466Y-100839954D01*
X133365635Y-100773308D01*
X133306970Y-100554365D01*
X133306741Y-100553511D01*
X133306738Y-100553502D01*
X133210568Y-100347267D01*
X133210567Y-100347265D01*
X133080045Y-100160858D01*
X132919141Y-99999954D01*
X132732734Y-99869432D01*
X132732732Y-99869431D01*
X132526497Y-99773261D01*
X132526488Y-99773258D01*
X132306697Y-99714366D01*
X132306693Y-99714365D01*
X132306692Y-99714365D01*
X132306691Y-99714364D01*
X132306686Y-99714364D01*
X132080002Y-99694532D01*
X132079998Y-99694532D01*
X131853313Y-99714364D01*
X131853302Y-99714366D01*
X131633511Y-99773258D01*
X131633502Y-99773261D01*
X131427267Y-99869431D01*
X131427265Y-99869432D01*
X131240858Y-99999954D01*
X131079954Y-100160858D01*
X130949432Y-100347265D01*
X130949431Y-100347267D01*
X130853261Y-100553502D01*
X130853258Y-100553511D01*
X130794366Y-100773302D01*
X130794364Y-100773313D01*
X130774532Y-100999998D01*
X122205727Y-100999998D01*
X122249744Y-100965738D01*
X122418164Y-100782785D01*
X122554173Y-100574607D01*
X122654063Y-100346881D01*
X122715108Y-100105821D01*
X122715109Y-100105812D01*
X122735643Y-99858005D01*
X122735643Y-99857994D01*
X122715109Y-99610187D01*
X122715107Y-99610175D01*
X122654063Y-99369118D01*
X122554173Y-99141393D01*
X122418166Y-98933217D01*
X122384398Y-98896535D01*
X122249744Y-98750262D01*
X122053509Y-98597526D01*
X122053507Y-98597525D01*
X122053506Y-98597524D01*
X121834811Y-98479172D01*
X121834802Y-98479169D01*
X121599616Y-98398429D01*
X121354335Y-98357500D01*
X121105665Y-98357500D01*
X120860383Y-98398429D01*
X120625197Y-98479169D01*
X120625188Y-98479172D01*
X120406493Y-98597524D01*
X120210257Y-98750261D01*
X120041833Y-98933217D01*
X119905826Y-99141393D01*
X119805936Y-99369118D01*
X119744892Y-99610175D01*
X119744890Y-99610187D01*
X119724357Y-99857994D01*
X115100375Y-99857994D01*
X115158626Y-99826470D01*
X115171855Y-99816174D01*
X115226993Y-99773258D01*
X115341784Y-99683913D01*
X115498979Y-99513153D01*
X115625924Y-99318849D01*
X115719157Y-99106300D01*
X115776134Y-98881305D01*
X115777277Y-98867510D01*
X115795300Y-98650006D01*
X115795300Y-98649993D01*
X115776135Y-98418702D01*
X115776133Y-98418691D01*
X115719157Y-98193699D01*
X115625924Y-97981151D01*
X115498983Y-97786852D01*
X115498980Y-97786849D01*
X115498979Y-97786847D01*
X115341784Y-97616087D01*
X115341779Y-97616083D01*
X115341777Y-97616081D01*
X115158634Y-97473535D01*
X115158628Y-97473531D01*
X114954504Y-97363064D01*
X114954495Y-97363061D01*
X114734984Y-97287702D01*
X114544450Y-97255908D01*
X114506049Y-97249500D01*
X114273951Y-97249500D01*
X114235550Y-97255908D01*
X114045015Y-97287702D01*
X113825504Y-97363061D01*
X113825495Y-97363064D01*
X113621371Y-97473531D01*
X113621365Y-97473535D01*
X113438222Y-97616081D01*
X113438218Y-97616085D01*
X113429866Y-97625158D01*
X113369979Y-97661148D01*
X113300141Y-97659047D01*
X113242525Y-97619522D01*
X113222455Y-97584507D01*
X113193797Y-97507671D01*
X113193793Y-97507664D01*
X113107547Y-97392455D01*
X113107544Y-97392452D01*
X112992335Y-97306206D01*
X112992328Y-97306202D01*
X112857482Y-97255908D01*
X112857483Y-97255908D01*
X112797883Y-97249501D01*
X112797881Y-97249500D01*
X112797873Y-97249500D01*
X112797864Y-97249500D01*
X110902129Y-97249500D01*
X110902123Y-97249501D01*
X110842516Y-97255908D01*
X110707671Y-97306202D01*
X110707664Y-97306206D01*
X110592455Y-97392452D01*
X110592452Y-97392455D01*
X110506206Y-97507664D01*
X110506202Y-97507671D01*
X110455908Y-97642517D01*
X110449501Y-97702116D01*
X110449500Y-97702135D01*
X110449500Y-98773797D01*
X110429815Y-98840836D01*
X110377011Y-98886591D01*
X110307853Y-98896535D01*
X110244297Y-98867510D01*
X110223925Y-98844920D01*
X110221065Y-98840836D01*
X110095047Y-98660861D01*
X110095045Y-98660858D01*
X109934141Y-98499954D01*
X109747734Y-98369432D01*
X109747732Y-98369431D01*
X109541497Y-98273261D01*
X109541488Y-98273258D01*
X109321697Y-98214366D01*
X109321693Y-98214365D01*
X109321692Y-98214365D01*
X109321691Y-98214364D01*
X109321686Y-98214364D01*
X109095002Y-98194532D01*
X109094998Y-98194532D01*
X108868313Y-98214364D01*
X108868302Y-98214366D01*
X108648511Y-98273258D01*
X108648502Y-98273261D01*
X108442267Y-98369431D01*
X108442265Y-98369432D01*
X108255858Y-98499954D01*
X108094954Y-98660858D01*
X107964432Y-98847265D01*
X107964431Y-98847267D01*
X107868261Y-99053502D01*
X107868258Y-99053511D01*
X107809366Y-99273302D01*
X107809364Y-99273313D01*
X107789532Y-99499998D01*
X102780468Y-99499998D01*
X102760635Y-99273308D01*
X102701739Y-99053504D01*
X102605568Y-98847266D01*
X102475047Y-98660861D01*
X102475045Y-98660858D01*
X102314141Y-98499954D01*
X102127734Y-98369432D01*
X102127728Y-98369429D01*
X102069725Y-98342382D01*
X102017285Y-98296210D01*
X101998133Y-98229017D01*
X102018348Y-98162135D01*
X102069725Y-98117618D01*
X102127734Y-98090568D01*
X102314139Y-97960047D01*
X102475047Y-97799139D01*
X102605568Y-97612734D01*
X102701739Y-97406496D01*
X102760635Y-97186692D01*
X102780468Y-96960000D01*
X102760635Y-96733308D01*
X102701739Y-96513504D01*
X102605568Y-96307266D01*
X102475047Y-96120861D01*
X102475045Y-96120858D01*
X102314141Y-95959954D01*
X102127734Y-95829432D01*
X102127728Y-95829429D01*
X102069725Y-95802382D01*
X102017285Y-95756210D01*
X101998133Y-95689017D01*
X102018348Y-95622135D01*
X102069725Y-95577618D01*
X102127734Y-95550568D01*
X102314139Y-95420047D01*
X102475047Y-95259139D01*
X102605568Y-95072734D01*
X102701739Y-94866496D01*
X102760635Y-94646692D01*
X102778697Y-94440238D01*
X102780468Y-94420001D01*
X102780468Y-94419998D01*
X102769692Y-94296828D01*
X102760635Y-94193308D01*
X102701739Y-93973504D01*
X102605568Y-93767266D01*
X102475047Y-93580861D01*
X102475045Y-93580858D01*
X102466322Y-93572135D01*
X107794500Y-93572135D01*
X107794500Y-95267870D01*
X107794501Y-95267876D01*
X107800908Y-95327483D01*
X107851202Y-95462328D01*
X107851206Y-95462335D01*
X107937452Y-95577544D01*
X107937455Y-95577547D01*
X108052664Y-95663793D01*
X108052671Y-95663797D01*
X108187517Y-95714091D01*
X108187516Y-95714091D01*
X108194444Y-95714835D01*
X108247127Y-95720500D01*
X109942872Y-95720499D01*
X110002483Y-95714091D01*
X110137331Y-95663796D01*
X110181145Y-95630997D01*
X124716677Y-95630997D01*
X124716677Y-95631002D01*
X124735929Y-95851062D01*
X124735930Y-95851070D01*
X124793104Y-96064445D01*
X124793105Y-96064447D01*
X124793106Y-96064450D01*
X124874849Y-96239749D01*
X124886466Y-96264662D01*
X124886468Y-96264666D01*
X125013170Y-96445615D01*
X125013175Y-96445621D01*
X125169378Y-96601824D01*
X125169384Y-96601829D01*
X125350333Y-96728531D01*
X125350335Y-96728532D01*
X125350338Y-96728534D01*
X125550550Y-96821894D01*
X125763932Y-96879070D01*
X125921123Y-96892822D01*
X125983998Y-96898323D01*
X125984000Y-96898323D01*
X125984002Y-96898323D01*
X126039017Y-96893509D01*
X126204068Y-96879070D01*
X126417450Y-96821894D01*
X126617662Y-96728534D01*
X126798620Y-96601826D01*
X126954826Y-96445620D01*
X127081534Y-96264662D01*
X127174894Y-96064450D01*
X127232070Y-95851068D01*
X127251323Y-95631000D01*
X127251323Y-95630997D01*
X130050677Y-95630997D01*
X130050677Y-95631002D01*
X130069929Y-95851062D01*
X130069930Y-95851070D01*
X130127104Y-96064445D01*
X130127105Y-96064447D01*
X130127106Y-96064450D01*
X130208849Y-96239749D01*
X130220466Y-96264662D01*
X130220468Y-96264666D01*
X130347170Y-96445615D01*
X130347175Y-96445621D01*
X130503378Y-96601824D01*
X130503384Y-96601829D01*
X130684333Y-96728531D01*
X130684335Y-96728532D01*
X130684338Y-96728534D01*
X130884550Y-96821894D01*
X131097932Y-96879070D01*
X131255123Y-96892822D01*
X131317998Y-96898323D01*
X131318000Y-96898323D01*
X131318002Y-96898323D01*
X131373017Y-96893509D01*
X131538068Y-96879070D01*
X131751450Y-96821894D01*
X131951662Y-96728534D01*
X132132620Y-96601826D01*
X132140726Y-96593719D01*
X132202044Y-96560235D01*
X132271736Y-96565216D01*
X132327671Y-96607085D01*
X132352091Y-96672549D01*
X132339407Y-96736671D01*
X132275777Y-96864456D01*
X132275769Y-96864476D01*
X132214885Y-97078462D01*
X132214884Y-97078464D01*
X132194357Y-97299999D01*
X132194357Y-97300000D01*
X132214884Y-97521535D01*
X132214885Y-97521537D01*
X132275769Y-97735523D01*
X132275775Y-97735538D01*
X132374938Y-97934683D01*
X132374943Y-97934691D01*
X132509020Y-98112238D01*
X132673437Y-98262123D01*
X132673439Y-98262125D01*
X132862595Y-98379245D01*
X132862596Y-98379245D01*
X132862599Y-98379247D01*
X133070060Y-98459618D01*
X133288757Y-98500500D01*
X133288759Y-98500500D01*
X133511241Y-98500500D01*
X133511243Y-98500500D01*
X133729940Y-98459618D01*
X133937401Y-98379247D01*
X134126562Y-98262124D01*
X134290981Y-98112236D01*
X134425058Y-97934689D01*
X134524229Y-97735528D01*
X134585115Y-97521536D01*
X134605643Y-97300000D01*
X134605643Y-97299999D01*
X137274357Y-97299999D01*
X137274357Y-97300000D01*
X137294884Y-97521535D01*
X137294885Y-97521537D01*
X137355769Y-97735523D01*
X137355775Y-97735538D01*
X137454938Y-97934683D01*
X137454943Y-97934691D01*
X137589020Y-98112238D01*
X137753437Y-98262123D01*
X137753439Y-98262125D01*
X137942595Y-98379245D01*
X137942596Y-98379245D01*
X137942599Y-98379247D01*
X138150060Y-98459618D01*
X138368757Y-98500500D01*
X138368759Y-98500500D01*
X138591241Y-98500500D01*
X138591243Y-98500500D01*
X138809940Y-98459618D01*
X139017401Y-98379247D01*
X139206562Y-98262124D01*
X139370981Y-98112236D01*
X139505058Y-97934689D01*
X139604229Y-97735528D01*
X139665115Y-97521536D01*
X139685643Y-97300000D01*
X139684503Y-97287702D01*
X139665115Y-97078464D01*
X139665114Y-97078462D01*
X139654886Y-97042515D01*
X139604229Y-96864472D01*
X139604224Y-96864461D01*
X139505061Y-96665316D01*
X139505056Y-96665308D01*
X139370979Y-96487761D01*
X139206562Y-96337876D01*
X139206560Y-96337874D01*
X139017404Y-96220754D01*
X139017398Y-96220752D01*
X138987770Y-96209274D01*
X138809940Y-96140382D01*
X138591243Y-96099500D01*
X138368757Y-96099500D01*
X138150060Y-96140382D01*
X138058569Y-96175826D01*
X137942601Y-96220752D01*
X137942595Y-96220754D01*
X137753439Y-96337874D01*
X137753437Y-96337876D01*
X137589020Y-96487761D01*
X137454943Y-96665308D01*
X137454938Y-96665316D01*
X137355775Y-96864461D01*
X137355769Y-96864476D01*
X137294885Y-97078462D01*
X137294884Y-97078464D01*
X137274357Y-97299999D01*
X134605643Y-97299999D01*
X134604503Y-97287702D01*
X134585115Y-97078464D01*
X134585114Y-97078462D01*
X134574886Y-97042515D01*
X134524229Y-96864472D01*
X134524224Y-96864461D01*
X134425061Y-96665316D01*
X134425056Y-96665308D01*
X134290979Y-96487761D01*
X134126562Y-96337876D01*
X134126560Y-96337874D01*
X133937404Y-96220754D01*
X133937398Y-96220752D01*
X133907770Y-96209274D01*
X133729940Y-96140382D01*
X133511243Y-96099500D01*
X133288757Y-96099500D01*
X133070060Y-96140382D01*
X132978569Y-96175826D01*
X132862601Y-96220752D01*
X132862595Y-96220754D01*
X132673439Y-96337874D01*
X132673437Y-96337876D01*
X132623069Y-96383792D01*
X132560265Y-96414408D01*
X132490878Y-96406210D01*
X132436938Y-96361799D01*
X132415571Y-96295277D01*
X132427149Y-96239753D01*
X132508894Y-96064450D01*
X132566070Y-95851068D01*
X132585323Y-95631000D01*
X132584692Y-95623791D01*
X132570567Y-95462335D01*
X132566070Y-95410932D01*
X132508894Y-95197550D01*
X132415534Y-94997339D01*
X132288826Y-94816380D01*
X132132620Y-94660174D01*
X132132616Y-94660171D01*
X132132615Y-94660170D01*
X131951666Y-94533468D01*
X131951662Y-94533466D01*
X131883934Y-94501884D01*
X131751450Y-94440106D01*
X131751447Y-94440105D01*
X131751445Y-94440104D01*
X131538070Y-94382930D01*
X131538062Y-94382929D01*
X131318002Y-94363677D01*
X131317998Y-94363677D01*
X131097937Y-94382929D01*
X131097929Y-94382930D01*
X130884554Y-94440104D01*
X130884548Y-94440107D01*
X130684340Y-94533465D01*
X130684338Y-94533466D01*
X130503377Y-94660175D01*
X130347175Y-94816377D01*
X130220466Y-94997338D01*
X130220465Y-94997340D01*
X130127107Y-95197548D01*
X130127104Y-95197554D01*
X130069930Y-95410929D01*
X130069929Y-95410937D01*
X130050677Y-95630997D01*
X127251323Y-95630997D01*
X127250692Y-95623791D01*
X127236567Y-95462335D01*
X127232070Y-95410932D01*
X127174894Y-95197550D01*
X127081534Y-94997339D01*
X126954826Y-94816380D01*
X126798620Y-94660174D01*
X126798616Y-94660171D01*
X126798615Y-94660170D01*
X126617666Y-94533468D01*
X126617662Y-94533466D01*
X126549934Y-94501884D01*
X126417450Y-94440106D01*
X126417447Y-94440105D01*
X126417445Y-94440104D01*
X126204070Y-94382930D01*
X126204062Y-94382929D01*
X125984002Y-94363677D01*
X125983998Y-94363677D01*
X125763937Y-94382929D01*
X125763929Y-94382930D01*
X125550554Y-94440104D01*
X125550548Y-94440107D01*
X125350340Y-94533465D01*
X125350338Y-94533466D01*
X125169377Y-94660175D01*
X125013175Y-94816377D01*
X124886466Y-94997338D01*
X124886465Y-94997340D01*
X124793107Y-95197548D01*
X124793104Y-95197554D01*
X124735930Y-95410929D01*
X124735929Y-95410937D01*
X124716677Y-95630997D01*
X110181145Y-95630997D01*
X110252546Y-95577546D01*
X110338796Y-95462331D01*
X110389091Y-95327483D01*
X110395500Y-95267873D01*
X110395499Y-93572128D01*
X110389091Y-93512517D01*
X110372408Y-93467788D01*
X110338797Y-93377671D01*
X110338793Y-93377664D01*
X110252547Y-93262455D01*
X110252544Y-93262452D01*
X110137335Y-93176206D01*
X110137328Y-93176202D01*
X110002482Y-93125908D01*
X110002483Y-93125908D01*
X109942883Y-93119501D01*
X109942881Y-93119500D01*
X109942873Y-93119500D01*
X109942864Y-93119500D01*
X108247129Y-93119500D01*
X108247123Y-93119501D01*
X108187516Y-93125908D01*
X108052671Y-93176202D01*
X108052664Y-93176206D01*
X107937455Y-93262452D01*
X107937452Y-93262455D01*
X107851206Y-93377664D01*
X107851202Y-93377671D01*
X107800908Y-93512517D01*
X107794501Y-93572116D01*
X107794501Y-93572123D01*
X107794500Y-93572135D01*
X102466322Y-93572135D01*
X102314141Y-93419954D01*
X102127734Y-93289432D01*
X102127732Y-93289431D01*
X101921497Y-93193261D01*
X101921488Y-93193258D01*
X101701697Y-93134366D01*
X101701693Y-93134365D01*
X101701692Y-93134365D01*
X101701691Y-93134364D01*
X101701686Y-93134364D01*
X101475002Y-93114532D01*
X101474998Y-93114532D01*
X101248313Y-93134364D01*
X101248302Y-93134366D01*
X101028511Y-93193258D01*
X101028502Y-93193261D01*
X100822267Y-93289431D01*
X100822265Y-93289432D01*
X100635858Y-93419954D01*
X100474954Y-93580858D01*
X100344432Y-93767265D01*
X100344431Y-93767267D01*
X100248261Y-93973502D01*
X100248258Y-93973511D01*
X100189366Y-94193302D01*
X100189364Y-94193313D01*
X100169532Y-94419998D01*
X81826794Y-94419998D01*
X81929437Y-94384082D01*
X82073400Y-94293624D01*
X82193624Y-94173400D01*
X82284082Y-94029437D01*
X82340237Y-93868954D01*
X82340237Y-93868953D01*
X82340238Y-93868951D01*
X82359274Y-93700002D01*
X82359274Y-93699997D01*
X82340238Y-93531048D01*
X82318102Y-93467787D01*
X82284082Y-93370563D01*
X82193624Y-93226600D01*
X82073400Y-93106376D01*
X81983955Y-93050174D01*
X81929439Y-93015919D01*
X81929438Y-93015918D01*
X81929437Y-93015918D01*
X81890912Y-93002437D01*
X81768951Y-92959761D01*
X81600003Y-92940726D01*
X81599997Y-92940726D01*
X81431048Y-92959761D01*
X81270560Y-93015919D01*
X81126599Y-93106376D01*
X81006376Y-93226599D01*
X80915919Y-93370560D01*
X80859761Y-93531048D01*
X80840726Y-93699997D01*
X65333858Y-93699997D01*
X65354709Y-93635826D01*
X65385500Y-93441422D01*
X65385500Y-93244577D01*
X65354709Y-93050173D01*
X65326487Y-92963317D01*
X65293884Y-92862975D01*
X65293882Y-92862972D01*
X65293882Y-92862970D01*
X65204523Y-92687594D01*
X65088828Y-92528354D01*
X64949646Y-92389172D01*
X64870025Y-92331324D01*
X64790403Y-92273474D01*
X64613787Y-92183485D01*
X64562990Y-92135511D01*
X64546195Y-92067690D01*
X64568732Y-92001555D01*
X64613787Y-91962515D01*
X64790403Y-91872525D01*
X64790402Y-91872525D01*
X64790405Y-91872524D01*
X64949646Y-91756828D01*
X65088828Y-91617646D01*
X65204524Y-91458405D01*
X65293884Y-91283025D01*
X65354709Y-91095826D01*
X65367948Y-91012238D01*
X65385500Y-90901422D01*
X65385500Y-90899997D01*
X68540726Y-90899997D01*
X68540726Y-90900002D01*
X68559761Y-91068951D01*
X68615919Y-91229439D01*
X68703582Y-91368954D01*
X68706376Y-91373400D01*
X68826600Y-91493624D01*
X68970563Y-91584082D01*
X69066490Y-91617648D01*
X69131048Y-91640238D01*
X69299997Y-91659274D01*
X69300000Y-91659274D01*
X69300003Y-91659274D01*
X69468951Y-91640238D01*
X69468954Y-91640237D01*
X69629437Y-91584082D01*
X69773400Y-91493624D01*
X69893624Y-91373400D01*
X69984082Y-91229437D01*
X70040237Y-91068954D01*
X70040237Y-91068953D01*
X70040238Y-91068951D01*
X70059274Y-90900002D01*
X70059274Y-90899997D01*
X70040238Y-90731048D01*
X70018509Y-90668951D01*
X69984082Y-90570563D01*
X69939742Y-90499997D01*
X71140726Y-90499997D01*
X71140726Y-90500002D01*
X71159761Y-90668951D01*
X71181490Y-90731048D01*
X71215918Y-90829437D01*
X71306376Y-90973400D01*
X71426600Y-91093624D01*
X71570563Y-91184082D01*
X71692521Y-91226756D01*
X71731048Y-91240238D01*
X71899997Y-91259274D01*
X71900000Y-91259274D01*
X71900003Y-91259274D01*
X72068951Y-91240238D01*
X72068954Y-91240237D01*
X72183954Y-91199997D01*
X92140726Y-91199997D01*
X92140726Y-91200002D01*
X92159761Y-91368951D01*
X92170801Y-91400500D01*
X92215918Y-91529437D01*
X92306376Y-91673400D01*
X92426600Y-91793624D01*
X92570563Y-91884082D01*
X92692521Y-91926756D01*
X92731048Y-91940238D01*
X92899997Y-91959274D01*
X92900000Y-91959274D01*
X92900003Y-91959274D01*
X93068951Y-91940238D01*
X93068954Y-91940237D01*
X93229437Y-91884082D01*
X93373400Y-91793624D01*
X93493624Y-91673400D01*
X93584082Y-91529437D01*
X93640237Y-91368954D01*
X93640237Y-91368953D01*
X93640238Y-91368951D01*
X93659274Y-91200002D01*
X93659274Y-91199997D01*
X95340726Y-91199997D01*
X95340726Y-91200002D01*
X95359761Y-91368951D01*
X95370801Y-91400500D01*
X95415918Y-91529437D01*
X95506376Y-91673400D01*
X95626600Y-91793624D01*
X95770563Y-91884082D01*
X95892521Y-91926756D01*
X95931048Y-91940238D01*
X96099997Y-91959274D01*
X96100000Y-91959274D01*
X96100003Y-91959274D01*
X96268951Y-91940238D01*
X96268954Y-91940237D01*
X96429437Y-91884082D01*
X96573400Y-91793624D01*
X96693624Y-91673400D01*
X96784082Y-91529437D01*
X96801031Y-91481000D01*
X119739769Y-91481000D01*
X119758668Y-91757314D01*
X119758669Y-91757316D01*
X119815014Y-92028469D01*
X119815019Y-92028485D01*
X119907760Y-92289435D01*
X119907763Y-92289441D01*
X119907764Y-92289444D01*
X119907766Y-92289448D01*
X120035186Y-92535356D01*
X120194903Y-92761623D01*
X120383942Y-92964035D01*
X120598782Y-93138821D01*
X120598784Y-93138822D01*
X120598785Y-93138823D01*
X120835423Y-93282725D01*
X121008917Y-93358083D01*
X121089452Y-93393065D01*
X121356141Y-93467788D01*
X121597364Y-93500942D01*
X121630519Y-93505500D01*
X121630520Y-93505500D01*
X121907481Y-93505500D01*
X121937061Y-93501434D01*
X122181859Y-93467788D01*
X122448548Y-93393065D01*
X122702578Y-93282724D01*
X122939218Y-93138821D01*
X123154058Y-92964035D01*
X123343097Y-92761623D01*
X123502814Y-92535356D01*
X123630234Y-92289448D01*
X123635911Y-92273476D01*
X123722980Y-92028485D01*
X123722985Y-92028469D01*
X123755390Y-91872523D01*
X123779331Y-91757314D01*
X123798231Y-91481000D01*
X124819769Y-91481000D01*
X124838668Y-91757314D01*
X124838669Y-91757316D01*
X124895014Y-92028469D01*
X124895019Y-92028485D01*
X124987760Y-92289435D01*
X124987763Y-92289441D01*
X124987764Y-92289444D01*
X124987766Y-92289448D01*
X125115186Y-92535356D01*
X125274903Y-92761623D01*
X125463942Y-92964035D01*
X125678782Y-93138821D01*
X125678784Y-93138822D01*
X125678785Y-93138823D01*
X125915423Y-93282725D01*
X126088917Y-93358083D01*
X126169452Y-93393065D01*
X126436141Y-93467788D01*
X126677364Y-93500942D01*
X126710519Y-93505500D01*
X126710520Y-93505500D01*
X126987481Y-93505500D01*
X127017061Y-93501434D01*
X127261859Y-93467788D01*
X127528548Y-93393065D01*
X127782578Y-93282724D01*
X128019218Y-93138821D01*
X128234058Y-92964035D01*
X128423097Y-92761623D01*
X128582814Y-92535356D01*
X128710234Y-92289448D01*
X128715911Y-92273476D01*
X128802980Y-92028485D01*
X128802985Y-92028469D01*
X128835390Y-91872523D01*
X128859331Y-91757314D01*
X128878231Y-91481000D01*
X134979769Y-91481000D01*
X134998668Y-91757314D01*
X134998669Y-91757316D01*
X135055014Y-92028469D01*
X135055019Y-92028485D01*
X135147760Y-92289435D01*
X135147763Y-92289441D01*
X135147764Y-92289444D01*
X135147766Y-92289448D01*
X135275186Y-92535356D01*
X135434903Y-92761623D01*
X135623942Y-92964035D01*
X135838782Y-93138821D01*
X135838784Y-93138822D01*
X135838785Y-93138823D01*
X136075423Y-93282725D01*
X136248917Y-93358083D01*
X136329452Y-93393065D01*
X136596141Y-93467788D01*
X136837364Y-93500942D01*
X136870519Y-93505500D01*
X136870520Y-93505500D01*
X137147481Y-93505500D01*
X137177061Y-93501434D01*
X137421859Y-93467788D01*
X137688548Y-93393065D01*
X137942578Y-93282724D01*
X138179218Y-93138821D01*
X138394058Y-92964035D01*
X138583097Y-92761623D01*
X138742814Y-92535356D01*
X138870234Y-92289448D01*
X138875911Y-92273476D01*
X138962980Y-92028485D01*
X138962985Y-92028469D01*
X138995390Y-91872523D01*
X139019331Y-91757314D01*
X139038231Y-91481000D01*
X140059769Y-91481000D01*
X140078668Y-91757314D01*
X140078669Y-91757316D01*
X140135014Y-92028469D01*
X140135019Y-92028485D01*
X140227760Y-92289435D01*
X140227763Y-92289441D01*
X140227764Y-92289444D01*
X140227766Y-92289448D01*
X140355186Y-92535356D01*
X140514903Y-92761623D01*
X140703942Y-92964035D01*
X140918782Y-93138821D01*
X140918784Y-93138822D01*
X140918785Y-93138823D01*
X141155423Y-93282725D01*
X141328917Y-93358083D01*
X141409452Y-93393065D01*
X141676141Y-93467788D01*
X141917364Y-93500942D01*
X141950519Y-93505500D01*
X141950520Y-93505500D01*
X142227481Y-93505500D01*
X142257061Y-93501434D01*
X142501859Y-93467788D01*
X142768548Y-93393065D01*
X143022578Y-93282724D01*
X143259218Y-93138821D01*
X143474058Y-92964035D01*
X143663097Y-92761623D01*
X143822814Y-92535356D01*
X143950234Y-92289448D01*
X143955911Y-92273476D01*
X144042980Y-92028485D01*
X144042985Y-92028469D01*
X144075390Y-91872523D01*
X144099331Y-91757314D01*
X144118231Y-91481000D01*
X144099331Y-91204686D01*
X144063249Y-91031048D01*
X144042985Y-90933530D01*
X144042980Y-90933514D01*
X143950239Y-90672564D01*
X143950236Y-90672558D01*
X143950234Y-90672552D01*
X143822814Y-90426644D01*
X143663097Y-90200377D01*
X143474058Y-89997965D01*
X143259218Y-89823179D01*
X143259216Y-89823178D01*
X143259214Y-89823176D01*
X143022576Y-89679274D01*
X142768551Y-89568936D01*
X142768549Y-89568935D01*
X142768548Y-89568935D01*
X142692673Y-89547676D01*
X142501864Y-89494213D01*
X142501860Y-89494212D01*
X142501859Y-89494212D01*
X142329259Y-89470489D01*
X142227481Y-89456500D01*
X142227480Y-89456500D01*
X141950520Y-89456500D01*
X141950519Y-89456500D01*
X141676141Y-89494212D01*
X141676135Y-89494213D01*
X141409448Y-89568936D01*
X141155423Y-89679274D01*
X140918785Y-89823176D01*
X140703941Y-89997965D01*
X140514907Y-90200372D01*
X140514904Y-90200374D01*
X140514903Y-90200377D01*
X140451016Y-90290882D01*
X140355186Y-90426643D01*
X140227763Y-90672558D01*
X140227760Y-90672564D01*
X140135019Y-90933514D01*
X140135014Y-90933530D01*
X140078669Y-91204683D01*
X140078668Y-91204685D01*
X140059769Y-91481000D01*
X139038231Y-91481000D01*
X139019331Y-91204686D01*
X138983249Y-91031048D01*
X138962985Y-90933530D01*
X138962980Y-90933514D01*
X138870239Y-90672564D01*
X138870236Y-90672558D01*
X138870234Y-90672552D01*
X138742814Y-90426644D01*
X138583097Y-90200377D01*
X138394058Y-89997965D01*
X138179218Y-89823179D01*
X138179216Y-89823178D01*
X138179214Y-89823176D01*
X137942576Y-89679274D01*
X137688551Y-89568936D01*
X137688549Y-89568935D01*
X137688548Y-89568935D01*
X137612673Y-89547676D01*
X137421864Y-89494213D01*
X137421860Y-89494212D01*
X137421859Y-89494212D01*
X137249259Y-89470489D01*
X137147481Y-89456500D01*
X137147480Y-89456500D01*
X136870520Y-89456500D01*
X136870519Y-89456500D01*
X136596141Y-89494212D01*
X136596135Y-89494213D01*
X136329448Y-89568936D01*
X136075423Y-89679274D01*
X135838785Y-89823176D01*
X135623941Y-89997965D01*
X135434907Y-90200372D01*
X135434904Y-90200374D01*
X135434903Y-90200377D01*
X135371016Y-90290882D01*
X135275186Y-90426643D01*
X135147763Y-90672558D01*
X135147760Y-90672564D01*
X135055019Y-90933514D01*
X135055014Y-90933530D01*
X134998669Y-91204683D01*
X134998668Y-91204685D01*
X134979769Y-91481000D01*
X128878231Y-91481000D01*
X128859331Y-91204686D01*
X128823249Y-91031048D01*
X128802985Y-90933530D01*
X128802980Y-90933514D01*
X128710239Y-90672564D01*
X128710236Y-90672558D01*
X128710234Y-90672552D01*
X128582814Y-90426644D01*
X128423097Y-90200377D01*
X128234058Y-89997965D01*
X128019218Y-89823179D01*
X128019216Y-89823178D01*
X128019214Y-89823176D01*
X127782576Y-89679274D01*
X127528551Y-89568936D01*
X127528549Y-89568935D01*
X127528548Y-89568935D01*
X127452673Y-89547676D01*
X127261864Y-89494213D01*
X127261860Y-89494212D01*
X127261859Y-89494212D01*
X127089259Y-89470489D01*
X126987481Y-89456500D01*
X126987480Y-89456500D01*
X126710520Y-89456500D01*
X126710519Y-89456500D01*
X126436141Y-89494212D01*
X126436135Y-89494213D01*
X126169448Y-89568936D01*
X125915423Y-89679274D01*
X125678785Y-89823176D01*
X125463941Y-89997965D01*
X125274907Y-90200372D01*
X125274904Y-90200374D01*
X125274903Y-90200377D01*
X125211016Y-90290882D01*
X125115186Y-90426643D01*
X124987763Y-90672558D01*
X124987760Y-90672564D01*
X124895019Y-90933514D01*
X124895014Y-90933530D01*
X124838669Y-91204683D01*
X124838668Y-91204685D01*
X124819769Y-91481000D01*
X123798231Y-91481000D01*
X123779331Y-91204686D01*
X123743249Y-91031048D01*
X123722985Y-90933530D01*
X123722980Y-90933514D01*
X123630239Y-90672564D01*
X123630236Y-90672558D01*
X123630234Y-90672552D01*
X123502814Y-90426644D01*
X123343097Y-90200377D01*
X123154058Y-89997965D01*
X122939218Y-89823179D01*
X122939216Y-89823178D01*
X122939214Y-89823176D01*
X122702576Y-89679274D01*
X122448551Y-89568936D01*
X122448549Y-89568935D01*
X122448548Y-89568935D01*
X122372673Y-89547676D01*
X122181864Y-89494213D01*
X122181860Y-89494212D01*
X122181859Y-89494212D01*
X122009259Y-89470489D01*
X121907481Y-89456500D01*
X121907480Y-89456500D01*
X121630520Y-89456500D01*
X121630519Y-89456500D01*
X121356141Y-89494212D01*
X121356135Y-89494213D01*
X121089448Y-89568936D01*
X120835423Y-89679274D01*
X120598785Y-89823176D01*
X120383941Y-89997965D01*
X120194907Y-90200372D01*
X120194904Y-90200374D01*
X120194903Y-90200377D01*
X120131016Y-90290882D01*
X120035186Y-90426643D01*
X119907763Y-90672558D01*
X119907760Y-90672564D01*
X119815019Y-90933514D01*
X119815014Y-90933530D01*
X119758669Y-91204683D01*
X119758668Y-91204685D01*
X119739769Y-91481000D01*
X96801031Y-91481000D01*
X96840237Y-91368954D01*
X96840237Y-91368953D01*
X96840238Y-91368951D01*
X96859274Y-91200002D01*
X96859274Y-91199997D01*
X96840238Y-91031048D01*
X96816160Y-90962238D01*
X96784082Y-90870563D01*
X96693624Y-90726600D01*
X96573400Y-90606376D01*
X96429437Y-90515918D01*
X96383937Y-90499997D01*
X96268951Y-90459761D01*
X96100003Y-90440726D01*
X96099997Y-90440726D01*
X95931048Y-90459761D01*
X95770560Y-90515919D01*
X95626599Y-90606376D01*
X95506376Y-90726599D01*
X95415919Y-90870560D01*
X95359761Y-91031048D01*
X95340726Y-91199997D01*
X93659274Y-91199997D01*
X93640238Y-91031048D01*
X93616160Y-90962238D01*
X93584082Y-90870563D01*
X93493624Y-90726600D01*
X93373400Y-90606376D01*
X93229437Y-90515918D01*
X93183937Y-90499997D01*
X93068951Y-90459761D01*
X92900003Y-90440726D01*
X92899997Y-90440726D01*
X92731048Y-90459761D01*
X92570560Y-90515919D01*
X92426599Y-90606376D01*
X92306376Y-90726599D01*
X92215919Y-90870560D01*
X92159761Y-91031048D01*
X92140726Y-91199997D01*
X72183954Y-91199997D01*
X72229437Y-91184082D01*
X72373400Y-91093624D01*
X72493624Y-90973400D01*
X72584082Y-90829437D01*
X72640237Y-90668954D01*
X72640237Y-90668953D01*
X72640238Y-90668951D01*
X72659274Y-90500002D01*
X72659274Y-90499997D01*
X72640238Y-90331048D01*
X72626756Y-90292521D01*
X72584082Y-90170563D01*
X72571161Y-90149999D01*
X100429357Y-90149999D01*
X100429357Y-90150000D01*
X100449884Y-90371535D01*
X100449885Y-90371537D01*
X100510769Y-90585523D01*
X100510775Y-90585538D01*
X100609938Y-90784683D01*
X100609943Y-90784691D01*
X100744020Y-90962238D01*
X100908437Y-91112123D01*
X100908439Y-91112125D01*
X101097595Y-91229245D01*
X101097596Y-91229245D01*
X101097599Y-91229247D01*
X101305060Y-91309618D01*
X101523757Y-91350500D01*
X101523759Y-91350500D01*
X101746241Y-91350500D01*
X101746243Y-91350500D01*
X101964940Y-91309618D01*
X102172401Y-91229247D01*
X102361562Y-91112124D01*
X102525981Y-90962236D01*
X102660058Y-90784689D01*
X102759229Y-90585528D01*
X102820115Y-90371536D01*
X102840643Y-90150000D01*
X102840643Y-90149999D01*
X105509357Y-90149999D01*
X105509357Y-90150000D01*
X105529884Y-90371535D01*
X105529885Y-90371537D01*
X105590769Y-90585523D01*
X105590775Y-90585538D01*
X105689938Y-90784683D01*
X105689943Y-90784691D01*
X105824020Y-90962238D01*
X105988437Y-91112123D01*
X105988439Y-91112125D01*
X106177595Y-91229245D01*
X106177596Y-91229245D01*
X106177599Y-91229247D01*
X106385060Y-91309618D01*
X106603757Y-91350500D01*
X106603759Y-91350500D01*
X106826241Y-91350500D01*
X106826243Y-91350500D01*
X107044940Y-91309618D01*
X107252401Y-91229247D01*
X107441562Y-91112124D01*
X107605981Y-90962236D01*
X107740058Y-90784689D01*
X107839229Y-90585528D01*
X107886122Y-90420714D01*
X107923399Y-90361627D01*
X107986708Y-90332069D01*
X108055948Y-90341431D01*
X108109134Y-90386740D01*
X108124652Y-90420719D01*
X108185770Y-90635525D01*
X108185775Y-90635538D01*
X108284938Y-90834683D01*
X108284943Y-90834691D01*
X108419020Y-91012238D01*
X108583437Y-91162123D01*
X108583439Y-91162125D01*
X108772595Y-91279245D01*
X108772596Y-91279245D01*
X108772599Y-91279247D01*
X108980060Y-91359618D01*
X109198757Y-91400500D01*
X109198759Y-91400500D01*
X109421241Y-91400500D01*
X109421243Y-91400500D01*
X109639940Y-91359618D01*
X109847401Y-91279247D01*
X110036562Y-91162124D01*
X110200981Y-91012236D01*
X110335058Y-90834689D01*
X110434229Y-90635528D01*
X110495115Y-90421536D01*
X110515643Y-90200000D01*
X110515643Y-90199999D01*
X113184357Y-90199999D01*
X113184357Y-90200000D01*
X113204884Y-90421535D01*
X113204885Y-90421537D01*
X113265769Y-90635523D01*
X113265775Y-90635538D01*
X113364938Y-90834683D01*
X113364943Y-90834691D01*
X113499020Y-91012238D01*
X113663437Y-91162123D01*
X113663439Y-91162125D01*
X113852595Y-91279245D01*
X113852596Y-91279245D01*
X113852599Y-91279247D01*
X114060060Y-91359618D01*
X114278757Y-91400500D01*
X114278759Y-91400500D01*
X114501241Y-91400500D01*
X114501243Y-91400500D01*
X114719940Y-91359618D01*
X114927401Y-91279247D01*
X115116562Y-91162124D01*
X115280981Y-91012236D01*
X115415058Y-90834689D01*
X115514229Y-90635528D01*
X115575115Y-90421536D01*
X115595643Y-90200000D01*
X115575115Y-89978464D01*
X115514229Y-89764472D01*
X115514224Y-89764461D01*
X115415061Y-89565316D01*
X115415056Y-89565308D01*
X115280979Y-89387761D01*
X115116562Y-89237876D01*
X115116560Y-89237874D01*
X114927404Y-89120754D01*
X114927398Y-89120752D01*
X114719940Y-89040382D01*
X114501243Y-88999500D01*
X114278757Y-88999500D01*
X114060060Y-89040382D01*
X113981664Y-89070753D01*
X113852601Y-89120752D01*
X113852595Y-89120754D01*
X113663439Y-89237874D01*
X113663437Y-89237876D01*
X113499020Y-89387761D01*
X113364943Y-89565308D01*
X113364938Y-89565316D01*
X113265775Y-89764461D01*
X113265769Y-89764476D01*
X113204885Y-89978462D01*
X113204884Y-89978464D01*
X113184357Y-90199999D01*
X110515643Y-90199999D01*
X110495115Y-89978464D01*
X110434229Y-89764472D01*
X110434224Y-89764461D01*
X110335061Y-89565316D01*
X110335056Y-89565308D01*
X110200979Y-89387761D01*
X110036562Y-89237876D01*
X110036560Y-89237874D01*
X109847404Y-89120754D01*
X109847398Y-89120752D01*
X109639940Y-89040382D01*
X109421243Y-88999500D01*
X109198757Y-88999500D01*
X108980060Y-89040382D01*
X108901664Y-89070753D01*
X108772601Y-89120752D01*
X108772595Y-89120754D01*
X108583439Y-89237874D01*
X108583437Y-89237876D01*
X108419020Y-89387761D01*
X108284943Y-89565308D01*
X108284938Y-89565316D01*
X108185775Y-89764461D01*
X108185770Y-89764474D01*
X108138879Y-89929280D01*
X108101600Y-89988373D01*
X108038290Y-90017930D01*
X107969051Y-90008568D01*
X107915864Y-89963258D01*
X107900347Y-89929279D01*
X107844636Y-89733476D01*
X107839229Y-89714472D01*
X107839224Y-89714461D01*
X107740061Y-89515316D01*
X107740056Y-89515308D01*
X107605979Y-89337761D01*
X107441562Y-89187876D01*
X107441560Y-89187874D01*
X107252404Y-89070754D01*
X107252398Y-89070752D01*
X107044940Y-88990382D01*
X106826243Y-88949500D01*
X106603757Y-88949500D01*
X106385060Y-88990382D01*
X106255995Y-89040382D01*
X106177601Y-89070752D01*
X106177595Y-89070754D01*
X105988439Y-89187874D01*
X105988437Y-89187876D01*
X105824020Y-89337761D01*
X105689943Y-89515308D01*
X105689938Y-89515316D01*
X105590775Y-89714461D01*
X105590769Y-89714476D01*
X105529885Y-89928462D01*
X105529884Y-89928464D01*
X105509357Y-90149999D01*
X102840643Y-90149999D01*
X102829208Y-90026600D01*
X102820115Y-89928464D01*
X102820114Y-89928462D01*
X102764635Y-89733474D01*
X102759229Y-89714472D01*
X102759224Y-89714461D01*
X102660061Y-89515316D01*
X102660056Y-89515308D01*
X102525979Y-89337761D01*
X102361562Y-89187876D01*
X102361560Y-89187874D01*
X102172404Y-89070754D01*
X102172398Y-89070752D01*
X101964940Y-88990382D01*
X101746243Y-88949500D01*
X101523757Y-88949500D01*
X101305060Y-88990382D01*
X101175995Y-89040382D01*
X101097601Y-89070752D01*
X101097595Y-89070754D01*
X100908439Y-89187874D01*
X100908437Y-89187876D01*
X100744020Y-89337761D01*
X100609943Y-89515308D01*
X100609938Y-89515316D01*
X100510775Y-89714461D01*
X100510769Y-89714476D01*
X100449885Y-89928462D01*
X100449884Y-89928464D01*
X100429357Y-90149999D01*
X72571161Y-90149999D01*
X72493624Y-90026600D01*
X72373400Y-89906376D01*
X72282364Y-89849174D01*
X72229439Y-89815919D01*
X72229438Y-89815918D01*
X72229437Y-89815918D01*
X72190912Y-89802437D01*
X72068951Y-89759761D01*
X71900003Y-89740726D01*
X71899997Y-89740726D01*
X71731048Y-89759761D01*
X71570560Y-89815919D01*
X71426599Y-89906376D01*
X71306376Y-90026599D01*
X71215919Y-90170560D01*
X71159761Y-90331048D01*
X71140726Y-90499997D01*
X69939742Y-90499997D01*
X69893624Y-90426600D01*
X69773400Y-90306376D01*
X69629437Y-90215918D01*
X69583943Y-90199999D01*
X69468951Y-90159761D01*
X69300003Y-90140726D01*
X69299997Y-90140726D01*
X69131048Y-90159761D01*
X68970560Y-90215919D01*
X68826599Y-90306376D01*
X68706376Y-90426599D01*
X68615919Y-90570560D01*
X68559761Y-90731048D01*
X68540726Y-90899997D01*
X65385500Y-90899997D01*
X65385500Y-90704577D01*
X65354709Y-90510173D01*
X65325643Y-90420719D01*
X65293884Y-90322975D01*
X65293882Y-90322972D01*
X65293882Y-90322970D01*
X65239336Y-90215918D01*
X65204524Y-90147595D01*
X65088828Y-89988354D01*
X64949646Y-89849172D01*
X64800384Y-89740726D01*
X64790403Y-89733474D01*
X64613787Y-89643485D01*
X64562990Y-89595511D01*
X64546195Y-89527690D01*
X64568732Y-89461555D01*
X64613787Y-89422515D01*
X64790403Y-89332525D01*
X64790402Y-89332525D01*
X64790405Y-89332524D01*
X64949646Y-89216828D01*
X65088828Y-89077646D01*
X65204524Y-88918405D01*
X65293884Y-88743025D01*
X65354709Y-88555826D01*
X65385500Y-88361422D01*
X65385500Y-88164577D01*
X65354709Y-87970173D01*
X65293882Y-87782970D01*
X65246743Y-87690455D01*
X65204524Y-87607595D01*
X65090022Y-87449997D01*
X66690726Y-87449997D01*
X66690726Y-87450002D01*
X66709761Y-87618951D01*
X66723871Y-87659274D01*
X66765918Y-87779437D01*
X66856376Y-87923400D01*
X66976600Y-88043624D01*
X67120563Y-88134082D01*
X67207731Y-88164583D01*
X67281048Y-88190238D01*
X67449997Y-88209274D01*
X67450000Y-88209274D01*
X67450003Y-88209274D01*
X67618954Y-88190237D01*
X67618956Y-88190237D01*
X67762724Y-88139930D01*
X67832503Y-88136368D01*
X67893130Y-88171096D01*
X67925358Y-88233089D01*
X67918953Y-88302665D01*
X67908673Y-88322943D01*
X67815919Y-88470560D01*
X67759761Y-88631048D01*
X67740726Y-88799997D01*
X67740726Y-88800002D01*
X67759761Y-88968951D01*
X67795383Y-89070752D01*
X67812879Y-89120753D01*
X67815919Y-89129439D01*
X67884055Y-89237876D01*
X67906376Y-89273400D01*
X68026600Y-89393624D01*
X68170563Y-89484082D01*
X68292521Y-89526756D01*
X68331048Y-89540238D01*
X68499997Y-89559274D01*
X68500000Y-89559274D01*
X68500003Y-89559274D01*
X68668951Y-89540238D01*
X68674461Y-89538310D01*
X68829437Y-89484082D01*
X68973400Y-89393624D01*
X69093624Y-89273400D01*
X69184082Y-89129437D01*
X69240237Y-88968954D01*
X69240237Y-88968953D01*
X69240238Y-88968951D01*
X69259274Y-88800002D01*
X69259274Y-88799997D01*
X69240238Y-88631048D01*
X69226756Y-88592521D01*
X69184082Y-88470563D01*
X69093624Y-88326600D01*
X68973400Y-88206376D01*
X68829437Y-88115918D01*
X68790912Y-88102437D01*
X68668951Y-88059761D01*
X68500003Y-88040726D01*
X68499997Y-88040726D01*
X68331047Y-88059762D01*
X68187274Y-88110070D01*
X68117495Y-88113631D01*
X68056868Y-88078902D01*
X68024641Y-88016909D01*
X68031047Y-87947333D01*
X68041327Y-87927055D01*
X68134080Y-87779440D01*
X68134079Y-87779440D01*
X68134082Y-87779437D01*
X68190237Y-87618954D01*
X68190237Y-87618953D01*
X68190238Y-87618951D01*
X68209274Y-87450002D01*
X68209274Y-87449997D01*
X68190238Y-87281048D01*
X68159594Y-87193474D01*
X68134082Y-87120563D01*
X68043624Y-86976600D01*
X67967021Y-86899997D01*
X88440726Y-86899997D01*
X88440726Y-86900002D01*
X88459761Y-87068951D01*
X88502437Y-87190912D01*
X88515918Y-87229437D01*
X88606376Y-87373400D01*
X88726600Y-87493624D01*
X88870563Y-87584082D01*
X88992521Y-87626756D01*
X89031048Y-87640238D01*
X89199997Y-87659274D01*
X89200000Y-87659274D01*
X89200003Y-87659274D01*
X89368951Y-87640238D01*
X89368954Y-87640237D01*
X89529437Y-87584082D01*
X89673400Y-87493624D01*
X89793624Y-87373400D01*
X89884082Y-87229437D01*
X89940237Y-87068954D01*
X89940237Y-87068953D01*
X89940238Y-87068951D01*
X89959274Y-86900002D01*
X89959274Y-86899997D01*
X89947402Y-86794632D01*
X89959456Y-86725810D01*
X90006805Y-86674430D01*
X90074416Y-86656806D01*
X90084495Y-86657527D01*
X90100000Y-86659274D01*
X90100001Y-86659273D01*
X90100002Y-86659274D01*
X90100003Y-86659274D01*
X90268951Y-86640238D01*
X90268954Y-86640237D01*
X90429437Y-86584082D01*
X90573400Y-86493624D01*
X90693624Y-86373400D01*
X90739746Y-86299997D01*
X100240726Y-86299997D01*
X100240726Y-86300002D01*
X100259761Y-86468951D01*
X100315919Y-86629439D01*
X100333115Y-86656806D01*
X100406376Y-86773400D01*
X100526600Y-86893624D01*
X100670563Y-86984082D01*
X100792521Y-87026756D01*
X100831048Y-87040238D01*
X100999997Y-87059274D01*
X101000000Y-87059274D01*
X101000003Y-87059274D01*
X101168951Y-87040238D01*
X101168954Y-87040237D01*
X101329437Y-86984082D01*
X101473400Y-86893624D01*
X101593624Y-86773400D01*
X101684082Y-86629437D01*
X101740237Y-86468954D01*
X101740237Y-86468953D01*
X101740238Y-86468951D01*
X101759274Y-86300002D01*
X101759274Y-86299997D01*
X101740238Y-86131048D01*
X101718509Y-86068951D01*
X101684082Y-85970563D01*
X101593624Y-85826600D01*
X101473400Y-85706376D01*
X101329439Y-85615919D01*
X101329438Y-85615918D01*
X101329437Y-85615918D01*
X101290912Y-85602437D01*
X101168951Y-85559761D01*
X101000003Y-85540726D01*
X100999997Y-85540726D01*
X100831048Y-85559761D01*
X100670560Y-85615919D01*
X100526599Y-85706376D01*
X100406376Y-85826599D01*
X100315919Y-85970560D01*
X100259761Y-86131048D01*
X100240726Y-86299997D01*
X90739746Y-86299997D01*
X90784082Y-86229437D01*
X90840237Y-86068954D01*
X90840237Y-86068953D01*
X90840238Y-86068951D01*
X90859274Y-85900002D01*
X90859274Y-85899997D01*
X90840238Y-85731048D01*
X90805246Y-85631048D01*
X90784082Y-85570563D01*
X90693624Y-85426600D01*
X90573400Y-85306376D01*
X90472490Y-85242970D01*
X90429439Y-85215919D01*
X90429438Y-85215918D01*
X90429437Y-85215918D01*
X90390912Y-85202437D01*
X90268951Y-85159761D01*
X90100003Y-85140726D01*
X90099997Y-85140726D01*
X89931048Y-85159761D01*
X89770560Y-85215919D01*
X89626599Y-85306376D01*
X89506376Y-85426599D01*
X89415919Y-85570560D01*
X89359761Y-85731048D01*
X89340726Y-85899997D01*
X89340726Y-85900004D01*
X89352597Y-86005368D01*
X89340542Y-86074190D01*
X89293193Y-86125569D01*
X89225582Y-86143193D01*
X89215497Y-86142472D01*
X89200000Y-86140726D01*
X89199998Y-86140726D01*
X89199997Y-86140726D01*
X89031048Y-86159761D01*
X88870560Y-86215919D01*
X88726599Y-86306376D01*
X88606376Y-86426599D01*
X88515919Y-86570560D01*
X88459761Y-86731048D01*
X88440726Y-86899997D01*
X67967021Y-86899997D01*
X67923400Y-86856376D01*
X67779437Y-86765918D01*
X67740912Y-86752437D01*
X67618951Y-86709761D01*
X67450003Y-86690726D01*
X67449997Y-86690726D01*
X67281048Y-86709761D01*
X67120560Y-86765919D01*
X66976599Y-86856376D01*
X66856376Y-86976599D01*
X66765919Y-87120560D01*
X66709761Y-87281048D01*
X66690726Y-87449997D01*
X65090022Y-87449997D01*
X65088828Y-87448354D01*
X64949646Y-87309172D01*
X64839901Y-87229437D01*
X64790403Y-87193474D01*
X64613787Y-87103485D01*
X64562990Y-87055511D01*
X64546195Y-86987690D01*
X64568732Y-86921555D01*
X64613787Y-86882515D01*
X64790403Y-86792525D01*
X64790402Y-86792525D01*
X64790405Y-86792524D01*
X64949646Y-86676828D01*
X65088828Y-86537646D01*
X65204524Y-86378405D01*
X65293884Y-86203025D01*
X65354709Y-86015826D01*
X65361878Y-85970563D01*
X65385500Y-85821422D01*
X65385500Y-85799997D01*
X85640726Y-85799997D01*
X85640726Y-85800002D01*
X85659761Y-85968951D01*
X85676164Y-86015826D01*
X85715918Y-86129437D01*
X85806376Y-86273400D01*
X85926600Y-86393624D01*
X86070563Y-86484082D01*
X86192521Y-86526756D01*
X86231048Y-86540238D01*
X86399997Y-86559274D01*
X86400000Y-86559274D01*
X86400003Y-86559274D01*
X86568951Y-86540238D01*
X86576356Y-86537647D01*
X86729437Y-86484082D01*
X86873400Y-86393624D01*
X86993624Y-86273400D01*
X87084082Y-86129437D01*
X87140237Y-85968954D01*
X87140237Y-85968953D01*
X87140238Y-85968951D01*
X87159274Y-85800002D01*
X87159274Y-85799997D01*
X87140238Y-85631048D01*
X87108633Y-85540726D01*
X87084082Y-85470563D01*
X86993624Y-85326600D01*
X86873400Y-85206376D01*
X86729437Y-85115918D01*
X86690912Y-85102437D01*
X86568951Y-85059761D01*
X86400003Y-85040726D01*
X86399997Y-85040726D01*
X86231048Y-85059761D01*
X86070560Y-85115919D01*
X85926599Y-85206376D01*
X85806376Y-85326599D01*
X85715919Y-85470560D01*
X85659761Y-85631048D01*
X85640726Y-85799997D01*
X65385500Y-85799997D01*
X65385500Y-85624577D01*
X65354709Y-85430173D01*
X65293882Y-85242970D01*
X65229146Y-85115919D01*
X65204524Y-85067595D01*
X65088828Y-84908354D01*
X64949646Y-84769172D01*
X64870025Y-84711324D01*
X64790403Y-84653474D01*
X64613787Y-84563485D01*
X64562990Y-84515511D01*
X64554443Y-84480997D01*
X69721726Y-84480997D01*
X69721726Y-84481002D01*
X69740761Y-84649951D01*
X69782479Y-84769172D01*
X69796918Y-84810437D01*
X69887376Y-84954400D01*
X70007600Y-85074624D01*
X70151563Y-85165082D01*
X70269575Y-85206376D01*
X70312048Y-85221238D01*
X70480997Y-85240274D01*
X70481000Y-85240274D01*
X70481003Y-85240274D01*
X70649951Y-85221238D01*
X70665152Y-85215919D01*
X70810437Y-85165082D01*
X70954400Y-85074624D01*
X71074624Y-84954400D01*
X71165082Y-84810437D01*
X71221237Y-84649954D01*
X71221237Y-84649953D01*
X71221238Y-84649951D01*
X71240274Y-84481002D01*
X71240274Y-84480997D01*
X71221238Y-84312048D01*
X71200410Y-84252525D01*
X71165082Y-84151563D01*
X71074624Y-84007600D01*
X70954400Y-83887376D01*
X70810437Y-83796918D01*
X70771912Y-83783437D01*
X70649951Y-83740761D01*
X70481003Y-83721726D01*
X70480997Y-83721726D01*
X70312048Y-83740761D01*
X70151560Y-83796919D01*
X70007599Y-83887376D01*
X69887376Y-84007599D01*
X69796919Y-84151560D01*
X69740761Y-84312048D01*
X69721726Y-84480997D01*
X64554443Y-84480997D01*
X64546195Y-84447690D01*
X64568732Y-84381555D01*
X64613787Y-84342515D01*
X64790403Y-84252525D01*
X64790402Y-84252525D01*
X64790405Y-84252524D01*
X64949646Y-84136828D01*
X65088828Y-83997646D01*
X65204524Y-83838405D01*
X65293884Y-83663025D01*
X65354709Y-83475826D01*
X65371636Y-83368954D01*
X65385500Y-83281422D01*
X65385500Y-83199997D01*
X66440726Y-83199997D01*
X66440726Y-83200002D01*
X66459761Y-83368951D01*
X66484706Y-83440238D01*
X66515918Y-83529437D01*
X66606376Y-83673400D01*
X66726600Y-83793624D01*
X66870563Y-83884082D01*
X66992521Y-83926756D01*
X67031048Y-83940238D01*
X67199997Y-83959274D01*
X67200000Y-83959274D01*
X67200003Y-83959274D01*
X67368951Y-83940238D01*
X67368954Y-83940237D01*
X67529437Y-83884082D01*
X67673400Y-83793624D01*
X67793624Y-83673400D01*
X67884082Y-83529437D01*
X67940237Y-83368954D01*
X67940237Y-83368953D01*
X67940238Y-83368951D01*
X67959274Y-83200002D01*
X67959274Y-83199997D01*
X67940238Y-83031048D01*
X67926756Y-82992521D01*
X67884082Y-82870563D01*
X67793624Y-82726600D01*
X67767021Y-82699997D01*
X70540726Y-82699997D01*
X70540726Y-82700002D01*
X70559761Y-82868951D01*
X70615919Y-83029439D01*
X70706376Y-83173400D01*
X70826600Y-83293624D01*
X70970563Y-83384082D01*
X71092521Y-83426756D01*
X71131048Y-83440238D01*
X71299997Y-83459274D01*
X71300000Y-83459274D01*
X71300003Y-83459274D01*
X71468951Y-83440238D01*
X71468954Y-83440237D01*
X71629437Y-83384082D01*
X71773400Y-83293624D01*
X71893624Y-83173400D01*
X71984082Y-83029437D01*
X72040237Y-82868954D01*
X72040237Y-82868953D01*
X72040238Y-82868951D01*
X72059274Y-82700002D01*
X72059274Y-82699997D01*
X72040238Y-82531048D01*
X72008633Y-82440726D01*
X71984082Y-82370563D01*
X71893624Y-82226600D01*
X71773400Y-82106376D01*
X71629437Y-82015918D01*
X71590912Y-82002437D01*
X71468951Y-81959761D01*
X71300003Y-81940726D01*
X71299997Y-81940726D01*
X71131048Y-81959761D01*
X70970560Y-82015919D01*
X70826599Y-82106376D01*
X70706376Y-82226599D01*
X70615919Y-82370560D01*
X70559761Y-82531048D01*
X70540726Y-82699997D01*
X67767021Y-82699997D01*
X67673400Y-82606376D01*
X67529439Y-82515919D01*
X67529438Y-82515918D01*
X67529437Y-82515918D01*
X67490912Y-82502437D01*
X67368951Y-82459761D01*
X67200003Y-82440726D01*
X67199997Y-82440726D01*
X67031048Y-82459761D01*
X66870560Y-82515919D01*
X66726599Y-82606376D01*
X66606376Y-82726599D01*
X66515919Y-82870560D01*
X66459761Y-83031048D01*
X66440726Y-83199997D01*
X65385500Y-83199997D01*
X65385500Y-83084577D01*
X65354709Y-82890173D01*
X65293882Y-82702970D01*
X65204523Y-82527594D01*
X65088828Y-82368354D01*
X64949646Y-82229172D01*
X64870025Y-82171324D01*
X64790403Y-82113474D01*
X64613787Y-82023485D01*
X64562990Y-81975511D01*
X64546195Y-81907690D01*
X64568732Y-81841555D01*
X64613787Y-81802515D01*
X64790403Y-81712525D01*
X64790402Y-81712525D01*
X64790405Y-81712524D01*
X64949646Y-81596828D01*
X65088828Y-81457646D01*
X65204524Y-81298405D01*
X65293884Y-81123025D01*
X65333858Y-80999997D01*
X71440726Y-80999997D01*
X71440726Y-81000002D01*
X71459761Y-81168951D01*
X71502437Y-81290912D01*
X71515918Y-81329437D01*
X71606376Y-81473400D01*
X71726600Y-81593624D01*
X71870563Y-81684082D01*
X71992521Y-81726756D01*
X72031048Y-81740238D01*
X72199997Y-81759274D01*
X72200000Y-81759274D01*
X72200003Y-81759274D01*
X72368951Y-81740238D01*
X72368954Y-81740237D01*
X72529437Y-81684082D01*
X72673400Y-81593624D01*
X72793624Y-81473400D01*
X72884082Y-81329437D01*
X72940237Y-81168954D01*
X72940237Y-81168953D01*
X72940238Y-81168951D01*
X72959274Y-81000002D01*
X72959274Y-80999997D01*
X72940238Y-80831048D01*
X72908876Y-80741422D01*
X72884082Y-80670563D01*
X72793624Y-80526600D01*
X72673400Y-80406376D01*
X72583955Y-80350174D01*
X72529439Y-80315919D01*
X72529438Y-80315918D01*
X72529437Y-80315918D01*
X72465724Y-80293624D01*
X72368951Y-80259761D01*
X72200003Y-80240726D01*
X72199997Y-80240726D01*
X72031048Y-80259761D01*
X71870560Y-80315919D01*
X71726599Y-80406376D01*
X71606376Y-80526599D01*
X71515919Y-80670560D01*
X71459761Y-80831048D01*
X71440726Y-80999997D01*
X65333858Y-80999997D01*
X65354709Y-80935826D01*
X65371304Y-80831048D01*
X65385500Y-80741422D01*
X65385500Y-80544577D01*
X65354709Y-80350173D01*
X65326487Y-80263317D01*
X65293884Y-80162975D01*
X65293882Y-80162972D01*
X65293882Y-80162970D01*
X65204523Y-79987594D01*
X65088828Y-79828354D01*
X64960471Y-79699997D01*
X89540726Y-79699997D01*
X89540726Y-79700002D01*
X89559761Y-79868951D01*
X89601277Y-79987594D01*
X89615918Y-80029437D01*
X89706376Y-80173400D01*
X89826600Y-80293624D01*
X89970563Y-80384082D01*
X90092521Y-80426756D01*
X90131048Y-80440238D01*
X90299997Y-80459274D01*
X90300000Y-80459274D01*
X90300003Y-80459274D01*
X90468951Y-80440238D01*
X90468954Y-80440237D01*
X90629437Y-80384082D01*
X90773400Y-80293624D01*
X90893624Y-80173400D01*
X90984082Y-80029437D01*
X91040237Y-79868954D01*
X91040237Y-79868953D01*
X91040238Y-79868951D01*
X91059274Y-79700002D01*
X91059274Y-79699997D01*
X91040238Y-79531048D01*
X91002532Y-79423291D01*
X90984082Y-79370563D01*
X90893624Y-79226600D01*
X90773400Y-79106376D01*
X90629437Y-79015918D01*
X90590912Y-79002437D01*
X90468951Y-78959761D01*
X90300003Y-78940726D01*
X90299997Y-78940726D01*
X90131048Y-78959761D01*
X89970560Y-79015919D01*
X89826599Y-79106376D01*
X89706376Y-79226599D01*
X89615919Y-79370560D01*
X89559761Y-79531048D01*
X89540726Y-79699997D01*
X64960471Y-79699997D01*
X64949646Y-79689172D01*
X64870025Y-79631324D01*
X64790403Y-79573474D01*
X64613787Y-79483485D01*
X64562990Y-79435511D01*
X64546195Y-79367690D01*
X64568732Y-79301555D01*
X64613787Y-79262515D01*
X64790403Y-79172525D01*
X64790402Y-79172525D01*
X64790405Y-79172524D01*
X64949646Y-79056828D01*
X65088828Y-78917646D01*
X65204524Y-78758405D01*
X65293884Y-78583025D01*
X65354709Y-78395826D01*
X65385500Y-78201422D01*
X65385500Y-78099997D01*
X70740726Y-78099997D01*
X70740726Y-78100002D01*
X70759761Y-78268951D01*
X70802437Y-78390912D01*
X70815918Y-78429437D01*
X70906376Y-78573400D01*
X71026600Y-78693624D01*
X71170563Y-78784082D01*
X71292521Y-78826756D01*
X71331048Y-78840238D01*
X71499997Y-78859274D01*
X71500000Y-78859274D01*
X71500003Y-78859274D01*
X71668951Y-78840238D01*
X71668954Y-78840237D01*
X71829437Y-78784082D01*
X71973400Y-78693624D01*
X72093624Y-78573400D01*
X72184082Y-78429437D01*
X72240237Y-78268954D01*
X72240237Y-78268953D01*
X72240238Y-78268951D01*
X72259274Y-78100002D01*
X72259274Y-78099997D01*
X72240238Y-77931048D01*
X72204683Y-77829439D01*
X72184082Y-77770563D01*
X72093624Y-77626600D01*
X71973400Y-77506376D01*
X71829437Y-77415918D01*
X71754430Y-77389672D01*
X71668951Y-77359761D01*
X71500003Y-77340726D01*
X71499997Y-77340726D01*
X71331048Y-77359761D01*
X71170560Y-77415919D01*
X71026599Y-77506376D01*
X70906376Y-77626599D01*
X70815919Y-77770560D01*
X70759761Y-77931048D01*
X70740726Y-78099997D01*
X65385500Y-78099997D01*
X65385500Y-78004577D01*
X65354709Y-77810173D01*
X65310268Y-77673400D01*
X65293884Y-77622975D01*
X65293882Y-77622972D01*
X65293882Y-77622970D01*
X65231850Y-77501225D01*
X65204524Y-77447595D01*
X65088828Y-77288354D01*
X65000471Y-77199997D01*
X67740726Y-77199997D01*
X67740726Y-77200002D01*
X67759761Y-77368951D01*
X67815919Y-77529439D01*
X67903582Y-77668954D01*
X67906376Y-77673400D01*
X68026600Y-77793624D01*
X68170563Y-77884082D01*
X68292521Y-77926756D01*
X68331048Y-77940238D01*
X68499997Y-77959274D01*
X68500000Y-77959274D01*
X68500003Y-77959274D01*
X68668951Y-77940238D01*
X68668954Y-77940237D01*
X68829437Y-77884082D01*
X68973400Y-77793624D01*
X69093624Y-77673400D01*
X69184082Y-77529437D01*
X69240237Y-77368954D01*
X69240237Y-77368953D01*
X69240238Y-77368951D01*
X69259274Y-77200002D01*
X69259274Y-77199997D01*
X69240238Y-77031048D01*
X69209598Y-76943485D01*
X69184082Y-76870563D01*
X69093624Y-76726600D01*
X68973400Y-76606376D01*
X68868142Y-76540238D01*
X68829439Y-76515919D01*
X68829438Y-76515918D01*
X68829437Y-76515918D01*
X68765724Y-76493624D01*
X68668951Y-76459761D01*
X68500003Y-76440726D01*
X68499997Y-76440726D01*
X68331048Y-76459761D01*
X68170560Y-76515919D01*
X68026599Y-76606376D01*
X67906376Y-76726599D01*
X67815919Y-76870560D01*
X67759761Y-77031048D01*
X67740726Y-77199997D01*
X65000471Y-77199997D01*
X64949646Y-77149172D01*
X64839232Y-77068951D01*
X64790403Y-77033474D01*
X64613787Y-76943485D01*
X64562990Y-76895511D01*
X64546195Y-76827690D01*
X64568732Y-76761555D01*
X64613787Y-76722515D01*
X64790403Y-76632525D01*
X64790402Y-76632525D01*
X64790405Y-76632524D01*
X64949646Y-76516828D01*
X65088828Y-76377646D01*
X65204524Y-76218405D01*
X65293884Y-76043025D01*
X65340357Y-75899997D01*
X71740726Y-75899997D01*
X71740726Y-75900002D01*
X71759761Y-76068951D01*
X71815919Y-76229439D01*
X71843542Y-76273400D01*
X71906376Y-76373400D01*
X72026600Y-76493624D01*
X72170563Y-76584082D01*
X72292521Y-76626756D01*
X72331048Y-76640238D01*
X72499997Y-76659274D01*
X72500000Y-76659274D01*
X72500003Y-76659274D01*
X72668951Y-76640238D01*
X72668954Y-76640237D01*
X72829437Y-76584082D01*
X72834347Y-76580997D01*
X76583726Y-76580997D01*
X76583726Y-76581002D01*
X76602761Y-76749951D01*
X76633680Y-76838310D01*
X76658918Y-76910437D01*
X76749376Y-77054400D01*
X76869600Y-77174624D01*
X77013563Y-77265082D01*
X77088570Y-77291328D01*
X77145345Y-77332048D01*
X77171093Y-77397001D01*
X77157637Y-77465563D01*
X77128297Y-77501225D01*
X77128524Y-77501452D01*
X77126198Y-77503777D01*
X77124941Y-77505306D01*
X77123601Y-77506374D01*
X77003376Y-77626599D01*
X76912919Y-77770560D01*
X76856761Y-77931048D01*
X76837726Y-78099997D01*
X76837726Y-78100002D01*
X76856761Y-78268951D01*
X76899437Y-78390912D01*
X76912918Y-78429437D01*
X77003376Y-78573400D01*
X77123600Y-78693624D01*
X77267563Y-78784082D01*
X77389521Y-78826756D01*
X77428048Y-78840238D01*
X77596997Y-78859274D01*
X77597000Y-78859274D01*
X77597003Y-78859274D01*
X77765951Y-78840238D01*
X77765954Y-78840237D01*
X77926437Y-78784082D01*
X78070400Y-78693624D01*
X78190624Y-78573400D01*
X78281082Y-78429437D01*
X78337237Y-78268954D01*
X78337237Y-78268953D01*
X78337238Y-78268951D01*
X78356274Y-78100002D01*
X78356274Y-78099997D01*
X78337238Y-77931048D01*
X78301683Y-77829439D01*
X78281082Y-77770563D01*
X78190624Y-77626600D01*
X78070400Y-77506376D01*
X77926437Y-77415918D01*
X77851428Y-77389671D01*
X77794653Y-77348950D01*
X77768906Y-77283997D01*
X77782362Y-77215436D01*
X77811704Y-77179776D01*
X77811476Y-77179548D01*
X77813824Y-77177199D01*
X77815074Y-77175681D01*
X77816392Y-77174628D01*
X77816400Y-77174624D01*
X77936624Y-77054400D01*
X78027082Y-76910437D01*
X78083237Y-76749954D01*
X78083237Y-76749953D01*
X78083238Y-76749951D01*
X78102274Y-76581002D01*
X78102274Y-76580997D01*
X78083238Y-76412048D01*
X78058110Y-76340237D01*
X78027082Y-76251563D01*
X77936624Y-76107600D01*
X77816400Y-75987376D01*
X77724191Y-75929437D01*
X77672439Y-75896919D01*
X77672438Y-75896918D01*
X77672437Y-75896918D01*
X77633912Y-75883437D01*
X77511951Y-75840761D01*
X77343003Y-75821726D01*
X77342997Y-75821726D01*
X77174048Y-75840761D01*
X77013560Y-75896919D01*
X76869599Y-75987376D01*
X76749376Y-76107599D01*
X76658919Y-76251560D01*
X76602761Y-76412048D01*
X76583726Y-76580997D01*
X72834347Y-76580997D01*
X72973400Y-76493624D01*
X73093624Y-76373400D01*
X73184082Y-76229437D01*
X73240237Y-76068954D01*
X73240237Y-76068953D01*
X73240238Y-76068951D01*
X73259274Y-75900002D01*
X73259274Y-75899997D01*
X73248007Y-75799997D01*
X93840726Y-75799997D01*
X93840726Y-75800002D01*
X93859761Y-75968951D01*
X93894753Y-76068951D01*
X93915918Y-76129437D01*
X94006376Y-76273400D01*
X94126600Y-76393624D01*
X94270563Y-76484082D01*
X94431046Y-76540237D01*
X94431049Y-76540238D01*
X94464599Y-76544018D01*
X94529014Y-76571084D01*
X94568569Y-76628678D01*
X94570708Y-76698515D01*
X94567759Y-76708190D01*
X94559763Y-76731042D01*
X94559762Y-76731045D01*
X94540726Y-76899997D01*
X94540726Y-76900002D01*
X94559761Y-77068951D01*
X94615919Y-77229439D01*
X94703582Y-77368954D01*
X94706376Y-77373400D01*
X94826600Y-77493624D01*
X94970563Y-77584082D01*
X95081714Y-77622975D01*
X95131048Y-77640238D01*
X95299997Y-77659274D01*
X95300000Y-77659274D01*
X95300003Y-77659274D01*
X95468951Y-77640238D01*
X95468954Y-77640237D01*
X95629437Y-77584082D01*
X95763257Y-77499997D01*
X103240726Y-77499997D01*
X103240726Y-77500002D01*
X103259761Y-77668951D01*
X103295316Y-77770560D01*
X103315918Y-77829437D01*
X103406376Y-77973400D01*
X103526600Y-78093624D01*
X103670563Y-78184082D01*
X103792521Y-78226756D01*
X103831048Y-78240238D01*
X103999997Y-78259274D01*
X104000000Y-78259274D01*
X104000003Y-78259274D01*
X104168951Y-78240238D01*
X104168954Y-78240237D01*
X104329437Y-78184082D01*
X104473400Y-78093624D01*
X104593624Y-77973400D01*
X104684082Y-77829437D01*
X104740237Y-77668954D01*
X104740237Y-77668953D01*
X104740238Y-77668951D01*
X104759274Y-77500002D01*
X104759274Y-77499997D01*
X104740238Y-77331048D01*
X104704683Y-77229439D01*
X104684082Y-77170563D01*
X104593624Y-77026600D01*
X104473400Y-76906376D01*
X104463248Y-76899997D01*
X104329439Y-76815919D01*
X104329438Y-76815918D01*
X104329437Y-76815918D01*
X104290912Y-76802437D01*
X104168951Y-76759761D01*
X104000003Y-76740726D01*
X103999997Y-76740726D01*
X103831048Y-76759761D01*
X103670560Y-76815919D01*
X103526599Y-76906376D01*
X103406376Y-77026599D01*
X103315919Y-77170560D01*
X103259761Y-77331048D01*
X103240726Y-77499997D01*
X95763257Y-77499997D01*
X95773400Y-77493624D01*
X95893624Y-77373400D01*
X95984082Y-77229437D01*
X96040237Y-77068954D01*
X96040237Y-77068953D01*
X96040238Y-77068951D01*
X96059274Y-76900002D01*
X96059274Y-76899997D01*
X96040238Y-76731048D01*
X96008462Y-76640238D01*
X95984082Y-76570563D01*
X95893624Y-76426600D01*
X95773400Y-76306376D01*
X95650956Y-76229439D01*
X95629439Y-76215919D01*
X95629438Y-76215918D01*
X95629437Y-76215918D01*
X95468954Y-76159763D01*
X95468953Y-76159762D01*
X95468951Y-76159762D01*
X95435397Y-76155981D01*
X95370983Y-76128914D01*
X95331429Y-76071318D01*
X95329292Y-76001481D01*
X95332237Y-75991815D01*
X95340237Y-75968954D01*
X95359274Y-75800000D01*
X95343660Y-75661422D01*
X95340238Y-75631048D01*
X95329373Y-75599997D01*
X96640726Y-75599997D01*
X96640726Y-75600002D01*
X96659761Y-75768951D01*
X96715919Y-75929439D01*
X96803582Y-76068954D01*
X96806376Y-76073400D01*
X96926600Y-76193624D01*
X97070563Y-76284082D01*
X97192521Y-76326756D01*
X97231048Y-76340238D01*
X97399997Y-76359274D01*
X97400000Y-76359274D01*
X97400003Y-76359274D01*
X97568951Y-76340238D01*
X97568954Y-76340237D01*
X97729437Y-76284082D01*
X97873400Y-76193624D01*
X97993624Y-76073400D01*
X98084082Y-75929437D01*
X98140237Y-75768954D01*
X98140237Y-75768953D01*
X98140238Y-75768951D01*
X98159274Y-75600002D01*
X98159274Y-75599997D01*
X98140238Y-75431048D01*
X98103690Y-75326600D01*
X98084082Y-75270563D01*
X97993624Y-75126600D01*
X97873400Y-75006376D01*
X97729437Y-74915918D01*
X97690912Y-74902437D01*
X97568951Y-74859761D01*
X97400003Y-74840726D01*
X97399997Y-74840726D01*
X97231048Y-74859761D01*
X97070560Y-74915919D01*
X96926599Y-75006376D01*
X96806376Y-75126599D01*
X96715919Y-75270560D01*
X96659761Y-75431048D01*
X96640726Y-75599997D01*
X95329373Y-75599997D01*
X95319072Y-75570560D01*
X95284082Y-75470563D01*
X95193624Y-75326600D01*
X95073400Y-75206376D01*
X94968142Y-75140238D01*
X94929439Y-75115919D01*
X94929438Y-75115918D01*
X94929437Y-75115918D01*
X94890912Y-75102437D01*
X94768951Y-75059761D01*
X94600003Y-75040726D01*
X94599997Y-75040726D01*
X94431048Y-75059761D01*
X94270560Y-75115919D01*
X94126599Y-75206376D01*
X94006376Y-75326599D01*
X93915919Y-75470560D01*
X93859761Y-75631048D01*
X93840726Y-75799997D01*
X73248007Y-75799997D01*
X73240238Y-75731048D01*
X73226756Y-75692521D01*
X73184082Y-75570563D01*
X73093624Y-75426600D01*
X72973400Y-75306376D01*
X72829437Y-75215918D01*
X72790912Y-75202437D01*
X72668951Y-75159761D01*
X72500003Y-75140726D01*
X72499997Y-75140726D01*
X72331048Y-75159761D01*
X72170560Y-75215919D01*
X72026599Y-75306376D01*
X71906376Y-75426599D01*
X71815919Y-75570560D01*
X71759761Y-75731048D01*
X71740726Y-75899997D01*
X65340357Y-75899997D01*
X65354709Y-75855826D01*
X65363551Y-75800000D01*
X65385500Y-75661422D01*
X65385500Y-75464577D01*
X65354709Y-75270173D01*
X65318675Y-75159274D01*
X65293884Y-75082975D01*
X65293882Y-75082972D01*
X65293882Y-75082970D01*
X65208765Y-74915919D01*
X65204524Y-74907595D01*
X65088828Y-74748354D01*
X64949646Y-74609172D01*
X64870025Y-74551324D01*
X64790403Y-74493474D01*
X64613787Y-74403485D01*
X64610094Y-74399997D01*
X70603726Y-74399997D01*
X70603726Y-74400002D01*
X70622761Y-74568951D01*
X70678919Y-74729439D01*
X70760806Y-74859761D01*
X70769376Y-74873400D01*
X70889600Y-74993624D01*
X71033563Y-75084082D01*
X71124546Y-75115918D01*
X71194048Y-75140238D01*
X71362997Y-75159274D01*
X71363000Y-75159274D01*
X71363003Y-75159274D01*
X71531951Y-75140238D01*
X71531954Y-75140237D01*
X71692437Y-75084082D01*
X71836400Y-74993624D01*
X71956624Y-74873400D01*
X72047082Y-74729437D01*
X72103237Y-74568954D01*
X72103237Y-74568953D01*
X72103238Y-74568951D01*
X72122274Y-74400002D01*
X72122274Y-74399997D01*
X77340726Y-74399997D01*
X77340726Y-74400002D01*
X77359761Y-74568951D01*
X77415919Y-74729439D01*
X77497806Y-74859761D01*
X77506376Y-74873400D01*
X77626600Y-74993624D01*
X77770563Y-75084082D01*
X77861546Y-75115918D01*
X77931048Y-75140238D01*
X78099997Y-75159274D01*
X78100000Y-75159274D01*
X78100003Y-75159274D01*
X78268951Y-75140238D01*
X78268954Y-75140237D01*
X78429437Y-75084082D01*
X78573400Y-74993624D01*
X78693624Y-74873400D01*
X78784082Y-74729437D01*
X78840237Y-74568954D01*
X78840237Y-74568953D01*
X78840238Y-74568951D01*
X78859274Y-74400002D01*
X78859274Y-74399997D01*
X78840238Y-74231048D01*
X78820066Y-74173400D01*
X78784082Y-74070563D01*
X78693624Y-73926600D01*
X78573400Y-73806376D01*
X78458345Y-73734082D01*
X78429439Y-73715919D01*
X78429438Y-73715918D01*
X78429437Y-73715918D01*
X78383937Y-73699997D01*
X78268951Y-73659761D01*
X78100003Y-73640726D01*
X78099997Y-73640726D01*
X77931048Y-73659761D01*
X77770560Y-73715919D01*
X77626599Y-73806376D01*
X77506376Y-73926599D01*
X77415919Y-74070560D01*
X77359761Y-74231048D01*
X77340726Y-74399997D01*
X72122274Y-74399997D01*
X72103238Y-74231048D01*
X72083066Y-74173400D01*
X72047082Y-74070563D01*
X71956624Y-73926600D01*
X71937852Y-73907828D01*
X71904367Y-73846505D01*
X71909351Y-73776813D01*
X71951223Y-73720880D01*
X71959546Y-73715162D01*
X72073400Y-73643624D01*
X72193624Y-73523400D01*
X72284082Y-73379437D01*
X72340237Y-73218954D01*
X72340237Y-73218953D01*
X72340238Y-73218951D01*
X72356458Y-73074997D01*
X87990726Y-73074997D01*
X87990726Y-73075002D01*
X88009761Y-73243951D01*
X88034912Y-73315826D01*
X88065918Y-73404437D01*
X88156376Y-73548400D01*
X88276600Y-73668624D01*
X88420563Y-73759082D01*
X88542521Y-73801756D01*
X88581048Y-73815238D01*
X88749997Y-73834274D01*
X88750000Y-73834274D01*
X88750003Y-73834274D01*
X88918951Y-73815238D01*
X88944277Y-73806376D01*
X89079437Y-73759082D01*
X89173470Y-73699997D01*
X95840726Y-73699997D01*
X95840726Y-73700002D01*
X95859761Y-73868951D01*
X95915919Y-74029439D01*
X95955558Y-74092524D01*
X96006376Y-74173400D01*
X96126600Y-74293624D01*
X96270563Y-74384082D01*
X96392521Y-74426756D01*
X96431048Y-74440238D01*
X96599997Y-74459274D01*
X96600000Y-74459274D01*
X96600003Y-74459274D01*
X96768951Y-74440238D01*
X96768954Y-74440237D01*
X96929437Y-74384082D01*
X97073400Y-74293624D01*
X97193624Y-74173400D01*
X97284082Y-74029437D01*
X97340237Y-73868954D01*
X97340237Y-73868953D01*
X97340238Y-73868951D01*
X97359274Y-73700002D01*
X97359274Y-73699997D01*
X97340238Y-73531048D01*
X97326756Y-73492521D01*
X97284082Y-73370563D01*
X97193624Y-73226600D01*
X97073400Y-73106376D01*
X97023469Y-73075002D01*
X96929439Y-73015919D01*
X96929438Y-73015918D01*
X96929437Y-73015918D01*
X96890912Y-73002437D01*
X96768951Y-72959761D01*
X96600003Y-72940726D01*
X96599997Y-72940726D01*
X96431048Y-72959761D01*
X96270560Y-73015919D01*
X96126599Y-73106376D01*
X96006376Y-73226599D01*
X95915919Y-73370560D01*
X95859761Y-73531048D01*
X95840726Y-73699997D01*
X89173470Y-73699997D01*
X89223400Y-73668624D01*
X89343624Y-73548400D01*
X89434082Y-73404437D01*
X89490237Y-73243954D01*
X89490237Y-73243953D01*
X89490238Y-73243951D01*
X89509274Y-73075002D01*
X89509274Y-73074997D01*
X89490238Y-72906048D01*
X89476756Y-72867521D01*
X89434082Y-72745563D01*
X89343624Y-72601600D01*
X89223400Y-72481376D01*
X89160140Y-72441627D01*
X89079439Y-72390919D01*
X89079438Y-72390918D01*
X89079437Y-72390918D01*
X89029373Y-72373400D01*
X88918951Y-72334761D01*
X88750003Y-72315726D01*
X88749997Y-72315726D01*
X88581048Y-72334761D01*
X88420560Y-72390919D01*
X88276599Y-72481376D01*
X88156376Y-72601599D01*
X88065919Y-72745560D01*
X88009761Y-72906048D01*
X87990726Y-73074997D01*
X72356458Y-73074997D01*
X72359274Y-73050002D01*
X72359274Y-73049997D01*
X72340238Y-72881048D01*
X72318464Y-72818821D01*
X72284082Y-72720563D01*
X72193624Y-72576600D01*
X72073400Y-72456376D01*
X71969226Y-72390919D01*
X71929439Y-72365919D01*
X71929438Y-72365918D01*
X71929437Y-72365918D01*
X71890912Y-72352437D01*
X71768951Y-72309761D01*
X71600003Y-72290726D01*
X71599997Y-72290726D01*
X71431048Y-72309761D01*
X71270560Y-72365919D01*
X71126599Y-72456376D01*
X71006376Y-72576599D01*
X70915919Y-72720560D01*
X70859761Y-72881048D01*
X70840726Y-73049997D01*
X70840726Y-73050002D01*
X70859761Y-73218951D01*
X70915919Y-73379439D01*
X71006376Y-73523400D01*
X71025147Y-73542171D01*
X71058632Y-73603494D01*
X71053648Y-73673186D01*
X71011776Y-73729119D01*
X71003439Y-73734845D01*
X70889601Y-73806374D01*
X70769376Y-73926599D01*
X70678919Y-74070560D01*
X70622761Y-74231048D01*
X70603726Y-74399997D01*
X64610094Y-74399997D01*
X64562990Y-74355511D01*
X64546195Y-74287690D01*
X64568732Y-74221555D01*
X64613787Y-74182515D01*
X64790403Y-74092525D01*
X64790402Y-74092525D01*
X64790405Y-74092524D01*
X64949646Y-73976828D01*
X65088828Y-73837646D01*
X65204524Y-73678405D01*
X65293884Y-73503025D01*
X65354709Y-73315826D01*
X65385500Y-73121422D01*
X65385500Y-72924577D01*
X65354709Y-72730173D01*
X65325487Y-72640237D01*
X65293884Y-72542975D01*
X65293882Y-72542972D01*
X65293882Y-72542970D01*
X65216408Y-72390919D01*
X65204524Y-72367595D01*
X65088828Y-72208354D01*
X64949646Y-72069172D01*
X64870025Y-72011324D01*
X64790403Y-71953474D01*
X64685447Y-71899997D01*
X77040726Y-71899997D01*
X77040726Y-71900002D01*
X77059761Y-72068951D01*
X77102437Y-72190912D01*
X77115918Y-72229437D01*
X77206376Y-72373400D01*
X77326600Y-72493624D01*
X77470563Y-72584082D01*
X77592521Y-72626756D01*
X77631048Y-72640238D01*
X77799997Y-72659274D01*
X77800000Y-72659274D01*
X77800003Y-72659274D01*
X77968951Y-72640238D01*
X77968954Y-72640237D01*
X78129437Y-72584082D01*
X78273400Y-72493624D01*
X78393624Y-72373400D01*
X78484082Y-72229437D01*
X78540237Y-72068954D01*
X78540237Y-72068953D01*
X78540238Y-72068951D01*
X78559274Y-71900002D01*
X78559274Y-71899997D01*
X78540238Y-71731048D01*
X78509038Y-71641884D01*
X78484082Y-71570563D01*
X78393624Y-71426600D01*
X78273400Y-71306376D01*
X78129439Y-71215919D01*
X78129438Y-71215918D01*
X78129437Y-71215918D01*
X78090912Y-71202437D01*
X77972492Y-71161000D01*
X119739769Y-71161000D01*
X119758668Y-71437314D01*
X119758669Y-71437316D01*
X119815014Y-71708469D01*
X119815019Y-71708485D01*
X119907760Y-71969435D01*
X119907763Y-71969441D01*
X119907764Y-71969444D01*
X119907766Y-71969448D01*
X120035186Y-72215356D01*
X120194903Y-72441623D01*
X120383942Y-72644035D01*
X120598782Y-72818821D01*
X120598784Y-72818822D01*
X120598785Y-72818823D01*
X120835423Y-72962725D01*
X120957889Y-73015919D01*
X121089452Y-73073065D01*
X121356141Y-73147788D01*
X121597364Y-73180942D01*
X121630519Y-73185500D01*
X121630520Y-73185500D01*
X121907481Y-73185500D01*
X121937061Y-73181434D01*
X122181859Y-73147788D01*
X122448548Y-73073065D01*
X122702578Y-72962724D01*
X122939218Y-72818821D01*
X123154058Y-72644035D01*
X123343097Y-72441623D01*
X123502814Y-72215356D01*
X123630234Y-71969448D01*
X123635911Y-71953476D01*
X123722980Y-71708485D01*
X123722985Y-71708469D01*
X123755390Y-71552523D01*
X123779331Y-71437314D01*
X123798231Y-71161000D01*
X124819769Y-71161000D01*
X124838668Y-71437314D01*
X124838669Y-71437316D01*
X124895014Y-71708469D01*
X124895019Y-71708485D01*
X124987760Y-71969435D01*
X124987763Y-71969441D01*
X124987764Y-71969444D01*
X124987766Y-71969448D01*
X125115186Y-72215356D01*
X125274903Y-72441623D01*
X125463942Y-72644035D01*
X125678782Y-72818821D01*
X125678784Y-72818822D01*
X125678785Y-72818823D01*
X125915423Y-72962725D01*
X126037889Y-73015919D01*
X126169452Y-73073065D01*
X126436141Y-73147788D01*
X126677364Y-73180942D01*
X126710519Y-73185500D01*
X126710520Y-73185500D01*
X126987481Y-73185500D01*
X127017061Y-73181434D01*
X127261859Y-73147788D01*
X127528548Y-73073065D01*
X127782578Y-72962724D01*
X128019218Y-72818821D01*
X128234058Y-72644035D01*
X128423097Y-72441623D01*
X128582814Y-72215356D01*
X128710234Y-71969448D01*
X128715911Y-71953476D01*
X128802980Y-71708485D01*
X128802985Y-71708469D01*
X128835390Y-71552523D01*
X128859331Y-71437314D01*
X128878231Y-71161000D01*
X134979769Y-71161000D01*
X134998668Y-71437314D01*
X134998669Y-71437316D01*
X135055014Y-71708469D01*
X135055019Y-71708485D01*
X135147760Y-71969435D01*
X135147763Y-71969441D01*
X135147764Y-71969444D01*
X135147766Y-71969448D01*
X135275186Y-72215356D01*
X135434903Y-72441623D01*
X135623942Y-72644035D01*
X135838782Y-72818821D01*
X135838784Y-72818822D01*
X135838785Y-72818823D01*
X136075423Y-72962725D01*
X136197889Y-73015919D01*
X136329452Y-73073065D01*
X136596141Y-73147788D01*
X136837364Y-73180942D01*
X136870519Y-73185500D01*
X136870520Y-73185500D01*
X137147481Y-73185500D01*
X137177061Y-73181434D01*
X137421859Y-73147788D01*
X137688548Y-73073065D01*
X137942578Y-72962724D01*
X138179218Y-72818821D01*
X138394058Y-72644035D01*
X138583097Y-72441623D01*
X138742814Y-72215356D01*
X138870234Y-71969448D01*
X138875911Y-71953476D01*
X138962980Y-71708485D01*
X138962985Y-71708469D01*
X138995390Y-71552523D01*
X139019331Y-71437314D01*
X139038231Y-71161000D01*
X139019331Y-70884686D01*
X138993270Y-70759274D01*
X138962985Y-70613530D01*
X138962980Y-70613514D01*
X138870239Y-70352564D01*
X138870236Y-70352558D01*
X138870234Y-70352552D01*
X138742814Y-70106644D01*
X138583097Y-69880377D01*
X138394058Y-69677965D01*
X138284872Y-69589135D01*
X140064500Y-69589135D01*
X140064500Y-72732870D01*
X140064501Y-72732876D01*
X140070908Y-72792483D01*
X140121202Y-72927328D01*
X140121206Y-72927335D01*
X140207452Y-73042544D01*
X140207455Y-73042547D01*
X140322664Y-73128793D01*
X140322671Y-73128797D01*
X140457517Y-73179091D01*
X140457516Y-73179091D01*
X140464444Y-73179835D01*
X140517127Y-73185500D01*
X143660872Y-73185499D01*
X143720483Y-73179091D01*
X143855331Y-73128796D01*
X143970546Y-73042546D01*
X144056796Y-72927331D01*
X144107091Y-72792483D01*
X144113500Y-72732873D01*
X144113499Y-69589128D01*
X144107091Y-69529517D01*
X144106962Y-69529172D01*
X144056797Y-69394671D01*
X144056793Y-69394664D01*
X143970547Y-69279455D01*
X143970544Y-69279452D01*
X143855335Y-69193206D01*
X143855328Y-69193202D01*
X143720482Y-69142908D01*
X143720483Y-69142908D01*
X143660883Y-69136501D01*
X143660881Y-69136500D01*
X143660873Y-69136500D01*
X143660864Y-69136500D01*
X140517129Y-69136500D01*
X140517123Y-69136501D01*
X140457516Y-69142908D01*
X140322671Y-69193202D01*
X140322664Y-69193206D01*
X140207455Y-69279452D01*
X140207452Y-69279455D01*
X140121206Y-69394664D01*
X140121202Y-69394671D01*
X140070908Y-69529517D01*
X140064501Y-69589116D01*
X140064501Y-69589123D01*
X140064500Y-69589135D01*
X138284872Y-69589135D01*
X138179218Y-69503179D01*
X138179216Y-69503178D01*
X138179214Y-69503176D01*
X137942576Y-69359274D01*
X137688551Y-69248936D01*
X137688549Y-69248935D01*
X137688548Y-69248935D01*
X137612673Y-69227676D01*
X137421864Y-69174213D01*
X137421860Y-69174212D01*
X137421859Y-69174212D01*
X137194110Y-69142909D01*
X137147481Y-69136500D01*
X137147480Y-69136500D01*
X136870520Y-69136500D01*
X136870519Y-69136500D01*
X136596141Y-69174212D01*
X136596135Y-69174213D01*
X136329448Y-69248936D01*
X136075423Y-69359274D01*
X135838785Y-69503176D01*
X135623941Y-69677965D01*
X135434907Y-69880372D01*
X135434904Y-69880374D01*
X135434903Y-69880377D01*
X135371016Y-69970882D01*
X135275186Y-70106643D01*
X135147763Y-70352558D01*
X135147760Y-70352564D01*
X135055019Y-70613514D01*
X135055014Y-70613530D01*
X134998669Y-70884683D01*
X134998668Y-70884685D01*
X134979769Y-71161000D01*
X128878231Y-71161000D01*
X128859331Y-70884686D01*
X128833270Y-70759274D01*
X128802985Y-70613530D01*
X128802980Y-70613514D01*
X128710239Y-70352564D01*
X128710236Y-70352558D01*
X128710234Y-70352552D01*
X128582814Y-70106644D01*
X128423097Y-69880377D01*
X128234058Y-69677965D01*
X128019218Y-69503179D01*
X128019216Y-69503178D01*
X128019214Y-69503176D01*
X127782576Y-69359274D01*
X127528551Y-69248936D01*
X127528549Y-69248935D01*
X127528548Y-69248935D01*
X127452673Y-69227676D01*
X127261864Y-69174213D01*
X127261860Y-69174212D01*
X127261859Y-69174212D01*
X127034110Y-69142909D01*
X126987481Y-69136500D01*
X126987480Y-69136500D01*
X126710520Y-69136500D01*
X126710519Y-69136500D01*
X126436141Y-69174212D01*
X126436135Y-69174213D01*
X126169448Y-69248936D01*
X125915423Y-69359274D01*
X125678785Y-69503176D01*
X125463941Y-69677965D01*
X125274907Y-69880372D01*
X125274904Y-69880374D01*
X125274903Y-69880377D01*
X125211016Y-69970882D01*
X125115186Y-70106643D01*
X124987763Y-70352558D01*
X124987760Y-70352564D01*
X124895019Y-70613514D01*
X124895014Y-70613530D01*
X124838669Y-70884683D01*
X124838668Y-70884685D01*
X124819769Y-71161000D01*
X123798231Y-71161000D01*
X123779331Y-70884686D01*
X123753270Y-70759274D01*
X123722985Y-70613530D01*
X123722980Y-70613514D01*
X123630239Y-70352564D01*
X123630236Y-70352558D01*
X123630234Y-70352552D01*
X123502814Y-70106644D01*
X123343097Y-69880377D01*
X123154058Y-69677965D01*
X122939218Y-69503179D01*
X122939216Y-69503178D01*
X122939214Y-69503176D01*
X122702576Y-69359274D01*
X122448551Y-69248936D01*
X122448549Y-69248935D01*
X122448548Y-69248935D01*
X122372673Y-69227676D01*
X122181864Y-69174213D01*
X122181860Y-69174212D01*
X122181859Y-69174212D01*
X121954110Y-69142909D01*
X121907481Y-69136500D01*
X121907480Y-69136500D01*
X121630520Y-69136500D01*
X121630519Y-69136500D01*
X121356141Y-69174212D01*
X121356135Y-69174213D01*
X121089448Y-69248936D01*
X120835423Y-69359274D01*
X120598785Y-69503176D01*
X120383941Y-69677965D01*
X120194907Y-69880372D01*
X120194904Y-69880374D01*
X120194903Y-69880377D01*
X120131016Y-69970882D01*
X120035186Y-70106643D01*
X119907763Y-70352558D01*
X119907760Y-70352564D01*
X119815019Y-70613514D01*
X119815014Y-70613530D01*
X119758669Y-70884683D01*
X119758668Y-70884685D01*
X119739769Y-71161000D01*
X77972492Y-71161000D01*
X77968951Y-71159761D01*
X77800003Y-71140726D01*
X77799997Y-71140726D01*
X77631048Y-71159761D01*
X77470560Y-71215919D01*
X77326599Y-71306376D01*
X77206376Y-71426599D01*
X77115919Y-71570560D01*
X77059761Y-71731048D01*
X77040726Y-71899997D01*
X64685447Y-71899997D01*
X64613787Y-71863485D01*
X64562990Y-71815511D01*
X64546195Y-71747690D01*
X64568732Y-71681555D01*
X64613787Y-71642515D01*
X64790403Y-71552525D01*
X64790402Y-71552525D01*
X64790405Y-71552524D01*
X64949646Y-71436828D01*
X65088828Y-71297646D01*
X65204524Y-71138405D01*
X65293884Y-70963025D01*
X65354709Y-70775826D01*
X65369240Y-70684080D01*
X65385500Y-70581422D01*
X65385500Y-70384577D01*
X65354709Y-70190173D01*
X65312177Y-70059274D01*
X65293884Y-70002975D01*
X65293882Y-70002972D01*
X65293882Y-70002970D01*
X65292367Y-69999997D01*
X103340726Y-69999997D01*
X103340726Y-70000002D01*
X103359761Y-70168951D01*
X103415919Y-70329439D01*
X103506376Y-70473400D01*
X103626600Y-70593624D01*
X103770563Y-70684082D01*
X103892521Y-70726756D01*
X103931048Y-70740238D01*
X104099997Y-70759274D01*
X104100000Y-70759274D01*
X104100003Y-70759274D01*
X104268951Y-70740238D01*
X104268954Y-70740237D01*
X104429437Y-70684082D01*
X104573400Y-70593624D01*
X104693624Y-70473400D01*
X104784082Y-70329437D01*
X104840237Y-70168954D01*
X104840237Y-70168953D01*
X104840238Y-70168951D01*
X104859274Y-70000002D01*
X104859274Y-69999997D01*
X104840238Y-69831048D01*
X104820066Y-69773400D01*
X104784082Y-69670563D01*
X104693624Y-69526600D01*
X104573400Y-69406376D01*
X104554768Y-69394669D01*
X104429439Y-69315919D01*
X104429438Y-69315918D01*
X104429437Y-69315918D01*
X104383937Y-69299997D01*
X112340726Y-69299997D01*
X112340726Y-69300002D01*
X112359761Y-69468951D01*
X112401809Y-69589116D01*
X112415918Y-69629437D01*
X112506376Y-69773400D01*
X112626600Y-69893624D01*
X112770563Y-69984082D01*
X112892521Y-70026756D01*
X112931048Y-70040238D01*
X113099997Y-70059274D01*
X113100000Y-70059274D01*
X113100003Y-70059274D01*
X113268951Y-70040238D01*
X113268954Y-70040237D01*
X113429437Y-69984082D01*
X113573400Y-69893624D01*
X113693624Y-69773400D01*
X113784082Y-69629437D01*
X113840237Y-69468954D01*
X113840237Y-69468953D01*
X113840238Y-69468951D01*
X113859274Y-69300002D01*
X113859274Y-69299997D01*
X113840238Y-69131048D01*
X113826756Y-69092521D01*
X113784082Y-68970563D01*
X113693624Y-68826600D01*
X113573400Y-68706376D01*
X113429437Y-68615918D01*
X113390912Y-68602437D01*
X113268951Y-68559761D01*
X113100003Y-68540726D01*
X113099997Y-68540726D01*
X112931048Y-68559761D01*
X112770560Y-68615919D01*
X112626599Y-68706376D01*
X112506376Y-68826599D01*
X112415919Y-68970560D01*
X112359761Y-69131048D01*
X112340726Y-69299997D01*
X104383937Y-69299997D01*
X104268951Y-69259761D01*
X104100003Y-69240726D01*
X104099997Y-69240726D01*
X103931048Y-69259761D01*
X103770560Y-69315919D01*
X103626599Y-69406376D01*
X103506376Y-69526599D01*
X103415919Y-69670560D01*
X103359761Y-69831048D01*
X103340726Y-69999997D01*
X65292367Y-69999997D01*
X65238167Y-69893623D01*
X65204524Y-69827595D01*
X65088828Y-69668354D01*
X64949646Y-69529172D01*
X64790405Y-69413476D01*
X64615029Y-69324117D01*
X64427826Y-69263290D01*
X64233422Y-69232500D01*
X64233417Y-69232500D01*
X62536583Y-69232500D01*
X62536578Y-69232500D01*
X62342173Y-69263290D01*
X62154970Y-69324117D01*
X61979594Y-69413476D01*
X61888741Y-69479485D01*
X61820354Y-69529172D01*
X61820352Y-69529174D01*
X61820351Y-69529174D01*
X61681174Y-69668351D01*
X61681174Y-69668352D01*
X61681172Y-69668354D01*
X61631485Y-69736741D01*
X61565476Y-69827594D01*
X61476117Y-70002970D01*
X61415290Y-70190173D01*
X61384500Y-70384577D01*
X54309500Y-70384577D01*
X54309500Y-65304577D01*
X61384500Y-65304577D01*
X61384500Y-65501422D01*
X61415290Y-65695826D01*
X61476117Y-65883029D01*
X61540651Y-66009683D01*
X61565476Y-66058405D01*
X61681172Y-66217646D01*
X61820354Y-66356828D01*
X61979595Y-66472524D01*
X62062455Y-66514743D01*
X62154970Y-66561882D01*
X62154972Y-66561882D01*
X62154975Y-66561884D01*
X62255317Y-66594487D01*
X62342173Y-66622709D01*
X62536578Y-66653500D01*
X62536583Y-66653500D01*
X64233422Y-66653500D01*
X64427826Y-66622709D01*
X64615025Y-66561884D01*
X64790405Y-66472524D01*
X64949646Y-66356828D01*
X65088828Y-66217646D01*
X65174305Y-66099997D01*
X78940726Y-66099997D01*
X78940726Y-66100002D01*
X78959761Y-66268951D01*
X78990510Y-66356825D01*
X79015918Y-66429437D01*
X79106376Y-66573400D01*
X79226600Y-66693624D01*
X79370563Y-66784082D01*
X79492521Y-66826756D01*
X79531048Y-66840238D01*
X79699997Y-66859274D01*
X79700000Y-66859274D01*
X79700003Y-66859274D01*
X79868951Y-66840238D01*
X79868954Y-66840237D01*
X80029437Y-66784082D01*
X80173400Y-66693624D01*
X80293624Y-66573400D01*
X80384082Y-66429437D01*
X80440237Y-66268954D01*
X80440237Y-66268953D01*
X80440238Y-66268951D01*
X80459274Y-66100002D01*
X80459274Y-66099997D01*
X80440238Y-65931048D01*
X80423434Y-65883025D01*
X80384082Y-65770563D01*
X80293624Y-65626600D01*
X80173400Y-65506376D01*
X80029437Y-65415918D01*
X79990912Y-65402437D01*
X79912499Y-65374999D01*
X95789357Y-65374999D01*
X95789357Y-65375000D01*
X95809884Y-65596535D01*
X95809885Y-65596537D01*
X95870769Y-65810523D01*
X95870775Y-65810538D01*
X95969938Y-66009683D01*
X95969943Y-66009691D01*
X96104020Y-66187238D01*
X96268437Y-66337123D01*
X96268439Y-66337125D01*
X96457595Y-66454245D01*
X96457596Y-66454245D01*
X96457599Y-66454247D01*
X96665060Y-66534618D01*
X96883757Y-66575500D01*
X96883759Y-66575500D01*
X97106241Y-66575500D01*
X97106243Y-66575500D01*
X97324940Y-66534618D01*
X97532401Y-66454247D01*
X97721562Y-66337124D01*
X97885981Y-66187236D01*
X98020058Y-66009689D01*
X98119229Y-65810528D01*
X98180115Y-65596536D01*
X98200643Y-65375000D01*
X98200643Y-65374999D01*
X100869357Y-65374999D01*
X100869357Y-65375000D01*
X100889884Y-65596535D01*
X100889885Y-65596537D01*
X100950769Y-65810523D01*
X100950775Y-65810538D01*
X101049938Y-66009683D01*
X101049943Y-66009691D01*
X101184020Y-66187238D01*
X101348437Y-66337123D01*
X101348439Y-66337125D01*
X101537595Y-66454245D01*
X101537596Y-66454245D01*
X101537599Y-66454247D01*
X101745060Y-66534618D01*
X101963757Y-66575500D01*
X101963759Y-66575500D01*
X102186241Y-66575500D01*
X102186243Y-66575500D01*
X102404940Y-66534618D01*
X102612401Y-66454247D01*
X102801562Y-66337124D01*
X102965981Y-66187236D01*
X103100058Y-66009689D01*
X103199229Y-65810528D01*
X103260115Y-65596536D01*
X103280643Y-65375000D01*
X103274117Y-65304577D01*
X103260115Y-65153464D01*
X103260114Y-65153462D01*
X103247797Y-65110173D01*
X103199229Y-64939472D01*
X103199224Y-64939461D01*
X103100061Y-64740316D01*
X103100056Y-64740308D01*
X102965979Y-64562761D01*
X102801562Y-64412876D01*
X102801560Y-64412874D01*
X102612404Y-64295754D01*
X102612398Y-64295752D01*
X102404940Y-64215382D01*
X102186243Y-64174500D01*
X101963757Y-64174500D01*
X101745060Y-64215382D01*
X101670887Y-64244117D01*
X101537601Y-64295752D01*
X101537595Y-64295754D01*
X101348439Y-64412874D01*
X101348437Y-64412876D01*
X101184020Y-64562761D01*
X101049943Y-64740308D01*
X101049938Y-64740316D01*
X100950775Y-64939461D01*
X100950769Y-64939476D01*
X100889885Y-65153462D01*
X100889884Y-65153464D01*
X100869357Y-65374999D01*
X98200643Y-65374999D01*
X98194117Y-65304577D01*
X98180115Y-65153464D01*
X98180114Y-65153462D01*
X98167797Y-65110173D01*
X98119229Y-64939472D01*
X98119224Y-64939461D01*
X98020061Y-64740316D01*
X98020056Y-64740308D01*
X97885979Y-64562761D01*
X97721562Y-64412876D01*
X97721560Y-64412874D01*
X97532404Y-64295754D01*
X97532398Y-64295752D01*
X97324940Y-64215382D01*
X97106243Y-64174500D01*
X96883757Y-64174500D01*
X96665060Y-64215382D01*
X96590887Y-64244117D01*
X96457601Y-64295752D01*
X96457595Y-64295754D01*
X96268439Y-64412874D01*
X96268437Y-64412876D01*
X96104020Y-64562761D01*
X95969943Y-64740308D01*
X95969938Y-64740316D01*
X95870775Y-64939461D01*
X95870769Y-64939476D01*
X95809885Y-65153462D01*
X95809884Y-65153464D01*
X95789357Y-65374999D01*
X79912499Y-65374999D01*
X79868951Y-65359761D01*
X79700003Y-65340726D01*
X79699997Y-65340726D01*
X79531048Y-65359761D01*
X79370560Y-65415919D01*
X79226599Y-65506376D01*
X79106376Y-65626599D01*
X79015919Y-65770560D01*
X78959761Y-65931048D01*
X78940726Y-66099997D01*
X65174305Y-66099997D01*
X65204524Y-66058405D01*
X65293884Y-65883025D01*
X65354709Y-65695826D01*
X65365673Y-65626600D01*
X65385500Y-65501422D01*
X65385500Y-65304577D01*
X65354709Y-65110173D01*
X65326487Y-65023317D01*
X65293884Y-64922975D01*
X65293882Y-64922972D01*
X65293882Y-64922970D01*
X65204523Y-64747594D01*
X65199232Y-64740311D01*
X65088828Y-64588354D01*
X64949646Y-64449172D01*
X64790405Y-64333476D01*
X64615029Y-64244117D01*
X64427826Y-64183290D01*
X64233422Y-64152500D01*
X64233417Y-64152500D01*
X62536583Y-64152500D01*
X62536578Y-64152500D01*
X62342173Y-64183290D01*
X62154970Y-64244117D01*
X61979594Y-64333476D01*
X61888741Y-64399485D01*
X61820354Y-64449172D01*
X61820352Y-64449174D01*
X61820351Y-64449174D01*
X61681174Y-64588351D01*
X61681174Y-64588352D01*
X61681172Y-64588354D01*
X61631485Y-64656741D01*
X61565476Y-64747594D01*
X61476117Y-64922970D01*
X61415290Y-65110173D01*
X61384500Y-65304577D01*
X54309500Y-65304577D01*
X54309500Y-61874999D01*
X95689357Y-61874999D01*
X95689357Y-61875000D01*
X95709884Y-62096535D01*
X95709885Y-62096537D01*
X95770769Y-62310523D01*
X95770775Y-62310538D01*
X95869938Y-62509683D01*
X95869943Y-62509691D01*
X96004020Y-62687238D01*
X96168437Y-62837123D01*
X96168439Y-62837125D01*
X96357595Y-62954245D01*
X96357596Y-62954245D01*
X96357599Y-62954247D01*
X96565060Y-63034618D01*
X96783757Y-63075500D01*
X96783759Y-63075500D01*
X97006241Y-63075500D01*
X97006243Y-63075500D01*
X97224940Y-63034618D01*
X97432401Y-62954247D01*
X97621562Y-62837124D01*
X97785981Y-62687236D01*
X97920058Y-62509689D01*
X98019229Y-62310528D01*
X98080115Y-62096536D01*
X98100643Y-61875000D01*
X98080115Y-61653464D01*
X98019229Y-61439472D01*
X98019224Y-61439461D01*
X97920061Y-61240316D01*
X97920056Y-61240308D01*
X97785979Y-61062761D01*
X97621562Y-60912876D01*
X97621560Y-60912874D01*
X97432404Y-60795754D01*
X97432398Y-60795752D01*
X97224940Y-60715382D01*
X97006243Y-60674500D01*
X96783757Y-60674500D01*
X96565060Y-60715382D01*
X96433864Y-60766207D01*
X96357601Y-60795752D01*
X96357595Y-60795754D01*
X96168439Y-60912874D01*
X96168437Y-60912876D01*
X96004020Y-61062761D01*
X95869943Y-61240308D01*
X95869938Y-61240316D01*
X95770775Y-61439461D01*
X95770769Y-61439476D01*
X95709885Y-61653462D01*
X95709884Y-61653464D01*
X95689357Y-61874999D01*
X54309500Y-61874999D01*
X54309500Y-55069999D01*
X113649341Y-55069999D01*
X113649341Y-55070000D01*
X113669936Y-55305403D01*
X113669938Y-55305413D01*
X113731094Y-55533655D01*
X113731096Y-55533659D01*
X113731097Y-55533663D01*
X113815499Y-55714663D01*
X113830965Y-55747830D01*
X113830967Y-55747834D01*
X113939281Y-55902521D01*
X113966505Y-55941401D01*
X114133599Y-56108495D01*
X114230384Y-56176265D01*
X114327165Y-56244032D01*
X114327167Y-56244033D01*
X114327170Y-56244035D01*
X114541337Y-56343903D01*
X114769592Y-56405063D01*
X114946034Y-56420500D01*
X115004999Y-56425659D01*
X115005000Y-56425659D01*
X115005001Y-56425659D01*
X115063966Y-56420500D01*
X115240408Y-56405063D01*
X115468663Y-56343903D01*
X115682830Y-56244035D01*
X115876401Y-56108495D01*
X115998329Y-55986566D01*
X116059648Y-55953084D01*
X116129340Y-55958068D01*
X116185274Y-55999939D01*
X116202189Y-56030917D01*
X116251202Y-56162328D01*
X116251206Y-56162335D01*
X116337452Y-56277544D01*
X116337455Y-56277547D01*
X116452664Y-56363793D01*
X116452671Y-56363797D01*
X116587517Y-56414091D01*
X116587516Y-56414091D01*
X116594444Y-56414835D01*
X116647127Y-56420500D01*
X118442872Y-56420499D01*
X118502483Y-56414091D01*
X118637331Y-56363796D01*
X118752546Y-56277546D01*
X118838796Y-56162331D01*
X118889091Y-56027483D01*
X118895500Y-55967873D01*
X118895499Y-54172128D01*
X118889091Y-54112517D01*
X118887810Y-54109083D01*
X118838797Y-53977671D01*
X118838793Y-53977664D01*
X118752547Y-53862455D01*
X118752544Y-53862452D01*
X118637335Y-53776206D01*
X118637328Y-53776202D01*
X118502482Y-53725908D01*
X118502483Y-53725908D01*
X118442883Y-53719501D01*
X118442881Y-53719500D01*
X118442873Y-53719500D01*
X118442864Y-53719500D01*
X116647129Y-53719500D01*
X116647123Y-53719501D01*
X116587516Y-53725908D01*
X116452671Y-53776202D01*
X116452664Y-53776206D01*
X116337455Y-53862452D01*
X116337452Y-53862455D01*
X116251206Y-53977664D01*
X116251203Y-53977669D01*
X116202189Y-54109083D01*
X116160317Y-54165016D01*
X116094853Y-54189433D01*
X116026580Y-54174581D01*
X115998326Y-54153430D01*
X115876402Y-54031506D01*
X115876395Y-54031501D01*
X115682834Y-53895967D01*
X115682830Y-53895965D01*
X115682828Y-53895964D01*
X115468663Y-53796097D01*
X115468659Y-53796096D01*
X115468655Y-53796094D01*
X115240413Y-53734938D01*
X115240403Y-53734936D01*
X115005001Y-53714341D01*
X115004999Y-53714341D01*
X114769596Y-53734936D01*
X114769586Y-53734938D01*
X114541344Y-53796094D01*
X114541335Y-53796098D01*
X114327171Y-53895964D01*
X114327169Y-53895965D01*
X114133597Y-54031505D01*
X113966505Y-54198597D01*
X113830965Y-54392169D01*
X113830964Y-54392171D01*
X113731098Y-54606335D01*
X113731094Y-54606344D01*
X113669938Y-54834586D01*
X113669936Y-54834596D01*
X113649341Y-55069999D01*
X54309500Y-55069999D01*
X54309500Y-52899997D01*
X73640726Y-52899997D01*
X73640726Y-52900002D01*
X73659761Y-53068951D01*
X73702437Y-53190912D01*
X73715918Y-53229437D01*
X73806376Y-53373400D01*
X73926600Y-53493624D01*
X74070563Y-53584082D01*
X74192521Y-53626756D01*
X74231048Y-53640238D01*
X74399997Y-53659274D01*
X74400000Y-53659274D01*
X74400003Y-53659274D01*
X74568951Y-53640238D01*
X74568954Y-53640237D01*
X74729437Y-53584082D01*
X74873400Y-53493624D01*
X74993624Y-53373400D01*
X75084082Y-53229437D01*
X75140237Y-53068954D01*
X75140237Y-53068953D01*
X75140238Y-53068951D01*
X75159274Y-52900002D01*
X75159274Y-52899997D01*
X75140238Y-52731048D01*
X75126756Y-52692521D01*
X75084082Y-52570563D01*
X74993624Y-52426600D01*
X74873400Y-52306376D01*
X74729437Y-52215918D01*
X74690912Y-52202437D01*
X74568951Y-52159761D01*
X74400003Y-52140726D01*
X74399997Y-52140726D01*
X74231048Y-52159761D01*
X74070560Y-52215919D01*
X73926599Y-52306376D01*
X73806376Y-52426599D01*
X73715919Y-52570560D01*
X73659761Y-52731048D01*
X73640726Y-52899997D01*
X54309500Y-52899997D01*
X54309500Y-51699997D01*
X67140726Y-51699997D01*
X67140726Y-51700002D01*
X67159761Y-51868951D01*
X67215919Y-52029439D01*
X67297806Y-52159761D01*
X67306376Y-52173400D01*
X67426600Y-52293624D01*
X67570563Y-52384082D01*
X67692071Y-52426599D01*
X67731048Y-52440238D01*
X67899997Y-52459274D01*
X67900000Y-52459274D01*
X67900003Y-52459274D01*
X68068951Y-52440238D01*
X68068954Y-52440237D01*
X68229437Y-52384082D01*
X68373400Y-52293624D01*
X68493624Y-52173400D01*
X68584082Y-52029437D01*
X68640237Y-51868954D01*
X68640237Y-51868953D01*
X68640238Y-51868951D01*
X68659274Y-51700002D01*
X68659274Y-51699997D01*
X68640238Y-51531048D01*
X68626756Y-51492521D01*
X68584082Y-51370563D01*
X68493624Y-51226600D01*
X68373400Y-51106376D01*
X68229437Y-51015918D01*
X68190912Y-51002437D01*
X68068951Y-50959761D01*
X67900003Y-50940726D01*
X67899997Y-50940726D01*
X67731048Y-50959761D01*
X67570560Y-51015919D01*
X67426599Y-51106376D01*
X67306376Y-51226599D01*
X67215919Y-51370560D01*
X67159761Y-51531048D01*
X67140726Y-51699997D01*
X54309500Y-51699997D01*
X54309500Y-49021500D01*
X54329185Y-48954461D01*
X54381989Y-48908706D01*
X54433500Y-48897500D01*
X153260500Y-48897500D01*
X153327539Y-48917185D01*
G37*
%TD.AperFunction*%
%TD*%
M02*
